<svg xmlns="http://www.w3.org/2000/svg" version="1.1" xmlns:xlink="http://www.w3.org/1999/xlink" width="60" height="60" x="0" y="0" viewBox="0 0 512 512" style="enable-background:new 0 0 512 512" xml:space="preserve" class=""><g><g fill-rule="evenodd" clip-rule="evenodd"><path fill="#685e68" d="M116.748 51.155h21.954c5.5 0 10 4.5 10 10v62.41c0 5.5-4.5 9.999-10 9.999h-21.954c-5.5 0-10-4.5-10-9.999v-62.41c.001-5.5 4.5-10 10-10z" opacity="1" data-original="#685e68"></path><path fill="#544854" d="M116.748 51.155h12.306c-5.5 0-10 4.5-10 10v62.41c0 5.5 4.5 9.999 10 9.999h-12.306c-5.5 0-10-4.5-10-9.999v-62.41c.001-5.5 4.5-10 10-10z" opacity="1" data-original="#544854"></path><path fill="#837683" d="M451.806 162.172v286.292h28.708c4.406 0 8 3.594 8 8v23.753c0 4.406-3.594 8-8 8H31.486c-4.406 0-8-3.594-8-8v-23.753c0-4.406 3.594-8 8-8h28.708V162.172H27.123c-1.375 0-2.538-.891-2.896-2.219s.2-2.683 1.388-3.374l226.362-131.68c2.555-1.486 5.49-1.486 8.045 0L486.385 156.58c1.189.691 1.746 2.046 1.388 3.374s-1.521 2.219-2.896 2.219h-33.071z" opacity="1" data-original="#837683"></path><path fill="#685e68" d="M451.806 162.172v286.292h-20.001V162.172zm8.707 286.292h20.001c4.406 0 8 3.594 8 8v23.753c0 4.406-3.594 8-8 8h-20.001c4.406 0 8-3.594 8-8v-23.753c0-4.406-3.593-8-8-8zM246 28.376l220.385 128.203c1.189.691 1.746 2.046 1.388 3.374s-1.521 2.219-2.896 2.219h20.001c1.375 0 2.538-.891 2.896-2.219s-.199-2.683-1.388-3.374L260.023 24.899c-2.555-1.486-5.49-1.486-8.045 0z" opacity="1" data-original="#685e68"></path><circle cx="256" cy="285.388" r="151.894" fill="#eceff1" opacity="1" data-original="#eceff1"></circle><path fill="#d1d1d6" d="M256 133.494c2.523 0 5.032.065 7.524.186-80.393 3.922-144.37 70.342-144.37 151.707s63.977 147.785 144.37 151.707c-2.493.122-5.001.187-7.524.187-83.888 0-151.894-68.005-151.894-151.894 0-83.888 68.005-151.893 151.894-151.893z" opacity="1" data-original="#d1d1d6"></path><path fill="#ffe177" d="M256 205.471c38.487 0 69.976 31.489 69.976 69.976v50.876H186.023v-50.876c0-38.487 31.49-69.976 69.977-69.976z" opacity="1" data-original="#ffe177" class=""></path><path fill="#ffd064" d="M256 205.471c38.487 0 69.976 31.489 69.976 69.976v50.876h-10v-50.876c0-36.806-28.8-67.209-64.976-69.794a70.156 70.156 0 0 1 5-.182z" opacity="1" data-original="#ffd064"></path><path fill="#ffd064" d="M165.897 320.129h180.206l-10 32.614H175.897z" opacity="1" data-original="#ffd064"></path><path fill="#ffc338" d="M165.897 320.129h180.206l-3.067 10.001H168.963z" opacity="1" data-original="#ffc338"></path><path fill="#ffc338" d="M341.687 256.496c8.286.939 14.353 8.556 13.414 16.843l-8.194 72.305a7.97 7.97 0 0 1-7.949 7.099h-16.783c-1.771 0-3.295-.682-4.475-2.003s-1.686-2.912-1.487-4.672l8.63-76.158c.944-8.32 8.524-14.356 16.844-13.414z" opacity="1" data-original="#ffc338"></path><path fill="#f5b829" d="M341.687 256.496a15.04 15.04 0 0 1 3.291.755c-5.347 1.876-9.456 6.677-10.133 12.659l-8.63 76.158c-.199 1.76.307 3.351 1.486 4.672 1.18 1.321 2.704 2.003 4.475 2.003h-10c-1.771 0-3.295-.682-4.475-2.003s-1.686-2.912-1.487-4.672l8.63-76.158c.943-8.32 8.523-14.356 16.843-13.414z" opacity="1" data-original="#f5b829"></path><path fill="#ffc338" d="M170.313 256.496c-8.287.939-14.353 8.556-13.414 16.843l8.194 72.305a7.97 7.97 0 0 0 7.949 7.099h16.783c1.771 0 3.295-.682 4.475-2.003 1.179-1.321 1.686-2.912 1.486-4.672l-8.63-76.158c-.943-8.32-8.523-14.356-16.843-13.414z" opacity="1" data-original="#ffc338"></path><path fill="#f5b829" d="M170.313 256.496c-1.144.13-2.244.387-3.291.755 5.347 1.876 9.455 6.677 10.133 12.659l8.63 76.158c.199 1.76-.307 3.351-1.486 4.672-1.18 1.321-2.704 2.003-4.475 2.003h10c1.771 0 3.295-.682 4.475-2.003 1.179-1.321 1.686-2.912 1.486-4.672l-8.63-76.158c-.942-8.32-8.522-14.356-16.842-13.414z" opacity="1" data-original="#f5b829"></path><path d="M340.784 265.057c1.886.212 3.595 1.172 4.812 2.702s1.769 3.408 1.556 5.29l-8.193 72.312h-14.544l8.379-73.94c.448-3.954 4.037-6.812 7.99-6.364zm-175.936 7.992c-.441-3.892 2.475-7.55 6.367-7.992 3.959-.438 7.542 2.41 7.991 6.364l8.379 73.94h-14.544zm38.839 72.312-1.883-16.625h108.39l-1.883 16.625zM256 214.077c30.81 0 56.906 22.72 61.313 53.07-.18.81-.322 1.633-.417 2.471l-4.887 43.12H199.991l-4.887-43.12a23.415 23.415 0 0 0-.417-2.471c4.407-30.35 30.503-53.07 61.313-53.07zm0-15.999c-34.026 0-63.48 22.028-73.925 53.23a23.146 23.146 0 0 0-12.661-2.151h-.002c-12.725 1.44-21.904 12.972-20.462 25.69l8.998 79.41a8.003 8.003 0 0 0 7.948 7.103h7.323v4.556c0 4.425 3.582 8.002 8 8.002a8 8 0 0 0 8.002-8.002v-4.556H322.78v4.556c0 4.425 3.582 8.002 8 8.002s8-3.577 8-8.002v-4.556h7.324a8.002 8.002 0 0 0 7.948-7.103l8.998-79.41c.695-6.128-1.059-12.191-4.938-17.058-3.88-4.872-9.393-7.931-15.524-8.632h-.002a23.067 23.067 0 0 0-12.662 2.151c-10.449-31.211-39.9-53.23-73.924-53.23zm143.894 87.919c0-79.339-64.552-143.889-143.894-143.889s-143.895 64.55-143.895 143.889S176.657 429.896 256 429.896c79.342 0 143.894-64.559 143.894-143.899zm-303.788 0c0 88.17 71.728 159.903 159.894 159.903s159.894-71.733 159.894-159.902S344.166 126.11 256 126.11 96.106 197.828 96.106 285.997zm355.7-131.208h14.533L256 32.429 45.663 154.789h14.53a8 8 0 0 1 8 8.002v286.286a8 8 0 0 1-8 8.002H31.487v23.751h449.025v-23.751h-28.706a8 8 0 0 1-8-8.002V162.79a8 8 0 0 1 8-8.001zM114.749 59.771h25.954V80.99l-25.954 15.1zm385.273 96.096-240-139.611a8.005 8.005 0 0 0-8.044 0l-95.275 55.423v-19.91a8 8 0 0 0-8-8.002H106.75a8 8 0 0 0-8 8.002v53.621l-86.772 50.477a8.005 8.005 0 0 0 4.023 14.921h36.193v270.287H23.485a8 8 0 0 0-8 8.002v39.75a8 8 0 0 0 8 8.002h465.028a8.001 8.001 0 0 0 8.002-8.002v-39.75a8.002 8.002 0 0 0-8.002-8.002h-28.708V170.788h36.192a7.999 7.999 0 0 0 7.724-5.921 7.996 7.996 0 0 0-3.699-9z" fill="#000000" opacity="1" data-original="#000000"></path></g></g></svg>