<svg width="150" height="150" viewBox="0 0 150 150" fill="none" xmlns="http://www.w3.org/2000/svg">
<path d="M120.729 36.9907C120.509 37.0207 117.019 37.3407 107.379 35.6507C97.3993 33.9007 86.7393 27.8207 82.9693 25.1207C79.1893 22.4207 75.0093 17.9707 75.0093 17.9707C75.0093 17.9707 70.8293 22.4307 67.0493 25.1207C63.2693 27.8207 52.6093 33.8907 42.6293 35.6507C32.6493 37.4007 29.2793 36.9907 29.2793 36.9907V81.5207C29.2793 81.5207 29.5693 92.2507 32.2593 96.9707C33.5593 99.2407 41.1493 108.851 53.0293 115.821C67.0593 124.051 75.0193 126.041 75.0193 126.041C75.0193 126.041 82.9693 124.051 96.9993 115.821C108.879 108.851 116.469 99.2407 117.769 96.9707C120.469 92.2507 120.759 81.5207 120.759 81.5207V36.9907H120.729ZM35.1793 71.7607V41.5207C35.1793 41.5207 38.1093 41.8707 46.7993 40.3507C55.4993 38.8307 64.7693 33.5407 68.0593 31.1907C71.3493 28.8507 74.9893 24.9707 74.9893 24.9707C74.9893 24.9707 78.6293 28.8507 81.9093 31.1907C85.1993 33.5407 94.4693 38.8307 103.169 40.3507C111.859 41.8707 114.799 41.5207 114.799 41.5207V71.8107L113.719 89.3407C113.349 91.0107 112.849 92.5807 112.199 93.7307C111.069 95.7007 104.469 104.071 94.1193 110.141C81.9093 117.311 74.9793 119.051 74.9793 119.051C74.9793 119.051 68.0493 117.321 55.8293 110.141C45.4893 104.071 38.8793 95.7007 37.7593 93.7307C37.0893 92.5807 36.5993 91.0107 36.2293 89.3407L35.1593 71.8107V71.7607H35.1793Z" fill="black"/>
<path d="M56.7598 50.1102V43.4902H67.9098V69.1202H60.4898V50.1202H56.7598V50.1102Z" fill="#C7A349"/>
<path d="M82.0193 42.9492C85.6393 42.9492 88.2993 44.1292 89.9993 46.4792C91.6993 48.8292 92.5493 51.9892 92.5493 55.9392C92.5493 59.8892 91.6993 63.1192 89.9993 65.4592C88.2993 67.7992 85.6393 68.9692 82.0193 68.9692C78.3993 68.9692 75.7493 67.7992 74.0593 65.4592C72.3693 63.1192 71.5293 59.9492 71.5293 55.9392C71.5293 51.9292 72.3693 48.7992 74.0593 46.4592C75.7493 44.1192 78.3993 42.9492 82.0193 42.9492ZM82.0193 49.6392C80.5993 49.6392 79.6493 50.1892 79.1993 51.2892C78.7393 52.3892 78.5093 53.9392 78.5093 55.9392C78.5093 57.9392 78.7393 59.5292 79.1993 60.6292C79.6593 61.7292 80.5993 62.2792 82.0193 62.2792C83.4393 62.2792 84.3793 61.7292 84.8393 60.6292C85.2993 59.5292 85.5293 57.9692 85.5293 55.9392C85.5293 53.9092 85.2993 52.3892 84.8393 51.2892C84.3793 50.1892 83.4393 49.6392 82.0193 49.6392Z" fill="#C7A349"/>
<path d="M64.1893 74.7695L61.3593 80.2695V82.8295H59.1093V80.2695L56.2793 74.7695H58.8393L60.2593 77.8795L61.6793 74.7695H64.2093H64.1893Z" fill="#C7A349"/>
<path d="M67.1209 76.5495V77.8895H69.6909V79.5895H67.1209V81.0495H70.0409V82.8295H64.8809V74.7695H70.0409V76.5395H67.1209V76.5495Z" fill="#C7A349"/>
<path d="M76.2396 81.5195H73.3796L72.9496 82.8295H70.5996L73.5396 74.7695H76.1196L79.0496 82.8295H76.6796L76.2496 81.5195H76.2396ZM75.6796 79.8195L74.8096 77.1995L73.9496 79.8195H75.6796Z" fill="#C7A349"/>
<path d="M83.8495 82.8295L82.2495 79.8595H82.0095V82.8295H79.7695V74.7695H83.2995C83.9495 74.7695 84.4995 74.8795 84.9495 75.1095C85.3995 75.3295 85.7395 75.6395 85.9695 76.0395C86.1995 76.4395 86.3095 76.8695 86.3095 77.3595C86.3095 77.9095 86.1595 78.3895 85.8595 78.8095C85.5595 79.2295 85.1195 79.5195 84.5395 79.6995L86.3595 82.8395H83.8595L83.8495 82.8295ZM82.0095 78.3295H83.1195C83.7295 78.3295 84.0295 78.0495 84.0295 77.4795C84.0295 77.2195 83.9495 77.0195 83.7995 76.8595C83.6395 76.7095 83.4195 76.6295 83.1195 76.6295H82.0095V78.3195V78.3295Z" fill="#C7A349"/>
<path d="M88.0598 82.2404C87.4598 81.7904 87.1298 81.1604 87.0898 80.3304H89.4799C89.4999 80.6204 89.5899 80.8304 89.7299 80.9604C89.8699 81.0904 90.0598 81.1504 90.2898 81.1504C90.4998 81.1504 90.6699 81.1004 90.7999 81.0004C90.9299 80.9004 90.9998 80.7504 90.9998 80.5604C90.9998 80.3204 90.8898 80.1404 90.6698 80.0104C90.4498 79.8804 90.0898 79.7404 89.5998 79.5804C89.0698 79.4104 88.6498 79.2404 88.3298 79.0704C88.0098 78.9104 87.7199 78.6704 87.4799 78.3504C87.2399 78.0304 87.1199 77.6204 87.1199 77.1104C87.1199 76.6004 87.2498 76.1504 87.5098 75.7804C87.7698 75.4104 88.1298 75.1304 88.5798 74.9404C89.0398 74.7504 89.5598 74.6504 90.1298 74.6504C91.0698 74.6504 91.8198 74.8704 92.3798 75.3104C92.9398 75.7504 93.2398 76.3604 93.2798 77.1604H90.8498C90.8498 76.9104 90.7698 76.7204 90.6298 76.6004C90.4898 76.4804 90.3098 76.4204 90.0898 76.4204C89.9198 76.4204 89.7898 76.4704 89.6798 76.5704C89.5698 76.6704 89.5198 76.8104 89.5198 77.0004C89.5198 77.1504 89.5798 77.2804 89.6998 77.3904C89.8198 77.5004 89.9598 77.6004 90.1398 77.6804C90.3198 77.7604 90.5698 77.8604 90.9198 77.9804C91.4298 78.1504 91.8498 78.3304 92.1798 78.5004C92.5098 78.6704 92.7998 78.9104 93.0398 79.2204C93.2798 79.5304 93.3998 79.9204 93.3998 80.3904C93.3998 80.8604 93.2798 81.3004 93.0398 81.6804C92.7998 82.0604 92.4498 82.3604 91.9998 82.5804C91.5498 82.8004 91.0098 82.9104 90.3898 82.9104C89.4498 82.9104 88.6798 82.6904 88.0798 82.2404H88.0598Z" fill="#C7A349"/>
<path d="M21.6802 119.979C21.6802 119.979 28.3502 117.899 34.5002 116.489C40.6502 115.069 49.2702 114.089 49.2702 114.089L47.6302 93.1191C47.6302 93.1191 22.6002 98.7991 19.6302 99.5591C16.6602 100.319 16.7602 100.869 16.7602 100.869L28.0402 107.749L21.6802 119.979Z" fill="#F4F4F4" stroke="black" stroke-miterlimit="10"/>
<path d="M32.2109 108.18L48.6109 114.08" stroke="black" stroke-miterlimit="10"/>
<path d="M101.529 114.08C101.529 114.08 112.469 115.39 117.139 116.7C121.809 118.01 128.279 119.98 128.279 119.98C128.279 119.98 123.109 109.39 122.309 108.18C121.509 106.97 133.249 100.97 133.249 100.97C133.249 100.97 119.229 96.6004 114.459 96.1604C109.689 95.7204 104.419 96.1604 104.419 96.1604L101.539 114.07L101.529 114.08Z" fill="#F4F4F4" stroke="black" stroke-miterlimit="10"/>
<path d="M116.899 108.949L101.529 114.079" stroke="black" stroke-miterlimit="10"/>
<path d="M28.6895 90.0508C28.6895 90.0508 45.4194 85.6108 73.7394 85.2808C101.969 84.9508 121.309 89.5008 121.309 89.5008L116.899 108.941C116.899 108.941 101.839 103.241 74.3094 103.351C44.8894 103.801 39.9195 106.641 32.2095 108.171L28.6895 90.0408V90.0508Z" fill="#F4F4F4" stroke="black" stroke-miterlimit="10"/>
<path d="M50.8501 91.5393L50.0001 100.489L47.0501 100.919L45.0801 95.7993L44.6501 101.269L41.7001 101.699L38.3301 93.3693L40.9301 92.9893L42.8001 98.7493L43.2901 92.6393L45.9201 92.2493L48.1101 97.9093L48.2501 91.9093L50.8501 91.5293V91.5393Z" fill="black"/>
<path d="M58.3899 98.27L55.3099 98.53L54.9599 99.99L52.4199 100.21L54.8499 91.24L57.6399 91L61.5399 99.43L58.9899 99.65L58.3999 98.27H58.3899ZM57.6299 96.48L56.4499 93.73L55.7699 96.63L57.6299 96.47V96.48Z" fill="black"/>
<path d="M66.6491 99.2206L64.7791 96.0806H64.5191L64.6591 99.3106L62.2391 99.4106L61.8691 90.6906L65.6891 90.5306C66.3891 90.5006 66.9891 90.6006 67.4891 90.8206C67.9891 91.0406 68.3691 91.3606 68.6291 91.7806C68.8991 92.1906 69.0391 92.6706 69.0591 93.1906C69.0791 93.7806 68.9391 94.3106 68.6391 94.7806C68.3391 95.2506 67.8691 95.5806 67.2491 95.8006L69.3591 99.1206L66.6491 99.2406V99.2206ZM64.4491 94.4406L65.6491 94.3906C66.3091 94.3606 66.6291 94.0406 66.5991 93.4306C66.5891 93.1506 66.4891 92.9306 66.3191 92.7706C66.1391 92.6106 65.8991 92.5406 65.5691 92.5506L64.3691 92.6006L64.4491 94.4306V94.4406Z" fill="black"/>
<path d="M74.7705 99.0698L73.0205 95.8598H72.7606L72.7805 99.0798H70.3505L70.3105 90.3598L74.1405 90.3398C74.8405 90.3398 75.4405 90.4598 75.9305 90.6998C76.4205 90.9398 76.7906 91.2698 77.0406 91.6998C77.2906 92.1198 77.4205 92.5998 77.4205 93.1298C77.4205 93.7198 77.2606 94.2498 76.9406 94.6998C76.6206 95.1498 76.1405 95.4698 75.5205 95.6698L77.5106 99.0698H74.8006H74.7705ZM72.7505 94.1998H73.9505C74.6105 94.1998 74.9406 93.8798 74.9406 93.2698C74.9406 92.9898 74.8505 92.7698 74.6805 92.5998C74.5105 92.4398 74.2606 92.3498 73.9406 92.3598H72.7405V94.1998H72.7505Z" fill="black"/>
<path d="M83.9903 97.8595L80.9003 97.7394L80.3703 99.1395L77.8203 99.0395L81.3403 90.4395L84.1403 90.5495L86.9703 99.3995L84.4103 99.2995L84.0003 97.8595H83.9903ZM83.4603 95.9894L82.6303 93.1195L81.5903 95.9194L83.4603 95.9894Z" fill="black"/>
<path d="M95.7202 100.18L93.3002 99.9598L90.5201 94.8098L90.0802 99.6698L87.6602 99.4498L88.4501 90.7598L90.8702 90.9798L93.6402 96.1898L94.0901 91.2698L96.5102 91.4898L95.7202 100.18Z" fill="black"/>
<path d="M104.721 92.6406L104.451 94.5506L102.141 94.2206L101.181 100.951L98.7809 100.611L99.7409 93.8806L97.4609 93.5506L97.7309 91.6406L104.721 92.6406Z" fill="black"/>
<path d="M113.769 94.4307L109.569 99.6607L109.019 102.381L106.629 101.891L107.179 99.1707L105.359 92.7207L108.079 93.2707L108.909 96.8807L111.089 93.8907L113.769 94.4307Z" fill="black"/>
</svg>
