<svg width="150" height="150" viewBox="0 0 150 150" fill="none" xmlns="http://www.w3.org/2000/svg">
<path d="M37.6291 124.08C31.5891 118.08 25.6291 112.15 19.6191 106.17C19.6391 105.89 19.9591 105.7 20.1991 105.46C26.3991 99.2504 32.5891 93.0304 38.8191 86.8504C40.8991 84.7804 43.3291 83.1804 46.0591 82.0704C50.0091 80.4604 53.9491 80.6804 58.0191 81.8104C68.2391 84.6304 78.5091 87.2804 88.7791 89.9504C90.1091 90.3004 91.4691 90.5904 92.7891 90.9504C97.0591 92.0904 98.6691 97.9104 96.3491 100.74C95.4191 101.88 94.2891 102.66 92.8891 102.85C91.3891 103.06 89.8891 103.02 88.3591 102.6C81.1191 100.63 73.8391 98.7904 66.5891 96.8604C65.8191 96.6504 65.8191 96.7704 65.8191 96.7704C67.2491 97.5104 68.0791 97.2604 69.5991 97.6604C75.9891 99.3504 81.8991 101.18 88.3491 102.6C89.9391 102.95 92.1591 102.96 92.8791 102.85C93.8391 102.7 95.1791 102.26 95.7391 101.47C97.2591 99.3404 97.4691 98.8604 97.2191 95.9304C96.5791 94.4604 96.8491 94.1304 95.7791 92.9304C94.9591 92.0104 93.9891 91.2404 93.9891 91.2404C101.589 85.5504 112.599 76.2004 120.419 70.8104C123.629 68.5904 126.909 69.2104 129.299 71.9304C130.019 72.7504 130.459 73.6704 130.379 74.7604C130.209 76.9304 129.679 78.9204 128.019 80.5504C123.189 85.2804 118.469 90.1104 113.659 94.8604C107.619 100.82 101.749 106.96 95.8291 113.05C94.7691 114.14 93.6891 115.21 92.4391 116.13C89.3091 118.42 85.8291 118.78 82.1391 118.27C79.4091 117.89 76.6691 117.51 73.9391 117.12C71.3491 116.75 68.7591 116.35 66.1591 115.98C63.9091 115.66 61.6391 115.39 59.3891 115.06C57.1391 114.73 54.8891 114.35 52.6491 113.99C52.0991 113.9 51.5491 113.85 50.9991 113.78C49.2091 113.54 47.8091 114.15 46.5491 115.48C44.2491 117.9 41.8091 120.19 39.4291 122.54C38.7891 123.17 38.1991 123.86 37.6191 124.09L37.6291 124.08Z" stroke="black" stroke-miterlimit="10"/>
<path d="M86.5309 46.4603C94.8709 46.2303 102.711 53.6303 102.501 62.8003C102.321 70.4603 96.2309 78.7703 86.1509 78.6103C77.3209 78.4703 70.3409 71.6703 70.3009 62.5303C70.2709 53.3403 77.5809 46.2303 86.5309 46.4503V46.4603ZM81.1809 59.0903C82.8009 59.0903 84.3909 59.0903 85.9709 59.0903C86.2909 59.0903 86.6909 58.9803 86.8509 59.4103C86.9709 59.7603 86.8509 60.0903 86.6209 60.3803C85.9109 61.3003 85.0309 61.9203 83.8309 61.9703C83.2809 62.0003 82.7209 62.0103 82.1609 61.9903C81.6309 61.9803 81.4409 62.2303 81.4209 62.7403C81.4009 63.3203 81.5509 63.8003 81.9309 64.2603C83.4909 66.2003 85.0409 68.1503 86.5509 70.1303C87.3209 71.1303 88.2109 71.4303 89.5309 70.8403C87.6409 68.3103 85.8109 65.8703 83.8709 63.2803C86.4509 63.0403 88.2709 62.0903 88.9509 59.7203C89.1509 59.0403 89.5509 59.1203 90.0309 59.0703C91.0409 58.9603 91.0409 58.9403 91.3509 57.8703C89.8509 57.7303 88.9475 57.0536 88.6409 55.8403C90.2409 55.5403 91.1775 54.9169 91.4509 53.9703C88.4309 53.9703 85.4509 53.9803 82.4809 53.9703C81.4309 53.9703 81.3509 54.7203 81.0009 55.6203C82.1509 55.6203 83.1109 55.6403 84.0709 55.6203C84.8809 55.6003 85.5509 55.9103 86.1509 56.4203C86.4209 56.6503 86.5709 56.9803 86.4909 57.3503C86.3909 57.8403 85.9909 57.7403 85.6709 57.7403C84.6309 57.7503 83.5809 57.7903 82.5409 57.7403C81.6509 57.6903 81.3409 58.1903 81.1809 59.1003V59.0903Z" fill="#C7A349"/>
<path d="M118.73 38.0202C119.17 44.3602 113.33 50.0302 106.78 49.8702C100.65 49.7302 94.9299 45.1502 94.9199 37.7802C94.9199 31.1902 100.31 25.9002 107.01 25.9102C113.13 25.9102 119.23 31.2102 118.72 38.0202H118.73ZM109.06 43.8102C107.8 42.0802 106.55 40.3902 105.26 38.6202C106.16 38.0602 107.14 38.0702 107.82 37.4402C108.29 37.0002 108.55 36.4802 108.77 35.8702C109 35.2102 110.04 35.9202 110.32 35.1402C110.4 34.9202 110.74 34.7702 110.52 34.4602C109.4 34.3535 108.733 33.8035 108.52 32.8102C109.427 32.7435 110.173 32.4102 110.76 31.8102C108.25 31.8602 105.91 31.6602 103.57 31.9602C103.44 31.9802 103.35 32.2702 103.2 32.5102C104.47 33.0602 106.34 32.2702 107.07 34.2702C106.59 34.3102 106.32 34.3502 106.05 34.3602C105.36 34.3802 104.66 34.3402 103.97 34.4002C103.61 34.4302 103.31 34.7402 103.29 35.0902C103.27 35.5702 103.69 35.5502 104.04 35.5502C104.74 35.5502 105.43 35.5502 106.13 35.5502C106.46 35.5502 106.87 35.4702 106.98 35.9102C107.07 36.2902 106.8 36.5502 106.55 36.8002C105.92 37.4402 105.05 37.4602 104.27 37.6502C103.14 37.9202 102.98 38.2002 103.64 39.0602C104.74 40.4902 105.89 41.8702 106.99 43.3002C107.54 44.0202 108.19 44.1602 109.08 43.8002L109.06 43.8102Z" fill="#C7A349"/>
<path d="M81.18 59.0907C82.8 59.0907 84.39 59.0907 85.97 59.0907C86.29 59.0907 86.69 58.9807 86.85 59.4107C86.97 59.7607 86.85 60.0907 86.62 60.3807C85.91 61.3007 85.03 61.9207 83.83 61.9707C83.28 62.0007 82.72 62.0107 82.16 61.9907C81.63 61.9807 81.44 62.2307 81.42 62.7407C81.4 63.3207 81.55 63.8007 81.93 64.2607C83.49 66.2007 85.04 68.1507 86.55 70.1307C87.32 71.1307 88.21 71.4307 89.53 70.8407C87.64 68.3107 85.81 65.8707 83.87 63.2807C86.45 63.0407 88.27 62.0907 88.95 59.7207C89.15 59.0407 89.55 59.1207 90.03 59.0707C91.04 58.9607 91.04 58.9407 91.35 57.8707C89.85 57.7307 88.9467 57.054 88.64 55.8407C90.24 55.5407 91.1767 54.9174 91.45 53.9707C88.43 53.9707 85.45 53.9807 82.48 53.9707C81.43 53.9707 81.35 54.7207 81 55.6207C82.15 55.6207 83.11 55.6407 84.07 55.6207C84.88 55.6007 85.55 55.9107 86.15 56.4207C86.42 56.6507 86.57 56.9807 86.49 57.3507C86.39 57.8407 85.99 57.7407 85.67 57.7407C84.63 57.7507 83.58 57.7907 82.54 57.7407C81.65 57.6907 81.34 58.1907 81.18 59.1007V59.0907Z" fill="white"/>
<path d="M109.059 43.8106C107.799 42.0806 106.549 40.3906 105.259 38.6206C106.159 38.0606 107.139 38.0706 107.819 37.4406C108.289 37.0006 108.549 36.4806 108.769 35.8706C108.999 35.2106 110.039 35.9206 110.319 35.1406C110.399 34.9206 110.739 34.7706 110.519 34.4606C109.399 34.354 108.733 33.804 108.519 32.8106C109.426 32.744 110.173 32.4106 110.759 31.8106C108.249 31.8606 105.909 31.6606 103.569 31.9606C103.439 31.9806 103.349 32.2706 103.199 32.5106C104.469 33.0606 106.339 32.2706 107.069 34.2706C106.589 34.3106 106.319 34.3506 106.049 34.3606C105.359 34.3806 104.659 34.3406 103.969 34.4006C103.609 34.4306 103.309 34.7406 103.289 35.0906C103.269 35.5706 103.689 35.5506 104.039 35.5506C104.739 35.5506 105.429 35.5506 106.129 35.5506C106.459 35.5506 106.869 35.4706 106.979 35.9106C107.069 36.2906 106.799 36.5506 106.549 36.8006C105.919 37.4406 105.049 37.4606 104.269 37.6506C103.139 37.9206 102.979 38.2006 103.639 39.0606C104.739 40.4906 105.889 41.8706 106.989 43.3006C107.539 44.0206 108.189 44.1606 109.079 43.8006L109.059 43.8106Z" fill="white"/>
</svg>
