<svg width="150" height="150" viewBox="0 0 150 150" fill="none" xmlns="http://www.w3.org/2000/svg">
<path d="M56.0406 55.3197C53.6606 55.2197 52.7906 54.4897 52.1406 53.4197C56.6506 48.4797 61.0806 43.4297 65.7206 38.5897C68.7506 35.4397 72.8606 34.4997 77.0506 34.6397C85.5806 34.9397 93.7706 33.0897 101.991 31.2797C102.381 31.1897 102.781 31.1897 102.681 31.1997C105.861 34.1397 108.771 36.8397 111.691 39.5397C108.011 48.0797 101.801 52.8397 92.7506 53.3597C87.1906 53.6797 81.6006 53.4197 76.0906 53.4197C75.6506 52.3897 75.4006 51.7997 75.1406 51.1797C79.1106 48.1897 83.8806 48.4297 88.3906 47.7197C88.3906 47.4697 88.3706 47.2197 88.3706 46.9797C83.0306 46.6597 77.6806 46.1197 72.3406 46.1097C68.7206 46.1097 65.5606 47.2897 63.2806 50.1097C60.8106 53.1497 61.1006 53.5097 56.0406 55.2997V55.3197Z" fill="white" stroke="#020202" stroke-miterlimit="10"/>
<path d="M75.3098 97.8991C74.3998 100.319 72.7398 101.499 70.3698 101.599C68.4898 101.679 66.5898 101.519 64.7098 101.619C63.5398 101.679 62.3898 102.049 61.2298 102.269C61.2298 102.509 61.2098 102.739 61.2098 102.979C63.3998 103.449 65.5598 104.109 67.7798 104.349C75.3598 105.159 82.0998 103.179 88.1598 98.4091C90.5398 96.5391 93.5698 94.9991 94.6598 94.6791C97.2598 94.3491 97.4198 95.5991 97.9698 96.5491C93.4098 101.659 88.8898 106.729 84.3498 111.789C82.6598 113.669 80.5598 114.819 78.0198 114.979C73.3898 115.259 68.7598 115.629 64.1198 115.649C59.3998 115.679 54.7898 115.799 50.9198 118.999C50.1498 119.639 49.4198 120.339 48.5398 121.129C45.2198 117.519 41.8998 113.909 38.5898 110.319C47.4598 96.2391 56.4498 93.1191 75.3098 97.8991Z" fill="#C7A349" stroke="black" stroke-miterlimit="10"/>
<path d="M65.2896 83.1107C62.9196 82.2007 60.7996 81.3907 58.4296 80.4907C59.8196 78.5907 61.0996 76.8207 62.4096 75.0207C61.0596 73.2007 59.7896 71.4907 58.3496 69.5307C60.6196 68.7707 62.6796 68.0807 64.9796 67.3107V60.1707C67.4296 60.9007 69.5996 61.5407 71.8596 62.2107C73.0796 60.3207 74.2396 58.5207 75.5696 56.4707C77.0096 58.3807 78.3596 60.1707 79.8096 62.0807C82.0696 61.5207 84.3296 60.9607 86.2496 60.4907C86.2496 62.7907 85.7796 65.3707 85.5896 67.2307C87.5296 68.0107 90.7596 69.1607 92.8196 69.7007C92.4496 70.2707 91.8096 71.2607 91.1696 72.2307C90.5396 73.1807 89.9096 74.1207 89.2396 75.1207C90.5296 76.9007 91.7796 78.6407 92.9196 80.2207C90.9496 81.3007 87.6296 82.2407 86.4296 82.8307C86.3796 85.0307 86.6496 87.4507 86.3696 89.5907C84.4896 89.1207 82.1796 88.5507 79.7096 87.9407C78.4696 89.7907 77.2496 91.6207 75.8596 93.6907C74.4596 91.6507 73.1496 89.7507 71.7796 87.7507C69.6696 88.4307 67.5896 89.0907 65.2896 89.8307V83.1107ZM83.5496 75.1907C83.7396 70.5107 80.6996 67.3707 75.8396 67.2307C71.3396 67.1007 68.0596 70.3507 67.9096 75.0907C67.7696 79.4507 71.0396 82.6807 75.7296 82.8207C80.2896 82.9607 83.3596 79.9707 83.5496 75.1807V75.1907Z" fill="black"/>
<path d="M121.54 32.7892C120.04 34.3992 118.17 36.3992 116.17 38.5492C112.05 34.0692 108.06 29.7492 104.01 25.3492C105.78 23.3992 107.43 21.5792 109.36 19.4492C113.52 24.0092 117.54 28.4092 121.54 32.7892Z" fill="#C7A349" stroke="black" stroke-miterlimit="10"/>
<path d="M28.4609 117.431C30.1309 115.861 31.9809 114.121 34.0809 112.141C38.0109 116.441 41.8509 120.641 45.8609 125.031C44.6309 126.441 42.9309 128.391 41.0409 130.551C36.8009 126.121 32.6709 121.821 28.4609 117.431Z" fill="white" stroke="#1A1C20" stroke-miterlimit="10"/>
</svg>
