<svg width="150" height="150" viewBox="0 0 150 150" fill="none" xmlns="http://www.w3.org/2000/svg">
<path d="M84.8809 80.6699C84.5809 80.8299 84.4909 80.8799 84.8809 80.6699Z" fill="#FCF1F1"/>
<path d="M102.291 65.2803C102.021 58.9403 99.4507 53.1103 95.0607 48.5303C86.5907 39.6903 73.1907 38.6503 62.7107 44.2803C52.7307 49.6503 46.7907 61.6803 47.8007 72.8603C47.9707 74.7403 48.3107 76.5003 48.9807 78.1303C50.4407 83.7303 55.3807 89.1203 61.6207 88.4103C67.7007 87.7203 72.5307 86.1703 78.1207 83.7003C79.9507 82.8903 81.7507 81.9903 83.5607 81.1403C84.4507 80.7203 85.4307 80.3703 86.2907 79.8903C85.5607 80.3003 85.1207 80.5403 84.8707 80.6803C85.3007 80.4503 86.1507 80.0203 86.6407 79.8503C88.4707 79.2303 90.3107 78.9603 92.1707 78.5203C97.8707 77.1503 102.531 71.1503 102.281 65.2803H102.291Z" fill="#FCF1F1"/>
<path d="M30.2491 73.7805C31.0791 72.9905 31.9091 71.9605 32.9591 71.2505C39.1791 67.0405 45.4391 62.9005 51.6991 58.7405C53.1091 57.8005 54.5791 57.2405 56.2091 58.1605C57.7791 59.0505 58.0091 60.5605 58.0091 62.1805C57.9991 65.1605 58.0091 68.1305 58.0091 71.6605C59.2891 71.2505 60.4591 71.1305 61.3291 70.5605C67.2091 66.7405 73.0291 62.8205 78.8691 58.9405C79.4391 58.5605 80.0091 58.1605 80.6391 57.9205C82.7891 57.0805 85.1391 58.3305 85.3791 60.6305C85.6291 63.0305 85.5491 65.4605 85.5991 67.8805C85.6191 68.9805 85.5991 70.0905 85.5991 71.4205H92.3991V88.2805C92.5191 88.2805 92.6391 88.2805 92.7591 88.2905C93.1591 83.9805 93.5591 79.6805 93.9591 75.3705C95.0391 63.4405 96.1191 51.5105 97.1991 39.5805C97.3691 37.7305 97.4991 35.8705 97.6691 34.0205C97.8991 31.5205 99.1691 30.2905 101.619 30.2605C104.599 30.2205 107.579 30.2205 110.569 30.2605C113.149 30.2905 114.359 31.3205 114.559 33.8905C115.079 40.7005 115.529 47.5105 115.959 54.3205C116.919 69.4905 117.869 84.6605 118.799 99.8405C119.139 105.29 119.459 110.74 119.739 116.2C119.859 118.63 118.729 119.76 116.329 119.76C88.8691 119.76 61.4091 119.76 33.9391 119.76C31.6791 119.76 30.2491 118.56 30.2491 116.54C30.2291 102.38 30.2491 88.2105 30.2491 73.7805ZM58.0691 95.9605V105.78H64.3691V95.9605H58.0691ZM75.1891 88.3905H81.6091V78.6505H75.1891V88.3905ZM81.6391 96.0305H75.2591V105.65H81.6391V96.0305ZM47.2391 88.4205V78.8005H41.1091V88.4205H47.2391ZM58.2091 78.7505V88.3505H64.3191V78.7505H58.2091ZM47.2191 105.65V96.0105H41.0491V105.65H47.2191Z" fill="white" stroke="black" stroke-miterlimit="10"/>
<path d="M58.0703 95.9609H64.3703V105.781H58.0703V95.9609Z" fill="#C7A349"/>
<path d="M75.1895 88.3904V78.6504H81.6095V88.3904H75.1895Z" fill="#C7A349"/>
<path d="M81.6398 96.0293V105.649H75.2598V96.0293H81.6398Z" fill="#C7A349"/>
<path d="M47.2394 88.4208H41.1094V78.8008H47.2394V88.4208Z" fill="#C7A349"/>
<path d="M58.2109 78.75H64.3209V88.35H58.2109V78.75Z" fill="#C7A349"/>
<path d="M47.2208 105.65H41.0508V96.0098H47.2208V105.65Z" fill="#C7A349"/>
</svg>
