<svg width="150" height="150" viewBox="0 0 150 150" fill="none" xmlns="http://www.w3.org/2000/svg">
<path d="M87.5795 54.0201C86.0295 52.5801 83.5695 52.7601 82.2895 52.9801C88.7195 50.8801 93.6595 41.9101 92.5095 34.3301C91.0795 24.8901 82.7795 18.0701 73.2995 18.5301C64.0795 18.9801 56.2795 27.0601 55.9995 36.4601C55.7795 43.6301 61.8495 52.4501 67.3995 53.2201C67.4695 52.6701 67.3995 57.2701 67.3995 57.2701C66.1695 56.7101 64.9995 56.1001 63.8995 55.4401C57.8395 51.7901 53.8895 46.5501 53.0895 38.9601C52.4495 32.9301 54.2095 27.5501 58.1295 22.9101C65.7295 13.9201 78.9595 12.9601 88.2895 20.5201C96.0295 26.7901 100.4 42.3901 87.5695 54.0201H87.5795Z" fill="#C7A349"/>
<path d="M105.92 86.9395C106.01 89.0195 105.16 91.1795 104.55 93.2495C103 98.5595 101.34 103.839 99.6395 109.429C91.0395 106.719 81.8195 104.879 72.5995 109.539C67.7595 105.379 63.9095 100.539 61.1995 94.8295C59.3495 90.9295 56.9595 87.5895 53.0395 85.5195C52.2195 85.0795 51.4895 84.4095 50.8195 83.7395C49.6395 82.5595 49.7595 81.1795 50.4595 79.7995C51.1095 78.5095 52.3495 77.9795 53.5295 78.4895C56.1795 79.6195 58.8995 80.7695 61.2395 82.3995C63.9995 84.3295 66.3895 86.7895 69.2295 89.2895C69.3795 87.6495 69.5895 86.2895 69.6195 84.9395C69.8795 73.9795 70.1195 63.0195 70.3695 52.0595C70.4495 48.2995 70.5295 44.5395 70.6195 40.7795C70.6395 39.9595 70.5995 39.1395 70.7295 38.3395C71.0995 36.1295 72.5995 34.9395 74.6795 35.0795C76.7395 35.2195 77.9895 36.6295 77.9995 38.9395C77.9995 41.9795 77.9995 45.0195 77.9995 48.0695C77.9995 55.4195 77.9995 62.7695 77.9995 70.1195V72.5295C78.6895 72.5695 79.2395 72.5995 79.9895 72.6495C80.0795 71.6695 80.2095 70.8795 80.2095 70.0995C80.1895 67.3195 80.0595 64.5395 80.0795 61.7595C80.0995 58.8695 81.3995 57.3395 83.6995 57.2695C86.0095 57.1995 87.3995 58.6195 87.6195 61.5195C87.8595 64.6995 87.9895 67.8895 88.1295 71.0695C88.1795 72.1495 88.3595 72.9895 90.0195 72.5295C90.0195 70.3595 90.0095 68.3295 90.0195 66.2995C90.0195 65.4895 90.0395 64.6695 90.1495 63.8695C90.3895 62.1295 91.2795 60.9795 93.1595 60.8795C95.1095 60.7895 96.3795 61.8695 96.6395 63.6295C97.0795 66.5695 97.1895 69.5595 97.4395 72.5395C97.4995 73.2795 97.5295 74.0195 97.5895 74.9695C98.1495 75.0495 98.6895 75.1295 99.3995 75.2395V65.7295C102.1 65.0795 104.13 66.3295 104.4 68.9095C105.02 74.9095 105.64 80.9295 105.9 86.9495L105.92 86.9395Z" fill="white"/>
<path d="M82.2902 52.9802C82.0802 53.0502 81.6602 53.1702 81.4502 53.2202C81.4502 53.2002 81.4502 50.1202 81.4502 50.1202C82.3302 49.6702 82.5202 49.5402 83.2402 49.0202C88.5102 45.1902 90.5002 39.9002 89.1802 33.6602C87.8402 27.3002 83.7202 23.3602 77.3002 21.9802C70.5102 20.5202 63.4202 24.0902 60.5802 30.3202C57.5702 36.9102 59.3302 44.2502 64.9402 48.6102C66.0302 49.4602 66.6502 50.0402 67.3902 50.3102C67.3902 50.3102 67.5502 51.9402 67.3902 53.2002C61.8302 52.4302 55.7702 43.6102 55.9902 36.4402C56.2802 27.0502 64.0802 18.9602 73.2902 18.5102C82.7702 18.0502 91.0702 24.8802 92.5002 34.3102C93.6502 41.8902 88.7102 50.8602 82.2802 52.9602L82.2902 52.9802Z" fill="white" stroke="black" stroke-width="0.5" stroke-miterlimit="10"/>
<path d="M81.4507 46.2596C81.4507 43.6996 81.5207 41.3996 81.4407 39.0996C81.2607 33.7396 77.1207 30.5496 72.2707 31.9596C69.4007 32.7996 67.4907 35.4196 67.4107 38.7496C67.3607 41.1796 67.4007 43.6096 67.4007 46.0896C64.2007 44.9996 61.6407 39.8596 62.1307 35.7296C62.8207 29.8696 67.4607 25.2096 73.1607 24.6396C78.6807 24.0896 84.0307 27.5296 85.8707 32.8196C87.6207 37.8596 85.8407 43.5996 81.4507 46.2696V46.2596Z" fill="#C7A349" stroke="black" stroke-miterlimit="10"/>
<path d="M99.6298 125.001C99.9798 124.951 100.34 124.931 100.7 124.941C101.01 124.941 101.32 124.971 101.64 124.991C102.82 124.571 103.6 123.361 103.64 121.621C103.71 118.631 103.77 115.641 103.73 112.661C103.68 108.341 104.32 104.181 105.84 100.111C107.09 96.7507 108.78 93.2607 108.82 89.8107C108.9 82.3207 108.32 74.7907 107.44 67.3407C107.06 64.1007 104.57 61.9007 100.89 61.6807C100.32 61.6407 99.5898 61.1807 99.2398 60.7007C97.2998 57.9907 94.7698 56.8507 91.4398 57.5807C91.4398 57.5807 89.7798 56.0307 87.5998 54.0207C86.0498 52.5807 83.5898 52.7607 82.3098 52.9807C82.0998 53.0507 81.8898 53.1107 81.6798 53.1607C81.5498 53.1907 81.4698 53.2207 81.4698 53.2207V46.2507C81.4698 43.6907 81.5398 41.3907 81.4698 39.0907C81.2898 33.7307 77.1498 30.5407 72.2998 31.9507C69.4298 32.7907 67.5198 35.4107 67.4398 38.7407C67.3898 41.1707 67.4298 43.6007 67.4298 46.0807V57.2507C67.4298 57.2507 67.4898 57.2807 67.5198 57.2907C67.2498 65.6107 66.9998 73.7707 66.7298 82.3607C65.3998 81.2807 64.4898 80.5107 63.5498 79.7807C60.6298 77.5107 57.5398 75.5707 53.7798 75.0507C50.8398 74.6507 48.5898 75.8807 47.3398 78.5607C45.7698 81.9407 46.6798 85.2607 49.9898 87.3907C53.7398 89.8007 56.6398 92.8007 58.4198 97.0007C60.2098 101.221 62.9898 104.871 66.3998 107.951C67.8698 109.281 68.5898 110.841 68.6598 112.761C68.7498 115.611 68.8498 118.461 68.9098 121.311C68.9898 124.601 71.0198 125.941 74.0798 124.591C82.3498 120.941 90.5698 120.551 98.8298 124.671C99.1198 124.811 99.3998 124.921 99.6798 125.001H99.6298ZM61.1998 94.8307C59.3498 90.9307 56.9598 87.5907 53.0398 85.5207C52.2198 85.0807 51.4898 84.4107 50.8198 83.7407C49.6398 82.5607 49.7598 81.1807 50.4598 79.8007C51.1098 78.5107 52.3498 77.9807 53.5298 78.4907C56.1798 79.6207 58.8998 80.7707 61.2398 82.4007C63.9998 84.3307 66.3898 86.7907 69.2298 89.2907C69.3798 87.6507 69.5898 86.2907 69.6198 84.9407C69.8798 73.9807 70.1198 63.0207 70.3698 52.0607C70.4498 48.3007 70.5298 44.5407 70.6198 40.7807C70.6398 39.9607 70.5998 39.1407 70.7298 38.3407C71.0998 36.1307 72.5998 34.9407 74.6798 35.0807C76.7398 35.2207 77.9898 36.6307 77.9998 38.9407C77.9998 41.9807 77.9998 45.0207 77.9998 48.0707C77.9998 55.4207 77.9998 62.7707 77.9998 70.1207V72.5307C78.6898 72.5707 79.2398 72.6007 79.9898 72.6507C80.0798 71.6707 80.2098 70.8807 80.2098 70.1007C80.1898 67.3207 80.0598 64.5407 80.0798 61.7607C80.0998 58.8707 81.3998 57.3407 83.6998 57.2707C86.0098 57.2007 87.3998 58.6207 87.6198 61.5207C87.8598 64.7007 87.9898 67.8907 88.1298 71.0707C88.1798 72.1507 88.3598 72.9907 90.0198 72.5307C90.0198 70.3607 90.0098 68.3307 90.0198 66.3007C90.0198 65.4907 90.0398 64.6707 90.1498 63.8707C90.3898 62.1307 91.2798 60.9807 93.1598 60.8807C95.1098 60.7907 96.3798 61.8707 96.6398 63.6307C97.0798 66.5707 97.1898 69.5607 97.4398 72.5407C97.4998 73.2807 97.5298 74.0207 97.5898 74.9707C98.1498 75.0507 98.6898 75.1307 99.3998 75.2407V65.7307C102.1 65.0807 104.13 66.3307 104.4 68.9107C105.02 74.9107 105.64 80.9307 105.9 86.9507C105.99 89.0307 105.14 91.1907 104.53 93.2607C102.98 98.5707 101.32 103.851 99.6198 109.441C91.0198 106.731 81.7998 104.891 72.5798 109.551C67.7398 105.391 63.8898 100.551 61.1798 94.8407L61.1998 94.8307ZM72.2898 121.631V114.051C74.6798 111.571 77.8898 110.731 81.1998 110.311C87.2498 109.551 93.0998 110.631 98.7198 112.881C99.4498 113.171 100.22 114.281 100.31 115.081C100.53 117.161 100.38 119.271 100.38 121.691C90.8998 117.091 81.6498 117.571 72.2898 121.631Z" fill="black" stroke="white" stroke-width="0.5" stroke-miterlimit="10"/>
</svg>
