<svg width="150" height="150" viewBox="0 0 150 150" fill="none" xmlns="http://www.w3.org/2000/svg">
<path d="M84.4198 90.7807C84.2398 90.7807 84.0698 90.7607 83.8898 90.7607C76.5798 90.7607 69.2698 90.7607 61.9598 90.7607C61.7698 90.7607 61.5698 90.7307 61.3798 90.8007C61.3598 90.8607 61.3398 90.9007 61.3298 90.9507C61.3198 91.3707 61.3098 91.7907 61.3098 92.2207C61.3098 101.571 61.3098 110.921 61.3098 120.281C61.3098 120.461 61.3098 120.631 61.3098 120.811C61.3098 120.881 61.2798 120.951 61.2698 121.011C61.2098 121.031 61.1598 121.061 61.1098 121.071C60.9498 121.071 60.7898 121.081 60.6298 121.081C53.6898 121.081 46.7598 121.081 39.8198 121.081C39.6398 121.081 39.4698 121.101 39.3098 121.061C39.2298 121.001 39.1998 120.941 39.1998 120.871C39.1998 120.711 39.1998 120.551 39.1998 120.391C39.1998 104.241 39.1998 88.0907 39.1998 71.9407C39.1998 71.6107 39.1998 71.2707 39.1798 70.9407C39.1798 70.7807 39.1398 70.6307 39.0998 70.4707C38.9998 70.0407 38.6898 69.8207 38.2698 69.7607C38.0798 69.7307 37.8798 69.7307 37.6798 69.7207C37.2198 69.7207 36.7598 69.7207 36.2898 69.7207C33.0198 69.7207 29.7398 69.7207 26.4698 69.7207C26.2798 69.7207 26.0798 69.7207 25.8898 69.7207C25.8698 69.6807 25.8498 69.6507 25.8398 69.6107C25.8898 69.4807 26.0198 69.4007 26.1198 69.3007C27.2098 68.2607 28.2998 67.2207 29.3898 66.1907C31.4898 64.1907 33.5898 62.1907 35.6998 60.1807C37.4998 58.4707 39.2898 56.7607 41.0898 55.0507C42.9598 53.2707 44.8298 51.4907 46.7098 49.7007C48.5098 47.9907 50.2998 46.2807 52.0998 44.5707C53.9698 42.7907 55.8398 41.0107 57.7198 39.2207C59.4598 37.5607 61.2098 35.9007 62.9498 34.2407C64.8598 32.4207 66.7698 30.6007 68.6798 28.7807C70.0098 27.5107 71.3498 26.2407 72.6798 24.9807C72.7498 24.9107 72.8198 24.8107 72.9698 24.8307C73.1398 24.9607 73.2898 25.1307 73.4598 25.2807C73.6198 25.4207 73.7698 25.5707 73.9298 25.7107C75.4598 27.1607 76.9798 28.6207 78.4998 30.0707C80.4198 31.9007 82.3498 33.7307 84.2698 35.5607C86.0698 37.2707 87.8598 38.9807 89.6598 40.6807C91.4898 42.4207 93.3299 44.1707 95.1599 45.9107C96.9199 47.5807 98.6698 49.2507 100.43 50.9207C102.3 52.7007 104.17 54.4807 106.05 56.2607C107.81 57.9307 109.56 59.6007 111.32 61.2807C113.19 63.0607 115.07 64.8407 116.94 66.6207C117.89 67.5207 118.84 68.4307 119.79 69.3307C119.86 69.4007 119.97 69.4607 119.96 69.5907C119.92 69.6107 119.88 69.6507 119.83 69.6507C119.62 69.6607 119.4 69.6707 119.19 69.6707C115.72 69.6707 112.25 69.6707 108.78 69.6707C108.42 69.6707 108.07 69.6907 107.71 69.7007C107.57 69.7007 107.43 69.7407 107.29 69.7807C106.99 69.8807 106.81 70.0807 106.74 70.3707C106.68 70.6107 106.64 70.8507 106.64 71.1007C106.64 71.4207 106.64 71.7307 106.64 72.0507C106.64 88.1307 106.64 104.211 106.64 120.291C106.64 120.521 106.67 120.751 106.61 120.981C106.56 121.001 106.52 121.031 106.47 121.041C106.31 121.041 106.15 121.051 105.99 121.051C99.0498 121.051 92.1198 121.051 85.1798 121.051C84.9998 121.051 84.8298 121.051 84.6798 121.051C84.5798 120.991 84.5498 120.931 84.5498 120.851C84.5498 120.661 84.5498 120.461 84.5498 120.271C84.5498 110.691 84.5498 101.111 84.5498 91.5307C84.5498 91.3007 84.5398 91.0707 84.5298 90.8407C84.5398 90.7707 84.5098 90.7307 84.4398 90.7407L84.4198 90.7807Z" stroke="black" stroke-width="0.75" stroke-miterlimit="10"/>
<path d="M93.9201 24.4302C93.9201 24.4302 94.0201 24.4102 94.0701 24.4102C96.6501 24.4102 99.2301 24.4102 101.8 24.4102C101.85 24.4102 101.9 24.4302 101.96 24.4402C101.98 24.4802 102.02 24.5302 102.02 24.5802C102.03 24.7402 102.03 24.9002 102.03 25.0502C102.03 32.9202 102.03 40.7902 102.03 48.6602V49.1302C102.03 49.1302 101.95 49.1602 101.91 49.1802C101.81 49.0902 101.71 48.9902 101.61 48.9002C100.57 47.9102 99.5301 46.9302 98.4901 45.9402C97.2001 44.7002 95.9201 43.4602 94.6301 42.2202C94.5301 42.1202 94.4301 42.0202 94.3301 41.9202C94.1401 41.7102 93.9901 41.4702 93.8901 41.2002C93.8401 41.0702 93.8101 40.9302 93.8101 40.7902C93.8101 40.6802 93.8101 40.5802 93.8101 40.4702C93.8101 36.3502 93.8001 32.2302 93.8001 28.1102C93.8001 27.1202 93.8001 26.1402 93.8001 25.1502C93.8001 24.9402 93.7801 24.7302 93.8401 24.5202C93.8601 24.4902 93.8901 24.4702 93.9101 24.4402L93.9201 24.4302Z" stroke="black" stroke-width="0.75" stroke-miterlimit="10"/>
<path d="M84.4199 90.7793C84.4999 90.7793 84.5299 90.8093 84.5099 90.8793C84.4799 90.8493 84.4499 90.8093 84.4199 90.7793Z" stroke="black" stroke-width="0.75" stroke-miterlimit="10"/>
<path d="M49.0898 85.1309L49.4298 108.511C49.4298 110.641 47.6698 112.371 45.4598 112.391L35.9098 112.461C34.4498 112.461 33.2598 111.291 33.2598 109.821V82.8609C33.2598 81.3909 34.4498 80.2109 35.9098 80.2109L44.9498 80.2609C47.1798 80.2209 49.0398 81.9609 49.0698 84.1409V85.1209C49.0698 85.1209 49.0498 85.1209 49.0798 85.1209L49.0898 85.1309Z" fill="white" stroke="black" stroke-width="0.75" stroke-miterlimit="10"/>
<path d="M118.561 100.519L89.1409 116.119C72.6309 124.869 60.1809 110.949 50.0909 106.779V86.9394H59.4509C69.9009 86.9394 70.9809 94.0494 82.0809 94.0494H91.7509C96.5309 94.0494 94.3409 103.599 87.2909 103.599H79.5109V105.429H87.2909C90.3209 105.429 92.6009 104.059 94.0909 102.229L115.711 94.1894C119.751 92.6794 122.431 98.4694 118.561 100.519ZM115.081 92.4694L95.5509 99.7294C97.0109 95.9894 95.6309 92.2194 91.7609 92.2194H82.0909C71.6209 92.2194 70.5809 85.1094 59.4609 85.1094H49.5409L49.4409 108.689C62.1509 115.129 73.8809 126.299 90.0109 117.749L119.431 102.149C125.301 99.0394 121.271 90.1794 115.091 92.4794L115.081 92.4694ZM44.1909 109.299C42.9109 109.299 41.8809 108.259 41.8809 106.979C41.8809 105.699 42.9009 104.639 44.1909 104.639C45.4809 104.639 46.5309 105.679 46.5309 106.979C46.5309 108.279 45.5009 109.299 44.1909 109.299Z" fill="black"/>
<path d="M66.4007 80.0994C71.4007 80.1394 75.7007 77.1195 77.5607 72.7995C77.9407 71.9395 78.8207 71.4095 79.7607 71.4095C79.9307 71.4095 94.0507 71.4994 94.9707 71.4994L94.9307 76.8594C94.9307 80.6894 100.691 80.7495 100.731 76.8995L100.751 71.5395L103.811 71.5594L103.771 78.6595C103.771 82.5195 109.531 82.5094 109.571 78.6994L109.611 71.5994L113.401 71.6195C117.851 71.6195 117.851 64.8995 113.441 64.8995H113.421C69.8507 64.6195 81.0707 66.2594 75.5307 59.9794C75.4507 59.8894 75.3707 59.7995 75.2907 59.7195C68.4507 52.3895 56.5407 56.1895 54.6107 65.3595C52.9607 73.1695 58.8607 80.0694 66.4007 80.1094V80.0994ZM72.6407 66.7394C73.4807 71.2394 69.6007 75.0895 65.1207 74.1495C62.6707 73.6595 60.6907 71.5994 60.2507 69.1294C58.8007 60.7594 71.1607 58.7495 72.6407 66.7295V66.7394Z" fill="#C7A349" stroke="black" stroke-miterlimit="10"/>
<path d="M118.56 100.519L89.1398 116.119C72.6298 124.869 60.1798 110.949 50.0898 106.779V86.9395H59.4498C69.8998 86.9395 70.9798 94.0495 82.0798 94.0495H91.7498C96.5298 94.0495 94.3398 103.599 87.2898 103.599H79.5098V105.429H87.2898C90.3198 105.429 92.5998 104.059 94.0898 102.229L115.71 94.1895C119.75 92.6795 122.43 98.4694 118.56 100.519Z" fill="white"/>
</svg>
