<svg width="4884" height="4962" viewBox="0 0 4884 4962" fill="none" xmlns="http://www.w3.org/2000/svg">
<path d="M4341.71 4225.8C3193.13 6001.14 -265.316 3647.89 204.946 1745.33C678.711 -171.4 3678.23 -447.731 4472.62 1202.44C4933.24 2159.29 4785.5 3539.83 4341.71 4225.8Z" fill="#FCFAF6"/>
<path d="M232.954 2751.96H4794.06" stroke="white" stroke-width="10" stroke-miterlimit="10" stroke-linecap="round" stroke-linejoin="round"/>
<path d="M332.954 803.641L798.479 4670.31" stroke="white" stroke-width="10" stroke-miterlimit="10" stroke-linecap="round" stroke-linejoin="round"/>
<path d="M432.954 666.913L855.177 4764.34" stroke="white" stroke-width="10" stroke-miterlimit="10" stroke-linecap="round" stroke-linejoin="round"/>
<path d="M905.177 351.67L1031.81 4744.24" stroke="white" stroke-width="10" stroke-miterlimit="10" stroke-linecap="round" stroke-linejoin="round"/>
<path d="M644.066 417.116L948.936 1869.53" stroke="white" stroke-width="10" stroke-miterlimit="10" stroke-linecap="round" stroke-linejoin="round"/>
<path d="M1202.89 256.727L1266.29 4741.48" stroke="white" stroke-width="10" stroke-miterlimit="10" stroke-linecap="round" stroke-linejoin="round"/>
<path d="M1266.29 325.634L1518.45 4660.28" stroke="white" stroke-width="10" stroke-miterlimit="10" stroke-linecap="round" stroke-linejoin="round"/>
<path d="M1360.73 256.727L1616.29 4670.31" stroke="white" stroke-width="10" stroke-miterlimit="10" stroke-linecap="round" stroke-linejoin="round"/>
<path d="M1401.7 964.186L1890.37 4744.24" stroke="white" stroke-width="10" stroke-miterlimit="10" stroke-linecap="round" stroke-linejoin="round"/>
<path d="M1422.71 4670.32L1217.35 1279.59" stroke="white" stroke-width="10" stroke-miterlimit="10" stroke-linecap="round" stroke-linejoin="round"/>
<path d="M2632.6 97.21C2632.6 311.464 2632.6 2267.3 2632.6 2267.3C2632.6 2267.3 4480.26 2267.3 4759.02 2267.3" stroke="white" stroke-width="10" stroke-miterlimit="10" stroke-linecap="round" stroke-linejoin="round"/>
<path d="M2725.27 97.21C2725.27 247.53 2725.27 2183.2 2725.27 2183.2C2725.27 2183.2 4487.15 2183.2 4759.02 2183.2" stroke="white" stroke-width="10" stroke-miterlimit="10" stroke-linecap="round" stroke-linejoin="round"/>
<path d="M2725.27 165.574H4754.23" stroke="white" stroke-width="10" stroke-miterlimit="10" stroke-linecap="round" stroke-linejoin="round"/>
<path d="M2725.27 211.15H4754.23" stroke="white" stroke-width="10" stroke-miterlimit="10" stroke-linecap="round" stroke-linejoin="round"/>
<path d="M2725.27 256.727H4754.23" stroke="white" stroke-width="10" stroke-miterlimit="10" stroke-linecap="round" stroke-linejoin="round"/>
<path d="M2725.27 302.303H4754.23" stroke="white" stroke-width="10" stroke-miterlimit="10" stroke-linecap="round" stroke-linejoin="round"/>
<path d="M2725.27 347.879H4754.23" stroke="white" stroke-width="10" stroke-miterlimit="10" stroke-linecap="round" stroke-linejoin="round"/>
<path d="M2725.27 393.455H4754.23" stroke="white" stroke-width="10" stroke-miterlimit="10" stroke-linecap="round" stroke-linejoin="round"/>
<path d="M2725.27 439.031H4754.23" stroke="white" stroke-width="10" stroke-miterlimit="10" stroke-linecap="round" stroke-linejoin="round"/>
<path d="M2725.27 484.608H4754.23" stroke="white" stroke-width="10" stroke-miterlimit="10" stroke-linecap="round" stroke-linejoin="round"/>
<path d="M2725.27 530.184H4754.23" stroke="white" stroke-width="10" stroke-miterlimit="10" stroke-linecap="round" stroke-linejoin="round"/>
<path d="M2725.27 575.76H4754.23" stroke="white" stroke-width="10" stroke-miterlimit="10" stroke-linecap="round" stroke-linejoin="round"/>
<path d="M2725.27 621.336H4754.23" stroke="white" stroke-width="10" stroke-miterlimit="10" stroke-linecap="round" stroke-linejoin="round"/>
<path d="M2725.27 666.913H4754.23" stroke="white" stroke-width="10" stroke-miterlimit="10" stroke-linecap="round" stroke-linejoin="round"/>
<path d="M2725.27 712.489H4754.23" stroke="white" stroke-width="10" stroke-miterlimit="10" stroke-linecap="round" stroke-linejoin="round"/>
<path d="M2725.27 758.065H4754.23" stroke="white" stroke-width="10" stroke-miterlimit="10" stroke-linecap="round" stroke-linejoin="round"/>
<path d="M2725.27 803.641H4754.23" stroke="white" stroke-width="10" stroke-miterlimit="10" stroke-linecap="round" stroke-linejoin="round"/>
<path d="M2725.27 849.218H4754.23" stroke="white" stroke-width="10" stroke-miterlimit="10" stroke-linecap="round" stroke-linejoin="round"/>
<path d="M2725.27 894.794H4754.23" stroke="white" stroke-width="10" stroke-miterlimit="10" stroke-linecap="round" stroke-linejoin="round"/>
<path d="M2725.27 940.37H4754.23" stroke="white" stroke-width="10" stroke-miterlimit="10" stroke-linecap="round" stroke-linejoin="round"/>
<path d="M2725.27 985.946H4754.23" stroke="white" stroke-width="10" stroke-miterlimit="10" stroke-linecap="round" stroke-linejoin="round"/>
<path d="M2725.27 1031.52H4754.23" stroke="white" stroke-width="10" stroke-miterlimit="10" stroke-linecap="round" stroke-linejoin="round"/>
<path d="M2725.27 1077.1H4754.23" stroke="white" stroke-width="10" stroke-miterlimit="10" stroke-linecap="round" stroke-linejoin="round"/>
<path d="M2725.27 1122.68H4754.23" stroke="white" stroke-width="10" stroke-miterlimit="10" stroke-linecap="round" stroke-linejoin="round"/>
<path d="M2725.27 1168.25H4754.23" stroke="white" stroke-width="10" stroke-miterlimit="10" stroke-linecap="round" stroke-linejoin="round"/>
<path d="M2725.27 1213.83H4754.23" stroke="white" stroke-width="10" stroke-miterlimit="10" stroke-linecap="round" stroke-linejoin="round"/>
<path d="M2725.27 1259.4H4754.23" stroke="white" stroke-width="10" stroke-miterlimit="10" stroke-linecap="round" stroke-linejoin="round"/>
<path d="M2725.27 1304.98H4754.23" stroke="white" stroke-width="10" stroke-miterlimit="10" stroke-linecap="round" stroke-linejoin="round"/>
<path d="M2725.27 1350.56H4754.23" stroke="white" stroke-width="10" stroke-miterlimit="10" stroke-linecap="round" stroke-linejoin="round"/>
<path d="M3818.2 2183.2C3691.24 1851.89 3961.44 1699.58 4085.14 1715.51C4036.31 1552.39 4195.83 1350.56 4339.07 1350.56" stroke="white" stroke-width="10" stroke-miterlimit="10" stroke-linecap="round" stroke-linejoin="round"/>
<path d="M2372.96 2356.08H2275.67V717.072C2275.67 690.208 2297.45 668.43 2324.32 668.43C2351.18 668.43 2372.96 690.208 2372.96 717.072L2372.96 2356.08Z" stroke="white" stroke-width="10" stroke-miterlimit="10" stroke-linecap="round" stroke-linejoin="round"/>
<path d="M2313.22 775.488H2275.67" stroke="white" stroke-width="10" stroke-miterlimit="10" stroke-linecap="round" stroke-linejoin="round"/>
<path d="M2313.22 802.023H2275.67" stroke="white" stroke-width="10" stroke-miterlimit="10" stroke-linecap="round" stroke-linejoin="round"/>
<path d="M2313.22 828.557H2275.67" stroke="white" stroke-width="10" stroke-miterlimit="10" stroke-linecap="round" stroke-linejoin="round"/>
<path d="M2313.22 855.092H2275.67" stroke="white" stroke-width="10" stroke-miterlimit="10" stroke-linecap="round" stroke-linejoin="round"/>
<path d="M2313.22 881.627H2275.67" stroke="white" stroke-width="10" stroke-miterlimit="10" stroke-linecap="round" stroke-linejoin="round"/>
<path d="M2313.22 908.162H2275.67" stroke="white" stroke-width="10" stroke-miterlimit="10" stroke-linecap="round" stroke-linejoin="round"/>
<path d="M2313.22 934.696H2275.67" stroke="white" stroke-width="10" stroke-miterlimit="10" stroke-linecap="round" stroke-linejoin="round"/>
<path d="M2313.22 961.231H2275.67" stroke="white" stroke-width="10" stroke-miterlimit="10" stroke-linecap="round" stroke-linejoin="round"/>
<path d="M2313.22 987.766H2275.67" stroke="white" stroke-width="10" stroke-miterlimit="10" stroke-linecap="round" stroke-linejoin="round"/>
<path d="M2313.22 1014.3H2275.67" stroke="white" stroke-width="10" stroke-miterlimit="10" stroke-linecap="round" stroke-linejoin="round"/>
<path d="M2313.22 1040.83H2275.67" stroke="white" stroke-width="10" stroke-miterlimit="10" stroke-linecap="round" stroke-linejoin="round"/>
<path d="M2313.22 1067.37H2275.67" stroke="white" stroke-width="10" stroke-miterlimit="10" stroke-linecap="round" stroke-linejoin="round"/>
<path d="M2313.22 1093.91H2275.67" stroke="white" stroke-width="10" stroke-miterlimit="10" stroke-linecap="round" stroke-linejoin="round"/>
<path d="M2313.22 1120.44H2275.67" stroke="white" stroke-width="10" stroke-miterlimit="10" stroke-linecap="round" stroke-linejoin="round"/>
<path d="M2313.22 1146.97H2275.67" stroke="white" stroke-width="10" stroke-miterlimit="10" stroke-linecap="round" stroke-linejoin="round"/>
<path d="M2313.22 1173.51H2275.67" stroke="white" stroke-width="10" stroke-miterlimit="10" stroke-linecap="round" stroke-linejoin="round"/>
<path d="M2313.22 1200.04H2275.67" stroke="white" stroke-width="10" stroke-miterlimit="10" stroke-linecap="round" stroke-linejoin="round"/>
<path d="M2313.22 1226.58H2275.67" stroke="white" stroke-width="10" stroke-miterlimit="10" stroke-linecap="round" stroke-linejoin="round"/>
<path d="M2313.22 1253.11H2275.67" stroke="white" stroke-width="10" stroke-miterlimit="10" stroke-linecap="round" stroke-linejoin="round"/>
<path d="M2313.22 1279.65H2275.67" stroke="white" stroke-width="10" stroke-miterlimit="10" stroke-linecap="round" stroke-linejoin="round"/>
<path d="M2313.22 1306.18H2275.67" stroke="white" stroke-width="10" stroke-miterlimit="10" stroke-linecap="round" stroke-linejoin="round"/>
<path d="M2313.22 1332.72H2275.67" stroke="white" stroke-width="10" stroke-miterlimit="10" stroke-linecap="round" stroke-linejoin="round"/>
<path d="M2313.22 1359.25H2275.67" stroke="white" stroke-width="10" stroke-miterlimit="10" stroke-linecap="round" stroke-linejoin="round"/>
<path d="M2313.22 1385.79H2275.67" stroke="white" stroke-width="10" stroke-miterlimit="10" stroke-linecap="round" stroke-linejoin="round"/>
<path d="M2313.22 1412.32H2275.67" stroke="white" stroke-width="10" stroke-miterlimit="10" stroke-linecap="round" stroke-linejoin="round"/>
<path d="M2313.22 1438.86H2275.67" stroke="white" stroke-width="10" stroke-miterlimit="10" stroke-linecap="round" stroke-linejoin="round"/>
<path d="M2313.22 1465.39H2275.67" stroke="white" stroke-width="10" stroke-miterlimit="10" stroke-linecap="round" stroke-linejoin="round"/>
<path d="M2313.22 1491.93H2275.67" stroke="white" stroke-width="10" stroke-miterlimit="10" stroke-linecap="round" stroke-linejoin="round"/>
<path d="M2313.22 1518.46H2275.67" stroke="white" stroke-width="10" stroke-miterlimit="10" stroke-linecap="round" stroke-linejoin="round"/>
<path d="M2313.22 1544.99H2275.67" stroke="white" stroke-width="10" stroke-miterlimit="10" stroke-linecap="round" stroke-linejoin="round"/>
<path d="M2313.22 1571.53H2275.67" stroke="white" stroke-width="10" stroke-miterlimit="10" stroke-linecap="round" stroke-linejoin="round"/>
<path d="M2313.22 1598.06H2275.67" stroke="white" stroke-width="10" stroke-miterlimit="10" stroke-linecap="round" stroke-linejoin="round"/>
<path d="M2313.22 1624.6H2275.67" stroke="white" stroke-width="10" stroke-miterlimit="10" stroke-linecap="round" stroke-linejoin="round"/>
<path d="M2313.22 1651.13H2275.67" stroke="white" stroke-width="10" stroke-miterlimit="10" stroke-linecap="round" stroke-linejoin="round"/>
<path d="M2313.22 1677.67H2275.67" stroke="white" stroke-width="10" stroke-miterlimit="10" stroke-linecap="round" stroke-linejoin="round"/>
<path d="M2313.22 1704.2H2275.67" stroke="white" stroke-width="10" stroke-miterlimit="10" stroke-linecap="round" stroke-linejoin="round"/>
<path d="M2313.22 1730.74H2275.67" stroke="white" stroke-width="10" stroke-miterlimit="10" stroke-linecap="round" stroke-linejoin="round"/>
<path d="M2313.22 1757.27H2275.67" stroke="white" stroke-width="10" stroke-miterlimit="10" stroke-linecap="round" stroke-linejoin="round"/>
<path d="M2313.22 1783.81H2275.67" stroke="white" stroke-width="10" stroke-miterlimit="10" stroke-linecap="round" stroke-linejoin="round"/>
<path d="M2313.22 1810.34H2275.67" stroke="white" stroke-width="10" stroke-miterlimit="10" stroke-linecap="round" stroke-linejoin="round"/>
<path d="M2313.22 1836.88H2275.67" stroke="white" stroke-width="10" stroke-miterlimit="10" stroke-linecap="round" stroke-linejoin="round"/>
<path d="M2313.22 1863.41H2275.67" stroke="white" stroke-width="10" stroke-miterlimit="10" stroke-linecap="round" stroke-linejoin="round"/>
<path d="M2313.22 1889.95H2275.67" stroke="white" stroke-width="10" stroke-miterlimit="10" stroke-linecap="round" stroke-linejoin="round"/>
<path d="M2313.22 1916.48H2275.67" stroke="white" stroke-width="10" stroke-miterlimit="10" stroke-linecap="round" stroke-linejoin="round"/>
<path d="M2313.22 1943.02H2275.67" stroke="white" stroke-width="10" stroke-miterlimit="10" stroke-linecap="round" stroke-linejoin="round"/>
<path d="M2313.22 1969.55H2275.67" stroke="white" stroke-width="10" stroke-miterlimit="10" stroke-linecap="round" stroke-linejoin="round"/>
<path d="M2313.22 1996.08H2275.67" stroke="white" stroke-width="10" stroke-miterlimit="10" stroke-linecap="round" stroke-linejoin="round"/>
<path d="M2313.22 2022.62H2275.67" stroke="white" stroke-width="10" stroke-miterlimit="10" stroke-linecap="round" stroke-linejoin="round"/>
<path d="M2313.22 2049.16H2275.67" stroke="white" stroke-width="10" stroke-miterlimit="10" stroke-linecap="round" stroke-linejoin="round"/>
<path d="M2313.22 2075.69H2275.67" stroke="white" stroke-width="10" stroke-miterlimit="10" stroke-linecap="round" stroke-linejoin="round"/>
<path d="M2313.22 2102.22H2275.67" stroke="white" stroke-width="10" stroke-miterlimit="10" stroke-linecap="round" stroke-linejoin="round"/>
<path d="M2313.22 2128.76H2275.67" stroke="white" stroke-width="10" stroke-miterlimit="10" stroke-linecap="round" stroke-linejoin="round"/>
<path d="M2313.22 2155.29H2275.67" stroke="white" stroke-width="10" stroke-miterlimit="10" stroke-linecap="round" stroke-linejoin="round"/>
<path d="M2313.22 2181.83H2275.67" stroke="white" stroke-width="10" stroke-miterlimit="10" stroke-linecap="round" stroke-linejoin="round"/>
<path d="M2313.22 2208.36H2275.67" stroke="white" stroke-width="10" stroke-miterlimit="10" stroke-linecap="round" stroke-linejoin="round"/>
<path d="M2313.22 2234.9H2275.67" stroke="white" stroke-width="10" stroke-miterlimit="10" stroke-linecap="round" stroke-linejoin="round"/>
<path d="M2313.22 2261.43H2275.67" stroke="white" stroke-width="10" stroke-miterlimit="10" stroke-linecap="round" stroke-linejoin="round"/>
<path d="M2313.22 2287.97H2275.67" stroke="white" stroke-width="10" stroke-miterlimit="10" stroke-linecap="round" stroke-linejoin="round"/>
<path d="M2313.22 2314.5H2275.67" stroke="white" stroke-width="10" stroke-miterlimit="10" stroke-linecap="round" stroke-linejoin="round"/>
<path d="M2209.3 1453.87L2220.93 1365.83L1999.17 1336.53L2085.9 680.21L1996.75 668.43L1898.39 1412.79L2209.3 1453.87Z" stroke="white" stroke-width="10" stroke-miterlimit="10" stroke-linecap="round" stroke-linejoin="round"/>
<path d="M1926.75 1385.79L1902.38 1382.57" stroke="white" stroke-width="10" stroke-miterlimit="10" stroke-linecap="round" stroke-linejoin="round"/>
<path d="M1930.26 1359.25L1905.89 1356.03" stroke="white" stroke-width="10" stroke-miterlimit="10" stroke-linecap="round" stroke-linejoin="round"/>
<path d="M1933.76 1332.72L1909.39 1329.5" stroke="white" stroke-width="10" stroke-miterlimit="10" stroke-linecap="round" stroke-linejoin="round"/>
<path d="M1937.27 1306.18L1912.9 1302.96" stroke="white" stroke-width="10" stroke-miterlimit="10" stroke-linecap="round" stroke-linejoin="round"/>
<path d="M1940.78 1279.65L1916.41 1276.43" stroke="white" stroke-width="10" stroke-miterlimit="10" stroke-linecap="round" stroke-linejoin="round"/>
<path d="M1944.28 1253.11L1919.91 1249.89" stroke="white" stroke-width="10" stroke-miterlimit="10" stroke-linecap="round" stroke-linejoin="round"/>
<path d="M1947.79 1226.58L1923.42 1223.36" stroke="white" stroke-width="10" stroke-miterlimit="10" stroke-linecap="round" stroke-linejoin="round"/>
<path d="M1951.3 1200.04L1926.93 1196.82" stroke="white" stroke-width="10" stroke-miterlimit="10" stroke-linecap="round" stroke-linejoin="round"/>
<path d="M1954.8 1173.51L1930.43 1170.29" stroke="white" stroke-width="10" stroke-miterlimit="10" stroke-linecap="round" stroke-linejoin="round"/>
<path d="M1958.31 1146.97L1933.94 1143.75" stroke="white" stroke-width="10" stroke-miterlimit="10" stroke-linecap="round" stroke-linejoin="round"/>
<path d="M1961.82 1120.44L1937.45 1117.22" stroke="white" stroke-width="10" stroke-miterlimit="10" stroke-linecap="round" stroke-linejoin="round"/>
<path d="M1965.32 1093.91L1940.95 1090.68" stroke="white" stroke-width="10" stroke-miterlimit="10" stroke-linecap="round" stroke-linejoin="round"/>
<path d="M1968.83 1067.37L1944.46 1064.15" stroke="white" stroke-width="10" stroke-miterlimit="10" stroke-linecap="round" stroke-linejoin="round"/>
<path d="M1972.34 1040.83L1947.97 1037.61" stroke="white" stroke-width="10" stroke-miterlimit="10" stroke-linecap="round" stroke-linejoin="round"/>
<path d="M1975.84 1014.3L1951.47 1011.08" stroke="white" stroke-width="10" stroke-miterlimit="10" stroke-linecap="round" stroke-linejoin="round"/>
<path d="M1979.35 987.766L1954.98 984.545" stroke="white" stroke-width="10" stroke-miterlimit="10" stroke-linecap="round" stroke-linejoin="round"/>
<path d="M1982.86 961.231L1958.49 958.01" stroke="white" stroke-width="10" stroke-miterlimit="10" stroke-linecap="round" stroke-linejoin="round"/>
<path d="M1986.36 934.696L1961.99 931.476" stroke="white" stroke-width="10" stroke-miterlimit="10" stroke-linecap="round" stroke-linejoin="round"/>
<path d="M1989.87 908.162L1965.5 904.941" stroke="white" stroke-width="10" stroke-miterlimit="10" stroke-linecap="round" stroke-linejoin="round"/>
<path d="M1993.38 881.627L1969.01 878.406" stroke="white" stroke-width="10" stroke-miterlimit="10" stroke-linecap="round" stroke-linejoin="round"/>
<path d="M1996.88 855.092L1972.51 851.872" stroke="white" stroke-width="10" stroke-miterlimit="10" stroke-linecap="round" stroke-linejoin="round"/>
<path d="M2000.39 828.557L1976.02 825.337" stroke="white" stroke-width="10" stroke-miterlimit="10" stroke-linecap="round" stroke-linejoin="round"/>
<path d="M2003.9 802.023L1979.53 798.802" stroke="white" stroke-width="10" stroke-miterlimit="10" stroke-linecap="round" stroke-linejoin="round"/>
<path d="M2007.4 775.488L1983.03 772.267" stroke="white" stroke-width="10" stroke-miterlimit="10" stroke-linecap="round" stroke-linejoin="round"/>
<path d="M2050.57 716.598C2052.34 709.11 2047.7 701.607 2040.21 699.839C2032.73 698.071 2025.22 702.708 2023.45 710.195C2021.69 717.683 2026.32 725.186 2033.81 726.954C2041.3 728.722 2048.8 724.086 2050.57 716.598Z" stroke="white" stroke-width="10" stroke-miterlimit="10" stroke-linecap="round" stroke-linejoin="round"/>
<path d="M2329.71 726.112C2336.82 723.168 2340.19 715.018 2337.25 707.91C2334.3 700.802 2326.15 697.426 2319.04 700.371C2311.94 703.315 2308.56 711.464 2311.51 718.573C2314.45 725.681 2322.6 729.057 2329.71 726.112Z" stroke="white" stroke-width="10" stroke-miterlimit="10" stroke-linecap="round" stroke-linejoin="round"/>
<path d="M1979.53 781.757H1690.43C1679.21 781.757 1670.11 772.661 1670.11 761.441V620.789C1670.11 609.569 1679.21 600.473 1690.43 600.473H2395.09C2406.31 600.473 2415.4 609.569 2415.4 620.789V761.442C2415.4 772.662 2406.31 781.758 2395.09 781.758H2372.96" stroke="white" stroke-width="10" stroke-miterlimit="10" stroke-linecap="round" stroke-linejoin="round"/>
<path d="M2275.68 781.757H2072.48" stroke="white" stroke-width="10" stroke-miterlimit="10" stroke-linecap="round" stroke-linejoin="round"/>
<path d="M2324.32 678.633V712.379" stroke="white" stroke-width="10" stroke-miterlimit="10" stroke-linecap="round" stroke-linejoin="round"/>
<path d="M2036.95 678.633V712.379" stroke="white" stroke-width="10" stroke-miterlimit="10" stroke-linecap="round" stroke-linejoin="round"/>
<path d="M1749.59 678.633V712.379" stroke="white" stroke-width="10" stroke-miterlimit="10" stroke-linecap="round" stroke-linejoin="round"/>
<path d="M2397.83 1755.69C2428.22 1737.62 2490.81 1757.68 2505.44 1765.11C2596.02 1811.12 2633.59 2030.47 2530.91 2061.6C2482.78 2076.18 2387.42 2010.48 2358.67 1934.97C2337.85 1880.26 2323.96 1799.61 2397.83 1755.69Z" fill="#C92627"/>
<path d="M2179.23 1893.57L2206.77 1830.54L2546.34 1800.5L2560.89 1998.98L2178.98 1949.66L2179.23 1893.57Z" fill="#E17847"/>
<path d="M2041.36 1894.1L2018.77 1860.37C2027.56 1852.47 2127.22 1826.62 2139.02 1827.2L2305.3 1821.82C2321.33 1822.61 2318.52 1848.26 2318.52 1890.74C2318.52 1924.32 2276.31 1947.87 2255.66 1944.06L2102.56 1906.3C2093.46 1904.63 2067.01 1920.12 2062.87 1911.84L2035.64 1923.09C2029.7 1911.21 2031.48 1902.97 2041.36 1894.1Z" fill="#E17847"/>
<path d="M2052.93 1884.98C2063.07 1881.69 2068.61 1870.81 2065.32 1860.68C2062.03 1850.55 2051.16 1845 2041.02 1848.29C2033.5 1850.73 1932.33 1884.19 1924.81 1886.63C1914.68 1889.92 1909.13 1900.8 1912.42 1910.93C1915.71 1921.07 1926.59 1926.61 1936.72 1923.32C1944.24 1920.88 2045.41 1887.42 2052.93 1884.98Z" fill="#E17847"/>
<path d="M2080.8 1896.06C2089.86 1890.46 2092.66 1878.57 2087.05 1869.51C2081.45 1860.45 2069.56 1857.65 2060.5 1863.26C2053.78 1867.42 1963.47 1923.98 1956.75 1928.14C1947.69 1933.74 1944.89 1945.63 1950.49 1954.69C1956.09 1963.75 1967.98 1966.55 1977.04 1960.94C1983.77 1956.78 2074.07 1900.22 2080.8 1896.06Z" fill="#E17847"/>
<path d="M2122.59 1907.05C2131.65 1901.44 2134.45 1889.56 2128.85 1880.5C2123.24 1871.44 2111.36 1868.64 2102.3 1874.24C2095.57 1878.4 2005.27 1934.97 1998.54 1939.13C1989.48 1944.73 1986.68 1956.62 1992.29 1965.68C1997.89 1974.74 2009.78 1977.54 2018.83 1971.93C2025.56 1967.77 2115.87 1911.21 2122.59 1907.05Z" fill="#E17847"/>
<path d="M1997.78 1902.48L2056.82 1885.81" stroke="black" stroke-width="10" stroke-miterlimit="10" stroke-linecap="round" stroke-linejoin="round"/>
<path d="M1991.91 1951.66L2062.87 1905.3" stroke="black" stroke-width="10" stroke-miterlimit="10" stroke-linecap="round" stroke-linejoin="round"/>
<path d="M3177.17 1419.19C3110.46 1179.23 3108.21 1148.62 3003.86 1236.4C2899.51 1324.18 2727.47 1714.69 2727.47 1714.69C2727.47 1714.69 2428.28 1798.75 2407.6 1803.07C2495.5 1827.15 2480.85 2026.28 2480.85 2026.28C2480.85 2026.28 2734.67 2022.33 2933.02 1961.64C3218.78 1874.19 3177.17 1419.19 3177.17 1419.19Z" fill="#C92627"/>
<path d="M2518.86 1772.64C2621.76 1828.35 2586.77 1998.98 2586.77 1998.98" stroke="black" stroke-width="10" stroke-miterlimit="10" stroke-linecap="round" stroke-linejoin="round"/>
<path d="M2474.13 2012.49C2474.13 2012.49 2497.22 1871.36 2425.53 1811.19" stroke="black" stroke-width="10" stroke-miterlimit="10" stroke-linecap="round" stroke-linejoin="round"/>
<path d="M3103.67 793.436C3051.78 737.235 3018.33 618.784 3094.7 581.502C3131.8 563.391 3151.99 580.584 3199.33 576.004C3260.42 570.094 3274.69 550.674 3332.77 543.313C3393.1 535.668 3382.67 592.557 3447.76 625.364C3490.43 646.874 3508.75 634.386 3532.42 671.403C3551.75 701.643 3529.82 708.372 3522.46 756.479C3514.56 808.138 3547.45 804.271 3544.33 866.749C3542.76 898.163 3516.9 913.662 3508.93 941.297C3498.35 977.99 3513.37 1031.17 3474.65 1029.86C3352.16 1025.69 3409.28 795.811 3351.53 740.911C3293.77 686.01 3103.67 793.436 3103.67 793.436Z" fill="black"/>
<path d="M1977.89 2571.52L1977.64 2548.64L1943.46 2561.63C1943.26 2560.45 1943.05 2559.27 1942.83 2558.08C1941.39 2550.41 1939.59 2542.9 1937.46 2535.56C1943 2509.07 1951.65 2482.37 1951.65 2482.37L1943.6 2460.95L1915.97 2484.8C1911.51 2476.99 1906.62 2469.49 1901.35 2462.31C1897.51 2435.55 1896.51 2407.56 1896.51 2407.56L1881.61 2390.18L1863.78 2422.1C1856.97 2416.34 1849.84 2410.97 1842.44 2406.02C1829.64 2382.15 1819.1 2356.12 1819.1 2356.12L1799.16 2344.89L1793.32 2380.95C1784.96 2377.85 1776.4 2375.22 1767.67 2373.08C1747.52 2355.05 1728.77 2334.26 1728.77 2334.26L1706.19 2330.52L1713.04 2366.4C1704.21 2366.36 1695.3 2366.83 1686.34 2367.83C1661.21 2357.77 1636.41 2344.61 1636.41 2344.61L1613.92 2348.82L1632.63 2380.2C1624.13 2383.24 1615.88 2386.74 1607.92 2390.66C1580.9 2389.8 1553.16 2385.93 1553.16 2385.93L1533.47 2397.58L1561.77 2420.66C1554.9 2426.38 1548.38 2432.48 1542.23 2438.92C1516.51 2447.37 1489.06 2453.22 1489.06 2453.22L1474.54 2470.91L1509.07 2482.93C1504.57 2490.63 1500.51 2498.59 1496.91 2506.77C1475.63 2523.5 1451.85 2538.39 1451.85 2538.39L1444.25 2559.97L1480.75 2559.46C1479.16 2568.21 1478.07 2577.09 1477.49 2586.08C1463.23 2609.06 1446.01 2631.14 1446.01 2631.14L1446.25 2654.03L1480.43 2641.04C1480.63 2642.22 1480.84 2643.4 1481.06 2644.58C1482.5 2652.25 1484.3 2659.76 1486.43 2667.11C1480.89 2693.6 1472.24 2720.3 1472.24 2720.3L1480.3 2741.72L1507.93 2717.87C1512.39 2725.67 1517.27 2733.18 1522.54 2740.36C1526.39 2767.12 1527.38 2795.11 1527.38 2795.11L1542.28 2812.49L1560.11 2780.57C1566.92 2786.33 1574.05 2791.7 1581.46 2796.65C1594.25 2820.52 1604.79 2846.55 1604.79 2846.55L1624.73 2857.78L1630.57 2821.72C1638.93 2824.82 1647.49 2827.45 1656.22 2829.58C1676.37 2847.61 1695.12 2868.41 1695.12 2868.41L1717.7 2872.14L1710.85 2836.27C1719.68 2836.3 1728.6 2835.83 1737.55 2834.84C1762.68 2844.9 1787.48 2858.06 1787.48 2858.06L1809.97 2853.84L1791.26 2822.47C1799.76 2819.43 1808.01 2815.93 1815.97 2812C1842.99 2812.87 1870.73 2816.74 1870.73 2816.74L1890.43 2805.09L1862.12 2782.01C1868.99 2776.29 1875.51 2770.19 1881.66 2763.75C1907.38 2755.3 1934.83 2749.45 1934.83 2749.45L1949.35 2731.76L1914.82 2719.74C1919.32 2712.04 1923.38 2704.08 1926.99 2695.9C1948.26 2679.17 1972.04 2664.28 1972.04 2664.28L1979.64 2642.7L1943.14 2643.21C1944.73 2634.46 1945.82 2625.57 1946.4 2616.59C1960.66 2593.61 1977.89 2571.52 1977.89 2571.52Z" fill="#FFB31F"/>
<path d="M1759.65 2603C1760.52 2576.58 1739.82 2554.45 1713.4 2553.58C1686.99 2552.7 1664.86 2573.4 1663.98 2599.82C1663.1 2626.24 1683.81 2648.36 1710.23 2649.24C1736.64 2650.12 1758.77 2629.41 1759.65 2603Z" stroke="black" stroke-width="10" stroke-miterlimit="10" stroke-linecap="round" stroke-linejoin="round"/>
<path d="M2465.79 4738.23H3102.8L3080.65 4633.65L2875.76 4590.39L2465.79 4738.23Z" fill="black"/>
<path d="M3112.23 4779.29C3112.1 4764.6 3111.95 4743.82 3111.84 4738.23H2454.13C2454.23 4743.5 2454.38 4764.44 2454.51 4779.29H3112.23Z" fill="#FFB31F"/>
<path d="M2454.13 4738.23H3111.84" stroke="black" stroke-width="10" stroke-miterlimit="10" stroke-linecap="round" stroke-linejoin="round"/>
<path d="M3795.93 4735.47H3450.76L3476.1 4559.02L3632.49 4538.4L3795.93 4735.47Z" fill="black"/>
<path d="M3440.27 4781.2C3440.41 4764.84 3440.58 4741.69 3440.7 4735.47H3808.91C3808.8 4741.34 3808.63 4764.66 3808.48 4781.2H3440.27Z" fill="#FFB31F"/>
<path d="M3808.91 4735.47H3440.7" stroke="black" stroke-width="10" stroke-miterlimit="10" stroke-linecap="round" stroke-linejoin="round"/>
<path d="M3036.19 2292.93C2919.91 2796.8 2810.6 4619.36 2810.6 4619.36L3122.67 4654.27L3405.09 2723.79L3424.34 4618.46L3751.74 4598.76C3751.74 4598.76 3922.78 2678.27 3747.7 2298.02C3560.42 1891.29 3036.19 2292.93 3036.19 2292.93Z" fill="#0A74BE"/>
<path d="M3289.45 2745.95L3516.28 2701.63" stroke="black" stroke-width="10" stroke-miterlimit="10" stroke-linecap="round" stroke-linejoin="round"/>
<path d="M3320.46 2688.95L3534.44 2775.56" stroke="black" stroke-width="10" stroke-miterlimit="10" stroke-linecap="round" stroke-linejoin="round"/>
<path d="M2810.6 4619.37L3122.67 4654.27L2948.16 4591.79" stroke="black" stroke-width="10" stroke-miterlimit="10" stroke-linecap="round" stroke-linejoin="round"/>
<path d="M3435.79 4616.55L3751.74 4598.76" stroke="black" stroke-width="10" stroke-miterlimit="10" stroke-linecap="round" stroke-linejoin="round"/>
<path d="M3513.24 4541.79L3751.74 4598.76" stroke="black" stroke-width="10" stroke-miterlimit="10" stroke-linecap="round" stroke-linejoin="round"/>
<path d="M3020.26 2664.85C2895.7 3338.16 2873.96 4418.19 2873.96 4418.19" stroke="black" stroke-width="10" stroke-miterlimit="10" stroke-linecap="round" stroke-linejoin="round"/>
<path d="M3405.1 2723.79L3328.79 3011.94" stroke="black" stroke-width="10" stroke-miterlimit="10" stroke-linecap="round" stroke-linejoin="round"/>
<path d="M3781.33 2777.8C3836.01 3364.63 3737.07 4300.17 3737.07 4300.17" stroke="black" stroke-width="10" stroke-miterlimit="10" stroke-linecap="round" stroke-linejoin="round"/>
<path d="M3467.77 3526.68L3413.79 3550.95L3497.66 3565.77" stroke="black" stroke-width="10" stroke-miterlimit="10" stroke-linecap="round" stroke-linejoin="round"/>
<path d="M2995.1 1258.64C2971.09 1578.79 3051.69 1568.7 3078.03 2446.99L3718.68 2471.52C3716.96 2484.76 3849.11 1297.66 3836.17 1270.27C3770.28 1130.73 3005.58 1119.01 2995.1 1258.64Z" fill="#C92627"/>
<path d="M3097.96 1647.62L3567.5 1671.96L3804.82 1868.55L3737.07 2506.88L3028.51 2519.21L3043.68 1962.21L3097.96 1647.62Z" fill="#0A74BE"/>
<path d="M3127.1 2381.56C3536.02 2436.08 3758.54 2304.59 3758.54 2304.59" stroke="black" stroke-width="10" stroke-miterlimit="10" stroke-linecap="round" stroke-linejoin="round"/>
<path d="M3680.94 1190.53C3680.3 1190.38 3529.4 1705.51 3529.4 1705.51L3605.17 1754.01L3764.79 1214.94L3680.94 1190.53Z" fill="#0A74BE"/>
<path d="M3063.5 1194.98C3063.5 1194.98 3006.09 1667.86 3037.38 1928.57C3049.89 2032.86 3184.62 1716.4 3184.62 1716.4C3112.1 1696.64 3135.9 1285.55 3156.93 1166.95L3063.5 1194.98Z" fill="#0A74BE"/>
<path d="M3209.48 1167.85C3268.24 1161.3 3346.32 1093.19 3412.81 1094.38C3484.34 1095.66 3544.37 1166.85 3609.01 1176.85C3684.25 1361.19 3129.01 1282.19 3209.48 1167.85Z" fill="#E17847"/>
<path d="M3609.01 1176.85C3684.25 1361.19 3129.01 1282.19 3209.48 1167.85" stroke="black" stroke-width="10" stroke-miterlimit="10" stroke-linecap="round" stroke-linejoin="round"/>
<path d="M3654.54 1218.32C3618.53 1389.92 3291.1 1324.02 3220.19 1270" stroke="black" stroke-width="10" stroke-miterlimit="10" stroke-linecap="round" stroke-linejoin="round"/>
<path d="M3529.69 1141.62L3606.02 1180.71" stroke="black" stroke-width="10" stroke-miterlimit="10" stroke-linecap="round" stroke-linejoin="round"/>
<path d="M3159.63 1167.85C3104.23 1450.24 3135.9 1655.06 3135.9 1655.06L3539.65 1670.52L3583.5 1520.98" stroke="black" stroke-width="10" stroke-miterlimit="10" stroke-linecap="round" stroke-linejoin="round"/>
<path d="M3765.12 1213.95L3616.04 1713.38L3721.68 1811.71" stroke="black" stroke-width="10" stroke-miterlimit="10" stroke-linecap="round" stroke-linejoin="round"/>
<path d="M2888.94 3526.68L2965.12 3546.23" stroke="black" stroke-width="10" stroke-miterlimit="10" stroke-linecap="round" stroke-linejoin="round"/>
<path d="M3063.5 1194.98C3063.5 1194.98 2990.69 1582.33 3032.95 1883.1" stroke="black" stroke-width="10" stroke-miterlimit="10" stroke-linecap="round" stroke-linejoin="round"/>
<path d="M3471.43 889.138L3529.36 1163.23C3539.66 1246.9 3300.54 1282.82 3287.51 1196.47C3274.47 1110.11 3257.82 811.455 3257.82 811.455C3257.82 811.455 3416.42 663.18 3471.43 889.138Z" fill="#E17847"/>
<path d="M3201.14 613.99C3528.82 529.883 3467.22 1079.54 3329.7 1114.84C3215.95 1144.04 3162.13 1027.91 3127.57 903.29C3092.42 776.595 3056.83 651.032 3201.14 613.99Z" fill="#E17847"/>
<path d="M3341.11 1111.91C3196.92 1148.92 3161.99 1024.45 3127.43 899.834C3092.29 773.14 3068.24 648.102 3212.56 611.06" stroke="black" stroke-width="10" stroke-miterlimit="10" stroke-linecap="round" stroke-linejoin="round"/>
<path d="M3241.06 850.921C3252.93 832.183 3275.38 862.12 3258.57 874.599C3241.77 887.078 3236.13 858.722 3241.06 850.921Z" fill="black"/>
<path d="M3138.67 875.578C3150.53 856.84 3172.98 886.777 3156.18 899.256C3139.37 911.735 3133.73 883.378 3138.67 875.578Z" fill="black"/>
<path d="M3116.71 850.189C3127.47 836.999 3159.38 839.43 3167.11 840.61" stroke="black" stroke-width="10" stroke-miterlimit="10" stroke-linecap="round" stroke-linejoin="round"/>
<path d="M3227.92 825.448C3233.7 816.907 3275.01 802.872 3313.39 811.701" stroke="black" stroke-width="10" stroke-miterlimit="10" stroke-linecap="round" stroke-linejoin="round"/>
<path d="M3204.23 856.481C3211.47 924.442 3206.69 948.072 3206.69 948.072C3206.69 948.072 3213.9 956.393 3233.2 951.439" stroke="black" stroke-width="10" stroke-miterlimit="10" stroke-linecap="round" stroke-linejoin="round"/>
<path d="M3103.67 793.436C3094.41 727.327 3126.54 713.185 3154.58 721.846C3182.61 730.507 3231.2 754.445 3373.85 712.568C3373.85 712.568 3406.54 851.065 3430.57 865.276C3454.59 879.487 3488.88 851.548 3478.31 786.132C3454.02 635.831 3374.42 569.513 3272.01 579.046C3246.43 581.428 3173.22 614.843 3172.11 591.122C3095.74 605.498 3039.43 696.283 3103.67 793.436Z" fill="black"/>
<path d="M3412.27 922.971C3356.78 878.437 3429.95 774.72 3468.49 816.491C3507.03 858.262 3464.18 964.639 3412.27 922.971Z" fill="#E17847"/>
<path d="M3439.6 892.045C3439.6 892.045 3462.66 867.351 3441.71 852.651" stroke="black" stroke-width="10" stroke-miterlimit="10" stroke-linecap="round" stroke-linejoin="round"/>
<path d="M3405.18 837.274C3421.36 811.056 3449.25 795.631 3468.49 816.491C3501.5 852.263 3474.81 935.416 3433.86 932.393" stroke="black" stroke-width="10" stroke-miterlimit="10" stroke-linecap="round" stroke-linejoin="round"/>
<path d="M3210.21 961.787C3258.9 939.696 3311.86 955.98 3331.99 995.423C3376.34 985.071 3397.84 885.976 3397.84 885.976C3397.84 885.976 3414.51 953.197 3429.18 970.097C3443.85 986.997 3413.07 1102.62 3369.83 1144.81C3322.95 1190.54 3261.47 1210.42 3222.1 1160.84C3178.96 1106.51 3160.23 1004.21 3160.23 1004.21C3160.23 1004.21 3174.94 1026.2 3186.48 1022.05C3177.32 990.022 3185.96 972.787 3210.21 961.787Z" fill="black"/>
<path d="M3198.36 1031.19C3187.52 988.782 3289.87 989.636 3304.95 1019.08C3314.54 1037.82 3303.86 1069.35 3265.54 1072.95C3227.21 1076.56 3205.39 1058.73 3198.36 1031.19Z" fill="#E17847"/>
<path d="M3220.86 1044.48C3220.86 1044.48 3255.04 1041.69 3279.66 1017.75" stroke="black" stroke-width="10" stroke-miterlimit="10" stroke-linecap="round" stroke-linejoin="round"/>
<path d="M3892.21 2659.94L4205.1 4781.2" stroke="black" stroke-width="10" stroke-miterlimit="10" stroke-linecap="round" stroke-linejoin="round"/>
<path d="M3565.97 1954.18C3552.59 1896.06 3517.78 1884.43 3497.18 1900.98C3476.59 1917.52 3452.99 1954.69 3451.1 2016.77C3449.29 2076.68 3452.47 2136.93 3491.13 2183.7C3529.79 2230.46 3587.01 2100.82 3576.73 2034.65C3566.45 1968.49 3565.97 1954.18 3565.97 1954.18Z" fill="#C92627"/>
<path d="M3573.47 1937.82L3314 1952.24C3314 1952.24 3263.53 1920.6 3232.13 1918.72C3168.55 1914.91 3106.33 1930.45 3106.33 1930.45L3241.74 2153.2C3241.74 2153.2 3299 2153.24 3316.15 2138.73C3333.3 2124.21 3375.34 2101.36 3375.34 2101.36L3601.88 2166.39L3573.47 1937.82Z" fill="#E17847"/>
<path d="M3324.2 2132.47L3375.34 2101.36L3599.29 2160.12" stroke="black" stroke-width="10" stroke-miterlimit="10" stroke-linecap="round" stroke-linejoin="round"/>
<path d="M3380.58 2601.33H2205.79L1812.34 1191.64H2987.13L3380.58 2601.33ZM3301.54 2541.33L2941.58 1251.64H1891.38L2251.34 2541.33H3301.54Z" fill="#FFB31F"/>
<path d="M3323.05 2601.33H2148.26L1754.81 1191.64H2929.6L3323.05 2601.33ZM3244.01 2541.33L2884.05 1251.64H1833.85L2193.81 2541.33H3244.01Z" fill="#FFB31F"/>
<path d="M1923.69 1251.64H1833.85L2193.81 2541.33H2270.75" stroke="black" stroke-width="10" stroke-miterlimit="10" stroke-linecap="round" stroke-linejoin="round"/>
<path d="M2935.82 1213.95L3323.05 2601.33" stroke="black" stroke-width="10" stroke-miterlimit="10" stroke-linecap="round" stroke-linejoin="round"/>
<path d="M2041.36 1894.1H3063.36L3078.87 1949.66L2061.48 1961.79L2041.36 1894.1Z" fill="#FFB31F"/>
<path d="M2652.19 1956L2061.48 1961.79L2041.36 1894.1H2061.15" stroke="black" stroke-width="10" stroke-miterlimit="10" stroke-linecap="round" stroke-linejoin="round"/>
<path d="M3056.68 1870.16L3105.46 2044.93" stroke="black" stroke-width="10" stroke-miterlimit="10" stroke-linecap="round" stroke-linejoin="round"/>
<path d="M3129.57 2138.68C3117.05 2138.68 3106.57 2128.89 3105.88 2116.23C3105.17 2103.14 3115.21 2091.94 3128.3 2091.23L3237.15 2085.29C3268.15 2083.74 3270.75 2130.88 3239.74 2132.71C3237.98 2132.71 3131.27 2138.74 3129.57 2138.68Z" fill="#E17847"/>
<path d="M3254.68 2167.24L3171.81 2166.39C3140.63 2165.87 3140.58 2119.43 3171.81 2118.9L3284.97 2000.64C3298.08 2000.64 3353.2 2086.79 3348.33 2098.97C3333.15 2136.91 3280.35 2167.24 3254.68 2167.24Z" fill="#E17847"/>
<path d="M3104.5 2101.08C3092.05 2101.08 3081.59 2091.37 3080.82 2078.78C3080.03 2065.69 3089.99 2054.43 3103.08 2053.63L3191.53 2048.25L3228 2010.66C3237.13 2001.25 3252.16 2001.02 3261.57 2010.15C3270.99 2019.29 3271.21 2034.32 3262.08 2043.73L3219.2 2087.93C3215.08 2092.18 3209.51 2094.74 3203.6 2095.1C3201.85 2095.06 3106.27 2101.18 3104.5 2101.08Z" fill="#E17847"/>
<path d="M3239.74 2132.71C3237.98 2132.71 3131.28 2138.74 3129.57 2138.68C3117.05 2138.68 3106.57 2128.89 3105.88 2116.23C3105.6 2110.95 3107.06 2105.98 3109.76 2101.88" stroke="black" stroke-width="10" stroke-miterlimit="10" stroke-linecap="round" stroke-linejoin="round"/>
<path d="M3248.52 2166.39H3171.81C3154.48 2166.1 3146.77 2151.62 3148.7 2138.73" stroke="black" stroke-width="10" stroke-miterlimit="10" stroke-linecap="round" stroke-linejoin="round"/>
<path d="M3228.21 2086.25C3228.21 2086.25 3209.51 2094.74 3203.6 2095.1C3201.85 2095.06 3106.27 2101.18 3104.5 2101.08C3092.05 2101.08 3081.59 2091.37 3080.82 2078.78C3080.43 2072.23 3082.72 2066.14 3086.75 2061.59" stroke="black" stroke-width="10" stroke-miterlimit="10" stroke-linecap="round" stroke-linejoin="round"/>
<path d="M3080.01 2072.38C3051.64 2072.58 3047.74 2029.85 3076.1 2025.22L3139.37 2014.57L3226.02 1972.52C3237.82 1966.79 3252.03 1971.71 3257.75 1983.51C3263.48 1995.31 3263.99 2015.53 3252.2 2021.25L3157.04 2058.78C3151.14 2061.7 3086.99 2071.53 3080.01 2072.38Z" fill="#E17847"/>
<path d="M3221.71 2032.12L3157.04 2055.81C3151.14 2058.73 3086.99 2068.56 3080.01 2069.42C3051.64 2069.61 3047.74 2026.89 3076.1 2022.25L3139.37 2011.6L3214.3 1975.24" stroke="black" stroke-width="10" stroke-miterlimit="10" stroke-linecap="round" stroke-linejoin="round"/>
<path d="M3826.23 1258.14C3777.29 1233.47 3676.03 1558.96 3659.79 1651.34C3641.21 1757.03 3647.91 1866.4 3638.52 1918.72H3545.52C3545.52 1918.72 3610.4 1953.02 3577.16 2062.07C3539.51 2185.57 3513.75 2178.61 3516.28 2187.26C3516.28 2187.26 3681.12 2255.82 3762.35 2214.91C3910.26 2140.4 4002.98 1347.24 3826.23 1258.14Z" fill="#C92627"/>
<path d="M3651.48 1677.69L3638.52 1918.72" stroke="black" stroke-width="10" stroke-miterlimit="10" stroke-linecap="round" stroke-linejoin="round"/>
<path d="M3893.77 1905.03C3832.35 2126.46 3805.33 2197.46 3754.43 2217.68C3686.83 2244.52 3523.53 2191.02 3523.53 2191.02" stroke="black" stroke-width="10" stroke-miterlimit="10" stroke-linecap="round" stroke-linejoin="round"/>
<path d="M3497.81 1942.27C3589.68 1942.27 3527.02 2143.29 3490.66 2136.41C3490.66 2136.41 3480 2206.49 3534.44 2215.27C3673.7 2237.73 3685.49 1960.56 3583.5 1897.81C3556.63 1881.28 3514.86 1886.11 3499.3 1903.22C3486.88 1916.88 3497.81 1942.27 3497.81 1942.27Z" fill="#C92627"/>
<path d="M3534.44 2215.27C3673.7 2237.73 3684.88 1997.89 3604.77 1908.88" stroke="black" stroke-width="10" stroke-miterlimit="10" stroke-linecap="round" stroke-linejoin="round"/>
<path d="M3497.81 1942.27C3582.33 1944.79 3544.34 2116.58 3490.66 2136.41" stroke="black" stroke-width="10" stroke-miterlimit="10" stroke-linecap="round" stroke-linejoin="round"/>
<path d="M1928.73 3095.65H1317.62C1237.84 3095.65 1173.17 3030.98 1173.17 2951.21V2631.1H2073.17V2951.21C2073.17 3030.98 2008.5 3095.65 1928.73 3095.65Z" fill="#FFB31F"/>
<path d="M2073.17 2631.1V2951.21C2073.17 3030.98 2008.5 3095.65 1928.73 3095.65H1573.17" stroke="black" stroke-width="10" stroke-miterlimit="10" stroke-linecap="round" stroke-linejoin="round"/>
<path d="M1273.17 2670.54L983.289 4781.2" stroke="black" stroke-width="10" stroke-miterlimit="10" stroke-linecap="round" stroke-linejoin="round"/>
<path d="M4158.74 2601.33H983.289V2659.94H4158.74V2601.33Z" fill="#FFB31F"/>
<path d="M911.944 2601.33H4079.33" stroke="black" stroke-width="10" stroke-miterlimit="10" stroke-linecap="round" stroke-linejoin="round"/>
<path d="M1010.54 2659.94H4205.1" stroke="black" stroke-width="10" stroke-miterlimit="10" stroke-linecap="round" stroke-linejoin="round"/>
<path d="M1314.91 2886.18H1573.17" stroke="black" stroke-width="10" stroke-miterlimit="10" stroke-linecap="round" stroke-linejoin="round"/>
<path d="M1314.91 2920.74H1573.17" stroke="black" stroke-width="10" stroke-miterlimit="10" stroke-linecap="round" stroke-linejoin="round"/>
<path d="M1314.91 2955.31H1573.17" stroke="black" stroke-width="10" stroke-miterlimit="10" stroke-linecap="round" stroke-linejoin="round"/>
<path d="M1314.91 2989.88H1573.17" stroke="black" stroke-width="10" stroke-miterlimit="10" stroke-linecap="round" stroke-linejoin="round"/>
<path d="M1314.91 3024.45H1573.17" stroke="black" stroke-width="10" stroke-miterlimit="10" stroke-linecap="round" stroke-linejoin="round"/>
<path d="M2094.74 1992.28C2100.51 2001.91 2112.67 2005.56 2122.79 2000.7L2283.62 1923.58C2305.25 1913.21 2312.07 1885.7 2297.79 1866.43C2280.09 1842.54 2245.82 1838.69 2223.26 1858.06L2099.22 1964.6C2091.18 1971.5 2089.29 1983.19 2094.74 1992.28Z" fill="#E17847"/>
<path d="M2223.26 1858.06L2099.22 1964.6C2091.18 1971.5 2089.29 1983.19 2094.74 1992.28C2100.51 2001.91 2112.67 2005.56 2122.79 2000.7" stroke="black" stroke-width="10" stroke-miterlimit="10" stroke-linecap="round" stroke-linejoin="round"/>
<path d="M2098.79 1975.05C2100.32 1987.21 2109.95 1996.23 2109.95 1996.23C2109.95 1996.23 2138.82 1986.07 2129.22 1970.57C2120.76 1956.91 2098.79 1975.05 2098.79 1975.05Z" fill="#ED9C72"/>
<path d="M3755.79 2330.52C3755.79 2330.52 3703.44 2377.6 3638.53 2421.44" stroke="black" stroke-width="10" stroke-miterlimit="10" stroke-linecap="round" stroke-linejoin="round"/>
<path d="M1643.06 4779.29H4440.98" stroke="black" stroke-width="10" stroke-miterlimit="10" stroke-linecap="round" stroke-linejoin="round"/>
<path d="M3981.11 2863.38H2062.87" stroke="black" stroke-width="10" stroke-miterlimit="10" stroke-linecap="round" stroke-linejoin="round"/>
<path d="M4245.59 2541.33H3551.2V2601.33H4245.59V2541.33Z" fill="#FFB31F"/>
<path d="M4300.5 2480.56H3682.75V2540.56H4300.5V2480.56Z" fill="#FFB31F"/>
<path d="M3551.2 2541.33H4300.5" stroke="black" stroke-width="10" stroke-miterlimit="10" stroke-linecap="round" stroke-linejoin="round"/>
<path d="M3551.2 2601.33H4266.18" stroke="black" stroke-width="10" stroke-miterlimit="10" stroke-linecap="round" stroke-linejoin="round"/>
<path d="M3869.45 2480.56H4141.57V2421.42C4141.57 2403.52 4127.06 2389.02 4109.17 2389.02H4036.75L3887.95 2434.66C3876.96 2438.03 3869.45 2448.19 3869.45 2459.69V2480.56Z" fill="#8B8A91"/>
<path d="M3869.45 2659.91H4141.57V2717.83C4141.57 2735.72 4127.06 2750.23 4109.17 2750.23H4036.75L3887.95 2704.59C3876.96 2701.21 3869.45 2691.06 3869.45 2679.56V2659.91Z" fill="#8B8A91"/>
<path d="M4064.67 3121.5C4053.69 3121.5 4044.79 3112.6 4044.79 3101.62V2439.14H4084.55V3101.62C4084.55 3112.6 4075.65 3121.5 4064.67 3121.5Z" fill="#8B8A91"/>
<path d="M3962.06 2990.33C3940.37 2990.33 3922.78 2972.74 3922.78 2951.05V2855.23C3922.78 2833.54 3940.37 2815.95 3962.06 2815.95C3983.75 2815.95 4001.34 2833.54 4001.34 2855.23V2951.05C4001.34 2972.74 3983.75 2990.33 3962.06 2990.33Z" fill="#C92627"/>
<path d="M3962.06 2990.33C3940.37 2990.33 3922.78 2972.74 3922.78 2951.05V2855.23C3922.78 2833.54 3940.37 2815.95 3962.06 2815.95C3983.75 2815.95 4001.34 2833.54 4001.34 2855.23V2951.05C4001.34 2972.74 3983.75 2990.33 3962.06 2990.33Z" stroke="black" stroke-width="10" stroke-miterlimit="10" stroke-linecap="round" stroke-linejoin="round"/>
<path d="M3869.45 2659.91H4141.57" stroke="black" stroke-width="10" stroke-miterlimit="10" stroke-linecap="round" stroke-linejoin="round"/>
<path d="M4141.57 2717.83C4141.57 2735.72 4127.06 2750.23 4109.17 2750.23H4036.75L3887.95 2704.59" stroke="black" stroke-width="10" stroke-miterlimit="10" stroke-linecap="round" stroke-linejoin="round"/>
<path d="M3962.35 2727.41V2811.76" stroke="black" stroke-width="10" stroke-miterlimit="10" stroke-linecap="round" stroke-linejoin="round"/>
<path d="M3665.59 2480.56H4258.17" stroke="black" stroke-width="10" stroke-miterlimit="10" stroke-linecap="round" stroke-linejoin="round"/>
</svg>
