<svg width="4895" height="4966" viewBox="0 0 4895 4966" fill="none" xmlns="http://www.w3.org/2000/svg">
<path d="M1193.63 298.303C1026.5 527.828 1215.53 904.692 969.36 1076.07C729.733 1242.89 440.562 962.408 214.877 1105.81C-119.916 1318.54 -69.8071 2308.26 409.697 2927.82C553.898 3114.15 675.276 3187.32 727.13 3396.89C838.481 3846.9 427.359 4109.67 502.67 4332.45C672.242 4834.06 3358.08 5281.22 4453.67 3790.28C4965.35 3093.95 5051.65 2081.7 4609.45 1307.66C3810.4 -91.0373 1568.62 -216.707 1193.63 298.303Z" fill="#FCFAF6"/>
<path d="M2767.57 3786.18C2796 3931.23 2704.52 4047.07 2626.18 4120.94C2612.77 4117.75 2604.06 4119.5 2589.72 4119.43C2460.22 4118.79 2406.7 4089.98 2280.33 4068.52C2253.13 4063.9 2178.7 4025 2149.39 4007.03L2095.32 3972.59C2095.32 3972.59 2070.55 3630.6 2257.61 3583.43C2444.68 3536.27 2461.33 3205.99 2491.02 3030.89C2571.59 2555.79 3074.08 2723.33 3227.35 2120.94C3268.12 1960.72 3291.25 1641.8 3461.32 1547.75C3655.07 1440.6 3733.45 1611.19 3865.15 1514.2C4070.99 1362.59 4344.14 1356.83 4447.08 1589.63C4548.68 1819.4 4268.39 2159.08 3735.43 2357.04C3369.48 2541.54 3345.22 2617.59 3321.24 2811.33C3304.44 2947.04 3345.54 3321.26 3128.67 3413.79C2911.8 3506.32 2735.07 3620.36 2767.57 3786.18Z" fill="url(#paint0_linear_5_686)"/>
<mask id="mask0_5_686" style="mask-type:luminance" maskUnits="userSpaceOnUse" x="2100" y="1406" width="2368" height="2803">
<path d="M2519.93 4208.09L2102.36 3986.52C2102.36 3986.52 2070.55 3630.6 2257.61 3583.43C2444.67 3536.27 2461.33 3205.99 2491.02 3030.89C2571.59 2555.79 3074.08 2723.34 3227.35 2120.94C3268.11 1960.72 3291.25 1641.8 3461.31 1547.75C3655.06 1440.6 3733.45 1611.19 3865.15 1514.2C4070.99 1362.59 4344.13 1356.83 4447.08 1589.63C4548.68 1819.4 4268.39 2159.08 3735.43 2357.04C3369.47 2541.54 3345.21 2617.59 3321.23 2811.33C3304.44 2947.04 3345.53 3321.26 3128.66 3413.79C2911.8 3506.32 2735.07 3620.35 2767.57 3786.17C2817.02 4038.49 2519.93 4208.09 2519.93 4208.09Z" fill="white"/>
</mask>
<g mask="url(#mask0_5_686)">
<g opacity="0.5">
<path d="M2343.72 4089.19L2334.94 4085.87C2355.1 4034.53 2376.07 3983 2397.28 3932.7C2554.36 3560.34 2741.17 3215.84 2952.55 2908.77C3131.67 2648.57 3330.87 2411.55 3544.65 2204.28C3716.56 2037.59 3898.79 1889.16 4086.26 1763.09C4218.06 1674.47 4351.07 1597.74 4481.59 1535.03C4504.34 1524.1 4528.22 1514.17 4551.32 1504.57C4582.1 1491.77 4613.92 1478.54 4643.29 1462.83L4647.79 1470.94C4618.02 1486.86 4585.98 1500.19 4555 1513.07C4532.01 1522.63 4508.25 1532.51 4485.73 1543.33C4355.61 1605.84 4223 1682.34 4091.58 1770.71C3904.57 1896.46 3722.78 2044.55 3551.26 2210.85C3337.93 2417.69 3139.12 2654.25 2960.35 2913.94C2749.33 3220.49 2562.81 3564.44 2405.98 3936.23C2384.8 3986.46 2363.85 4037.91 2343.72 4089.19Z" fill="#FCFDFE"/>
<path d="M3301.84 2473.54L3294.53 2467.72C3549.29 2160.14 3566.09 1481.18 3566.23 1474.36L3575.64 1474.54C3575.5 1481.4 3558.63 2163.5 3301.84 2473.54Z" fill="#FCFDFE"/>
<path d="M2666.06 3395.24L2658.12 3390.29C2806.32 3161.39 3331.47 3084.89 3336.76 3084.14L3338.1 3093.29C3332.86 3094.03 2811.95 3169.91 2666.06 3395.24Z" fill="#FCFDFE"/>
<path d="M2593.42 3532.25L2584.71 3528.75C2652.99 3364.9 2656.89 3105.65 2595.66 2798.78C2592.59 2783.35 2592.59 2783.35 2593.24 2781.72L2602 2785.11L2597.62 2783.41L2602.31 2783.37C2602.39 2784.42 2603.55 2790.25 2604.9 2797C2666.47 3105.63 2662.39 3366.74 2593.42 3532.25Z" fill="#FCFDFE"/>
<path d="M2381.86 3996.01L2374.53 3990.21C2499.24 3838.4 2793.99 3838.39 2796.95 3838.41L2796.9 3847.64C2793.98 3847.62 2503.71 3847.68 2381.86 3996.01Z" fill="#FCFDFE"/>
<path d="M2329.74 4086.51C2333.03 3929.33 2290.42 3766.07 2199.49 3587.42L2207.91 3583.29C2299.54 3763.32 2342.47 3927.98 2339.15 4086.71L2329.74 4086.51Z" fill="#FCFDFE"/>
<path d="M3982.41 1846.73L3975.45 1840.52C4126.81 1677.26 4247.24 1471.32 4286.82 1403.65C4296.4 1387.27 4299.79 1381.51 4301.33 1379.71L4308.54 1385.63C4307.39 1387.02 4301.91 1396.39 4294.98 1408.25C4255.28 1476.13 4134.46 1682.73 3982.41 1846.73Z" fill="#FCFDFE"/>
<path d="M3696.3 2076.47L3691.51 2068.52C3873.11 1963.22 4281.33 2067.59 4298.62 2072.08L4296.21 2081.01C4292.02 2079.92 3874.5 1973.14 3696.3 2076.47Z" fill="#FCFDFE"/>
</g>
</g>
<mask id="mask1_5_686" style="mask-type:luminance" maskUnits="userSpaceOnUse" x="2278" y="2347" width="2186" height="2131">
<path d="M2300.23 4255.39L2672.12 4477.8C2672.12 4477.8 2858.41 4332.5 2849.35 4145.91C2830.85 3765.2 3172 3775.88 3315.56 3759.38C3532.07 3734.49 3711.81 3619.93 3540.08 3420.54C3368.35 3221.16 3788.54 3022.98 4144.11 3032.24C4492.06 3041.29 4709.25 2439.69 3957.99 2352.24C3509.34 2300.02 3337.59 2697.74 3202.18 2878.35C3066.78 3058.97 2767.86 2901.84 2722.04 3194C2682.91 3443.57 2753.34 3684.72 2545.77 3748.25C2338.21 3811.78 2230.21 3957.6 2300.23 4255.39Z" fill="white"/>
</mask>
<g mask="url(#mask1_5_686)">
<path d="M2300.23 4255.39L2672.12 4477.8C2672.12 4477.8 2858.41 4332.5 2849.35 4145.91C2830.85 3765.2 3172 3775.88 3315.56 3759.38C3532.07 3734.49 3687.02 3627.71 3569.36 3427.95C3436.23 3201.94 3788.54 3022.98 4144.11 3032.24C4492.06 3041.29 4709.25 2439.69 3957.99 2352.24C3509.34 2300.02 3337.59 2697.74 3202.18 2878.35C3066.78 3058.97 2767.86 2901.84 2722.04 3194C2682.91 3443.57 2753.34 3684.72 2545.77 3748.25C2338.21 3811.78 2230.21 3957.6 2300.23 4255.39Z" fill="url(#paint1_linear_5_686)"/>
</g>
<mask id="mask2_5_686" style="mask-type:luminance" maskUnits="userSpaceOnUse" x="2278" y="2347" width="2186" height="2131">
<path d="M2300.23 4255.39L2672.12 4477.8C2672.12 4477.8 2858.41 4332.5 2849.35 4145.91C2830.85 3765.2 3172 3775.88 3315.56 3759.38C3532.07 3734.49 3711.81 3619.93 3540.08 3420.54C3368.35 3221.16 3788.54 3022.98 4144.11 3032.24C4492.06 3041.29 4709.25 2439.69 3957.99 2352.24C3509.34 2300.02 3337.59 2697.74 3202.18 2878.35C3066.78 3058.97 2767.86 2901.84 2722.04 3194C2682.91 3443.57 2753.34 3684.72 2545.77 3748.25C2338.21 3811.78 2230.21 3957.6 2300.23 4255.39Z" fill="white"/>
</mask>
<g mask="url(#mask2_5_686)">
<g opacity="0.5">
<path d="M2440.15 4385.51L2448.73 4388.74C2450.77 4383.52 2656.82 3861.93 3019.99 3405.29C3354.57 2984.6 3894.86 2534.55 4568.76 2779.57L4571.95 2771.12C4271.97 2662.04 3973.08 2679.25 3683.58 2822.26C3452.32 2936.5 3226.58 3130.84 3012.63 3399.89C2648.66 3857.59 2442.19 4380.28 2440.15 4385.51Z" fill="#BEB8F2"/>
<path d="M3565.24 2887.15L3573.62 2890.85C3699.41 2617.14 4022.72 2314.85 4025.97 2311.83L4019.65 2305.28C4016.39 2308.31 3691.76 2611.83 3565.24 2887.15Z" fill="#BEB8F2"/>
<path d="M3760.79 2797.05C4125.45 2793.56 4324.21 3018.75 4326.17 3021.02L4333.18 3015.19C4331.19 3012.88 4129.83 2784.49 3760.7 2788.02L3760.79 2797.05Z" fill="#BEB8F2"/>
<path d="M2799.14 3716.52C3112.56 3405.87 3671.32 3617.88 3676.59 3620.4L3681.14 3612.57C3676.21 3609.62 3108.8 3396.76 2792.61 3710.18L2799.14 3716.52Z" fill="#BEB8F2"/>
<path d="M2892.33 3561.19L2900.99 3564.22C2996.43 3301.49 2838.32 2986.86 2836.71 2983.71L2828.49 2987.76C2830.08 2990.87 2986.44 3302.13 2892.33 3561.19Z" fill="#BEB8F2"/>
<path d="M2483 4307.36C2582.14 4172.79 2857.37 4183.88 2860.14 4184.01L2860.57 4175C2849.07 4174.46 2577.61 4163.53 2475.55 4302.08L2483 4307.36Z" fill="#BEB8F2"/>
<path d="M2530.1 4183.2L2538.64 4186.53C2588.07 4064.53 2494.31 3839.6 2463.49 3765.69C2459.14 3755.25 2455.38 3746.23 2455.03 3744.49L2445.99 3746.11C2446.44 3748.56 2448.92 3754.56 2454.98 3769.11C2485.45 3842.19 2578.16 4064.58 2530.1 4183.2Z" fill="#BEB8F2"/>
</g>
</g>
<path d="M2957.08 4593.15C2955.29 4593.5 2953.5 4593.84 2951.7 4594.17C2845.42 4613.99 2725.71 4617.22 2591.98 4593.35C2566.25 4586.89 2540.52 4580.43 2514.79 4573.97C2506.62 4508.89 2510.73 4445.56 2594.92 4439.15C2725.66 4429.19 2775.37 4217.94 2758.25 4135.84C2737.05 4034.22 2692.65 3796.61 2894.52 3778.1C3062.57 3762.68 3174.23 3786.43 3229.07 3590.09C3283.91 3393.75 3421.79 3293.26 3602.84 3344.08C3793.37 3397.55 4007.53 3178.8 4147.25 3296.85C4390.69 3502.54 4044.15 3887.3 3680.63 3942.9C3317.11 3998.49 3483.42 4157.98 3456.6 4322.5C3419.99 4547.1 3124.58 4434.72 3024.55 4504.77C2990.67 4528.49 2969.78 4560.06 2957.08 4593.15Z" fill="url(#paint2_linear_5_686)"/>
<mask id="mask3_5_686" style="mask-type:luminance" maskUnits="userSpaceOnUse" x="2512" y="3261" width="1717" height="1457">
<path d="M2939.01 4717.37L2518.61 4624.7C2507.49 4560.92 2500.89 4446.31 2594.92 4439.15C2725.66 4429.19 2775.37 4217.95 2758.25 4135.84C2737.06 4034.22 2692.66 3796.61 2894.52 3778.1C3062.58 3762.68 3174.23 3786.43 3229.07 3590.09C3283.92 3393.75 3421.8 3293.26 3602.85 3344.08C3793.37 3397.55 4007.54 3178.8 4147.25 3296.85C4390.69 3502.54 4044.15 3887.3 3680.63 3942.9C3317.12 3998.49 3483.42 4157.98 3456.6 4322.5C3419.99 4547.1 3124.58 4434.72 3024.55 4504.77C2946.13 4559.68 2937.07 4656.51 2939.01 4717.37Z" fill="white"/>
</mask>
<g mask="url(#mask3_5_686)">
<g opacity="0.5">
<path d="M2755.92 4608.86L2747.37 4605.16C3022.84 3992.39 3600.08 3513.79 4253.82 3356.12L4256.05 3365.02C3605.06 3522.02 3030.24 3998.63 2755.92 4608.86Z" fill="#FCFDFE"/>
<path d="M2935.27 4287.4L2926.15 4285.43C2983.81 4028.38 2804.46 3779.59 2802.64 3777.11L2810.22 3771.76C2812.06 3774.27 2993.84 4026.29 2935.27 4287.4Z" fill="#FCFDFE"/>
<path d="M2809.73 4497.49L2802.65 4491.51C2980.22 4289.39 3470.12 4361.12 3475.05 4361.87L3473.62 4370.93C3468.75 4370.19 2983.91 4299.21 2809.73 4497.49Z" fill="#FCFDFE"/>
<path d="M3384.02 3800.51L3376.45 3795.14C3502.85 3623.59 3442.14 3304.5 3441.51 3301.3L3450.67 3299.56C3451.31 3302.81 3512.76 3625.78 3384.02 3800.51Z" fill="#FCFDFE"/>
<path d="M3742.6 3561.45L3739.53 3552.8C3971.75 3473.61 4273.29 3610.15 4276.31 3611.55L4272.35 3619.84C4269.36 3618.47 3971.2 3483.5 3742.6 3561.45Z" fill="#FCFDFE"/>
</g>
</g>
<path opacity="0.75" d="M3677.15 1707.16C3677.15 910.424 2985.77 264.54 2132.9 264.54C1280.04 264.54 588.656 910.424 588.656 1707.16C588.656 2190.68 843.308 2618.62 1234.15 2880.37C1399.96 2991.42 1500.52 3174.45 1500.52 3371.41V3481.81C1500.52 3721.68 1698.72 3916.13 1943.21 3916.13H2322.6C2567.09 3916.13 2765.28 3721.68 2765.28 3481.81V3371.41C2765.28 3174.45 2865.84 2991.42 3031.65 2880.37C3422.49 2618.62 3677.15 2190.68 3677.15 1707.16Z" fill="#F4F7FA"/>
<path d="M2132.9 4737.27C2322.09 4737.27 2475.46 4657.61 2475.46 4559.34C2475.46 4461.07 2322.09 4381.41 2132.9 4381.41C1943.72 4381.41 1790.35 4461.07 1790.35 4559.34C1790.35 4657.61 1943.72 4737.27 2132.9 4737.27Z" fill="url(#paint3_linear_5_686)"/>
<path d="M1677.77 4241.48V4423.19C1677.77 4484.67 1713.43 4540.99 1769.99 4567.46C1848.51 4604.2 1979.05 4644.52 2168.78 4639.74C2322.7 4635.88 2423.07 4611.21 2486.88 4585.3C2548.52 4560.27 2588.03 4500.47 2588.03 4435.01V4334.48L1677.77 4241.48Z" fill="url(#paint4_linear_5_686)"/>
<path opacity="0.3" d="M1677.77 4400.64C1691.64 4413.88 1707.71 4425.1 1725.76 4433.54C1813.84 4474.76 2390.84 4566.85 2530.02 4515.54C2548.09 4508.88 2564.35 4499.96 2578.59 4489.21C2584.68 4472.05 2588.03 4453.79 2588.03 4435.01V4334.48L1677.77 4241.48V4400.64H1677.77Z" fill="url(#paint5_linear_5_686)"/>
<path d="M1718.18 4117.85C1666.91 4112.62 1622.3 4152.07 1622.3 4202.64V4207.79C1622.3 4276.76 1662.3 4339.95 1725.76 4369.64C1813.84 4410.85 2390.84 4502.95 2530.02 4451.64C2600.08 4425.81 2643.5 4366.79 2643.5 4293.36V4289.21C2643.5 4245.55 2609.88 4208.95 2565.62 4204.43L1718.18 4117.85Z" fill="url(#paint6_linear_5_686)"/>
<path opacity="0.3" d="M2565.62 4204.43L1718.18 4117.85C1684.75 4114.44 1654.24 4130.09 1636.99 4155.38C1654.01 4194.73 1685.01 4227.65 1725.76 4246.72C1813.85 4287.93 2415.41 4392.03 2530.02 4339.05C2574.63 4318.42 2609.62 4283.6 2628.36 4241.28C2614.4 4221.18 2591.92 4207.12 2565.62 4204.43Z" fill="url(#paint7_linear_5_686)"/>
<path d="M1685.03 3823.46C1650.38 3823.46 1622.3 3851.01 1622.3 3885V4027.31C1622.3 4096.28 1662.31 4159.47 1725.76 4189.16C1813.85 4230.38 2415.41 4334.48 2530.02 4281.49C2597.72 4250.19 2643.5 4186.32 2643.5 4112.88V3885C2643.5 3851.01 2615.42 3823.46 2580.78 3823.46H1685.03Z" fill="url(#paint8_linear_5_686)"/>
<path d="M2132.9 3983.27C2407.92 3983.27 2630.87 3931.56 2630.87 3867.77C2630.87 3803.97 2407.92 3752.26 2132.9 3752.26C1857.88 3752.26 1634.93 3803.97 1634.93 3867.77C1634.93 3931.56 1857.88 3983.27 2132.9 3983.27Z" fill="url(#paint9_linear_5_686)"/>
<path d="M3677.15 1707.16C3677.15 910.424 2985.77 264.54 2132.9 264.54C1280.04 264.54 588.656 910.424 588.656 1707.16C588.656 2190.68 843.308 2618.62 1234.15 2880.37C1399.96 2991.42 1500.52 3174.45 1500.52 3371.41V3481.81C1500.52 3721.68 1698.72 3916.13 1943.21 3916.13H2322.6C2567.09 3916.13 2765.28 3721.68 2765.28 3481.81V3371.41C2765.28 3174.45 2865.84 2991.42 3031.65 2880.37C3422.49 2618.62 3677.15 2190.68 3677.15 1707.16Z" fill="url(#paint10_linear_5_686)"/>
<path opacity="0.5" d="M2132.9 3861.2C2334.14 3861.2 2497.28 3823.36 2497.28 3776.68C2497.28 3730.01 2334.14 3692.16 2132.9 3692.16C1931.66 3692.16 1768.52 3730.01 1768.52 3776.68C1768.52 3823.36 1931.66 3861.2 2132.9 3861.2Z" fill="#F4F7FA"/>
<path d="M2037.95 3828.34C2027.51 3828.34 2018.45 3820.73 2017.09 3810.31L1749.03 1765.06C1747.55 1753.74 1755.69 1743.39 1767.23 1741.94C1778.79 1740.42 1789.32 1748.48 1790.8 1759.8L2058.86 3805.04C2060.34 3816.36 2052.19 3826.71 2040.65 3828.16C2039.75 3828.29 2038.84 3828.34 2037.95 3828.34Z" fill="url(#paint11_linear_5_686)"/>
<path d="M2204.45 3828.34C2203.55 3828.34 2202.65 3828.29 2201.74 3828.17C2190.2 3826.71 2182.05 3816.36 2183.53 3805.04L2451.6 1759.8C2453.08 1748.48 2463.62 1740.41 2475.17 1741.94C2486.7 1743.4 2494.85 1753.75 2493.37 1765.06L2225.31 3810.31C2223.94 3820.73 2214.88 3828.34 2204.45 3828.34Z" fill="url(#paint12_linear_5_686)"/>
<path d="M2422.76 1763.41C2415.92 1763.41 2409.2 1760.14 2405.16 1754.12L2331.17 1644C2330.41 1642.87 2329.24 1642.22 2328.17 1642.35C2326.33 1642.39 2325.56 1643.67 2325.31 1644.08L2276.46 1724.35C2268.37 1737.64 2254.18 1745.81 2238.5 1746.2C2222.92 1746.69 2208.2 1739.11 2199.42 1726.2L2132.35 1627.54C2131.62 1626.47 2130.64 1625.92 2129.45 1625.91C2128.02 1626.17 2127.36 1626.4 2126.64 1627.41L2067.72 1710.96C2059.22 1723.03 2045.26 1730.26 2030.4 1730.29H2030.31C2015.45 1730.29 2001.47 1723.11 1992.9 1711.05L1907.96 1591.67C1907.19 1590.59 1906.11 1590.21 1904.96 1590.1C1903.75 1590.15 1902.8 1590.76 1902.13 1591.89L1824.6 1723.2C1818.78 1733.06 1805.88 1736.43 1795.83 1730.71C1785.76 1724.99 1782.33 1712.35 1788.16 1702.48L1865.69 1571.17C1873.58 1557.82 1887.6 1549.47 1903.19 1548.83C1918.67 1548.05 1933.49 1555.36 1942.5 1568.02L2027.43 1687.41C2028.17 1688.44 2029.13 1688.97 2030.3 1688.97H2030.31C2031.45 1688.96 2032.38 1688.46 2033.09 1687.46L2092.01 1603.9C2100.63 1591.69 2114.83 1584.42 2129.81 1584.59C2144.9 1584.72 2158.95 1592.2 2167.39 1604.62L2234.45 1703.27C2235.2 1704.38 2236.33 1705.3 2237.45 1704.89C2239.28 1704.85 2240.05 1703.58 2240.3 1703.17L2289.14 1622.9C2297.27 1609.55 2311.51 1601.38 2327.24 1601.04C2342.8 1600.7 2357.6 1608.26 2366.33 1621.27L2440.32 1731.38C2446.72 1740.9 2444.03 1753.71 2434.32 1760C2430.76 1762.31 2426.74 1763.41 2422.76 1763.41Z" fill="url(#paint13_linear_5_686)"/>
<path opacity="0.3" d="M2160.93 2845.05C2194.01 2289.02 3149.43 2158.89 3145.34 1662.32C3142.82 1356.49 2763.15 1129.36 2682.08 1083.87C2084.71 748.657 1349.43 1135.75 1197.57 861.782C1159.77 793.572 1177.49 719.318 1187.59 677.032C1202.85 613.122 1237.39 553.596 1288.64 499.15C867.172 756.743 588.656 1201.53 588.656 1707.16C588.656 2190.68 843.308 2618.63 1234.15 2880.38C1399.97 2991.42 1500.52 3174.45 1500.52 3371.42V3481.81C1500.52 3721.68 1698.72 3916.13 1943.21 3916.13H2322.6C2567.08 3916.13 2765.28 3721.68 2765.28 3481.81V3393.55C2713.06 3432.81 2653.09 3460.19 2587.33 3459.66C2359.15 3457.82 2144.46 3121.75 2160.93 2845.05Z" fill="url(#paint14_linear_5_686)"/>
<path opacity="0.44" d="M2157.6 3020.73C2891.51 3020.73 3486.45 2457.81 3486.45 1763.41C3486.45 1069.01 2891.51 506.084 2157.6 506.084C1423.7 506.084 828.75 1069.01 828.75 1763.41C828.75 2457.81 1423.7 3020.73 2157.6 3020.73Z" fill="#F4F7FA"/>
<mask id="mask4_5_686" style="mask-type:luminance" maskUnits="userSpaceOnUse" x="1603" y="676" width="1843" height="2177">
<path d="M3445.63 1872.46C3445.63 1211.74 2872.28 676.12 2165.01 676.12C1964.73 676.12 1775.21 719.103 1606.39 795.682C1598.28 897.602 1610.88 981.241 1630.3 1048.56C1735.16 1412.19 2067.35 1409.54 2336.42 1888.48C2544.85 2259.49 2440.31 2429.81 2655.1 2667.08C2726.94 2746.43 2810.64 2806.84 2899.41 2852.94C2903.02 2850.38 2906.64 2847.85 2910.33 2845.38C3234.45 2628.32 3445.63 2273.43 3445.63 1872.46Z" fill="white"/>
</mask>
<g mask="url(#mask4_5_686)">
<path d="M3445.63 1872.46C3445.63 1211.74 2872.28 676.118 2165.01 676.118C1457.75 676.118 884.4 1211.74 884.4 1872.46C884.4 2273.43 1095.58 2628.32 1419.7 2845.38C1557.2 2937.47 1640.59 3089.25 1640.59 3252.59V3344.14C1640.59 3543.06 1804.95 3704.32 2007.7 3704.32H2322.33C2525.08 3704.32 2689.44 3543.06 2689.44 3344.14V3252.59C2689.44 3089.25 2772.83 2937.47 2910.33 2845.38C3234.45 2628.32 3445.63 2273.43 3445.63 1872.46Z" fill="url(#paint15_linear_5_686)"/>
</g>
<mask id="mask5_5_686" style="mask-type:luminance" maskUnits="userSpaceOnUse" x="1603" y="676" width="1843" height="2177">
<path d="M3445.63 1872.46C3445.63 1211.74 2872.28 676.12 2165.01 676.12C1964.73 676.12 1775.21 719.103 1606.39 795.682C1598.28 897.602 1610.88 981.241 1630.3 1048.56C1735.16 1412.19 2067.35 1409.54 2336.42 1888.48C2544.85 2259.49 2440.31 2429.81 2655.1 2667.08C2726.94 2746.43 2810.64 2806.84 2899.41 2852.94C2903.02 2850.38 2906.64 2847.85 2910.33 2845.38C3234.45 2628.32 3445.63 2273.43 3445.63 1872.46Z" fill="white"/>
</mask>
<g mask="url(#mask5_5_686)">
<path opacity="0.3" d="M2691.33 3596.55C2714.91 3716.83 2639.04 3812.9 2574.08 3874.16C2562.96 3871.52 2555.74 3872.97 2543.84 3872.91C2436.45 3872.37 2392.07 3848.49 2287.27 3830.69C2264.71 3826.86 2202.99 3794.6 2178.69 3779.69L2133.85 3751.14C2133.85 3751.14 2113.31 3467.53 2268.44 3428.42C2423.56 3389.3 2437.37 3115.41 2462 2970.2C2528.81 2576.21 2945.51 2715.15 3072.62 2215.6C3106.43 2082.73 3125.61 1818.25 3266.64 1740.26C3427.32 1651.4 3492.32 1792.87 3601.54 1712.44C3772.23 1586.71 3998.75 1581.93 4084.12 1775C4168.38 1965.54 3935.94 2247.23 3493.96 2411.39C3190.48 2564.39 3170.36 2627.46 3150.48 2788.13C3136.55 2900.67 3170.63 3211 2990.78 3287.73C2810.94 3364.47 2664.38 3459.04 2691.33 3596.55Z" fill="url(#paint16_linear_5_686)"/>
</g>
<mask id="mask6_5_686" style="mask-type:luminance" maskUnits="userSpaceOnUse" x="1603" y="676" width="1843" height="2177">
<path d="M3445.63 1872.46C3445.63 1211.74 2872.28 676.12 2165.01 676.12C1964.73 676.12 1775.21 719.103 1606.39 795.682C1598.28 897.602 1610.88 981.241 1630.3 1048.56C1735.16 1412.19 2067.35 1409.54 2336.42 1888.48C2544.85 2259.49 2440.31 2429.81 2655.1 2667.08C2726.94 2746.43 2810.64 2806.84 2899.41 2852.94C2903.02 2850.38 2906.64 2847.85 2910.33 2845.38C3234.45 2628.32 3445.63 2273.43 3445.63 1872.46Z" fill="white"/>
</mask>
<g mask="url(#mask6_5_686)">
<path opacity="0.3" d="M1606.39 795.682C1728.37 794.093 1896.11 812.515 2015.64 923.904C2165.06 1063.13 2096.54 1214.69 2198.94 1418.45C2371.23 1761.26 2718.51 1637.36 2957.13 1990.66C3174.15 2311.97 3093.55 2720.4 3002.96 2783.57C2994.83 2789.24 2899.41 2852.94 2899.41 2852.94L1486.58 2256.32L1606.39 795.682Z" fill="url(#paint17_linear_5_686)"/>
</g>
<mask id="mask7_5_686" style="mask-type:luminance" maskUnits="userSpaceOnUse" x="1603" y="676" width="1843" height="2177">
<path d="M3445.63 1872.46C3445.63 1211.74 2872.28 676.12 2165.01 676.12C1964.73 676.12 1775.21 719.103 1606.39 795.682C1598.28 897.602 1610.88 981.241 1630.3 1048.56C1735.16 1412.19 2067.35 1409.54 2336.42 1888.48C2544.85 2259.49 2440.31 2429.81 2655.1 2667.08C2726.94 2746.43 2810.64 2806.84 2899.41 2852.94C2903.02 2850.38 2906.64 2847.85 2910.33 2845.38C3234.45 2628.32 3445.63 2273.43 3445.63 1872.46Z" fill="white"/>
</mask>
<g mask="url(#mask7_5_686)">
<path d="M2165.01 3024.22C1836.05 3024.22 1526.77 2904.49 1294.13 2687.09C1061.43 2469.62 933.279 2180.47 933.279 1872.9C933.279 1565.32 1061.43 1276.17 1294.13 1058.7C1526.77 841.299 1836.05 721.569 2165.01 721.569C2493.98 721.569 2803.26 841.299 3035.9 1058.7C3268.59 1276.17 3396.75 1565.32 3396.75 1872.9C3396.75 2180.47 3268.59 2469.62 3035.9 2687.09C2803.26 2904.49 2493.98 3024.22 2165.01 3024.22ZM2165.01 731.318C1838.61 731.318 1531.76 850.091 1300.99 1065.76C1070.27 1281.37 943.216 1568.01 943.216 1872.9C943.216 2177.78 1070.27 2464.42 1300.99 2680.03C1531.76 2895.7 1838.61 3014.47 2165.01 3014.47C2491.41 3014.47 2798.26 2895.7 3029.04 2680.03C3259.75 2464.42 3386.81 2177.78 3386.81 1872.9C3386.81 1568.01 3259.75 1281.37 3029.04 1065.76C2798.26 850.091 2491.41 731.318 2165.01 731.318Z" fill="white"/>
<path d="M2165.02 3024.22C1923.6 3024.22 1696.71 2904.29 1526.16 2686.53C1355.9 2469.15 1262.14 2180.19 1262.14 1872.9C1262.14 1565.6 1355.9 1276.64 1526.16 1059.26C1696.71 841.496 1923.6 721.569 2165.02 721.569C2406.43 721.569 2633.32 841.496 2803.88 1059.26C2974.13 1276.64 3067.89 1565.6 3067.89 1872.9C3067.89 2180.19 2974.13 2469.15 2803.88 2686.53C2633.32 2904.29 2406.43 3024.22 2165.02 3024.22ZM2165.02 731.318C1672.65 731.318 1272.07 1243.43 1272.07 1872.9C1272.07 2502.36 1672.65 3014.47 2165.02 3014.47C2657.38 3014.47 3057.96 2502.36 3057.96 1872.9C3057.96 1243.43 2657.38 731.318 2165.02 731.318Z" fill="white"/>
<path d="M2165.01 3024.22C2042.89 3024.22 1928.5 2903.86 1842.92 2685.31C1757.91 2468.23 1711.09 2179.71 1711.09 1872.89C1711.09 1566.08 1757.91 1277.56 1842.92 1060.48C1928.5 841.928 2042.89 721.566 2165.01 721.566C2287.13 721.566 2401.52 841.928 2487.11 1060.48C2572.12 1277.56 2618.93 1566.08 2618.93 1872.89C2618.93 2179.71 2572.12 2468.23 2487.11 2685.31C2401.52 2903.86 2287.13 3024.22 2165.01 3024.22ZM2165.01 731.317C1920.2 731.317 1721.03 1243.43 1721.03 1872.9C1721.03 2502.36 1920.2 3014.47 2165.01 3014.47C2409.83 3014.47 2609 2502.36 2609 1872.9C2609 1243.43 2409.83 731.317 2165.01 731.317Z" fill="white"/>
<path d="M2169.98 726.443H2160.05V3019.35H2169.98V726.443Z" fill="white"/>
<path d="M2165.01 2006.63C1837.2 2006.63 1528.98 1996.04 1297.14 1976.8C1184.29 1967.43 1095.65 1956.52 1033.68 1944.36C943.688 1926.71 933.28 1910.57 933.28 1899.96C933.28 1889.35 943.688 1873.21 1033.68 1855.55C1095.65 1843.4 1184.29 1832.48 1297.14 1823.12C1528.98 1803.88 1837.2 1793.28 2165.01 1793.28C2492.83 1793.28 2801.04 1803.88 3032.89 1823.12C3145.73 1832.48 3234.38 1843.4 3296.35 1855.55C3386.34 1873.21 3396.75 1889.35 3396.75 1899.96C3396.75 1910.56 3386.34 1926.71 3296.35 1944.36C3234.38 1956.52 3145.73 1967.43 3032.89 1976.8C2801.05 1996.04 2492.83 2006.63 2165.01 2006.63ZM2165.01 1803.03C1837.47 1803.03 1529.55 1813.62 1297.98 1832.83C960.32 1860.85 943.216 1893.66 943.216 1899.96C943.216 1906.25 960.32 1939.06 1297.98 1967.08C1529.55 1986.3 1837.47 1996.88 2165.01 1996.88C2492.56 1996.88 2800.48 1986.3 3032.05 1967.08C3369.71 1939.06 3386.81 1906.25 3386.81 1899.96C3386.81 1893.67 3369.71 1860.85 3032.05 1832.83C2800.48 1813.62 2492.56 1803.03 2165.01 1803.03Z" fill="white"/>
<path d="M2165.01 1572.65C1606.25 1572.65 1028.3 1520.78 1028.3 1433.99C1028.3 1384.62 1210.94 1352.67 1364.15 1334.56C1578.1 1309.27 1862.52 1295.34 2165.01 1295.34C2467.5 1295.34 2751.92 1309.27 2965.87 1334.56C3119.08 1352.67 3301.72 1384.62 3301.72 1433.99C3301.73 1520.78 2723.77 1572.65 2165.01 1572.65ZM2165.01 1305.09C1491 1305.09 1038.23 1371.74 1038.23 1434C1038.23 1496.25 1491 1562.9 2165.01 1562.9C2839.02 1562.9 3291.79 1496.25 3291.79 1434C3291.79 1371.74 2839.02 1305.09 2165.01 1305.09Z" fill="white"/>
<path d="M2161.6 1033.67C1829.6 1033.67 1486.19 993.03 1486.19 925.013C1486.19 856.995 1829.6 816.351 2161.6 816.351C2493.6 816.351 2837 856.995 2837 925.013C2837 993.03 2493.6 1033.67 2161.6 1033.67ZM2161.6 826.099C1763.53 826.099 1496.13 877.243 1496.13 925.013C1496.13 972.782 1763.53 1023.93 2161.6 1023.93C2559.67 1023.93 2827.07 972.782 2827.07 925.013C2827.07 877.243 2559.67 826.099 2161.6 826.099Z" fill="white"/>
<path d="M2165.01 2441.87C1862.52 2441.87 1578.1 2427.95 1364.15 2402.66C1210.94 2384.55 1028.3 2352.59 1028.3 2303.22C1028.3 2253.85 1210.94 2221.89 1364.15 2203.78C1578.1 2178.49 1862.52 2164.57 2165.01 2164.57C2467.5 2164.57 2751.92 2178.49 2965.87 2203.78C3119.08 2221.89 3301.72 2253.85 3301.72 2303.22C3301.72 2352.59 3119.08 2384.55 2965.87 2402.66C2751.92 2427.95 2467.5 2441.87 2165.01 2441.87ZM2165.01 2174.32C1491 2174.32 1038.23 2240.97 1038.23 2303.22C1038.23 2365.47 1491 2432.12 2165.01 2432.12C2839.02 2432.12 3291.79 2365.47 3291.79 2303.22C3291.79 2240.97 2839.02 2174.32 2165.01 2174.32Z" fill="white"/>
<path d="M2161.6 2920.86C1829.6 2920.86 1486.19 2880.22 1486.19 2812.2C1486.19 2744.18 1829.6 2703.54 2161.6 2703.54C2493.6 2703.54 2837 2744.18 2837 2812.2C2837 2880.22 2493.6 2920.86 2161.6 2920.86ZM2161.6 2713.29C1763.53 2713.29 1496.13 2764.43 1496.13 2812.2C1496.13 2859.97 1763.53 2911.11 2161.6 2911.11C2559.67 2911.11 2827.07 2859.97 2827.07 2812.2C2827.07 2764.43 2559.67 2713.29 2161.6 2713.29Z" fill="white"/>
</g>
<mask id="mask8_5_686" style="mask-type:luminance" maskUnits="userSpaceOnUse" x="1603" y="676" width="1843" height="2177">
<path d="M3445.63 1872.46C3445.63 1211.74 2872.28 676.12 2165.01 676.12C1964.73 676.12 1775.21 719.103 1606.39 795.682C1598.28 897.602 1610.88 981.241 1630.3 1048.56C1735.16 1412.19 2067.35 1409.54 2336.42 1888.48C2544.85 2259.49 2440.31 2429.81 2655.1 2667.08C2726.94 2746.43 2810.64 2806.84 2899.41 2852.94C2903.02 2850.38 2906.64 2847.85 2910.33 2845.38C3234.45 2628.32 3445.63 2273.43 3445.63 1872.46Z" fill="white"/>
</mask>
<g mask="url(#mask8_5_686)">
<path d="M3020.66 1563.55C3046.54 1563.55 3067.53 1542.96 3067.53 1517.57C3067.53 1492.17 3046.54 1471.59 3020.66 1471.59C2994.78 1471.59 2973.79 1492.17 2973.79 1517.57C2973.79 1542.96 2994.78 1563.55 3020.66 1563.55Z" fill="white"/>
</g>
<mask id="mask9_5_686" style="mask-type:luminance" maskUnits="userSpaceOnUse" x="1603" y="676" width="1843" height="2177">
<path d="M3445.63 1872.46C3445.63 1211.74 2872.28 676.12 2165.01 676.12C1964.73 676.12 1775.21 719.103 1606.39 795.682C1598.28 897.602 1610.88 981.241 1630.3 1048.56C1735.16 1412.19 2067.35 1409.54 2336.42 1888.48C2544.85 2259.49 2440.31 2429.81 2655.1 2667.08C2726.94 2746.43 2810.64 2806.84 2899.41 2852.94C2903.02 2850.38 2906.64 2847.85 2910.33 2845.38C3234.45 2628.32 3445.63 2273.43 3445.63 1872.46Z" fill="white"/>
</mask>
<g mask="url(#mask9_5_686)">
<path d="M2597.3 1606.66C2623.19 1606.66 2644.17 1586.07 2644.17 1560.68C2644.17 1535.29 2623.19 1514.7 2597.3 1514.7C2571.42 1514.7 2550.44 1535.29 2550.44 1560.68C2550.44 1586.07 2571.42 1606.66 2597.3 1606.66Z" fill="white"/>
</g>
<mask id="mask10_5_686" style="mask-type:luminance" maskUnits="userSpaceOnUse" x="1603" y="676" width="1843" height="2177">
<path d="M3445.63 1872.46C3445.63 1211.74 2872.28 676.12 2165.01 676.12C1964.73 676.12 1775.21 719.103 1606.39 795.682C1598.28 897.602 1610.88 981.241 1630.3 1048.56C1735.16 1412.19 2067.35 1409.54 2336.42 1888.48C2544.85 2259.49 2440.31 2429.81 2655.1 2667.08C2726.94 2746.43 2810.64 2806.84 2899.41 2852.94C2903.02 2850.38 2906.64 2847.85 2910.33 2845.38C3234.45 2628.32 3445.63 2273.43 3445.63 1872.46Z" fill="white"/>
</mask>
<g mask="url(#mask10_5_686)">
<path d="M3051.48 2011.06C3077.37 2011.06 3098.35 1990.48 3098.35 1965.08C3098.35 1939.69 3077.37 1919.1 3051.48 1919.1C3025.6 1919.1 3004.62 1939.69 3004.62 1965.08C3004.62 1990.48 3025.6 2011.06 3051.48 2011.06Z" fill="white"/>
</g>
<mask id="mask11_5_686" style="mask-type:luminance" maskUnits="userSpaceOnUse" x="1603" y="676" width="1843" height="2177">
<path d="M3445.63 1872.46C3445.63 1211.74 2872.28 676.12 2165.01 676.12C1964.73 676.12 1775.21 719.103 1606.39 795.682C1598.28 897.602 1610.88 981.241 1630.3 1048.56C1735.16 1412.19 2067.35 1409.54 2336.42 1888.48C2544.85 2259.49 2440.31 2429.81 2655.1 2667.08C2726.94 2746.43 2810.64 2806.84 2899.41 2852.94C2903.02 2850.38 2906.64 2847.85 2910.33 2845.38C3234.45 2628.32 3445.63 2273.43 3445.63 1872.46Z" fill="white"/>
</mask>
<g mask="url(#mask11_5_686)">
<path d="M2611.36 2037.15C2637.25 2037.15 2658.23 2016.56 2658.23 1991.17C2658.23 1965.77 2637.25 1945.19 2611.36 1945.19C2585.48 1945.19 2564.5 1965.77 2564.5 1991.17C2564.5 2016.56 2585.48 2037.15 2611.36 2037.15Z" fill="white"/>
</g>
<mask id="mask12_5_686" style="mask-type:luminance" maskUnits="userSpaceOnUse" x="1489" y="1061" width="2213" height="1823">
<path d="M3615.85 1774.38C3362.27 1167.75 2622.74 895.162 1964.04 1165.54C1777.52 1242.1 1617.51 1354.01 1489.67 1488.86C1521.23 1585.54 1565.07 1657.51 1608.99 1711.9C1846.21 2005.68 2154.56 1876.26 2588.96 2213.12C2925.47 2474.08 2893.48 2670.43 3184.58 2806.16C3281.93 2851.55 3383.08 2875.02 3483.44 2883.4C3485.82 2879.68 3488.23 2875.97 3490.71 2872.29C3709.27 2549.09 3769.74 2142.53 3615.85 1774.38Z" fill="white"/>
</mask>
<g mask="url(#mask12_5_686)">
<path d="M3311.84 1464.76C3335.89 1454.91 3347.46 1428.01 3337.68 1404.68C3327.91 1381.35 3300.49 1370.42 3276.45 1380.26C3252.4 1390.11 3240.83 1417.01 3250.61 1440.34C3260.38 1463.67 3287.8 1474.61 3311.84 1464.76Z" fill="white"/>
</g>
<mask id="mask13_5_686" style="mask-type:luminance" maskUnits="userSpaceOnUse" x="1603" y="676" width="1843" height="2177">
<path d="M3445.63 1872.46C3445.63 1211.74 2872.28 676.12 2165.01 676.12C1964.73 676.12 1775.21 719.103 1606.39 795.682C1598.28 897.602 1610.88 981.241 1630.3 1048.56C1735.16 1412.19 2067.35 1409.54 2336.42 1888.48C2544.85 2259.49 2440.31 2429.81 2655.1 2667.08C2726.94 2746.43 2810.64 2806.84 2899.41 2852.94C2903.02 2850.38 2906.64 2847.85 2910.33 2845.38C3234.45 2628.32 3445.63 2273.43 3445.63 1872.46Z" fill="white"/>
</mask>
<g mask="url(#mask13_5_686)">
<path d="M3387.78 1947.13C3413.66 1947.13 3434.64 1926.54 3434.64 1901.15C3434.64 1875.75 3413.66 1855.17 3387.78 1855.17C3361.89 1855.17 3340.91 1875.75 3340.91 1901.15C3340.91 1926.54 3361.89 1947.13 3387.78 1947.13Z" fill="white"/>
</g>
<mask id="mask14_5_686" style="mask-type:luminance" maskUnits="userSpaceOnUse" x="1603" y="676" width="1843" height="2177">
<path d="M3445.63 1872.46C3445.63 1211.74 2872.28 676.12 2165.01 676.12C1964.73 676.12 1775.21 719.103 1606.39 795.682C1598.28 897.602 1610.88 981.241 1630.3 1048.56C1735.16 1412.19 2067.35 1409.54 2336.42 1888.48C2544.85 2259.49 2440.31 2429.81 2655.1 2667.08C2726.94 2746.43 2810.64 2806.84 2899.41 2852.94C2903.02 2850.38 2906.64 2847.85 2910.33 2845.38C3234.45 2628.32 3445.63 2273.43 3445.63 1872.46Z" fill="white"/>
</mask>
<g mask="url(#mask14_5_686)">
<path d="M2165.01 1612.59C2190.9 1612.59 2211.88 1592.01 2211.88 1566.61C2211.88 1541.22 2190.9 1520.63 2165.01 1520.63C2139.13 1520.63 2118.15 1541.22 2118.15 1566.61C2118.15 1592.01 2139.13 1612.59 2165.01 1612.59Z" fill="white"/>
</g>
<mask id="mask15_5_686" style="mask-type:luminance" maskUnits="userSpaceOnUse" x="1603" y="676" width="1843" height="2177">
<path d="M3445.63 1872.46C3445.63 1211.74 2872.28 676.12 2165.01 676.12C1964.73 676.12 1775.21 719.103 1606.39 795.682C1598.28 897.602 1610.88 981.241 1630.3 1048.56C1735.16 1412.19 2067.35 1409.54 2336.42 1888.48C2544.85 2259.49 2440.31 2429.81 2655.1 2667.08C2726.94 2746.43 2810.64 2806.84 2899.41 2852.94C2903.02 2850.38 2906.64 2847.85 2910.33 2845.38C3234.45 2628.32 3445.63 2273.43 3445.63 1872.46Z" fill="white"/>
</mask>
<g mask="url(#mask15_5_686)">
<path d="M2165.01 1073.08C2190.9 1073.08 2211.88 1052.5 2211.88 1027.1C2211.88 1001.71 2190.9 981.124 2165.01 981.124C2139.13 981.124 2118.15 1001.71 2118.15 1027.1C2118.15 1052.5 2139.13 1073.08 2165.01 1073.08Z" fill="white"/>
</g>
<mask id="mask16_5_686" style="mask-type:luminance" maskUnits="userSpaceOnUse" x="2021" y="250" width="2371" height="1558">
<path d="M3534.62 282.874C2875.32 126.647 2213.1 542.936 2055.51 1212.68C2010.89 1402.34 2011.55 1591.97 2050.35 1769.94C2150.24 1801.72 2236.51 1809.56 2308.01 1807.1C2694.22 1793.78 2765.6 1478.59 3303.45 1337.04C3720.11 1227.38 3866.78 1366.65 4151.39 1219.35C4246.57 1170.09 4325.51 1105.11 4391.28 1031.95C4389.54 1027.93 4387.82 1023.9 4386.18 1019.83C4241.8 661.573 3934.73 377.684 3534.62 282.874Z" fill="white"/>
</mask>
<g mask="url(#mask16_5_686)">
<path d="M2509.97 1025.8C2515.8 1001.2 2500.02 976.432 2474.72 970.484C2449.41 964.535 2424.17 979.656 2418.34 1004.26C2412.5 1028.86 2428.29 1053.62 2453.59 1059.57C2478.89 1065.52 2504.13 1050.4 2509.97 1025.8Z" fill="white"/>
</g>
<mask id="mask17_5_686" style="mask-type:luminance" maskUnits="userSpaceOnUse" x="1603" y="676" width="1843" height="2177">
<path d="M3445.63 1872.46C3445.63 1211.74 2872.28 676.12 2165.01 676.12C1964.73 676.12 1775.21 719.103 1606.39 795.682C1598.28 897.602 1610.88 981.241 1630.3 1048.56C1735.16 1412.19 2067.35 1409.54 2336.42 1888.48C2544.85 2259.49 2440.31 2429.81 2655.1 2667.08C2726.94 2746.43 2810.64 2806.84 2899.41 2852.94C2903.02 2850.38 2906.64 2847.85 2910.33 2845.38C3234.45 2628.32 3445.63 2273.43 3445.63 1872.46Z" fill="white"/>
</mask>
<g mask="url(#mask17_5_686)">
<path d="M2718.63 1026.08C2744.52 1026.08 2765.5 1005.5 2765.5 980.103C2765.5 954.708 2744.52 934.122 2718.63 934.122C2692.75 934.122 2671.77 954.708 2671.77 980.103C2671.77 1005.5 2692.75 1026.08 2718.63 1026.08Z" fill="white"/>
</g>
<mask id="mask18_5_686" style="mask-type:luminance" maskUnits="userSpaceOnUse" x="1603" y="676" width="1843" height="2177">
<path d="M3445.63 1872.46C3445.63 1211.74 2872.28 676.12 2165.01 676.12C1964.73 676.12 1775.21 719.103 1606.39 795.682C1598.28 897.602 1610.88 981.241 1630.3 1048.56C1735.16 1412.19 2067.35 1409.54 2336.42 1888.48C2544.85 2259.49 2440.31 2429.81 2655.1 2667.08C2726.94 2746.43 2810.64 2806.84 2899.41 2852.94C2903.02 2850.38 2906.64 2847.85 2910.33 2845.38C3234.45 2628.32 3445.63 2273.43 3445.63 1872.46Z" fill="white"/>
</mask>
<g mask="url(#mask18_5_686)">
<path d="M2831.11 962.637C2857 962.637 2877.98 942.05 2877.98 916.656C2877.98 891.262 2857 870.676 2831.11 870.676C2805.23 870.676 2784.25 891.262 2784.25 916.656C2784.25 942.05 2805.23 962.637 2831.11 962.637Z" fill="white"/>
</g>
<mask id="mask19_5_686" style="mask-type:luminance" maskUnits="userSpaceOnUse" x="1603" y="676" width="1843" height="2177">
<path d="M3445.63 1872.46C3445.63 1211.74 2872.28 676.12 2165.01 676.12C1964.73 676.12 1775.21 719.103 1606.39 795.682C1598.28 897.602 1610.88 981.241 1630.3 1048.56C1735.16 1412.19 2067.35 1409.54 2336.42 1888.48C2544.85 2259.49 2440.31 2429.81 2655.1 2667.08C2726.94 2746.43 2810.64 2806.84 2899.41 2852.94C2903.02 2850.38 2906.64 2847.85 2910.33 2845.38C3234.45 2628.32 3445.63 2273.43 3445.63 1872.46Z" fill="white"/>
</mask>
<g mask="url(#mask19_5_686)">
<path d="M2165.01 772.678C2190.9 772.678 2211.88 752.092 2211.88 726.698C2211.88 701.304 2190.9 680.718 2165.01 680.718C2139.13 680.718 2118.15 701.304 2118.15 726.698C2118.15 752.092 2139.13 772.678 2165.01 772.678Z" fill="white"/>
</g>
<mask id="mask20_5_686" style="mask-type:luminance" maskUnits="userSpaceOnUse" x="1603" y="676" width="1843" height="2177">
<path d="M3445.63 1872.46C3445.63 1211.74 2872.28 676.12 2165.01 676.12C1964.73 676.12 1775.21 719.103 1606.39 795.682C1598.28 897.602 1610.88 981.241 1630.3 1048.56C1735.16 1412.19 2067.35 1409.54 2336.42 1888.48C2544.85 2259.49 2440.31 2429.81 2655.1 2667.08C2726.94 2746.43 2810.64 2806.84 2899.41 2852.94C2903.02 2850.38 2906.64 2847.85 2910.33 2845.38C3234.45 2628.32 3445.63 2273.43 3445.63 1872.46Z" fill="white"/>
</mask>
<g mask="url(#mask20_5_686)">
<path d="M2558.25 2477.03C2584.13 2477.03 2605.11 2456.44 2605.11 2431.05C2605.11 2405.65 2584.13 2385.07 2558.25 2385.07C2532.37 2385.07 2511.38 2405.65 2511.38 2431.05C2511.38 2456.44 2532.37 2477.03 2558.25 2477.03Z" fill="white"/>
</g>
<mask id="mask21_5_686" style="mask-type:luminance" maskUnits="userSpaceOnUse" x="855" y="1353" width="2422" height="1451">
<path d="M2932.12 1691.71C2455.93 1224.52 1664.49 1243.54 1164.38 1734.2C1022.76 1873.14 919.731 2035.01 855.55 2206.28C923.27 2283.97 992.463 2334.37 1054.71 2368.5C1390.93 2552.88 1623.91 2320.55 2159.35 2472.55C2574.12 2590.29 2622.96 2783.25 2945.85 2802.01C3053.82 2808.28 3156.55 2792.93 3252.54 2763.94C3253.25 2759.63 3253.99 2755.33 3254.82 2751.02C3327.56 2372.68 3221.11 1975.24 2932.12 1691.71Z" fill="white"/>
</mask>
<g mask="url(#mask21_5_686)">
<path d="M2999.61 2422.69C3017.91 2404.73 3017.91 2375.62 2999.61 2357.67C2981.3 2339.71 2951.63 2339.71 2933.33 2357.67C2915.03 2375.62 2915.03 2404.73 2933.33 2422.69C2951.63 2440.65 2981.3 2440.65 2999.61 2422.69Z" fill="white"/>
</g>
<mask id="mask22_5_686" style="mask-type:luminance" maskUnits="userSpaceOnUse" x="1005" y="1553" width="2422" height="1451">
<path d="M3082.11 1891.65C2605.92 1424.45 1814.47 1443.48 1314.36 1934.14C1172.74 2073.08 1069.71 2234.95 1005.53 2406.22C1073.25 2483.91 1142.44 2534.31 1204.69 2568.44C1540.92 2752.82 1773.89 2520.49 2309.33 2672.48C2724.11 2790.22 2772.94 2983.19 3095.83 3001.95C3203.8 3008.22 3306.54 2992.87 3402.52 2963.88C3403.23 2959.57 3403.97 2955.26 3404.8 2950.96C3477.54 2572.62 3371.1 2175.18 3082.11 1891.65Z" fill="white"/>
</mask>
<g mask="url(#mask22_5_686)">
<path d="M3320.59 2345.04C3338.89 2327.08 3338.89 2297.97 3320.59 2280.01C3302.28 2262.06 3272.61 2262.06 3254.31 2280.01C3236.01 2297.97 3236.01 2327.08 3254.31 2345.04C3272.61 2362.99 3302.28 2362.99 3320.59 2345.04Z" fill="white"/>
</g>
<path d="M3184.53 4706.24C3180.73 4706.24 3177.66 4703.22 3177.66 4699.5V2943.24C3177.66 2939.52 3180.73 2936.51 3184.53 2936.51C3188.32 2936.51 3191.39 2939.52 3191.39 2943.24V4699.5C3191.39 4703.22 3188.32 4706.24 3184.53 4706.24Z" fill="#97A6B7"/>
<path d="M3666.79 4595.91C3663 4595.91 3659.92 4592.9 3659.92 4589.18V2898.95C3659.92 2895.23 3663 2892.22 3666.79 2892.22C3670.58 2892.22 3673.65 2895.24 3673.65 2898.95V4589.18C3673.65 4592.9 3670.58 4595.91 3666.79 4595.91Z" fill="#97A6B7"/>
<path d="M4781.77 4674.62C4778.96 4674.62 4776.33 4672.92 4775.31 4670.18L4130.64 2927.38C4129.35 2923.89 4131.19 2920.02 4134.75 2918.75C4138.31 2917.48 4142.25 2919.29 4143.55 2922.79L4788.22 4665.58C4789.52 4669.08 4787.67 4672.94 4784.11 4674.21C4783.34 4674.49 4782.55 4674.62 4781.77 4674.62Z" fill="#97A6B7"/>
<path d="M4305.85 4811C4302.92 4811 4300.2 4809.14 4299.29 4806.25L3720.69 2968.78C3719.58 2965.22 3721.61 2961.45 3725.23 2960.36C3728.86 2959.26 3732.69 2961.26 3733.81 2964.8L4312.41 4802.28C4313.53 4805.83 4311.5 4809.6 4307.88 4810.7C4307.2 4810.9 4306.52 4811 4305.85 4811Z" fill="#97A6B7"/>
<path d="M3661.49 2897.2L3177.7 2932.33V2943.01L3730.6 2967.32L4143.85 2917.64V2906.97L3661.49 2897.2Z" fill="#97A6B7"/>
<path d="M3661.49 2886.52L3177.7 2932.33L3730.6 2956.65L4143.85 2906.97L3661.49 2886.52Z" fill="#E7EBEF"/>
<path d="M4180.67 4413.48C4177.62 4413.48 4174.84 4411.48 4174.03 4408.45C4173.07 4404.86 4175.26 4401.17 4178.93 4400.23L4639.57 4281.67C4643.22 4280.72 4646.99 4282.87 4647.96 4286.47C4648.92 4290.07 4646.73 4293.75 4643.06 4294.7L4182.42 4413.26C4181.83 4413.41 4181.25 4413.48 4180.67 4413.48Z" fill="#97A6B7"/>
<path d="M4050.18 3997.55C4046.91 3997.55 4044.01 3995.25 4043.43 3991.98C4042.77 3988.32 4045.25 3984.83 4048.99 3984.18L4501.07 3905.64C4504.84 3905.01 4508.37 3907.44 4509.03 3911.1C4509.69 3914.76 4507.2 3918.26 4503.47 3918.91L4051.39 3997.44C4050.98 3997.51 4050.58 3997.55 4050.18 3997.55Z" fill="#97A6B7"/>
<path d="M3914.51 3568.23C3911.11 3568.23 3908.16 3565.75 3907.71 3562.35C3907.22 3558.67 3909.88 3555.29 3913.64 3554.81L4351.16 3499.48C4355.04 3498.98 4358.36 3501.62 4358.85 3505.3C4359.33 3508.99 4356.68 3512.37 4352.92 3512.84L3915.4 3568.17C3915.1 3568.21 3914.81 3568.23 3914.51 3568.23Z" fill="#97A6B7"/>
<path d="M3827.58 3270.31C3824.26 3270.31 3821.33 3267.94 3820.8 3264.61C3820.22 3260.94 3822.78 3257.49 3826.53 3256.92L4237.89 3193.76C4241.64 3193.19 4245.14 3195.7 4245.73 3199.38C4246.31 3203.05 4243.76 3206.5 4240 3207.07L3828.64 3270.23C3828.29 3270.28 3827.93 3270.31 3827.58 3270.31Z" fill="#97A6B7"/>
<path d="M822.037 4362.95L817.183 4439.34C817.183 4439.34 828.24 4450.83 849.507 4442.83L872.725 4367.81L822.037 4362.95Z" fill="url(#paint18_linear_5_686)"/>
<path d="M831.797 4419.12C831.797 4419.12 793.668 4434.38 801.073 4450.93C805.048 4459.81 818.807 4479.87 830.694 4496.55C841.696 4511.99 861.569 4518.82 879.96 4513.41C886.132 4511.59 892.444 4509.82 898.033 4508.4C909.591 4505.48 910.264 4489.62 899.007 4485.73C893.547 4483.85 888.139 4482.32 883.432 4481.61C869.472 4479.5 850.259 4447.15 848.007 4434.19C845.757 4421.23 831.797 4419.12 831.797 4419.12Z" fill="url(#paint19_linear_5_686)"/>
<path d="M739.996 3629.83C796.165 3648.83 1003.87 3725.82 1050.17 3902.48C1052.64 3911.92 1058.98 3938.14 1059.27 3980.98C1060.5 4159.31 954.831 4310.24 877.979 4398.06C853.744 4397.66 829.51 4397.27 805.277 4396.88C793.173 4351.36 782.046 4283.29 799.426 4206.7C825.989 4089.62 894.951 4059.25 881.641 4001.79C857.47 3897.45 610.519 3913.28 587.23 3819.85C578.818 3786.1 597.278 3728.83 739.996 3629.83Z" fill="url(#paint20_linear_5_686)"/>
<path d="M45.5211 4697.56L150.98 4695.12C157.479 4694.98 160.266 4687.03 155.29 4682.92C150.385 4678.88 143.603 4675.57 134.937 4676.46C114.89 4678.51 69.8854 4650.99 49.4701 4656.9C42.7999 4658.83 37.3856 4674.23 34.607 4678.48C29.1543 4686.84 35.4094 4697.79 45.5211 4697.56Z" fill="url(#paint21_linear_5_686)"/>
<path d="M92.8852 4618.06L49.4678 4656.9C49.4678 4656.9 64.631 4668.01 86.7487 4663.25L131.129 4633.27L92.8852 4618.06Z" fill="url(#paint22_linear_5_686)"/>
<g opacity="0.3">
<path d="M926.396 4089.89C955.51 4012.73 990.421 3917.58 950.518 3863.58C910.136 3808.92 821.696 3855.07 732.96 3811.04C700.045 3794.71 666.218 3765.48 638.07 3712.57C588.267 3763.03 581.506 3796.89 587.231 3819.85C610.519 3913.28 857.468 3897.45 881.641 4001.79C894.952 4059.25 825.991 4089.62 799.427 4206.7C784.485 4272.55 790.625 4332.05 800.329 4376.38C808.963 4335.21 822.384 4291.97 842.909 4248.33C874.723 4180.67 895.724 4171.17 926.396 4089.89Z" fill="url(#paint23_linear_5_686)"/>
</g>
<path d="M772.165 3607.54C738.007 3761.52 665.21 3996.66 498.369 4242.11C374.853 4423.82 239.147 4553.3 132.702 4639.81C125.13 4642.03 112.221 4644.76 96.3948 4642.86C84.6347 4641.44 75.3062 4637.96 69.0337 4635.02C76.3598 4591.61 91.8142 4527.48 128.479 4458.22C195.571 4331.46 255.337 4335.52 322.727 4223.65C372.071 4141.74 388.105 4054.73 420.172 3880.7C444.932 3746.33 444.945 3714.21 478.877 3675.67C547.48 3597.76 676.328 3596.86 772.165 3607.54Z" fill="url(#paint24_linear_5_686)"/>
<g opacity="0.3">
<path d="M154.213 4486.87C178.159 4449.78 220.65 4411.15 304.466 4334.94C391.088 4256.19 387.761 4270.42 404.808 4247.15C481.135 4142.96 439.775 4031.65 458.623 3897.31C469.142 3822.36 502.855 3724.41 601.04 3614.69C555.017 3623.02 510.952 3640.94 478.873 3675.67C439.485 3718.32 442.398 3760.08 420.169 3880.7C388.103 4054.72 372.068 4141.74 322.723 4223.65C255.334 4335.52 195.569 4331.46 128.476 4458.21C91.8109 4527.48 76.3563 4591.61 69.0303 4635.02C75.3028 4637.96 84.6296 4641.44 96.3914 4642.85C105.718 4643.97 113.99 4643.47 120.798 4642.43C115.247 4554.36 142.066 4505.69 154.213 4486.87Z" fill="url(#paint25_linear_5_686)"/>
</g>
<path d="M864.281 2606.91C864.281 2606.91 892.405 2812.06 672.101 2956.74L906.563 3011.57C906.563 3011.57 981.577 2873.89 927.207 2645.88L864.281 2606.91Z" fill="url(#paint26_linear_5_686)"/>
<path d="M905.547 2645.88C905.547 2645.88 918.174 2615.28 916.135 2601.5C914.094 2587.73 880.666 2569.35 857.878 2550.37C835.093 2531.39 858.736 2569.47 864.036 2578.13C869.335 2586.79 887.924 2599.78 885.257 2629.23L905.547 2645.88Z" fill="url(#paint27_linear_5_686)"/>
<path d="M643.237 2802.11C654.748 2779.86 659.496 2779.99 662.321 2768.24C668.761 2741.48 652.117 2707.5 638.008 2707.03C628.911 2706.72 628.161 2720.6 608.911 2742.22C585.326 2768.72 571.011 2765.24 557.133 2788.24C553.887 2793.62 539.278 2817.83 548.267 2835.9C559.741 2858.96 604.962 2862.6 623.861 2844.81C632.827 2836.37 629.059 2829.52 643.237 2802.11Z" fill="url(#paint28_linear_5_686)"/>
<path d="M609.343 2826.12C609.343 2826.12 617.426 2868.41 611.686 2902.79C606.493 2933.86 547.83 2966.15 536.586 2975.41C525.344 2984.67 566.416 2994.71 604.091 2989.86C641.764 2985.02 744.915 2952.62 760.588 2934.56C776.26 2916.51 742.334 2925.41 713.799 2922C685.264 2918.59 658.016 2871.67 657.179 2847.73C656.343 2823.78 609.343 2826.12 609.343 2826.12Z" fill="url(#paint29_linear_5_686)"/>
<path d="M621.637 2857.68C621.637 2857.68 650.481 2870.1 676.024 2850.05C698.894 2832.1 664.873 2776.98 641.606 2776.28C633.843 2776.05 622.514 2781.51 615.827 2789.49C611.876 2794.21 611.642 2797.35 605.035 2804.93C598.944 2811.92 596.263 2812.55 595.338 2815.95C594.178 2820.2 596.17 2827.29 611.834 2839.49C604.03 2838.08 597.302 2840.1 594.696 2844.56C594.281 2845.27 593.418 2847.5 593.676 2849.8C594.616 2858.12 605.692 2861.97 621.637 2857.68Z" fill="url(#paint30_linear_5_686)"/>
<path d="M1255.46 2710.49C1255.46 2710.49 1272.93 2708.1 1267.47 2675.37C1263.2 2649.72 1266.43 2641.09 1272.6 2645.63C1278.78 2650.18 1279.65 2665 1279.65 2665C1279.65 2665 1302.16 2646.16 1311.43 2621.47C1320.7 2596.78 1326.66 2617.57 1328.65 2629.91C1330.64 2642.26 1315.42 2680.59 1306.81 2687.74C1298.2 2694.89 1285.62 2726.39 1285.62 2726.39L1255.46 2710.49Z" fill="url(#paint31_linear_5_686)"/>
<path d="M1302 2719.25C1282.13 2705.6 1262.26 2691.95 1242.38 2678.3C1218.24 2824.12 1163.29 2881.35 1116.62 2906.39C1004.03 2966.8 903.506 2859.21 687.98 2903.16C628.588 2915.27 525.064 2937.83 467.674 3020.86C452.588 3042.68 447.224 3059.2 422.195 3215.75C390.203 3415.85 389.071 3450.77 393.596 3493.85C401.874 3572.7 406.891 3620.48 443.955 3662.76C542.372 3775.05 751.498 3717.11 777.717 3709.48C826.153 3695.4 901.433 3673.5 931.332 3610.7C945.402 3581.15 943.9 3554.14 922.25 3446.09C879.364 3232.05 873.887 3218.2 885.843 3194.76C926.19 3115.65 1054.08 3160.89 1162.1 3087.31C1225.26 3044.3 1296.44 2950.56 1302 2719.25Z" fill="url(#paint32_linear_5_686)"/>
<path opacity="0.3" d="M679.706 3680.91C700.786 3638.48 672.438 3599.38 703.519 3548.37C743.131 3483.36 814.425 3505.42 841.242 3457.39C887.103 3375.24 706.505 3260.73 743.174 3129.96C760.682 3067.52 821.846 3022.32 872.943 3005.19C986.389 2967.16 1060.61 3064.04 1166.97 3033.73C1192.18 3026.54 1221.11 3011.66 1250.37 2980.78C1224.51 3034.32 1192.4 3066.68 1162.1 3087.31C1054.08 3160.89 926.19 3115.65 885.842 3194.76C873.887 3218.2 879.364 3232.05 922.249 3446.09C943.901 3554.14 945.401 3581.15 931.332 3610.7C901.433 3673.5 826.154 3695.4 777.717 3709.48C763.364 3713.66 694.196 3732.85 618.392 3731C652.211 3717.52 670.407 3699.64 679.706 3680.91Z" fill="url(#paint33_linear_5_686)"/>
<path d="M1607.56 2330.22C1656.83 2354.75 1718.73 2332.21 1745.8 2279.87C1772.88 2227.52 1754.88 2165.2 1705.61 2140.67C1703.06 2139.4 1700.45 2138.33 1697.84 2137.31C1706.99 2108.35 1713.88 2079.16 1718.51 2049.96C1721.33 2049.95 1724.16 2049.9 1727.04 2049.65C1783.25 2044.72 1827.85 1994.04 1826.67 1936.44C1825.48 1878.84 1778.95 1836.14 1722.74 1841.07C1719.8 1841.33 1716.92 1841.79 1714.05 1842.29C1708.17 1813.74 1700.12 1785.86 1689.97 1758.88C1692.55 1757.39 1695.13 1755.86 1697.64 1754.13C1745.72 1721.07 1761.08 1655.83 1731.95 1608.41C1702.82 1560.99 1640.22 1549.36 1592.14 1582.42C1589.68 1584.11 1587.36 1585.94 1585.07 1587.8C1566.07 1567.2 1545.23 1548.11 1522.69 1530.7C1524.28 1528.15 1525.83 1525.56 1527.23 1522.85C1554.3 1470.51 1589.69 1413.33 1540.03 1389.56C1425.16 1334.56 1375.88 1381.67 1348.8 1434.01C1347.4 1436.72 1346.19 1439.48 1345.03 1442.23C1317.39 1434.67 1289.39 1429.44 1261.22 1426.55C1261.4 1423.65 1261.53 1420.73 1261.48 1417.78C1260.29 1360.18 1277.7 1329.01 1221.28 1327.94C1098.24 1325.62 1056.74 1378.02 1057.93 1435.61C1057.99 1438.63 1058.25 1441.57 1058.55 1444.49C1030.36 1452.38 1002.67 1462.47 975.718 1474.67C974.436 1472.1 973.107 1469.55 971.584 1467.06C942.451 1419.65 879.855 1408.01 831.77 1441.08C783.685 1474.14 768.323 1539.39 797.456 1586.8C798.946 1589.23 800.584 1591.5 802.243 1593.74C780.95 1614.64 761.011 1637.34 742.586 1661.68C740.203 1660.21 737.784 1658.78 735.232 1657.51C685.96 1632.98 624.069 1655.52 596.994 1707.87C569.917 1760.21 587.912 1822.53 637.185 1847.06C639.738 1848.33 642.344 1849.4 644.957 1850.42C635.81 1879.39 628.913 1908.57 624.291 1937.77C621.465 1937.78 618.632 1937.83 615.756 1938.08C559.544 1943.01 514.944 1993.69 516.13 2051.29C517.318 2108.89 563.849 2151.58 620.057 2146.66C622.993 2146.4 625.88 2145.95 628.747 2145.44C634.624 2173.99 642.674 2201.87 652.827 2228.85C650.242 2230.33 647.67 2231.87 645.158 2233.6C597.074 2266.66 581.712 2331.9 610.844 2379.32C639.977 2426.74 736.4 2448.76 784.484 2415.69C786.949 2414 755.439 2401.79 757.73 2399.93C776.729 2420.53 797.564 2439.62 820.106 2457.04C818.524 2459.59 816.971 2462.17 815.571 2464.88C788.494 2517.22 806.488 2579.54 855.759 2604.08C905.031 2628.61 966.924 2606.07 993.999 2553.72C995.401 2551.01 996.61 2548.26 997.772 2545.5C1025.41 2553.07 1053.41 2558.3 1081.58 2561.18C1081.4 2564.09 1081.27 2567 1081.33 2569.96C1082.51 2627.55 1129.04 2670.25 1185.25 2665.32C1241.46 2660.4 1286.06 2609.71 1284.87 2552.12C1284.81 2549.11 1284.55 2546.17 1284.25 2543.24C1312.44 2535.35 1340.13 2525.26 1367.08 2513.07C1368.36 2515.63 1369.7 2518.19 1371.22 2520.66C1400.35 2568.08 1462.95 2579.72 1511.03 2546.65C1559.12 2513.59 1574.48 2448.35 1545.34 2400.93C1543.85 2398.5 1542.22 2396.23 1540.56 2393.99C1561.85 2373.09 1581.79 2350.39 1600.21 2326.05C1602.59 2327.52 1605.01 2328.95 1607.56 2330.22ZM993.4 2337.98C814.507 2248.91 749.174 2022.64 847.479 1832.59C945.783 1642.54 1170.5 1560.69 1349.39 1649.76C1528.29 1738.83 1593.62 1965.1 1495.31 2155.15C1397.01 2345.2 1172.3 2427.05 993.4 2337.98Z" fill="#D8DEE8"/>
<path d="M1727.05 2049.65C1783.25 2044.73 1827.85 1994.04 1826.67 1936.44C1825.48 1878.85 1778.95 1836.15 1722.74 1841.07C1719.81 1841.33 1716.92 1841.79 1714.05 1842.29C1708.18 1813.74 1700.12 1785.87 1689.97 1758.88C1692.55 1757.4 1695.13 1755.86 1697.64 1754.13C1745.72 1721.07 1805.2 1641.19 1771.27 1596.95C1706.86 1513 1640.22 1549.36 1592.14 1582.42C1589.68 1584.11 1587.36 1585.94 1585.07 1587.8C1566.07 1567.2 1545.23 1548.12 1522.69 1530.7C1524.27 1528.15 1525.83 1525.57 1527.23 1522.86C1541.97 1494.37 1543.26 1462.96 1533.52 1436.26C1487.08 1516.48 1441.28 1597.04 1396.29 1678.03C1539.01 1780.59 1584.48 1982.77 1495.31 2155.15C1419.75 2301.23 1269.51 2383.27 1122.8 2373.02C1116.26 2389.67 1109.84 2406.42 1102.83 2422.91C1083.82 2467.67 1062.22 2511.51 1040.6 2555.28C1054.2 2557.8 1067.87 2559.78 1081.57 2561.18C1081.4 2564.09 1081.26 2567.01 1081.32 2569.96C1082.51 2627.55 1118.16 2676.48 1220.03 2671.17C1276.38 2668.22 1286.06 2609.72 1284.87 2552.12C1284.8 2549.11 1284.55 2546.17 1284.24 2543.24C1312.44 2535.35 1340.13 2525.27 1367.08 2513.07C1368.36 2515.64 1369.69 2518.19 1371.21 2520.67C1400.35 2568.09 1501.38 2588.22 1549.47 2555.15C1597.55 2522.09 1574.47 2448.35 1545.34 2400.93C1543.85 2398.5 1542.21 2396.23 1540.55 2393.99C1561.84 2373.09 1581.78 2350.4 1600.21 2326.06C1602.59 2327.52 1605.01 2328.96 1607.56 2330.22C1656.83 2354.76 1718.73 2332.21 1745.8 2279.87C1772.88 2227.53 1754.88 2165.2 1705.61 2140.67C1703.06 2139.4 1700.45 2138.33 1697.84 2137.31C1706.99 2108.35 1713.88 2079.16 1718.51 2049.96C1721.33 2049.95 1724.17 2049.9 1727.05 2049.65Z" fill="#D8DEE8"/>
<path d="M1660.55 2336.12C1709.83 2360.66 1771.72 2338.11 1798.79 2285.77C1825.87 2233.43 1807.87 2171.1 1758.6 2146.57C1756.05 2145.3 1753.44 2144.23 1750.83 2143.21C1759.98 2114.25 1766.88 2085.06 1771.5 2055.86C1774.32 2055.85 1777.16 2055.81 1780.04 2055.55C1836.24 2050.63 1880.85 1999.94 1879.66 1942.35C1878.47 1884.75 1831.94 1842.05 1775.73 1846.97C1772.8 1847.23 1769.91 1847.69 1767.04 1848.19C1761.16 1819.65 1753.11 1791.77 1742.96 1764.78C1745.54 1763.3 1748.12 1761.76 1750.63 1760.03C1798.71 1726.97 1814.07 1661.73 1784.94 1614.31C1755.81 1566.89 1693.21 1555.26 1645.13 1588.32C1642.67 1590.02 1640.35 1591.85 1638.06 1593.7C1619.06 1573.11 1598.22 1554.02 1575.68 1536.6C1577.26 1534.05 1578.81 1531.47 1580.22 1528.75C1607.29 1476.41 1589.3 1414.09 1540.03 1389.56C1490.76 1365.02 1428.87 1387.57 1401.79 1439.91C1400.39 1442.63 1399.18 1445.38 1398.01 1448.14C1370.38 1440.57 1342.37 1435.34 1314.21 1432.46C1314.39 1429.55 1314.52 1426.63 1314.46 1423.68C1313.27 1366.09 1266.75 1323.39 1210.54 1328.31C1154.33 1333.24 1109.73 1383.92 1110.91 1441.52C1110.98 1444.53 1111.23 1447.47 1111.54 1450.4C1083.35 1458.29 1055.66 1468.37 1028.71 1480.57C1027.43 1478 1026.09 1475.45 1024.57 1472.97C995.442 1425.55 932.843 1413.92 884.759 1446.98C836.676 1480.05 821.314 1545.29 850.445 1592.71C851.938 1595.13 853.573 1597.41 855.233 1599.65C833.941 1620.55 814 1643.24 795.575 1667.58C793.19 1666.12 790.775 1664.68 788.221 1663.42C738.95 1638.88 677.058 1661.43 649.983 1713.77C622.906 1766.11 640.901 1828.44 690.172 1852.97C692.726 1854.24 695.33 1855.3 697.943 1856.33C688.796 1885.29 681.899 1914.48 677.276 1943.68C674.454 1943.69 671.618 1943.73 668.74 1943.98C612.533 1948.91 567.93 1999.59 569.117 2057.19C570.304 2114.79 616.835 2157.48 673.043 2152.56C675.979 2152.3 678.865 2151.85 681.735 2151.35C687.611 2179.89 695.661 2207.77 705.815 2234.75C703.231 2236.24 700.657 2237.77 698.145 2239.5C650.062 2272.57 634.7 2337.81 663.831 2385.23C692.965 2432.64 755.561 2444.28 803.644 2411.22C806.109 2409.52 808.427 2407.69 810.717 2405.83C829.718 2426.43 850.552 2445.52 873.093 2462.94C871.511 2465.49 869.959 2468.07 868.556 2470.78C841.481 2523.13 859.476 2585.45 908.747 2609.98C958.018 2634.51 1019.91 2611.97 1046.98 2559.62C1048.39 2556.91 1049.6 2554.16 1050.76 2551.4C1078.4 2558.96 1106.4 2564.19 1134.56 2567.08C1134.39 2569.99 1134.25 2572.9 1134.31 2575.86C1135.5 2633.45 1182.03 2676.15 1238.23 2671.23C1294.44 2666.3 1339.05 2615.61 1337.86 2558.02C1337.8 2555.01 1337.54 2552.06 1337.23 2549.14C1365.43 2541.25 1393.12 2531.17 1420.07 2518.97C1421.35 2521.53 1422.68 2524.09 1424.2 2526.57C1453.34 2573.98 1515.93 2585.62 1564.01 2552.56C1612.1 2519.49 1627.46 2454.25 1598.33 2406.83C1596.84 2404.4 1595.2 2402.13 1593.54 2399.89C1614.83 2378.99 1634.78 2356.3 1653.2 2331.95C1655.59 2333.42 1658 2334.85 1660.55 2336.12ZM1046.39 2343.88C867.498 2254.81 802.165 2028.54 900.472 1838.49C998.779 1648.44 1223.49 1566.59 1402.38 1655.66C1581.28 1744.73 1646.61 1971 1548.31 2161.05C1450 2351.1 1225.29 2432.95 1046.39 2343.88Z" fill="white"/>
<path d="M2323.23 3922H1943.77C1696.33 3922 1495.02 3724.55 1495.02 3481.84V3371.46C1495.02 3177.65 1396.4 2995.92 1231.22 2885.32C1034.95 2753.91 871.993 2579.14 759.957 2379.9C644.188 2174.04 583 1941.47 583 1707.36C583 1320.43 744.315 956.684 1037.24 683.115C1330.08 409.62 1719.4 259 2133.5 259C2547.6 259 2936.92 409.62 3229.76 683.115C3522.68 956.686 3684 1320.43 3684 1707.36C3684 1941.48 3622.81 2174.04 3507.04 2379.9C3395.01 2579.14 3232.05 2753.91 3035.78 2885.32C2870.6 2995.91 2771.98 3177.64 2771.98 3371.46V3481.84C2771.98 3724.55 2570.67 3922 2323.23 3922ZM2133.5 270.754C1722.49 270.754 1336.1 420.224 1045.5 691.627C754.985 962.956 594.987 1323.68 594.987 1707.36C594.987 1939.49 655.66 2170.1 770.453 2374.23C881.587 2571.86 1043.26 2745.24 1237.97 2875.61C1406.43 2988.4 1507 3173.76 1507 3371.46V3481.84C1507 3718.06 1702.94 3910.24 1943.77 3910.24H2323.23C2564.06 3910.24 2760 3718.06 2760 3481.84V3371.46C2760 3173.76 2860.57 2988.4 3029.02 2875.61C3223.74 2745.24 3385.41 2571.86 3496.55 2374.23C3611.34 2170.1 3672.02 1939.5 3672.02 1707.36C3672.02 1323.68 3512.02 962.956 3221.5 691.627C2930.9 420.224 2544.51 270.754 2133.5 270.754Z" fill="white"/>
<path d="M2837.5 3137C2869.81 3137 2896 3110.81 2896 3078.5C2896 3046.19 2869.81 3020 2837.5 3020C2805.19 3020 2779 3046.19 2779 3078.5C2779 3110.81 2805.19 3137 2837.5 3137Z" fill="white"/>
<path d="M2385 3458C2409.85 3458 2430 3438.3 2430 3414C2430 3389.7 2409.85 3370 2385 3370C2360.15 3370 2340 3389.7 2340 3414C2340 3438.3 2360.15 3458 2385 3458Z" fill="white"/>
<path d="M2379.28 3430L2372 3420.66L2835.4 3073.16L2837.09 3072.99L3510.8 3006L3512 3017.69L2839.99 3084.51L2379.28 3430Z" fill="white"/>
<path d="M3528.22 3061.47C3551.14 3052.15 3562.03 3026.36 3552.54 3003.86C3543.04 2981.37 3516.75 2970.69 3493.82 2980C3470.9 2989.32 3460.01 3015.11 3469.5 3037.61C3479 3060.1 3505.29 3070.78 3528.22 3061.47Z" fill="white"/>
<path d="M3432.79 2857.49C3432.79 2857.49 3322.91 2912.27 3321.11 2921.02C3319.32 2929.76 3391.78 2918.08 3421.36 2919.35C3450.94 2920.61 3475.28 2911.02 3472.6 2897.27C3469.92 2883.53 3459.57 2848.96 3459.57 2848.96L3432.79 2857.49Z" fill="url(#paint34_linear_5_686)"/>
<path d="M3428.77 2813.03L3435.46 2867.3C3435.46 2867.3 3452.85 2874.09 3464.54 2866.06L3469.52 2806.54L3428.77 2813.03Z" fill="url(#paint35_linear_5_686)"/>
<path d="M3946.27 2814.33L3959.05 2836.84C3962.63 2843.13 3963.69 2850.71 3961.98 2857.88C3957.51 2876.6 3948.58 2913.08 3944.69 2922.59C3939.39 2935.54 3868.28 2943.24 3868.28 2943.24C3868.28 2943.24 3861.94 2933.45 3876.7 2921.63C3891.46 2909.81 3900.95 2907.95 3906.17 2890.5C3911.38 2873.05 3914.85 2823.7 3914.85 2823.7L3946.27 2814.33Z" fill="url(#paint36_linear_5_686)"/>
<path d="M3893.07 2757.13C3897.74 2761.21 3920.58 2837.26 3920.58 2837.26C3920.58 2837.26 3927.97 2847.63 3942.01 2832.32C3956.06 2817.02 3948.37 2825.46 3948.37 2825.46L3945.73 2750.67L3893.07 2757.13Z" fill="url(#paint37_linear_5_686)"/>
<path d="M3368.31 1722.67C3362.52 1884.56 3362.28 2060.45 3370.77 2248.35C3380.33 2459.94 3399.55 2655.51 3423.76 2832.79C3432.76 2833.1 3442.22 2833.15 3452.1 2832.85C3458.78 2832.65 3465.24 2832.29 3471.49 2831.82C3484.05 2795.06 3498.91 2746.72 3512.21 2688.97C3526.19 2628.26 3534.62 2573.8 3540.63 2521.72C3561.79 2338.36 3537 2322.36 3554.17 2186.47C3569.38 2066.12 3591.01 2061.42 3616.4 1890.54C3643.95 1705.14 3623.44 1677.32 3613.47 1667.28C3571.01 1624.5 3471.28 1653.63 3368.31 1722.67Z" fill="url(#paint38_linear_5_686)"/>
<path opacity="0.3" d="M3613.46 1667.28C3572.97 1626.48 3480.36 1651.18 3382.55 1713.45C3495.07 1846.81 3507.34 1933.32 3493.85 1989.46C3478.6 2052.9 3432.25 2071.17 3432.43 2140.54C3432.65 2225.79 3502.78 2248.37 3501.3 2338.59C3500.31 2398.24 3469.49 2397.62 3462.21 2471.29C3453.6 2558.47 3493.86 2588.5 3480.82 2653C3475.21 2680.75 3459.2 2717.01 3413.59 2754.36C3416.88 2780.85 3420.25 2807.07 3423.76 2832.79C3432.76 2833.1 3442.22 2833.16 3452.1 2832.85C3458.78 2832.65 3465.24 2832.29 3471.49 2831.82C3484.05 2795.06 3498.9 2746.72 3512.2 2688.98C3526.19 2628.26 3534.62 2573.8 3540.63 2521.72C3561.79 2338.36 3536.99 2322.36 3554.17 2186.47C3569.38 2066.12 3591.01 2061.42 3616.4 1890.55C3643.94 1705.14 3623.44 1677.33 3613.46 1667.28Z" fill="url(#paint39_linear_5_686)"/>
<path d="M3438.01 1719.95C3534.9 1875.46 3639.41 2069 3732.86 2300.66C3803.49 2475.73 3854.71 2640.1 3892.32 2786.59C3897.41 2789.18 3909.41 2794.33 3924.75 2792.11C3945.67 2789.07 3958.22 2774.42 3961.49 2770.33C3976.8 2665.32 3975.11 2576.38 3969.92 2512.19C3966.59 2471.09 3960.71 2402.65 3936.83 2318.17C3910.08 2223.53 3891.69 2218.21 3856.79 2118.08C3820.57 2014.15 3829.35 1988.22 3794.66 1858.16C3780.41 1804.73 3756.56 1725.22 3717.2 1630.12C3624.14 1660.06 3531.07 1690.01 3438.01 1719.95Z" fill="url(#paint40_linear_5_686)"/>
<path d="M3321.54 1032.49C3244.32 949.947 3202.84 946.86 3189.84 886.821C3176.97 827.434 3198.78 743.77 3254.26 710.438C3258.34 707.989 3300.33 683.652 3344.19 700.591C3410.52 726.218 3393.49 812.43 3460.26 870.579C3516.83 919.853 3593.9 914.428 3646.06 910.754C3771.65 901.912 3807.42 834.71 3864.48 861.122C3935.98 894.216 3911.8 1014.53 3984.84 1040.59C4033.65 1058 4058.98 1009.44 4128.5 1011.71C4210.21 1014.38 4282.28 1084.94 4314.31 1156.82C4372.84 1288.21 4307.4 1446.09 4227 1532.34C4160.94 1603.21 4040.24 1673.53 3964.49 1632.96C3904.65 1600.91 3904.39 1516.53 3847.27 1510.64C3806.67 1506.45 3794.41 1547.82 3742.55 1557.71C3657.4 1573.97 3581.05 1483.29 3560.22 1458.55C3500.86 1388.05 3521.16 1357.54 3454.34 1229.24C3427.94 1178.57 3389.93 1105.58 3321.54 1032.49Z" fill="url(#paint41_linear_5_686)"/>
<path d="M2646 777.627C2646 777.627 2627.92 752.807 2616.45 734.366C2604.97 715.922 2551.42 664.105 2551.42 664.105C2551.42 664.105 2547.34 672.328 2558.87 685.484C2570.4 698.641 2594.66 721.19 2589.08 730.729C2583.5 740.27 2567.8 748.678 2579.13 766.691C2590.46 784.703 2610.17 772.402 2620.24 786.851C2630.32 801.298 2640.64 817.06 2640.64 817.06L2646 777.627Z" fill="url(#paint42_linear_5_686)"/>
<path d="M2653.05 761.432C2640.86 781.672 2628.66 801.902 2616.47 822.141C2629.17 862.821 2651.05 919.307 2689.38 978.907C2706.3 1005.2 2758.73 1082.32 2847.49 1144.34C2968.33 1228.77 3188.48 1307.53 3252.92 1217.69C3310.43 1137.53 3217.61 959.834 3200.52 927.931C3165.93 945.724 3109.08 969.321 3036.01 974.904C3012.06 976.733 2949.73 980.9 2879.51 957.238C2749.55 913.446 2677.4 802.919 2653.05 761.432Z" fill="url(#paint43_linear_5_686)"/>
<path d="M3059.53 1032.67C3065.61 1062.65 3160.65 1046.57 3180.27 1100.99C3190.79 1130.19 3168.45 1148.74 3167.51 1198.33C3166.46 1253.85 3193.43 1285.38 3214.12 1329.05C3244.43 1393.02 3244.54 1455.73 3244.76 1581.13C3245.08 1759.65 3204.85 1795.54 3239.19 1853.08C3283.89 1927.96 3391.24 1932.75 3420.25 1934.04C3519.47 1938.47 3531.24 1886.75 3638.91 1880.58C3761.86 1873.52 3779.38 1939.09 3867.31 1911.13C3947.64 1885.58 3974.67 1817.62 4037.23 1831.69C4076.32 1840.48 4086.69 1871.74 4123.57 1868.36C4160.64 1864.95 4198.95 1828.92 4201.57 1791.96C4204.81 1746.03 4153.64 1688.17 4073.44 1688.08C4041.57 1700.35 3988.74 1714.58 3929.98 1698.78C3833.72 1672.89 3783.65 1583.1 3728.04 1483.37C3689.57 1414.37 3618.86 1287.57 3618.01 1121.29C3617.67 1052.72 3629.48 1032.66 3612.44 996.008C3557.12 876.996 3342.5 894.755 3324.32 896.475C3178.08 910.304 3052.19 996.472 3059.53 1032.67Z" fill="url(#paint44_linear_5_686)"/>
<path d="M3011.58 1182.45L3281.16 1193.99C3284.13 1194.12 3286.72 1196.2 3287.72 1199.26L3414.72 1585.71C3416.54 1591.26 3410.83 1605.12 3405.49 1604.49L3138.96 1564.72C3136.25 1564.4 3133.93 1562.44 3132.95 1559.65L3000.82 1198.94C2998.95 1193.59 3006.37 1182.23 3011.58 1182.45Z" fill="url(#paint45_linear_5_686)"/>
<path d="M3007.4 1191.91L3276.98 1203.45C3279.94 1203.58 3282.54 1205.66 3283.54 1208.72L3410.53 1595.17C3412.36 1600.72 3408.26 1606.44 3402.92 1605.81L3134.78 1574.18C3132.07 1573.86 3129.75 1571.9 3128.77 1569.11L3000.33 1202.75C2998.46 1197.4 3002.18 1191.69 3007.4 1191.91Z" fill="url(#paint46_linear_5_686)"/>
<path d="M3081.12 1206.31L3070.73 1175.5C3069.79 1172.72 3071.67 1169.76 3074.37 1169.76H3172.5C3174.19 1169.76 3175.69 1170.96 3176.2 1172.73L3186.07 1206.81C3186.88 1209.61 3184.92 1212.45 3182.25 1212.35L3084.64 1209.09C3083.06 1209.03 3081.67 1207.93 3081.12 1206.31Z" fill="url(#paint47_linear_5_686)"/>
<path opacity="0.3" d="M3247.06 1512.26C3229.55 1449.97 3258.37 1409.41 3228.96 1361.01C3187.35 1292.55 3097.97 1321.52 3070.19 1266.28C3062.69 1251.39 3059.11 1229.19 3069.22 1194.55L3007.4 1191.91C3002.18 1191.69 2998.46 1197.39 3000.33 1202.74L3128.77 1569.11C3129.74 1571.9 3132.06 1573.86 3134.77 1574.18L3297.74 1593.41C3268.71 1565.64 3254.18 1537.57 3247.06 1512.26Z" fill="url(#paint48_linear_5_686)"/>
<path d="M3443.93 1465.98C3443.93 1465.98 3403.19 1457.09 3387.48 1446.24C3371.77 1435.39 3355.11 1417.96 3331.94 1418.91C3308.78 1419.87 3285.47 1432.78 3296.17 1435.75C3306.87 1438.71 3326.86 1461.99 3342.13 1471.16C3357.4 1480.33 3392.29 1481.16 3398.79 1480.66C3405.29 1480.16 3430.94 1497.08 3430.94 1497.08L3443.93 1465.98Z" fill="url(#paint49_linear_5_686)"/>
<path opacity="0.3" d="M4073.44 1688.08C4041.57 1700.35 3988.74 1714.58 3929.99 1698.78C3833.72 1672.89 3783.65 1583.09 3728.04 1483.36C3689.57 1414.37 3618.86 1287.56 3618.02 1121.29C3617.67 1052.72 3629.48 1032.66 3612.45 996.007C3609.73 990.179 3606.54 984.763 3603.1 979.571C3561.08 1010.73 3544.78 1041.94 3540.02 1069.34C3528.43 1136.03 3583.09 1190.56 3554.65 1248.08C3527.41 1303.18 3460.05 1287.94 3446.01 1335.17C3430.86 1386.12 3505.4 1416.85 3508.69 1495.58C3512.63 1590.06 3409.06 1636.34 3427.21 1699.54C3442.95 1754.31 3529.62 1750.36 3529.58 1779.74C3529.52 1814.67 3532.26 1742.55 3427.21 1699.54C3395.38 1686.5 3245.55 1795 3227.34 1775.96C3223.42 1806.74 3224.13 1827.83 3239.19 1853.08C3283.9 1927.96 3391.24 1932.75 3420.25 1934.04C3519.47 1938.47 3531.24 1886.75 3638.91 1880.58C3761.87 1873.52 3779.38 1939.09 3867.31 1911.13C3947.64 1885.58 3974.68 1817.62 4037.23 1831.69C4076.32 1840.48 4086.69 1871.74 4123.57 1868.36C4160.64 1864.95 4198.96 1828.92 4201.57 1791.96C4204.81 1746.03 4153.64 1688.17 4073.44 1688.08Z" fill="url(#paint50_linear_5_686)"/>
<path d="M3442.88 1447.46C3430.35 1471.9 3417.81 1496.34 3405.28 1520.79C3424.6 1531.18 3631.21 1638.41 3780.96 1532.25C3799.48 1519.13 3848.69 1484.24 3875.21 1415.93C3904.45 1340.64 3888.05 1270.64 3877.41 1225.17C3851.08 1112.62 3776.61 994.557 3670.94 947.124C3630.58 929.004 3582.66 919.838 3537.59 911.218C3499.36 903.905 3439.29 894.945 3438.01 901.29C3437.38 904.388 3451.34 908.343 3461.04 914.36C3520.58 951.303 3444.98 1103.88 3514.96 1177.05C3581.99 1247.14 3668.98 1235.56 3683 1299.09C3689.52 1328.62 3676.03 1355.19 3670.02 1367.02C3636.48 1433.06 3546.2 1462.61 3442.88 1447.46Z" fill="url(#paint51_linear_5_686)"/>
<path d="M3302.65 786.74C3302.65 786.74 3326.91 864.115 3357.13 876.168C3387.35 888.209 3435.12 902.038 3441.12 907.402C3447.12 912.751 3280.57 972.077 3187.19 944.772C3213.8 932 3220.92 927.919 3220.92 927.919C3228.02 923.837 3241.28 916.239 3253.71 904.16C3262.17 895.942 3275.42 880.643 3285.4 855.221L3276.67 811.292L3302.65 786.74Z" fill="url(#paint52_linear_5_686)"/>
<path d="M3313.54 820.518C3313.54 820.518 3299.48 854.81 3266.13 849.546C3236.26 844.835 3237.79 762.432 3258.07 748.402C3264.84 743.725 3278.57 741.944 3288.76 746.035C3295.92 748.91 3317.25 768.072 3312.5 796.144C3319.08 792.303 3325.63 792.904 3327.91 796.357C3330.79 800.733 3326.12 808.676 3325.06 810.474C3321.39 816.712 3316.04 819.45 3313.54 820.518Z" fill="url(#paint53_linear_5_686)"/>
<path d="M3461.94 4247.82L3856.65 3950.41L3790.05 3869.56L3396.04 4167.81L3461.94 4247.82Z" fill="url(#paint54_linear_5_686)"/>
<path d="M3580.42 4429.9L4016.06 4104.84L3895.37 3958.32L3461.13 4285.08L3580.42 4429.9Z" fill="url(#paint55_linear_5_686)"/>
<path d="M3738.59 4804.48H4507.54L4340.57 4395.44L4031.65 4129.77L3597.41 4456.52L3738.59 4804.48Z" fill="url(#paint56_linear_5_686)"/>
<path d="M2830.14 3184.48L2809.73 3159.7L2829.83 3143.68L3391.98 3826.15L3428.37 3820.82L3442.01 3787.81L2879.1 3104.43L2899.27 3088.35L2919.73 3113.19L3799.86 3550.04L3806.01 3822.02L3599.26 3978.72L3549.02 4016.8L3345.09 4171.36L3077.58 4102.8L2830.14 3184.48Z" fill="url(#paint57_linear_5_686)"/>
<defs>
<linearGradient id="paint0_linear_5_686" x1="4243.59" y1="1348.14" x2="1804.21" y2="4469.4" gradientUnits="userSpaceOnUse">
<stop stop-color="#FF9085"/>
<stop offset="1" stop-color="#FB6FBB"/>
</linearGradient>
<linearGradient id="paint1_linear_5_686" x1="4277.75" y1="2525.4" x2="2285.79" y2="4184.29" gradientUnits="userSpaceOnUse">
<stop offset="0.0036" stop-color="#E38DDD"/>
<stop offset="1" stop-color="#9571F6"/>
</linearGradient>
<linearGradient id="paint2_linear_5_686" x1="4041.17" y1="2936.65" x2="1879.32" y2="6104.15" gradientUnits="userSpaceOnUse">
<stop stop-color="#FF9085"/>
<stop offset="1" stop-color="#FB6FBB"/>
</linearGradient>
<linearGradient id="paint3_linear_5_686" x1="2100.74" y1="4811.81" x2="2127.15" y2="4596.43" gradientUnits="userSpaceOnUse">
<stop offset="0.0036" stop-color="#26264F"/>
<stop offset="1" stop-color="#444B8C"/>
</linearGradient>
<linearGradient id="paint4_linear_5_686" x1="1987.94" y1="4615.62" x2="2254.29" y2="4126.96" gradientUnits="userSpaceOnUse">
<stop offset="0.0036" stop-color="#26264F"/>
<stop offset="1" stop-color="#444B8C"/>
</linearGradient>
<linearGradient id="paint5_linear_5_686" x1="1677.77" y1="4386.09" x2="2588.03" y2="4386.09" gradientUnits="userSpaceOnUse">
<stop offset="0.0036" stop-color="#26264F"/>
<stop offset="1" stop-color="#444B8C"/>
</linearGradient>
<linearGradient id="paint6_linear_5_686" x1="2014.05" y1="4483.27" x2="2276.83" y2="3967.91" gradientUnits="userSpaceOnUse">
<stop offset="0.0036" stop-color="#26264F"/>
<stop offset="1" stop-color="#444B8C"/>
</linearGradient>
<linearGradient id="paint7_linear_5_686" x1="1636.99" y1="4235.57" x2="2628.36" y2="4235.57" gradientUnits="userSpaceOnUse">
<stop offset="0.0036" stop-color="#26264F"/>
<stop offset="1" stop-color="#444B8C"/>
</linearGradient>
<linearGradient id="paint8_linear_5_686" x1="1622.3" y1="4059.83" x2="2643.5" y2="4059.83" gradientUnits="userSpaceOnUse">
<stop offset="0.0036" stop-color="#26264F"/>
<stop offset="1" stop-color="#444B8C"/>
</linearGradient>
<linearGradient id="paint9_linear_5_686" x1="2107.54" y1="3984.26" x2="2204.5" y2="3521.58" gradientUnits="userSpaceOnUse">
<stop offset="0.0036" stop-color="#26264F"/>
<stop offset="1" stop-color="#444B8C"/>
</linearGradient>
<linearGradient id="paint10_linear_5_686" x1="1914.42" y1="1406.81" x2="3855.52" y2="4547.9" gradientUnits="userSpaceOnUse">
<stop stop-color="#FCB148"/>
<stop offset="0.0521" stop-color="#FDBA46"/>
<stop offset="0.1424" stop-color="#FFC244"/>
<stop offset="0.3183" stop-color="#FFC444"/>
<stop offset="0.4849" stop-color="#FDB946"/>
<stop offset="0.7754" stop-color="#F99C4D"/>
<stop offset="0.8658" stop-color="#F8924F"/>
<stop offset="1" stop-color="#F8924F"/>
</linearGradient>
<linearGradient id="paint11_linear_5_686" x1="1549.93" y1="3799.7" x2="1943.07" y2="2629.1" gradientUnits="userSpaceOnUse">
<stop offset="0.494" stop-color="#EBEFF2"/>
<stop offset="1" stop-color="white"/>
</linearGradient>
<linearGradient id="paint12_linear_5_686" x1="1938.87" y1="3930.32" x2="2332" y2="2759.71" gradientUnits="userSpaceOnUse">
<stop offset="0.494" stop-color="#EBEFF2"/>
<stop offset="1" stop-color="white"/>
</linearGradient>
<linearGradient id="paint13_linear_5_686" x1="1408.27" y1="3752.13" x2="1801.41" y2="2581.52" gradientUnits="userSpaceOnUse">
<stop offset="0.494" stop-color="#EBEFF2"/>
<stop offset="1" stop-color="white"/>
</linearGradient>
<linearGradient id="paint14_linear_5_686" x1="1984.43" y1="706.308" x2="1601.43" y2="3923.55" gradientUnits="userSpaceOnUse">
<stop stop-color="#FCB148"/>
<stop offset="0.0521" stop-color="#FDBA46"/>
<stop offset="0.1424" stop-color="#FFC244"/>
<stop offset="0.3183" stop-color="#FFC444"/>
<stop offset="0.4849" stop-color="#FDB946"/>
<stop offset="0.7754" stop-color="#F99C4D"/>
<stop offset="0.8658" stop-color="#F8924F"/>
<stop offset="1" stop-color="#F8924F"/>
</linearGradient>
<linearGradient id="paint15_linear_5_686" x1="1763.4" y1="2719.02" x2="2680.73" y2="710.168" gradientUnits="userSpaceOnUse">
<stop offset="0.0054" stop-color="#D8DEE8"/>
<stop offset="1" stop-color="#F4F7FA"/>
</linearGradient>
<linearGradient id="paint16_linear_5_686" x1="3915.37" y1="1574.73" x2="1892.43" y2="4163.13" gradientUnits="userSpaceOnUse">
<stop stop-color="#FF9085"/>
<stop offset="1" stop-color="#FB6FBB"/>
</linearGradient>
<linearGradient id="paint17_linear_5_686" x1="1486.58" y1="1824.26" x2="3095.76" y2="1824.26" gradientUnits="userSpaceOnUse">
<stop stop-color="#FCB148"/>
<stop offset="0.0521" stop-color="#FDBA46"/>
<stop offset="0.1424" stop-color="#FFC244"/>
<stop offset="0.3183" stop-color="#FFC444"/>
<stop offset="0.4849" stop-color="#FDB946"/>
<stop offset="0.7754" stop-color="#F99C4D"/>
<stop offset="0.8658" stop-color="#F8924F"/>
<stop offset="1" stop-color="#F8924F"/>
</linearGradient>
<linearGradient id="paint18_linear_5_686" x1="811.632" y1="4407.38" x2="877.608" y2="4395.92" gradientUnits="userSpaceOnUse">
<stop offset="0.0036" stop-color="#F36F56"/>
<stop offset="1" stop-color="#FFC444"/>
</linearGradient>
<linearGradient id="paint19_linear_5_686" x1="892.899" y1="4119.04" x2="825.838" y2="4744.43" gradientUnits="userSpaceOnUse">
<stop stop-color="#444B8C"/>
<stop offset="0.9964" stop-color="#26264F"/>
</linearGradient>
<linearGradient id="paint20_linear_5_686" x1="1022.58" y1="3839.99" x2="463.309" y2="4308.43" gradientUnits="userSpaceOnUse">
<stop stop-color="#AB316D"/>
<stop offset="1" stop-color="#792D3D"/>
</linearGradient>
<linearGradient id="paint21_linear_5_686" x1="348.557" y1="4047.82" x2="149.488" y2="4568.94" gradientUnits="userSpaceOnUse">
<stop stop-color="#444B8C"/>
<stop offset="0.9964" stop-color="#26264F"/>
</linearGradient>
<linearGradient id="paint22_linear_5_686" x1="51.2479" y1="4638.31" x2="129.925" y2="4645.84" gradientUnits="userSpaceOnUse">
<stop offset="0.0036" stop-color="#F36F56"/>
<stop offset="1" stop-color="#FFC444"/>
</linearGradient>
<linearGradient id="paint23_linear_5_686" x1="1283.47" y1="4231.27" x2="584.343" y2="3990.84" gradientUnits="userSpaceOnUse">
<stop stop-color="#AB316D"/>
<stop offset="1" stop-color="#792D3D"/>
</linearGradient>
<linearGradient id="paint24_linear_5_686" x1="555.472" y1="3838.57" x2="162.699" y2="4641.62" gradientUnits="userSpaceOnUse">
<stop stop-color="#AB316D"/>
<stop offset="1" stop-color="#792D3D"/>
</linearGradient>
<linearGradient id="paint25_linear_5_686" x1="504.77" y1="3835.25" x2="120.152" y2="4621.63" gradientUnits="userSpaceOnUse">
<stop stop-color="#AB316D"/>
<stop offset="1" stop-color="#792D3D"/>
</linearGradient>
<linearGradient id="paint26_linear_5_686" x1="806.624" y1="3009.91" x2="821.146" y2="2367.9" gradientUnits="userSpaceOnUse">
<stop stop-color="#FF9085"/>
<stop offset="1" stop-color="#FB6FBB"/>
</linearGradient>
<linearGradient id="paint27_linear_5_686" x1="881.751" y1="2583.44" x2="872.427" y2="2722.07" gradientUnits="userSpaceOnUse">
<stop offset="0.0036" stop-color="#F36F56"/>
<stop offset="1" stop-color="#FFC444"/>
</linearGradient>
<linearGradient id="paint28_linear_5_686" x1="603.454" y1="2826.76" x2="608.146" y2="2663.12" gradientUnits="userSpaceOnUse">
<stop stop-color="#444B8C"/>
<stop offset="0.9964" stop-color="#26264F"/>
</linearGradient>
<linearGradient id="paint29_linear_5_686" x1="630.685" y1="2675.05" x2="674.768" y2="3347" gradientUnits="userSpaceOnUse">
<stop offset="0.0036" stop-color="#F36F56"/>
<stop offset="1" stop-color="#FFC444"/>
</linearGradient>
<linearGradient id="paint30_linear_5_686" x1="511.81" y1="2750.02" x2="671.959" y2="2850.13" gradientUnits="userSpaceOnUse">
<stop offset="0.0036" stop-color="#F36F56"/>
<stop offset="1" stop-color="#FFC444"/>
</linearGradient>
<linearGradient id="paint31_linear_5_686" x1="1275.64" y1="2712.64" x2="1249.22" y2="2798.69" gradientUnits="userSpaceOnUse">
<stop offset="0.0036" stop-color="#F36F56"/>
<stop offset="1" stop-color="#FFC444"/>
</linearGradient>
<linearGradient id="paint32_linear_5_686" x1="288.912" y1="3905.88" x2="1104.04" y2="2691.85" gradientUnits="userSpaceOnUse">
<stop stop-color="#FF9085"/>
<stop offset="1" stop-color="#FB6FBB"/>
</linearGradient>
<linearGradient id="paint33_linear_5_686" x1="1006.41" y1="2987.42" x2="843.187" y2="3854.86" gradientUnits="userSpaceOnUse">
<stop stop-color="#FF9085"/>
<stop offset="1" stop-color="#FB6FBB"/>
</linearGradient>
<linearGradient id="paint34_linear_5_686" x1="3377.41" y1="2666.26" x2="3406.89" y2="3048.67" gradientUnits="userSpaceOnUse">
<stop offset="0.0036" stop-color="#26264F"/>
<stop offset="1" stop-color="#444B8C"/>
</linearGradient>
<linearGradient id="paint35_linear_5_686" x1="3450.13" y1="2879.6" x2="3444.79" y2="2484.69" gradientUnits="userSpaceOnUse">
<stop stop-color="#893976"/>
<stop offset="1" stop-color="#311944"/>
</linearGradient>
<linearGradient id="paint36_linear_5_686" x1="3893.02" y1="2621.54" x2="3922.58" y2="3004.96" gradientUnits="userSpaceOnUse">
<stop offset="0.0036" stop-color="#26264F"/>
<stop offset="1" stop-color="#444B8C"/>
</linearGradient>
<linearGradient id="paint37_linear_5_686" x1="3922.93" y1="2872.44" x2="3917.58" y2="2477.59" gradientUnits="userSpaceOnUse">
<stop stop-color="#893976"/>
<stop offset="1" stop-color="#311944"/>
</linearGradient>
<linearGradient id="paint38_linear_5_686" x1="3364.15" y1="2240.15" x2="3630.21" y2="2240.15" gradientUnits="userSpaceOnUse">
<stop stop-color="#AB316D"/>
<stop offset="1" stop-color="#792D3D"/>
</linearGradient>
<linearGradient id="paint39_linear_5_686" x1="3382.55" y1="2240.17" x2="3630.2" y2="2240.17" gradientUnits="userSpaceOnUse">
<stop stop-color="#AB316D"/>
<stop offset="1" stop-color="#792D3D"/>
</linearGradient>
<linearGradient id="paint40_linear_5_686" x1="3438.01" y1="2211.38" x2="3973.61" y2="2211.38" gradientUnits="userSpaceOnUse">
<stop stop-color="#AB316D"/>
<stop offset="1" stop-color="#792D3D"/>
</linearGradient>
<linearGradient id="paint41_linear_5_686" x1="3713.85" y1="971.353" x2="4044.66" y2="1486.08" gradientUnits="userSpaceOnUse">
<stop offset="0.0036" stop-color="#26264F"/>
<stop offset="1" stop-color="#444B8C"/>
</linearGradient>
<linearGradient id="paint42_linear_5_686" x1="2550.72" y1="740.584" x2="2646" y2="740.584" gradientUnits="userSpaceOnUse">
<stop stop-color="#893976"/>
<stop offset="1" stop-color="#311944"/>
</linearGradient>
<linearGradient id="paint43_linear_5_686" x1="3001.16" y1="1168.72" x2="3410.83" y2="2664.96" gradientUnits="userSpaceOnUse">
<stop stop-color="#AA80F9"/>
<stop offset="0.9964" stop-color="#6165D7"/>
</linearGradient>
<linearGradient id="paint44_linear_5_686" x1="3495.98" y1="1033.24" x2="3905.65" y2="2529.48" gradientUnits="userSpaceOnUse">
<stop stop-color="#AA80F9"/>
<stop offset="0.9964" stop-color="#6165D7"/>
</linearGradient>
<linearGradient id="paint45_linear_5_686" x1="3249.09" y1="1326.63" x2="3086.99" y2="1600.49" gradientUnits="userSpaceOnUse">
<stop offset="0.0036" stop-color="#6165D7"/>
<stop offset="1" stop-color="#AA80F9"/>
</linearGradient>
<linearGradient id="paint46_linear_5_686" x1="3362.45" y1="1316.87" x2="2952.91" y2="1539.05" gradientUnits="userSpaceOnUse">
<stop stop-color="#FF9085"/>
<stop offset="1" stop-color="#FB6FBB"/>
</linearGradient>
<linearGradient id="paint47_linear_5_686" x1="3174.67" y1="1042.38" x2="3127.34" y2="1200.28" gradientUnits="userSpaceOnUse">
<stop offset="0.0036" stop-color="#26264F"/>
<stop offset="1" stop-color="#444B8C"/>
</linearGradient>
<linearGradient id="paint48_linear_5_686" x1="3346.48" y1="1290.89" x2="2939.01" y2="1511.94" gradientUnits="userSpaceOnUse">
<stop stop-color="#FF9085"/>
<stop offset="1" stop-color="#FB6FBB"/>
</linearGradient>
<linearGradient id="paint49_linear_5_686" x1="3293.49" y1="1457.98" x2="3443.93" y2="1457.98" gradientUnits="userSpaceOnUse">
<stop stop-color="#893976"/>
<stop offset="1" stop-color="#311944"/>
</linearGradient>
<linearGradient id="paint50_linear_5_686" x1="3225.32" y1="1456.94" x2="4201.71" y2="1456.94" gradientUnits="userSpaceOnUse">
<stop stop-color="#AA80F9"/>
<stop offset="0.9964" stop-color="#6165D7"/>
</linearGradient>
<linearGradient id="paint51_linear_5_686" x1="3541.43" y1="1020.79" x2="3951.1" y2="2517.04" gradientUnits="userSpaceOnUse">
<stop stop-color="#AA80F9"/>
<stop offset="0.9964" stop-color="#6165D7"/>
</linearGradient>
<linearGradient id="paint52_linear_5_686" x1="3308.78" y1="939.094" x2="3435.59" y2="630.248" gradientUnits="userSpaceOnUse">
<stop stop-color="#893976"/>
<stop offset="1" stop-color="#311944"/>
</linearGradient>
<linearGradient id="paint53_linear_5_686" x1="3259.23" y1="811.804" x2="3545" y2="541.12" gradientUnits="userSpaceOnUse">
<stop stop-color="#893976"/>
<stop offset="1" stop-color="#311944"/>
</linearGradient>
<linearGradient id="paint54_linear_5_686" x1="3415.7" y1="3300.48" x2="4664.5" y2="7972.96" gradientUnits="userSpaceOnUse">
<stop stop-color="#444B8C"/>
<stop offset="0.9964" stop-color="#26264F"/>
</linearGradient>
<linearGradient id="paint55_linear_5_686" x1="3485.09" y1="3281.94" x2="4733.88" y2="7954.4" gradientUnits="userSpaceOnUse">
<stop stop-color="#444B8C"/>
<stop offset="0.9964" stop-color="#26264F"/>
</linearGradient>
<linearGradient id="paint56_linear_5_686" x1="3622.74" y1="3082.8" x2="5075.52" y2="8518.49" gradientUnits="userSpaceOnUse">
<stop stop-color="#444B8C"/>
<stop offset="0.9964" stop-color="#26264F"/>
</linearGradient>
<linearGradient id="paint57_linear_5_686" x1="3298.4" y1="3331.83" x2="4547.19" y2="8004.3" gradientUnits="userSpaceOnUse">
<stop stop-color="#444B8C"/>
<stop offset="0.9964" stop-color="#26264F"/>
</linearGradient>
</defs>
</svg>
