<svg width="5191" height="5004" viewBox="0 0 5191 5004" fill="none" xmlns="http://www.w3.org/2000/svg">
<path d="M1265.75 309.442C1088.53 548.155 1288.98 940.103 1027.94 1118.34C773.83 1291.84 467.185 1000.13 227.862 1149.27C-127.162 1370.51 -74.0254 2399.85 434.454 3044.21C587.37 3237.99 716.082 3314.09 771.07 3532.06C889.15 4000.08 453.184 4273.37 533.045 4505.06C712.865 5026.75 3561 5491.81 4722.8 3941.19C5265.4 3216.99 5356.92 2164.23 4887.99 1359.2C4040.66 -95.4817 1663.41 -226.181 1265.75 309.442Z" fill="#FCFAF6"/>
<path d="M2934.81 3937.36C2964.96 4088.21 2867.95 4208.67 2784.88 4285.49C2770.66 4282.18 2761.43 4284 2746.21 4283.92C2608.89 4283.25 2552.14 4253.3 2418.13 4230.98C2389.28 4226.17 2310.36 4185.72 2279.28 4167.03L2221.94 4131.22C2221.94 4131.22 2195.68 3775.57 2394.04 3726.53C2592.41 3677.48 2610.07 3334.01 2641.56 3151.91C2726.99 2657.84 3259.84 2832.08 3422.38 2205.63C3465.61 2039.01 3490.15 1707.36 3670.48 1609.55C3875.94 1498.12 3959.06 1675.53 4098.72 1574.66C4317 1417 4606.65 1411.01 4715.82 1653.11C4823.56 1892.06 4526.33 2245.3 3961.16 2451.16C3573.09 2643.03 3547.37 2722.11 3521.94 2923.59C3504.13 3064.72 3547.71 3453.89 3317.73 3550.11C3087.76 3646.33 2900.35 3764.92 2934.81 3937.36Z" fill="url(#paint0_linear_5_686)"/>
<mask id="mask0_5_686" style="mask-type:luminance" maskUnits="userSpaceOnUse" x="2227" y="1462" width="2511" height="2915">
<path d="M2672.21 4376.13L2229.41 4145.71C2229.41 4145.71 2195.68 3775.57 2394.04 3726.53C2592.4 3677.48 2610.07 3334.01 2641.55 3151.91C2726.99 2657.84 3259.84 2832.08 3422.38 2205.63C3465.61 2039.01 3490.14 1707.36 3670.48 1609.55C3875.94 1498.13 3959.06 1675.53 4098.72 1574.66C4317 1417 4606.65 1411.01 4715.81 1653.11C4823.56 1892.06 4526.33 2245.3 3961.16 2451.16C3573.09 2643.03 3547.37 2722.11 3521.94 2923.59C3504.13 3064.72 3547.7 3453.89 3317.73 3550.11C3087.76 3646.33 2900.35 3764.92 2934.81 3937.36C2987.25 4199.75 2672.21 4376.13 2672.21 4376.13Z" fill="white"/>
</mask>
<g mask="url(#mask0_5_686)">
<g opacity="0.5">
<path d="M2485.35 4252.47L2476.04 4249.02C2497.42 4195.63 2519.66 4142.04 2542.15 4089.74C2708.72 3702.51 2906.82 3344.25 3130.98 3024.92C3320.91 2754.34 3532.16 2507.85 3758.85 2292.3C3941.15 2118.96 4134.39 1964.59 4333.2 1833.5C4472.96 1741.34 4614 1661.54 4752.42 1596.33C4776.54 1584.96 4801.86 1574.63 4826.36 1564.65C4858.99 1551.34 4892.74 1537.58 4923.89 1521.25L4928.66 1529.68C4897.09 1546.24 4863.11 1560.09 4830.26 1573.49C4805.88 1583.43 4780.68 1593.7 4756.81 1604.96C4618.82 1669.96 4478.2 1749.52 4338.84 1841.42C4140.52 1972.19 3947.75 2126.19 3765.86 2299.13C3539.64 2514.23 3328.81 2760.23 3139.25 3030.29C2915.47 3349.09 2717.68 3706.78 2551.38 4093.41C2528.91 4145.64 2506.7 4199.15 2485.35 4252.47Z" fill="#FCFDFE"/>
<path d="M3501.37 2572.31L3493.62 2566.25C3763.77 2246.4 3781.59 1540.33 3781.74 1533.23L3791.72 1533.42C3791.57 1540.55 3773.68 2249.89 3501.37 2572.31Z" fill="#FCFDFE"/>
<path d="M2827.17 3530.81L2818.75 3525.67C2975.91 3287.62 3532.79 3208.08 3538.4 3207.3L3539.82 3216.81C3534.26 3217.58 2981.88 3296.49 2827.17 3530.81Z" fill="#FCFDFE"/>
<path d="M2750.14 3673.29L2740.9 3669.66C2813.31 3499.26 2817.44 3229.66 2752.52 2910.54C2749.26 2894.49 2749.26 2894.49 2749.95 2892.79L2759.23 2896.32L2754.59 2894.55L2759.56 2894.52C2759.65 2895.61 2760.88 2901.67 2762.32 2908.69C2827.6 3229.64 2823.28 3501.18 2750.14 3673.29Z" fill="#FCFDFE"/>
<path d="M2525.79 4155.57L2518.03 4149.55C2650.26 3991.68 2962.83 3991.66 2965.97 3991.68L2965.92 4001.28C2962.82 4001.27 2655.01 4001.32 2525.79 4155.57Z" fill="#FCFDFE"/>
<path d="M2470.52 4249.7C2474.01 4086.23 2428.83 3916.45 2332.4 3730.67L2341.33 3726.38C2438.5 3913.59 2484.02 4084.83 2480.5 4249.89L2470.52 4249.7Z" fill="#FCFDFE"/>
<path d="M4223.07 1920.48L4215.69 1914.02C4376.19 1744.24 4503.9 1530.07 4545.87 1459.7C4556.03 1442.66 4559.63 1436.68 4561.25 1434.8L4568.91 1440.96C4567.68 1442.41 4561.88 1452.15 4554.53 1464.48C4512.43 1535.08 4384.31 1749.92 4223.07 1920.48Z" fill="#FCFDFE"/>
<path d="M3919.67 2159.39L3914.59 2151.12C4107.16 2041.61 4540.06 2150.15 4558.39 2154.82L4555.83 2164.11C4551.38 2162.97 4108.64 2051.93 3919.67 2159.39Z" fill="#FCFDFE"/>
</g>
</g>
<mask id="mask1_5_686" style="mask-type:luminance" maskUnits="userSpaceOnUse" x="2416" y="2441" width="2318" height="2216">
<path d="M2439.24 4425.31L2833.6 4656.6C2833.6 4656.6 3031.15 4505.5 3021.53 4311.46C3001.92 3915.55 3363.68 3926.65 3515.92 3909.5C3745.52 3883.62 3936.12 3764.47 3754.01 3557.13C3571.9 3349.78 4017.48 3143.69 4394.54 3153.32C4763.51 3162.74 4993.83 2537.11 4197.17 2446.17C3721.41 2391.87 3539.28 2805.46 3395.69 2993.29C3252.1 3181.12 2935.12 3017.71 2886.54 3321.54C2845.04 3581.07 2919.72 3831.86 2699.61 3897.92C2479.5 3963.99 2364.99 4115.64 2439.24 4425.31Z" fill="white"/>
</mask>
<g mask="url(#mask1_5_686)">
<path d="M2439.24 4425.31L2833.6 4656.6C2833.6 4656.6 3031.15 4505.5 3021.53 4311.46C3001.92 3915.55 3363.68 3926.65 3515.92 3909.5C3745.52 3883.62 3909.83 3772.56 3785.06 3564.83C3643.88 3329.8 4017.48 3143.69 4394.54 3153.32C4763.51 3162.74 4993.83 2537.11 4197.17 2446.17C3721.41 2391.87 3539.28 2805.46 3395.69 2993.29C3252.1 3181.12 2935.12 3017.71 2886.54 3321.54C2845.04 3581.07 2919.72 3831.86 2699.61 3897.92C2479.5 3963.99 2364.99 4115.64 2439.24 4425.31Z" fill="url(#paint1_linear_5_686)"/>
</g>
<mask id="mask2_5_686" style="mask-type:luminance" maskUnits="userSpaceOnUse" x="2416" y="2441" width="2318" height="2216">
<path d="M2439.24 4425.31L2833.6 4656.6C2833.6 4656.6 3031.15 4505.5 3021.53 4311.46C3001.92 3915.55 3363.68 3926.65 3515.92 3909.5C3745.52 3883.62 3936.12 3764.47 3754.01 3557.13C3571.9 3349.78 4017.48 3143.69 4394.54 3153.32C4763.51 3162.74 4993.83 2537.11 4197.17 2446.17C3721.41 2391.87 3539.28 2805.46 3395.69 2993.29C3252.1 3181.12 2935.12 3017.71 2886.54 3321.54C2845.04 3581.07 2919.72 3831.86 2699.61 3897.92C2479.5 3963.99 2364.99 4115.64 2439.24 4425.31Z" fill="white"/>
</mask>
<g mask="url(#mask2_5_686)">
<g opacity="0.5">
<path d="M2587.61 4560.63L2596.71 4563.99C2598.87 4558.56 2817.37 4016.15 3202.49 3541.27C3557.29 3103.78 4130.23 2635.76 4844.85 2890.56L4848.24 2881.77C4530.12 2768.34 4213.17 2786.24 3906.18 2934.96C3660.95 3053.76 3421.56 3255.86 3194.68 3535.65C2808.71 4011.63 2589.78 4555.19 2587.61 4560.63Z" fill="#BEB8F2"/>
<path d="M3780.68 3002.44L3789.58 3006.29C3922.96 2721.65 4265.82 2407.28 4269.26 2404.14L4262.56 2397.33C4259.1 2400.49 3914.85 2716.13 3780.68 3002.44Z" fill="#BEB8F2"/>
<path d="M3988.05 2908.74C4374.75 2905.11 4585.52 3139.29 4587.6 3141.65L4595.04 3135.59C4592.93 3133.19 4379.39 2895.68 3987.96 2899.35L3988.05 2908.74Z" fill="#BEB8F2"/>
<path d="M2968.29 3864.93C3300.65 3541.87 3893.18 3762.35 3898.77 3764.96L3903.59 3756.82C3898.36 3753.76 3296.67 3532.4 2961.37 3858.33L2968.29 3864.93Z" fill="#BEB8F2"/>
<path d="M3067.11 3703.39L3076.3 3706.54C3177.51 3433.32 3009.84 3106.13 3008.13 3102.86L2999.42 3107.06C3001.1 3110.3 3166.91 3433.98 3067.11 3703.39Z" fill="#BEB8F2"/>
<path d="M2633.05 4479.36C2738.18 4339.41 3030.04 4350.95 3032.98 4351.08L3033.44 4341.71C3021.24 4341.16 2733.38 4329.79 2625.15 4473.87L2633.05 4479.36Z" fill="#BEB8F2"/>
<path d="M2682.99 4350.24L2692.05 4353.71C2744.47 4226.83 2645.04 3992.92 2612.36 3916.06C2607.74 3905.2 2603.76 3895.82 2603.39 3894.02L2593.8 3895.69C2594.28 3898.25 2596.91 3904.49 2603.34 3919.61C2635.64 3995.61 2733.96 4226.88 2682.99 4350.24Z" fill="#BEB8F2"/>
</g>
</g>
<path d="M3135.78 4776.56C3133.88 4776.92 3131.98 4777.27 3130.07 4777.62C3017.37 4798.23 2890.42 4801.6 2748.62 4776.77C2721.33 4770.05 2694.04 4763.33 2666.75 4756.62C2658.1 4688.94 2662.46 4623.08 2751.73 4616.41C2890.37 4606.05 2943.09 4386.37 2924.93 4300.99C2902.45 4195.31 2855.37 3948.22 3069.44 3928.96C3247.64 3912.93 3366.05 3937.63 3424.2 3733.45C3482.36 3529.26 3628.57 3424.77 3820.56 3477.61C4022.6 3533.22 4249.71 3305.73 4397.86 3428.49C4656.02 3642.4 4288.53 4042.53 3903.05 4100.34C3517.57 4158.16 3693.92 4324.02 3665.48 4495.1C3626.66 4728.67 3313.4 4611.81 3207.32 4684.65C3171.39 4709.32 3149.24 4742.15 3135.78 4776.56Z" fill="url(#paint2_linear_5_686)"/>
<mask id="mask3_5_686" style="mask-type:luminance" maskUnits="userSpaceOnUse" x="2664" y="3391" width="1821" height="1515">
<path d="M3116.62 4905.74L2670.81 4809.37C2659.02 4743.04 2652.01 4623.86 2751.73 4616.41C2890.37 4606.05 2943.09 4386.37 2924.93 4300.99C2902.46 4195.32 2855.37 3948.22 3069.44 3928.96C3247.65 3912.93 3366.05 3937.63 3424.21 3733.44C3482.36 3529.26 3628.58 3424.76 3820.56 3477.61C4022.6 3533.22 4249.71 3305.73 4397.87 3428.49C4656.02 3642.4 4288.54 4042.53 3903.05 4100.34C3517.57 4158.16 3693.92 4324.02 3665.48 4495.1C3626.66 4728.67 3313.4 4611.8 3207.32 4684.65C3124.17 4741.76 3114.56 4842.45 3116.62 4905.74Z" fill="white"/>
</mask>
<g mask="url(#mask3_5_686)">
<g opacity="0.5">
<path d="M2922.46 4792.9L2913.4 4789.05C3205.51 4151.81 3817.63 3654.1 4510.88 3490.14L4513.24 3499.39C3822.91 3662.66 3213.36 4158.3 2922.46 4792.9Z" fill="#FCFDFE"/>
<path d="M3112.65 4458.6L3102.98 4456.55C3164.12 4189.24 2973.93 3930.51 2972 3927.93L2980.04 3922.37C2982 3924.98 3174.75 4187.07 3112.65 4458.6Z" fill="#FCFDFE"/>
<path d="M2979.52 4677.08L2972.02 4670.86C3160.31 4460.67 3679.82 4535.27 3685.05 4536.05L3683.53 4545.46C3678.37 4544.69 3164.23 4470.88 2979.52 4677.08Z" fill="#FCFDFE"/>
<path d="M3588.52 3952.27L3580.49 3946.69C3714.53 3768.28 3650.14 3436.46 3649.48 3433.13L3659.2 3431.32C3659.88 3434.69 3725.03 3770.57 3588.52 3952.27Z" fill="#FCFDFE"/>
<path d="M3968.76 3703.66L3965.51 3694.66C4211.76 3612.32 4531.52 3754.31 4534.73 3755.76L4530.52 3764.39C4527.36 3762.96 4211.18 3622.6 3968.76 3703.66Z" fill="#FCFDFE"/>
</g>
</g>
<path opacity="0.75" d="M3899.36 1775.33C3899.36 946.779 3166.2 275.103 2261.79 275.103C1357.39 275.103 624.229 946.779 624.229 1775.33C624.229 2278.16 894.27 2723.19 1308.73 2995.39C1484.56 3110.87 1591.2 3301.21 1591.2 3506.04V3620.84C1591.2 3870.29 1801.37 4072.51 2060.63 4072.51H2462.95C2722.22 4072.51 2932.39 3870.29 2932.39 3620.84V3506.04C2932.39 3301.21 3039.03 3110.87 3214.86 2995.39C3629.32 2723.19 3899.36 2278.16 3899.36 1775.33Z" fill="#F4F7FA"/>
<path d="M2261.8 4926.44C2462.42 4926.44 2625.05 4843.6 2625.05 4741.4C2625.05 4639.21 2462.42 4556.37 2261.8 4556.37C2061.17 4556.37 1898.54 4639.21 1898.54 4741.4C1898.54 4843.6 2061.17 4926.44 2261.8 4926.44Z" fill="url(#paint3_linear_5_686)"/>
<path d="M1779.16 4410.85V4599.82C1779.16 4663.75 1816.97 4722.32 1876.95 4749.84C1960.21 4788.05 2098.65 4829.98 2299.84 4825.02C2463.06 4820.99 2569.5 4795.35 2637.16 4768.4C2702.53 4742.37 2744.43 4680.18 2744.43 4612.11V4507.56L1779.16 4410.85Z" fill="url(#paint4_linear_5_686)"/>
<path opacity="0.3" d="M1779.16 4576.37C1793.87 4590.13 1810.91 4601.8 1830.05 4610.58C1923.46 4653.44 2535.32 4749.21 2682.91 4695.85C2702.07 4688.93 2719.32 4679.65 2734.42 4668.47C2740.88 4650.63 2744.43 4631.63 2744.43 4612.11V4507.56L1779.16 4410.85V4576.37H1779.16Z" fill="url(#paint5_linear_5_686)"/>
<path d="M1822.01 4282.29C1767.65 4276.84 1720.34 4317.87 1720.34 4370.46V4375.81C1720.34 4447.53 1762.76 4513.25 1830.05 4544.12C1923.46 4586.99 2535.32 4682.75 2682.91 4629.4C2757.2 4602.54 2803.25 4541.16 2803.25 4464.8V4460.49C2803.25 4415.08 2767.59 4377.02 2720.66 4372.32L1822.01 4282.29Z" fill="url(#paint6_linear_5_686)"/>
<path opacity="0.3" d="M2720.66 4372.32L1822.01 4282.29C1786.56 4278.73 1754.2 4295.01 1735.91 4321.31C1753.97 4362.23 1786.84 4396.47 1830.05 4416.29C1923.46 4459.15 2561.38 4567.41 2682.91 4512.31C2730.22 4490.86 2767.32 4454.65 2787.2 4410.64C2772.39 4389.74 2748.55 4375.11 2720.66 4372.32Z" fill="url(#paint7_linear_5_686)"/>
<path d="M1786.86 3976.14C1750.12 3976.14 1720.34 4004.79 1720.34 4040.14V4188.13C1720.34 4259.85 1762.76 4325.57 1830.05 4356.44C1923.46 4399.3 2561.38 4507.56 2682.91 4452.46C2754.7 4419.9 2803.25 4353.48 2803.25 4277.12V4040.14C2803.25 4004.79 2773.47 3976.14 2736.73 3976.14H1786.86Z" fill="url(#paint8_linear_5_686)"/>
<path d="M2261.79 4142.33C2553.43 4142.33 2789.86 4088.55 2789.86 4022.21C2789.86 3955.87 2553.43 3902.09 2261.79 3902.09C1970.15 3902.09 1733.73 3955.87 1733.73 4022.21C1733.73 4088.55 1970.15 4142.33 2261.79 4142.33Z" fill="url(#paint9_linear_5_686)"/>
<path d="M3899.36 1775.33C3899.36 946.779 3166.2 275.103 2261.79 275.103C1357.39 275.103 624.229 946.779 624.229 1775.33C624.229 2278.16 894.27 2723.19 1308.73 2995.39C1484.56 3110.87 1591.2 3301.21 1591.2 3506.04V3620.84C1591.2 3870.29 1801.37 4072.51 2060.63 4072.51H2462.95C2722.22 4072.51 2932.39 3870.29 2932.39 3620.84V3506.04C2932.39 3301.21 3039.03 3110.87 3214.86 2995.39C3629.32 2723.19 3899.36 2278.16 3899.36 1775.33Z" fill="url(#paint10_linear_5_686)"/>
<path opacity="0.5" d="M2261.79 4015.39C2475.19 4015.39 2648.19 3976.04 2648.19 3927.49C2648.19 3878.95 2475.19 3839.6 2261.79 3839.6C2048.39 3839.6 1875.4 3878.95 1875.4 3927.49C1875.4 3976.04 2048.39 4015.39 2261.79 4015.39Z" fill="#F4F7FA"/>
<path d="M2161.1 3981.21C2150.03 3981.21 2140.43 3973.3 2138.98 3962.46L1854.72 1835.54C1853.15 1823.77 1861.79 1813.01 1874.03 1811.5C1886.28 1809.92 1897.45 1818.3 1899.02 1830.07L2183.28 3956.98C2184.85 3968.75 2176.21 3979.52 2163.97 3981.03C2163.01 3981.15 2162.05 3981.21 2161.1 3981.21Z" fill="url(#paint11_linear_5_686)"/>
<path d="M2337.66 3981.21C2336.71 3981.21 2335.75 3981.15 2334.79 3981.03C2322.56 3979.52 2313.91 3968.75 2315.49 3956.99L2599.75 1830.07C2601.32 1818.3 2612.5 1809.91 2624.74 1811.5C2636.98 1813.01 2645.62 1823.78 2644.05 1835.54L2359.78 3962.46C2358.33 3973.3 2348.73 3981.21 2337.66 3981.21Z" fill="url(#paint12_linear_5_686)"/>
<path d="M2569.16 1833.82C2561.91 1833.82 2554.79 1830.42 2550.5 1824.16L2472.05 1709.65C2471.24 1708.47 2470 1707.79 2468.86 1707.93C2466.91 1707.97 2466.09 1709.3 2465.82 1709.73L2414.03 1793.2C2405.44 1807.03 2390.4 1815.53 2373.77 1815.93C2357.26 1816.44 2341.64 1808.55 2332.33 1795.12L2261.21 1692.53C2260.43 1691.42 2259.4 1690.84 2258.13 1690.83C2256.62 1691.1 2255.91 1691.34 2255.16 1692.39L2192.67 1779.28C2183.65 1791.84 2168.86 1799.35 2153.1 1799.38H2153C2137.24 1799.38 2122.42 1791.91 2113.33 1779.38L2023.26 1655.22C2022.45 1654.1 2021.3 1653.71 2020.08 1653.6C2018.79 1653.65 2017.78 1654.28 2017.08 1655.45L1934.86 1792C1928.69 1802.26 1915.01 1805.77 1904.35 1799.82C1893.67 1793.87 1890.04 1780.73 1896.22 1770.46L1978.44 1633.91C1986.8 1620.03 2001.66 1611.34 2018.2 1610.67C2034.61 1609.87 2050.33 1617.47 2059.88 1630.64L2149.95 1754.79C2150.73 1755.86 2151.76 1756.41 2152.99 1756.41H2153C2154.21 1756.4 2155.2 1755.88 2155.95 1754.84L2218.43 1667.95C2227.57 1655.25 2242.63 1647.68 2258.51 1647.86C2274.51 1648 2289.41 1655.78 2298.36 1668.7L2369.48 1771.28C2370.28 1772.43 2371.48 1773.4 2372.66 1772.97C2374.6 1772.93 2375.41 1771.6 2375.68 1771.18L2427.47 1687.7C2436.09 1673.82 2451.19 1665.33 2467.87 1664.97C2484.38 1664.62 2500.07 1672.48 2509.33 1686.01L2587.78 1800.52C2594.57 1810.42 2591.73 1823.74 2581.43 1830.28C2577.65 1832.68 2573.38 1833.82 2569.16 1833.82Z" fill="url(#paint13_linear_5_686)"/>
<path opacity="0.3" d="M2291.51 2958.66C2326.59 2380.42 3339.75 2245.1 3335.41 1728.7C3332.74 1410.65 2930.13 1174.46 2844.16 1127.15C2210.69 778.552 1430.97 1181.11 1269.94 896.195C1229.85 825.26 1248.65 748.042 1259.36 704.067C1275.54 637.605 1312.17 575.702 1366.51 519.082C919.576 786.961 624.229 1249.51 624.229 1775.33C624.229 2278.16 894.27 2723.19 1308.73 2995.39C1484.57 3110.87 1591.2 3301.21 1591.2 3506.04V3620.85C1591.2 3870.3 1801.37 4072.51 2060.63 4072.51H2462.95C2722.21 4072.51 2932.39 3870.3 2932.39 3620.85V3529.06C2877.02 3569.89 2813.42 3598.36 2743.68 3597.81C2501.71 3595.89 2274.05 3246.41 2291.51 2958.66Z" fill="url(#paint14_linear_5_686)"/>
<path opacity="0.44" d="M2287.99 3141.35C3066.24 3141.35 3697.14 2555.95 3697.14 1833.82C3697.14 1111.69 3066.24 526.293 2287.99 526.293C1509.73 526.293 878.832 1111.69 878.832 1833.82C878.832 2555.95 1509.73 3141.35 2287.99 3141.35Z" fill="#F4F7FA"/>
<mask id="mask4_5_686" style="mask-type:luminance" maskUnits="userSpaceOnUse" x="1700" y="703" width="1954" height="2264">
<path d="M3653.85 1947.23C3653.85 1260.12 3045.85 703.118 2295.84 703.118C2083.46 703.118 1882.49 747.817 1703.46 827.455C1694.86 933.445 1708.23 1020.42 1728.82 1090.43C1840.02 1468.58 2192.28 1465.83 2477.6 1963.89C2698.64 2349.71 2587.78 2526.84 2815.55 2773.58C2891.72 2856.1 2980.49 2918.93 3074.62 2966.86C3078.45 2964.2 3082.29 2961.57 3086.2 2959C3429.91 2733.27 3653.85 2364.21 3653.85 1947.23Z" fill="white"/>
</mask>
<g mask="url(#mask4_5_686)">
<path d="M3653.85 1947.23C3653.85 1260.12 3045.85 703.117 2295.85 703.117C1545.84 703.117 937.845 1260.12 937.845 1947.23C937.845 2364.21 1161.78 2733.27 1505.49 2959C1651.3 3054.77 1739.73 3212.61 1739.73 3382.47V3477.68C1739.73 3684.54 1914.03 3852.23 2129.03 3852.23H2462.66C2677.67 3852.23 2851.96 3684.54 2851.96 3477.68V3382.47C2851.96 3212.61 2940.39 3054.77 3086.2 2959C3429.91 2733.27 3653.85 2364.21 3653.85 1947.23Z" fill="url(#paint15_linear_5_686)"/>
</g>
<mask id="mask5_5_686" style="mask-type:luminance" maskUnits="userSpaceOnUse" x="1700" y="703" width="1954" height="2264">
<path d="M3653.85 1947.23C3653.85 1260.12 3045.85 703.118 2295.84 703.118C2083.46 703.118 1882.49 747.817 1703.46 827.455C1694.86 933.445 1708.23 1020.42 1728.82 1090.43C1840.02 1468.58 2192.28 1465.83 2477.6 1963.89C2698.64 2349.71 2587.78 2526.84 2815.55 2773.58C2891.72 2856.1 2980.49 2918.93 3074.62 2966.86C3078.45 2964.2 3082.29 2961.57 3086.2 2959C3429.91 2733.27 3653.85 2364.21 3653.85 1947.23Z" fill="white"/>
</mask>
<g mask="url(#mask5_5_686)">
<path opacity="0.3" d="M2853.97 3740.16C2878.97 3865.25 2798.52 3965.15 2729.63 4028.86C2717.84 4026.11 2710.18 4027.62 2697.57 4027.56C2583.68 4027 2536.63 4002.17 2425.49 3983.65C2401.57 3979.67 2336.12 3946.12 2310.34 3930.62L2262.8 3900.93C2262.8 3900.93 2241.02 3605.99 2405.52 3565.32C2570.02 3524.64 2584.66 3239.81 2610.78 3088.8C2681.63 2679.08 3123.51 2823.57 3258.3 2304.07C3294.15 2165.9 3314.5 1890.86 3464.05 1809.75C3634.43 1717.35 3703.36 1864.47 3819.18 1780.82C4000.19 1650.07 4240.4 1645.1 4330.92 1845.87C4420.27 2044.03 4173.79 2336.96 3705.1 2507.68C3383.28 2666.79 3361.95 2732.38 3340.86 2899.46C3326.09 3016.5 3362.23 3339.22 3171.52 3419.02C2980.81 3498.81 2825.39 3597.16 2853.97 3740.16Z" fill="url(#paint16_linear_5_686)"/>
</g>
<mask id="mask6_5_686" style="mask-type:luminance" maskUnits="userSpaceOnUse" x="1700" y="703" width="1954" height="2264">
<path d="M3653.85 1947.23C3653.85 1260.12 3045.85 703.118 2295.84 703.118C2083.46 703.118 1882.49 747.817 1703.46 827.455C1694.86 933.445 1708.23 1020.42 1728.82 1090.43C1840.02 1468.58 2192.28 1465.83 2477.6 1963.89C2698.64 2349.71 2587.78 2526.84 2815.55 2773.58C2891.72 2856.1 2980.49 2918.93 3074.62 2966.86C3078.45 2964.2 3082.29 2961.57 3086.2 2959C3429.91 2733.27 3653.85 2364.21 3653.85 1947.23Z" fill="white"/>
</mask>
<g mask="url(#mask6_5_686)">
<path opacity="0.3" d="M1703.47 827.455C1832.82 825.802 2010.69 844.96 2137.45 960.797C2295.89 1105.58 2223.23 1263.2 2331.83 1475.09C2514.52 1831.59 2882.79 1702.74 3135.83 2070.15C3365.97 2404.29 3280.49 2829.03 3184.42 2894.72C3175.81 2900.61 3074.62 2966.86 3074.62 2966.86L1576.41 2346.42L1703.47 827.455Z" fill="url(#paint17_linear_5_686)"/>
</g>
<mask id="mask7_5_686" style="mask-type:luminance" maskUnits="userSpaceOnUse" x="1700" y="703" width="1954" height="2264">
<path d="M3653.85 1947.23C3653.85 1260.12 3045.85 703.118 2295.84 703.118C2083.46 703.118 1882.49 747.817 1703.46 827.455C1694.86 933.445 1708.23 1020.42 1728.82 1090.43C1840.02 1468.58 2192.28 1465.83 2477.6 1963.89C2698.64 2349.71 2587.78 2526.84 2815.55 2773.58C2891.72 2856.1 2980.49 2918.93 3074.62 2966.86C3078.45 2964.2 3082.29 2961.57 3086.2 2959C3429.91 2733.27 3653.85 2364.21 3653.85 1947.23Z" fill="white"/>
</mask>
<g mask="url(#mask7_5_686)">
<path d="M2295.85 3144.98C1947 3144.98 1619.03 3020.47 1372.34 2794.39C1125.58 2568.24 989.678 2267.54 989.678 1947.68C989.678 1627.83 1125.58 1327.13 1372.34 1100.98C1619.03 874.893 1947 750.382 2295.85 750.382C2644.69 750.382 2972.66 874.893 3219.36 1100.98C3466.12 1327.13 3602.02 1627.83 3602.02 1947.68C3602.02 2267.54 3466.12 2568.24 3219.36 2794.39C2972.67 3020.47 2644.69 3144.98 2295.85 3144.98ZM2295.85 760.52C1949.72 760.52 1624.33 884.036 1379.61 1108.32C1134.95 1332.53 1000.22 1630.63 1000.22 1947.68C1000.22 2264.74 1134.95 2562.83 1379.61 2787.05C1624.33 3011.33 1949.72 3134.84 2295.85 3134.84C2641.97 3134.84 2967.36 3011.33 3212.09 2787.05C3456.74 2562.83 3591.48 2264.74 3591.48 1947.68C3591.48 1630.63 3456.74 1332.54 3212.09 1108.32C2967.36 884.036 2641.97 760.52 2295.85 760.52Z" fill="white"/>
<path d="M2295.85 3144.98C2039.84 3144.98 1799.24 3020.27 1618.38 2793.81C1437.84 2567.74 1338.41 2267.25 1338.41 1947.68C1338.41 1628.11 1437.84 1327.62 1618.38 1101.56C1799.25 875.098 2039.84 750.382 2295.85 750.382C2551.85 750.382 2792.45 875.098 2973.31 1101.56C3153.86 1327.62 3253.29 1628.11 3253.29 1947.68C3253.29 2267.25 3153.86 2567.74 2973.31 2793.81C2792.45 3020.27 2551.85 3144.98 2295.85 3144.98ZM2295.85 760.52C1773.72 760.52 1348.95 1293.08 1348.95 1947.68C1348.95 2602.29 1773.72 3134.84 2295.85 3134.84C2817.97 3134.84 3242.75 2602.29 3242.75 1947.68C3242.75 1293.08 2817.97 760.52 2295.85 760.52Z" fill="white"/>
<path d="M2295.85 3144.98C2166.34 3144.98 2045.04 3019.81 1954.28 2792.54C1864.14 2566.79 1814.49 2266.74 1814.49 1947.68C1814.49 1628.62 1864.14 1328.58 1954.28 1102.83C2045.04 875.547 2166.34 750.38 2295.85 750.38C2425.34 750.38 2546.65 875.547 2637.4 1102.83C2727.55 1328.58 2777.2 1628.62 2777.2 1947.68C2777.2 2266.74 2727.55 2566.79 2637.4 2792.54C2546.65 3019.81 2425.35 3144.98 2295.85 3144.98ZM2295.85 760.52C2036.24 760.52 1825.03 1293.08 1825.03 1947.68C1825.03 2602.29 2036.24 3134.84 2295.85 3134.84C2555.45 3134.84 2766.66 2602.29 2766.66 1947.68C2766.66 1293.08 2555.45 760.52 2295.85 760.52Z" fill="white"/>
<path d="M2301.12 755.451H2290.58V3139.91H2301.12V755.451Z" fill="white"/>
<path d="M2295.85 2086.76C1948.22 2086.76 1621.38 2075.74 1375.53 2055.73C1255.86 2046 1161.86 2034.65 1096.15 2022C1000.72 2003.64 989.679 1986.86 989.679 1975.83C989.679 1964.8 1000.72 1948.01 1096.15 1929.65C1161.86 1917.01 1255.86 1905.66 1375.53 1895.92C1621.38 1875.91 1948.22 1864.89 2295.85 1864.89C2643.47 1864.89 2970.31 1875.91 3216.17 1895.92C3335.83 1905.66 3429.83 1917.01 3495.55 1929.65C3590.98 1948.01 3602.01 1964.8 3602.01 1975.83C3602.01 1986.86 3590.98 2003.64 3495.55 2022C3429.83 2034.65 3335.83 2046 3216.17 2055.73C2970.31 2075.74 2643.47 2086.76 2295.85 2086.76ZM2295.85 1875.03C1948.5 1875.03 1621.98 1886.04 1376.42 1906.02C1018.35 1935.16 1000.22 1969.28 1000.22 1975.83C1000.22 1982.37 1018.35 2016.49 1376.42 2045.63C1621.98 2065.62 1948.5 2076.62 2295.85 2076.62C2643.18 2076.62 2969.71 2065.61 3215.28 2045.63C3573.34 2016.49 3591.48 1982.37 3591.48 1975.83C3591.48 1969.28 3573.34 1935.16 3215.28 1906.02C2969.71 1886.04 2643.19 1875.03 2295.85 1875.03Z" fill="white"/>
<path d="M2295.85 1635.45C1703.32 1635.45 1090.44 1581.51 1090.44 1491.26C1090.44 1439.91 1284.11 1406.68 1446.59 1387.85C1673.47 1361.55 1975.08 1347.07 2295.85 1347.07C2616.61 1347.07 2918.22 1361.55 3145.1 1387.85C3307.57 1406.68 3501.25 1439.91 3501.25 1491.26C3501.25 1581.51 2888.37 1635.45 2295.85 1635.45ZM2295.85 1357.21C1581.1 1357.21 1100.98 1426.52 1100.98 1491.26C1100.98 1556 1581.1 1625.31 2295.85 1625.31C3010.59 1625.31 3490.71 1556 3490.71 1491.26C3490.71 1426.52 3010.59 1357.21 2295.85 1357.21Z" fill="white"/>
<path d="M2292.22 1074.95C1940.16 1074.95 1576 1032.68 1576 961.95C1576 891.216 1940.16 848.949 2292.22 848.949C2644.29 848.949 3008.45 891.216 3008.45 961.95C3008.45 1032.68 2644.29 1074.95 2292.22 1074.95ZM2292.22 859.087C1870.1 859.087 1586.54 912.272 1586.54 961.95C1586.54 1011.63 1870.1 1064.81 2292.22 1064.81C2714.35 1064.81 2997.91 1011.63 2997.91 961.95C2997.91 912.272 2714.35 859.087 2292.22 859.087Z" fill="white"/>
<path d="M2295.85 2539.38C1975.07 2539.38 1673.47 2524.9 1446.59 2498.6C1284.11 2479.76 1090.44 2446.54 1090.44 2395.19C1090.44 2343.85 1284.11 2310.62 1446.59 2291.78C1673.47 2265.48 1975.08 2251 2295.85 2251C2616.61 2251 2918.22 2265.48 3145.1 2291.78C3307.57 2310.62 3501.25 2343.85 3501.25 2395.19C3501.25 2446.54 3307.57 2479.76 3145.1 2498.6C2918.22 2524.9 2616.62 2539.38 2295.85 2539.38ZM2295.85 2261.14C1581.1 2261.14 1100.98 2330.45 1100.98 2395.19C1100.98 2459.93 1581.1 2529.24 2295.85 2529.24C3010.58 2529.24 3490.71 2459.93 3490.71 2395.19C3490.71 2330.45 3010.58 2261.14 2295.85 2261.14Z" fill="white"/>
<path d="M2292.22 3037.5C1940.16 3037.5 1576 2995.23 1576 2924.5C1576 2853.76 1940.16 2811.49 2292.22 2811.49C2644.29 2811.49 3008.45 2853.76 3008.45 2924.5C3008.45 2995.23 2644.29 3037.5 2292.22 3037.5ZM2292.22 2821.63C1870.1 2821.63 1586.54 2874.82 1586.54 2924.5C1586.54 2974.17 1870.1 3027.36 2292.22 3027.36C2714.35 3027.36 2997.91 2974.17 2997.91 2924.5C2997.91 2874.82 2714.35 2821.63 2292.22 2821.63Z" fill="white"/>
</g>
<mask id="mask8_5_686" style="mask-type:luminance" maskUnits="userSpaceOnUse" x="1700" y="703" width="1954" height="2264">
<path d="M3653.85 1947.23C3653.85 1260.12 3045.85 703.118 2295.84 703.118C2083.46 703.118 1882.49 747.817 1703.46 827.455C1694.86 933.445 1708.23 1020.42 1728.82 1090.43C1840.02 1468.58 2192.28 1465.83 2477.6 1963.89C2698.64 2349.71 2587.78 2526.84 2815.55 2773.58C2891.72 2856.1 2980.49 2918.93 3074.62 2966.86C3078.45 2964.2 3082.29 2961.57 3086.2 2959C3429.91 2733.27 3653.85 2364.21 3653.85 1947.23Z" fill="white"/>
</mask>
<g mask="url(#mask8_5_686)">
<path d="M3203.2 1625.98C3230.65 1625.98 3252.9 1604.57 3252.9 1578.16C3252.9 1551.76 3230.65 1530.35 3203.2 1530.35C3175.75 1530.35 3153.5 1551.76 3153.5 1578.16C3153.5 1604.57 3175.75 1625.98 3203.2 1625.98Z" fill="white"/>
</g>
<mask id="mask9_5_686" style="mask-type:luminance" maskUnits="userSpaceOnUse" x="1700" y="703" width="1954" height="2264">
<path d="M3653.85 1947.23C3653.85 1260.12 3045.85 703.118 2295.84 703.118C2083.46 703.118 1882.49 747.817 1703.46 827.455C1694.86 933.445 1708.23 1020.42 1728.82 1090.43C1840.02 1468.58 2192.28 1465.83 2477.6 1963.89C2698.64 2349.71 2587.78 2526.84 2815.55 2773.58C2891.72 2856.1 2980.49 2918.93 3074.62 2966.86C3078.45 2964.2 3082.29 2961.57 3086.2 2959C3429.91 2733.27 3653.85 2364.21 3653.85 1947.23Z" fill="white"/>
</mask>
<g mask="url(#mask9_5_686)">
<path d="M2754.26 1670.82C2781.71 1670.82 2803.96 1649.41 2803.96 1623C2803.96 1596.59 2781.71 1575.18 2754.26 1575.18C2726.81 1575.18 2704.56 1596.59 2704.56 1623C2704.56 1649.41 2726.81 1670.82 2754.26 1670.82Z" fill="white"/>
</g>
<mask id="mask10_5_686" style="mask-type:luminance" maskUnits="userSpaceOnUse" x="1700" y="703" width="1954" height="2264">
<path d="M3653.85 1947.23C3653.85 1260.12 3045.85 703.118 2295.84 703.118C2083.46 703.118 1882.49 747.817 1703.46 827.455C1694.86 933.445 1708.23 1020.42 1728.82 1090.43C1840.02 1468.58 2192.28 1465.83 2477.6 1963.89C2698.64 2349.71 2587.78 2526.84 2815.55 2773.58C2891.72 2856.1 2980.49 2918.93 3074.62 2966.86C3078.45 2964.2 3082.29 2961.57 3086.2 2959C3429.91 2733.27 3653.85 2364.21 3653.85 1947.23Z" fill="white"/>
</mask>
<g mask="url(#mask10_5_686)">
<path d="M3235.89 2091.37C3263.33 2091.37 3285.59 2069.96 3285.59 2043.55C3285.59 2017.14 3263.33 1995.73 3235.89 1995.73C3208.44 1995.73 3186.19 2017.14 3186.19 2043.55C3186.19 2069.96 3208.44 2091.37 3235.89 2091.37Z" fill="white"/>
</g>
<mask id="mask11_5_686" style="mask-type:luminance" maskUnits="userSpaceOnUse" x="1700" y="703" width="1954" height="2264">
<path d="M3653.85 1947.23C3653.85 1260.12 3045.85 703.118 2295.84 703.118C2083.46 703.118 1882.49 747.817 1703.46 827.455C1694.86 933.445 1708.23 1020.42 1728.82 1090.43C1840.02 1468.58 2192.28 1465.83 2477.6 1963.89C2698.64 2349.71 2587.78 2526.84 2815.55 2773.58C2891.72 2856.1 2980.49 2918.93 3074.62 2966.86C3078.45 2964.2 3082.29 2961.57 3086.2 2959C3429.91 2733.27 3653.85 2364.21 3653.85 1947.23Z" fill="white"/>
</mask>
<g mask="url(#mask11_5_686)">
<path d="M2769.17 2118.49C2796.62 2118.49 2818.87 2097.08 2818.87 2070.68C2818.87 2044.27 2796.62 2022.86 2769.17 2022.86C2741.72 2022.86 2719.47 2044.27 2719.47 2070.68C2719.47 2097.08 2741.72 2118.49 2769.17 2118.49Z" fill="white"/>
</g>
<mask id="mask12_5_686" style="mask-type:luminance" maskUnits="userSpaceOnUse" x="1579" y="1103" width="2347" height="1896">
<path d="M3834.36 1845.24C3565.46 1214.38 2781.23 930.907 2082.73 1212.08C1884.93 1291.7 1715.25 1408.08 1579.69 1548.31C1613.16 1648.85 1659.65 1723.7 1706.22 1780.26C1957.78 2085.76 2284.76 1951.18 2745.41 2301.49C3102.26 2572.87 3068.33 2777.06 3377.03 2918.21C3480.26 2965.41 3587.52 2989.82 3693.95 2998.54C3696.47 2994.67 3699.02 2990.81 3701.66 2986.99C3933.42 2650.88 3997.55 2228.09 3834.36 1845.24Z" fill="white"/>
</mask>
<g mask="url(#mask12_5_686)">
<path d="M3511.98 1523.25C3537.48 1513.01 3549.74 1485.04 3539.38 1460.77C3529.01 1436.51 3499.94 1425.14 3474.44 1435.38C3448.95 1445.62 3436.68 1473.59 3447.04 1497.86C3457.41 1522.12 3486.48 1533.49 3511.98 1523.25Z" fill="white"/>
</g>
<mask id="mask13_5_686" style="mask-type:luminance" maskUnits="userSpaceOnUse" x="1700" y="703" width="1954" height="2264">
<path d="M3653.85 1947.23C3653.85 1260.12 3045.85 703.118 2295.84 703.118C2083.46 703.118 1882.49 747.817 1703.46 827.455C1694.86 933.445 1708.23 1020.42 1728.82 1090.43C1840.02 1468.58 2192.28 1465.83 2477.6 1963.89C2698.64 2349.71 2587.78 2526.84 2815.55 2773.58C2891.72 2856.1 2980.49 2918.93 3074.62 2966.86C3078.45 2964.2 3082.29 2961.57 3086.2 2959C3429.91 2733.27 3653.85 2364.21 3653.85 1947.23Z" fill="white"/>
</mask>
<g mask="url(#mask13_5_686)">
<path d="M3592.5 2024.88C3619.95 2024.88 3642.2 2003.47 3642.2 1977.06C3642.2 1950.65 3619.95 1929.24 3592.5 1929.24C3565.06 1929.24 3542.8 1950.65 3542.8 1977.06C3542.8 2003.47 3565.06 2024.88 3592.5 2024.88Z" fill="white"/>
</g>
<mask id="mask14_5_686" style="mask-type:luminance" maskUnits="userSpaceOnUse" x="1700" y="703" width="1954" height="2264">
<path d="M3653.85 1947.23C3653.85 1260.12 3045.85 703.118 2295.84 703.118C2083.46 703.118 1882.49 747.817 1703.46 827.455C1694.86 933.445 1708.23 1020.42 1728.82 1090.43C1840.02 1468.58 2192.28 1465.83 2477.6 1963.89C2698.64 2349.71 2587.78 2526.84 2815.55 2773.58C2891.72 2856.1 2980.49 2918.93 3074.62 2966.86C3078.45 2964.2 3082.29 2961.57 3086.2 2959C3429.91 2733.27 3653.85 2364.21 3653.85 1947.23Z" fill="white"/>
</mask>
<g mask="url(#mask14_5_686)">
<path d="M2295.85 1676.98C2323.29 1676.98 2345.54 1655.58 2345.54 1629.17C2345.54 1602.76 2323.29 1581.35 2295.85 1581.35C2268.4 1581.35 2246.15 1602.76 2246.15 1629.17C2246.15 1655.58 2268.4 1676.98 2295.85 1676.98Z" fill="white"/>
</g>
<mask id="mask15_5_686" style="mask-type:luminance" maskUnits="userSpaceOnUse" x="1700" y="703" width="1954" height="2264">
<path d="M3653.85 1947.23C3653.85 1260.12 3045.85 703.118 2295.84 703.118C2083.46 703.118 1882.49 747.817 1703.46 827.455C1694.86 933.445 1708.23 1020.42 1728.82 1090.43C1840.02 1468.58 2192.28 1465.83 2477.6 1963.89C2698.64 2349.71 2587.78 2526.84 2815.55 2773.58C2891.72 2856.1 2980.49 2918.93 3074.62 2966.86C3078.45 2964.2 3082.29 2961.57 3086.2 2959C3429.91 2733.27 3653.85 2364.21 3653.85 1947.23Z" fill="white"/>
</mask>
<g mask="url(#mask15_5_686)">
<path d="M2295.85 1115.93C2323.29 1115.93 2345.54 1094.53 2345.54 1068.12C2345.54 1041.71 2323.29 1020.3 2295.85 1020.3C2268.4 1020.3 2246.15 1041.71 2246.15 1068.12C2246.15 1094.53 2268.4 1115.93 2295.85 1115.93Z" fill="white"/>
</g>
<mask id="mask16_5_686" style="mask-type:luminance" maskUnits="userSpaceOnUse" x="2143" y="260" width="2514" height="1620">
<path d="M3748.22 294.169C3049.08 131.704 2346.84 564.616 2179.73 1261.11C2132.41 1458.34 2133.11 1655.54 2174.25 1840.62C2280.18 1873.67 2371.66 1881.82 2447.49 1879.26C2857.04 1865.4 2932.72 1537.63 3503.08 1390.43C3944.92 1276.39 4100.45 1421.23 4402.26 1268.04C4503.19 1216.82 4586.9 1149.24 4656.65 1073.16C4654.8 1068.98 4652.97 1064.78 4651.23 1060.55C4498.13 687.99 4172.51 392.766 3748.22 294.169Z" fill="white"/>
</mask>
<g mask="url(#mask16_5_686)">
<path d="M2661.65 1066.76C2667.83 1041.18 2651.1 1015.42 2624.27 1009.24C2597.43 1003.05 2570.67 1018.78 2564.48 1044.36C2558.29 1069.94 2575.03 1095.69 2601.86 1101.88C2628.69 1108.07 2655.46 1092.34 2661.65 1066.76Z" fill="white"/>
</g>
<mask id="mask17_5_686" style="mask-type:luminance" maskUnits="userSpaceOnUse" x="1700" y="703" width="1954" height="2264">
<path d="M3653.85 1947.23C3653.85 1260.12 3045.85 703.118 2295.84 703.118C2083.46 703.118 1882.49 747.817 1703.46 827.455C1694.86 933.445 1708.23 1020.42 1728.82 1090.43C1840.02 1468.58 2192.28 1465.83 2477.6 1963.89C2698.64 2349.71 2587.78 2526.84 2815.55 2773.58C2891.72 2856.1 2980.49 2918.93 3074.62 2966.86C3078.45 2964.2 3082.29 2961.57 3086.2 2959C3429.91 2733.27 3653.85 2364.21 3653.85 1947.23Z" fill="white"/>
</mask>
<g mask="url(#mask17_5_686)">
<path d="M2882.92 1067.06C2910.37 1067.06 2932.62 1045.65 2932.62 1019.24C2932.62 992.831 2910.37 971.423 2882.92 971.423C2855.47 971.423 2833.22 992.831 2833.22 1019.24C2833.22 1045.65 2855.47 1067.06 2882.92 1067.06Z" fill="white"/>
</g>
<mask id="mask18_5_686" style="mask-type:luminance" maskUnits="userSpaceOnUse" x="1700" y="703" width="1954" height="2264">
<path d="M3653.85 1947.23C3653.85 1260.12 3045.85 703.118 2295.84 703.118C2083.46 703.118 1882.49 747.817 1703.46 827.455C1694.86 933.445 1708.23 1020.42 1728.82 1090.43C1840.02 1468.58 2192.28 1465.83 2477.6 1963.89C2698.64 2349.71 2587.78 2526.84 2815.55 2773.58C2891.72 2856.1 2980.49 2918.93 3074.62 2966.86C3078.45 2964.2 3082.29 2961.57 3086.2 2959C3429.91 2733.27 3653.85 2364.21 3653.85 1947.23Z" fill="white"/>
</mask>
<g mask="url(#mask18_5_686)">
<path d="M3002.2 1001.08C3029.65 1001.08 3051.9 979.668 3051.9 953.26C3051.9 926.851 3029.65 905.443 3002.2 905.443C2974.75 905.443 2952.5 926.851 2952.5 953.26C2952.5 979.668 2974.75 1001.08 3002.2 1001.08Z" fill="white"/>
</g>
<mask id="mask19_5_686" style="mask-type:luminance" maskUnits="userSpaceOnUse" x="1700" y="703" width="1954" height="2264">
<path d="M3653.85 1947.23C3653.85 1260.12 3045.85 703.118 2295.84 703.118C2083.46 703.118 1882.49 747.817 1703.46 827.455C1694.86 933.445 1708.23 1020.42 1728.82 1090.43C1840.02 1468.58 2192.28 1465.83 2477.6 1963.89C2698.64 2349.71 2587.78 2526.84 2815.55 2773.58C2891.72 2856.1 2980.49 2918.93 3074.62 2966.86C3078.45 2964.2 3082.29 2961.57 3086.2 2959C3429.91 2733.27 3653.85 2364.21 3653.85 1947.23Z" fill="white"/>
</mask>
<g mask="url(#mask19_5_686)">
<path d="M2295.85 803.532C2323.29 803.532 2345.54 782.124 2345.54 755.716C2345.54 729.308 2323.29 707.9 2295.85 707.9C2268.4 707.9 2246.15 729.308 2246.15 755.716C2246.15 782.124 2268.4 803.532 2295.85 803.532Z" fill="white"/>
</g>
<mask id="mask20_5_686" style="mask-type:luminance" maskUnits="userSpaceOnUse" x="1700" y="703" width="1954" height="2264">
<path d="M3653.85 1947.23C3653.85 1260.12 3045.85 703.118 2295.84 703.118C2083.46 703.118 1882.49 747.817 1703.46 827.455C1694.86 933.445 1708.23 1020.42 1728.82 1090.43C1840.02 1468.58 2192.28 1465.83 2477.6 1963.89C2698.64 2349.71 2587.78 2526.84 2815.55 2773.58C2891.72 2856.1 2980.49 2918.93 3074.62 2966.86C3078.45 2964.2 3082.29 2961.57 3086.2 2959C3429.91 2733.27 3653.85 2364.21 3653.85 1947.23Z" fill="white"/>
</mask>
<g mask="url(#mask20_5_686)">
<path d="M2712.84 2575.94C2740.29 2575.94 2762.54 2554.53 2762.54 2528.12C2762.54 2501.72 2740.29 2480.31 2712.84 2480.31C2685.4 2480.31 2663.15 2501.72 2663.15 2528.12C2663.15 2554.53 2685.4 2575.94 2712.84 2575.94Z" fill="white"/>
</g>
<mask id="mask21_5_686" style="mask-type:luminance" maskUnits="userSpaceOnUse" x="907" y="1407" width="2568" height="1509">
<path d="M3109.31 1759.26C2604.35 1273.41 1765.07 1293.19 1234.74 1803.45C1084.57 1947.94 975.311 2116.27 907.251 2294.38C979.064 2375.18 1052.44 2427.58 1118.45 2463.08C1474.99 2654.82 1722.05 2413.22 2289.84 2571.28C2729.68 2693.72 2781.47 2894.39 3123.86 2913.9C3238.36 2920.42 3347.3 2904.46 3449.09 2874.31C3449.84 2869.83 3450.63 2865.35 3451.51 2860.88C3528.65 2467.43 3415.77 2054.11 3109.31 1759.26Z" fill="white"/>
</mask>
<g mask="url(#mask21_5_686)">
<path d="M3180.87 2519.43C3200.28 2500.76 3200.28 2470.48 3180.87 2451.81C3161.46 2433.14 3130 2433.14 3110.59 2451.81C3091.18 2470.48 3091.18 2500.76 3110.59 2519.43C3130 2538.11 3161.46 2538.11 3180.87 2519.43Z" fill="white"/>
</g>
<mask id="mask22_5_686" style="mask-type:luminance" maskUnits="userSpaceOnUse" x="1066" y="1615" width="2569" height="1509">
<path d="M3268.36 1967.18C2763.39 1481.34 1924.12 1501.12 1393.79 2011.37C1243.61 2155.86 1134.36 2324.19 1066.3 2502.3C1138.11 2583.1 1211.48 2635.51 1277.49 2671C1634.03 2862.74 1881.09 2621.14 2448.88 2779.2C2888.72 2901.64 2940.51 3102.31 3282.91 3121.82C3397.41 3128.34 3506.35 3112.38 3608.14 3082.23C3608.89 3077.75 3609.67 3073.27 3610.55 3068.8C3687.69 2675.35 3574.81 2262.04 3268.36 1967.18Z" fill="white"/>
</mask>
<g mask="url(#mask22_5_686)">
<path d="M3521.25 2438.68C3540.66 2420 3540.66 2389.73 3521.25 2371.06C3501.84 2352.38 3470.38 2352.38 3450.97 2371.06C3431.56 2389.73 3431.56 2420 3450.97 2438.68C3470.38 2457.35 3501.84 2457.35 3521.25 2438.68Z" fill="white"/>
</g>
<path d="M3376.97 4894.16C3372.94 4894.16 3369.69 4891.03 3369.69 4887.16V3060.77C3369.69 3056.9 3372.94 3053.76 3376.97 3053.76C3380.99 3053.76 3384.24 3056.9 3384.24 3060.77V4887.16C3384.24 4891.03 3380.99 4894.16 3376.97 4894.16Z" fill="#97A6B7"/>
<path d="M3888.37 4779.44C3884.35 4779.44 3881.09 4776.3 3881.09 4772.43V3014.71C3881.09 3010.84 3884.35 3007.71 3888.37 3007.71C3892.39 3007.71 3895.65 3010.85 3895.65 3014.71V4772.43C3895.65 4776.3 3892.39 4779.44 3888.37 4779.44Z" fill="#97A6B7"/>
<path d="M5070.73 4861.28C5067.75 4861.28 5064.96 4859.51 5063.89 4856.67L4380.26 3044.28C4378.88 3040.64 4380.84 3036.62 4384.62 3035.3C4388.39 3033.98 4392.57 3035.86 4393.94 3039.5L5077.58 4851.89C5078.95 4855.52 5076.99 4859.54 5073.21 4860.86C5072.39 4861.15 5071.56 4861.28 5070.73 4861.28Z" fill="#97A6B7"/>
<path d="M4566.05 5003.11C4562.95 5003.11 4560.07 5001.18 4559.1 4998.17L3945.54 3087.33C3944.35 3083.63 3946.5 3079.71 3950.35 3078.57C3954.2 3077.42 3958.26 3079.5 3959.45 3083.19L4573.01 4994.04C4574.2 4997.74 4572.05 5001.66 4568.2 5002.8C4567.49 5003.01 4566.76 5003.11 4566.05 5003.11Z" fill="#97A6B7"/>
<path d="M3882.75 3012.89L3369.73 3049.42V3060.52L3956.04 3085.81L4394.26 3034.15V3023.05L3882.75 3012.89Z" fill="#97A6B7"/>
<path d="M3882.75 3001.79L3369.73 3049.42L3956.04 3074.71L4394.26 3023.05L3882.75 3001.79Z" fill="#E7EBEF"/>
<path d="M4433.3 4589.72C4430.08 4589.72 4427.12 4587.64 4426.27 4584.49C4425.25 4580.75 4427.57 4576.92 4431.46 4575.94L4919.94 4452.64C4923.81 4451.65 4927.81 4453.89 4928.83 4457.64C4929.85 4461.38 4927.53 4465.21 4923.64 4466.19L4435.16 4589.49C4434.54 4589.64 4433.92 4589.72 4433.3 4589.72Z" fill="#97A6B7"/>
<path d="M4294.93 4157.17C4291.46 4157.17 4288.39 4154.79 4287.77 4151.39C4287.07 4147.58 4289.71 4143.95 4293.67 4143.27L4773.07 4061.6C4777.06 4060.94 4780.81 4063.47 4781.51 4067.28C4782.21 4071.08 4779.57 4074.72 4775.61 4075.4L4296.21 4157.07C4295.78 4157.14 4295.35 4157.17 4294.93 4157.17Z" fill="#97A6B7"/>
<path d="M4151.07 3710.71C4147.46 3710.71 4144.33 3708.14 4143.85 3704.6C4143.33 3700.77 4146.15 3697.26 4150.14 3696.76L4614.1 3639.22C4618.22 3638.7 4621.74 3641.44 4622.25 3645.27C4622.77 3649.11 4619.95 3652.62 4615.96 3653.12L4152 3710.65C4151.69 3710.7 4151.38 3710.71 4151.07 3710.71Z" fill="#97A6B7"/>
<path d="M4058.88 3400.9C4055.36 3400.9 4052.25 3398.43 4051.69 3394.97C4051.07 3391.15 4053.79 3387.57 4057.76 3386.97L4493.98 3321.29C4497.96 3320.69 4501.68 3323.31 4502.3 3327.13C4502.92 3330.96 4500.21 3334.54 4496.23 3335.14L4060.01 3400.81C4059.63 3400.87 4059.25 3400.9 4058.88 3400.9Z" fill="#97A6B7"/>
<path d="M871.714 4537.17L866.566 4616.61C866.566 4616.61 878.292 4628.56 900.843 4620.23L925.465 4542.23L871.714 4537.17Z" fill="url(#paint18_linear_5_686)"/>
<path d="M882.062 4595.58C882.062 4595.58 841.629 4611.45 849.481 4628.66C853.697 4637.9 868.287 4658.76 880.893 4676.11C892.559 4692.16 913.633 4699.26 933.136 4693.64C939.681 4691.75 946.375 4689.9 952.301 4688.43C964.557 4685.39 965.271 4668.9 953.333 4664.85C947.544 4662.89 941.81 4661.31 936.817 4660.57C922.014 4658.37 901.64 4624.73 899.252 4611.25C896.865 4597.77 882.062 4595.58 882.062 4595.58Z" fill="url(#paint19_linear_5_686)"/>
<path d="M784.714 3774.77C844.277 3794.53 1064.53 3874.6 1113.63 4058.32C1116.25 4068.12 1122.97 4095.4 1123.28 4139.95C1124.59 4325.39 1012.53 4482.36 931.036 4573.68C905.336 4573.27 879.638 4572.86 853.94 4572.45C841.105 4525.12 829.305 4454.33 847.736 4374.68C875.903 4252.93 949.033 4221.34 934.918 4161.59C909.287 4053.08 647.412 4069.55 622.717 3972.39C613.796 3937.29 633.371 3877.72 784.714 3774.77Z" fill="url(#paint20_linear_5_686)"/>
<path d="M48.2718 4885.14L160.103 4882.61C166.995 4882.45 169.951 4874.19 164.674 4869.92C159.473 4865.72 152.281 4862.27 143.092 4863.2C121.833 4865.33 74.1085 4836.71 52.4595 4842.86C45.3862 4844.87 39.6447 4860.88 36.6981 4865.3C30.9159 4873.99 37.549 4885.38 48.2718 4885.14Z" fill="url(#paint21_linear_5_686)"/>
<path d="M98.4986 4802.46L52.4575 4842.86C52.4575 4842.86 68.537 4854.41 91.9913 4849.46L139.054 4818.28L98.4986 4802.46Z" fill="url(#paint22_linear_5_686)"/>
<g opacity="0.3">
<path d="M982.379 4253.2C1013.25 4172.96 1050.27 4074.02 1007.96 4017.85C965.136 3961.01 871.352 4009.01 777.254 3963.23C742.35 3946.24 706.478 3915.84 676.63 3860.82C623.817 3913.29 616.647 3948.51 622.718 3972.39C647.413 4069.55 909.286 4053.08 934.919 4161.59C949.034 4221.34 875.906 4252.93 847.737 4374.68C831.892 4443.16 838.403 4505.04 848.693 4551.14C857.849 4508.33 872.081 4463.36 893.847 4417.97C927.583 4347.61 949.854 4337.73 982.379 4253.2Z" fill="url(#paint23_linear_5_686)"/>
</g>
<path d="M818.827 3751.59C782.604 3911.73 705.409 4156.25 528.486 4411.51C397.506 4600.47 253.599 4735.12 140.722 4825.08C132.692 4827.39 119.003 4830.23 102.22 4828.25C89.7494 4826.78 79.8571 4823.16 73.2056 4820.11C80.9743 4774.96 97.3628 4708.27 136.244 4636.24C207.389 4504.42 270.768 4508.65 342.229 4392.31C394.556 4307.12 411.558 4216.64 445.563 4035.67C471.82 3895.92 471.833 3862.52 507.815 3822.45C580.564 3741.42 717.199 3740.48 818.827 3751.59Z" fill="url(#paint24_linear_5_686)"/>
<g opacity="0.3">
<path d="M163.532 4666.04C188.925 4627.47 233.984 4587.29 322.864 4508.04C414.721 4426.14 411.194 4440.95 429.271 4416.75C510.21 4308.4 466.35 4192.64 486.338 4052.94C497.492 3974.99 533.243 3873.13 637.361 3759.03C588.557 3767.69 541.829 3786.32 507.811 3822.45C466.043 3866.8 469.132 3910.22 445.559 4035.66C411.556 4216.63 394.552 4307.12 342.225 4392.3C270.764 4508.64 207.387 4504.42 136.24 4636.24C97.3589 4708.27 80.9704 4774.96 73.2017 4820.1C79.8532 4823.16 89.7436 4826.78 102.216 4828.25C112.107 4829.41 120.878 4828.89 128.097 4827.81C122.212 4736.23 150.651 4685.61 163.532 4666.04Z" fill="url(#paint25_linear_5_686)"/>
</g>
<path d="M916.509 2711.01C916.509 2711.01 946.332 2924.35 712.716 3074.81L961.346 3131.83C961.346 3131.83 1040.89 2988.65 983.238 2751.53L916.509 2711.01Z" fill="url(#paint26_linear_5_686)"/>
<path d="M960.269 2751.54C960.269 2751.54 973.659 2719.71 971.497 2705.39C969.333 2691.06 933.885 2671.95 909.72 2652.21C885.557 2632.47 910.63 2672.07 916.25 2681.07C921.869 2690.08 941.581 2703.59 938.753 2734.22L960.269 2751.54Z" fill="url(#paint27_linear_5_686)"/>
<path d="M682.108 2914C694.314 2890.86 699.349 2891 702.345 2878.78C709.175 2850.95 691.525 2815.61 676.562 2815.12C666.916 2814.81 666.121 2829.23 645.707 2851.72C620.697 2879.27 605.517 2875.66 590.8 2899.58C587.358 2905.17 571.867 2930.35 581.399 2949.14C593.566 2973.12 641.52 2976.91 661.561 2958.41C671.069 2949.63 667.073 2942.51 682.108 2914Z" fill="url(#paint28_linear_5_686)"/>
<path d="M646.167 2938.97C646.167 2938.97 654.738 2982.95 648.651 3018.7C643.144 3051.02 580.937 3084.6 569.014 3094.23C557.092 3103.85 600.645 3114.29 640.597 3109.25C680.547 3104.22 789.932 3070.52 806.551 3051.74C823.171 3032.97 787.194 3042.23 756.935 3038.68C726.675 3035.13 697.781 2986.34 696.893 2961.44C696.007 2936.54 646.167 2938.97 646.167 2938.97Z" fill="url(#paint29_linear_5_686)"/>
<path d="M659.202 2971.79C659.202 2971.79 689.789 2984.71 716.876 2963.86C741.128 2945.19 705.051 2887.87 680.377 2887.15C672.146 2886.9 660.132 2892.58 653.041 2900.88C648.851 2905.78 648.603 2909.05 641.596 2916.94C635.137 2924.21 632.294 2924.86 631.314 2928.4C630.084 2932.81 632.196 2940.19 648.807 2952.87C640.531 2951.41 633.397 2953.51 630.633 2958.15C630.193 2958.89 629.277 2961.21 629.551 2963.59C630.548 2972.25 642.294 2976.25 659.202 2971.79Z" fill="url(#paint30_linear_5_686)"/>
<path d="M1331.33 2818.72C1331.33 2818.72 1349.85 2816.24 1344.07 2782.2C1339.54 2755.52 1342.96 2746.55 1349.51 2751.28C1356.05 2756 1356.98 2771.42 1356.98 2771.42C1356.98 2771.42 1380.85 2751.83 1390.68 2726.15C1400.51 2700.47 1406.83 2722.09 1408.94 2734.93C1411.05 2747.76 1394.91 2787.63 1385.78 2795.06C1376.65 2802.5 1363.31 2835.26 1363.31 2835.26L1331.33 2818.72Z" fill="url(#paint31_linear_5_686)"/>
<path d="M1380.68 2827.83C1359.61 2813.64 1338.53 2799.45 1317.46 2785.25C1291.85 2936.89 1233.59 2996.41 1184.1 3022.45C1064.7 3085.27 958.104 2973.38 729.554 3019.09C666.573 3031.68 556.793 3055.15 495.936 3141.49C479.938 3164.18 474.25 3181.36 447.708 3344.16C413.783 3552.25 412.582 3588.56 417.38 3633.37C426.159 3715.36 431.479 3765.05 470.783 3809.02C575.148 3925.79 796.911 3865.54 824.714 3857.61C876.077 3842.96 955.907 3820.19 987.613 3754.88C1002.53 3724.15 1000.94 3696.06 977.981 3583.7C932.504 3361.11 926.696 3346.71 939.374 3322.33C982.16 3240.06 1117.78 3287.11 1232.33 3210.59C1299.3 3165.86 1374.79 3068.38 1380.68 2827.83Z" fill="url(#paint32_linear_5_686)"/>
<path opacity="0.3" d="M720.78 3827.9C743.134 3783.77 713.072 3743.11 746.032 3690.06C788.037 3622.46 863.64 3645.4 892.078 3595.45C940.71 3510.02 749.199 3390.93 788.083 3254.94C806.649 3190.01 871.509 3143.01 925.694 3125.19C1046 3085.65 1124.71 3186.39 1237.49 3154.87C1264.22 3147.39 1294.9 3131.92 1325.93 3099.81C1298.51 3155.49 1264.45 3189.13 1232.33 3210.59C1117.78 3287.11 982.159 3240.06 939.373 3322.33C926.695 3346.71 932.503 3361.11 977.98 3583.7C1000.94 3696.06 1002.53 3724.15 987.612 3754.88C955.906 3820.19 876.078 3842.96 824.713 3857.6C809.494 3861.95 736.145 3881.91 655.761 3879.99C691.623 3865.97 710.919 3847.37 720.78 3827.9Z" fill="url(#paint33_linear_5_686)"/>
<path d="M1704.71 2423.27C1756.96 2448.78 1822.59 2425.34 1851.3 2370.9C1880.01 2316.47 1860.93 2251.66 1808.68 2226.15C1805.98 2224.83 1803.21 2223.72 1800.44 2222.65C1810.14 2192.54 1817.45 2162.18 1822.36 2131.82C1825.35 2131.81 1828.36 2131.76 1831.41 2131.5C1891.02 2126.37 1938.31 2073.67 1937.05 2013.77C1935.79 1953.87 1886.45 1909.46 1826.85 1914.59C1823.73 1914.86 1820.67 1915.33 1817.63 1915.85C1811.4 1886.17 1802.86 1857.18 1792.09 1829.11C1794.83 1827.57 1797.56 1825.97 1800.23 1824.18C1851.22 1789.79 1867.51 1721.94 1836.62 1672.63C1805.72 1623.32 1739.34 1611.22 1688.35 1645.61C1685.74 1647.37 1683.28 1649.27 1680.85 1651.2C1660.71 1629.78 1638.61 1609.93 1614.71 1591.82C1616.39 1589.17 1618.03 1586.48 1619.52 1583.66C1648.23 1529.23 1685.75 1469.77 1633.1 1445.05C1511.28 1387.86 1459.02 1436.84 1430.31 1491.27C1428.82 1494.09 1427.54 1496.96 1426.31 1499.82C1397 1491.96 1367.3 1486.52 1337.44 1483.52C1337.63 1480.49 1337.77 1477.46 1337.71 1474.39C1336.45 1414.5 1354.91 1382.08 1295.08 1380.97C1164.61 1378.55 1120.6 1433.05 1121.86 1492.94C1121.93 1496.07 1122.2 1499.13 1122.52 1502.17C1092.62 1510.38 1063.26 1520.87 1034.68 1533.55C1033.32 1530.88 1031.91 1528.23 1030.3 1525.65C999.404 1476.34 933.026 1464.24 882.035 1498.62C831.044 1533.01 814.753 1600.86 845.647 1650.16C847.227 1652.69 848.964 1655.05 850.723 1657.38C828.143 1679.12 806.999 1702.72 787.461 1728.03C784.934 1726.51 782.369 1725.02 779.662 1723.7C727.414 1698.18 661.782 1721.63 633.071 1776.06C604.358 1830.5 623.44 1895.31 675.69 1920.82C678.398 1922.14 681.162 1923.25 683.933 1924.31C674.233 1954.43 666.919 1984.79 662.017 2015.15C659.021 2015.16 656.017 2015.21 652.967 2015.47C593.358 2020.6 546.063 2073.3 547.32 2133.2C548.58 2193.1 597.923 2237.5 657.528 2232.38C660.641 2232.11 663.702 2231.64 666.743 2231.11C672.975 2260.8 681.511 2289.79 692.278 2317.85C689.537 2319.39 686.809 2320.99 684.145 2322.79C633.156 2357.17 616.866 2425.02 647.758 2474.33C678.652 2523.64 780.902 2546.54 831.891 2512.15C834.504 2510.39 801.091 2497.7 803.52 2495.76C823.667 2517.19 845.762 2537.03 869.666 2555.15C867.988 2557.8 866.342 2560.49 864.856 2563.31C836.143 2617.74 855.225 2682.55 907.474 2708.06C959.722 2733.57 1025.36 2710.13 1054.07 2655.7C1055.55 2652.88 1056.84 2650.01 1058.07 2647.14C1087.38 2655.01 1117.07 2660.45 1146.94 2663.45C1146.75 2666.48 1146.61 2669.51 1146.67 2672.58C1147.93 2732.47 1197.27 2776.88 1256.88 2771.75C1316.48 2766.63 1363.78 2713.92 1362.52 2654.03C1362.45 2650.9 1362.18 2647.84 1361.86 2644.8C1391.76 2636.59 1421.12 2626.1 1449.7 2613.42C1451.06 2616.09 1452.47 2618.74 1454.08 2621.32C1484.98 2670.63 1551.35 2682.73 1602.34 2648.34C1653.33 2613.96 1669.62 2546.11 1638.73 2496.8C1637.15 2494.28 1635.41 2491.91 1633.65 2489.58C1656.23 2467.85 1677.38 2444.25 1696.91 2418.93C1699.44 2420.46 1702 2421.95 1704.71 2423.27ZM1053.43 2431.34C863.728 2338.71 794.447 2103.4 898.693 1905.77C1002.94 1708.13 1241.23 1623.01 1430.94 1715.64C1620.64 1808.26 1689.92 2043.57 1585.68 2241.21C1481.43 2438.84 1243.14 2523.97 1053.43 2431.34Z" fill="#D8DEE8"/>
<path d="M1831.41 2131.5C1891.02 2126.37 1938.31 2073.67 1937.05 2013.77C1935.8 1953.87 1886.45 1909.47 1826.85 1914.59C1823.73 1914.86 1820.67 1915.33 1817.63 1915.85C1811.4 1886.17 1802.86 1857.18 1792.1 1829.11C1794.84 1827.57 1797.56 1825.97 1800.23 1824.18C1851.22 1789.79 1914.29 1706.72 1878.31 1660.72C1810 1573.42 1739.34 1611.23 1688.35 1645.61C1685.74 1647.37 1683.28 1649.27 1680.86 1651.2C1660.71 1629.78 1638.61 1609.94 1614.71 1591.82C1616.39 1589.17 1618.03 1586.48 1619.52 1583.67C1635.15 1554.04 1636.52 1521.38 1626.19 1493.62C1576.95 1577.04 1528.37 1660.81 1480.67 1745.03C1632.02 1851.7 1680.23 2061.94 1585.68 2241.21C1505.55 2393.12 1346.23 2478.44 1190.65 2467.78C1183.71 2485.1 1176.9 2502.51 1169.47 2519.66C1149.32 2566.21 1126.41 2611.79 1103.48 2657.32C1117.91 2659.93 1132.4 2661.99 1146.93 2663.45C1146.75 2666.48 1146.6 2669.51 1146.67 2672.58C1147.93 2732.48 1185.73 2783.36 1293.76 2777.83C1353.52 2774.77 1363.77 2713.93 1362.51 2654.03C1362.45 2650.9 1362.18 2647.84 1361.85 2644.8C1391.75 2636.59 1421.11 2626.1 1449.69 2613.42C1451.05 2616.09 1452.46 2618.74 1454.08 2621.32C1484.97 2670.63 1592.11 2691.57 1643.1 2657.18C1694.09 2622.8 1669.62 2546.12 1638.72 2496.81C1637.14 2494.28 1635.41 2491.92 1633.65 2489.59C1656.22 2467.85 1677.37 2444.25 1696.91 2418.94C1699.44 2420.46 1702 2421.96 1704.71 2423.27C1756.96 2448.79 1822.59 2425.34 1851.3 2370.91C1880.01 2316.48 1860.93 2251.66 1808.68 2226.15C1805.98 2224.83 1803.21 2223.72 1800.44 2222.66C1810.14 2192.54 1817.45 2162.18 1822.36 2131.82C1825.35 2131.81 1828.36 2131.76 1831.41 2131.5Z" fill="#D8DEE8"/>
<path d="M1760.9 2429.41C1813.15 2454.92 1878.78 2431.48 1907.5 2377.04C1936.21 2322.61 1917.13 2257.8 1864.88 2232.29C1862.17 2230.97 1859.41 2229.86 1856.63 2228.79C1866.34 2198.67 1873.65 2168.32 1878.55 2137.95C1881.55 2137.95 1884.55 2137.9 1887.6 2137.63C1947.21 2132.51 1994.51 2079.81 1993.25 2019.91C1991.99 1960.01 1942.65 1915.6 1883.04 1920.73C1879.93 1921 1876.87 1921.47 1873.82 1921.99C1867.59 1892.31 1859.05 1863.31 1848.29 1835.25C1851.03 1833.71 1853.75 1832.11 1856.42 1830.31C1907.41 1795.93 1923.7 1728.08 1892.81 1678.77C1861.91 1629.46 1795.54 1617.36 1744.55 1651.74C1741.93 1653.51 1739.48 1655.41 1737.05 1657.34C1716.9 1635.92 1694.81 1616.07 1670.9 1597.96C1672.58 1595.3 1674.22 1592.62 1675.71 1589.8C1704.42 1535.37 1685.34 1470.56 1633.09 1445.05C1580.84 1419.53 1515.21 1442.98 1486.5 1497.41C1485.01 1500.23 1483.73 1503.1 1482.5 1505.96C1453.19 1498.1 1423.49 1492.66 1393.63 1489.66C1393.82 1486.63 1393.96 1483.6 1393.9 1480.53C1392.64 1420.64 1343.3 1376.23 1283.69 1381.35C1224.09 1386.48 1176.79 1439.19 1178.05 1499.08C1178.11 1502.21 1178.39 1505.27 1178.71 1508.31C1148.81 1516.52 1119.45 1527.01 1090.87 1539.69C1089.51 1537.02 1088.1 1534.37 1086.49 1531.79C1055.6 1482.48 989.215 1470.38 938.226 1504.76C887.237 1539.15 870.947 1607 901.839 1656.3C903.422 1658.83 905.155 1661.19 906.916 1663.52C884.337 1685.26 863.191 1708.86 843.652 1734.17C841.124 1732.65 838.562 1731.16 835.854 1729.84C783.605 1704.32 717.974 1727.77 689.262 1782.2C660.549 1836.64 679.631 1901.45 731.88 1926.96C734.588 1928.28 737.349 1929.39 740.12 1930.45C730.42 1960.57 723.107 1990.93 718.205 2021.29C715.212 2021.3 712.204 2021.35 709.152 2021.61C649.549 2026.73 602.25 2079.44 603.51 2139.34C604.768 2199.24 654.111 2243.64 713.716 2238.51C716.829 2238.25 719.89 2237.77 722.933 2237.25C729.164 2266.93 737.701 2295.93 748.468 2323.99C745.729 2325.53 742.998 2327.13 740.335 2328.93C689.346 2363.31 673.055 2431.16 703.947 2480.47C734.841 2529.78 801.22 2541.88 852.209 2507.5C854.823 2505.74 857.281 2503.83 859.71 2501.9C879.858 2523.32 901.951 2543.17 925.855 2561.29C924.177 2563.94 922.531 2566.62 921.044 2569.45C892.333 2623.88 911.414 2688.69 963.663 2714.2C1015.91 2739.71 1081.55 2716.27 1110.25 2661.83C1111.74 2659.01 1113.02 2656.15 1114.26 2653.28C1143.56 2661.15 1173.26 2666.59 1203.12 2669.59C1202.94 2672.61 1202.79 2675.64 1202.86 2678.71C1204.12 2738.61 1253.46 2783.01 1313.06 2777.89C1372.67 2772.77 1419.97 2720.06 1418.7 2660.16C1418.64 2657.03 1418.37 2653.97 1418.04 2650.93C1447.94 2642.73 1477.3 2632.24 1505.88 2619.55C1507.24 2622.22 1508.65 2624.88 1510.27 2627.45C1541.16 2676.77 1607.54 2688.87 1658.53 2654.48C1709.52 2620.1 1725.81 2552.25 1694.92 2502.94C1693.33 2500.41 1691.6 2498.05 1689.84 2495.72C1712.42 2473.99 1733.57 2450.39 1753.1 2425.07C1755.63 2426.6 1758.2 2428.09 1760.9 2429.41ZM1109.63 2437.47C919.921 2344.85 850.64 2109.54 954.888 1911.9C1059.14 1714.27 1297.43 1629.14 1487.13 1721.77C1676.84 1814.4 1746.12 2049.71 1641.87 2247.34C1537.63 2444.98 1299.33 2530.1 1109.63 2437.47Z" fill="white"/>
<path d="M2462.95 4078.62H2060.64C1798.28 4078.62 1584.84 3873.27 1584.84 3620.85V3506.04C1584.84 3304.47 1480.29 3115.47 1305.15 3000.44C1097.06 2863.77 924.279 2682.01 805.493 2474.8C682.748 2260.69 617.873 2018.82 617.873 1775.33C617.873 1372.92 788.908 994.606 1099.48 710.086C1409.96 425.643 1822.74 268.994 2261.79 268.994C2700.84 268.994 3113.63 425.643 3424.11 710.086C3734.68 994.608 3905.71 1372.92 3905.71 1775.33C3905.71 2018.82 3840.84 2260.69 3718.09 2474.8C3599.31 2682.01 3426.53 2863.77 3218.43 3000.44C3043.3 3115.46 2938.74 3304.47 2938.74 3506.04V3620.85C2938.74 3873.26 2725.31 4078.62 2462.95 4078.62ZM2261.79 281.218C1826.02 281.218 1416.35 436.672 1108.24 718.938C800.221 1001.13 630.582 1376.29 630.582 1775.33C630.582 2016.76 694.912 2256.59 816.621 2468.89C934.451 2674.44 1105.86 2854.75 1312.31 2990.34C1490.92 3107.65 1597.55 3300.43 1597.55 3506.04V3620.85C1597.55 3866.52 1805.29 4066.39 2060.64 4066.39H2462.95C2718.3 4066.39 2926.04 3866.52 2926.04 3620.85V3506.04C2926.04 3300.43 3032.67 3107.65 3211.27 2990.34C3417.73 2854.75 3589.14 2674.44 3706.97 2468.89C3828.68 2256.59 3893.01 2016.76 3893.01 1775.33C3893.01 1376.3 3723.37 1001.13 3415.35 718.938C3107.23 436.672 2697.57 281.218 2261.79 281.218Z" fill="white"/>
<path d="M3008.85 3261.69C3043.39 3261.69 3071.39 3234.75 3071.39 3201.52C3071.39 3168.29 3043.39 3141.35 3008.85 3141.35C2974.31 3141.35 2946.31 3168.29 2946.31 3201.52C2946.31 3234.75 2974.31 3261.69 3008.85 3261.69Z" fill="white"/>
<path d="M2528.93 3595.98C2555.25 3595.98 2576.58 3575.45 2576.58 3550.13C2576.58 3524.81 2555.25 3504.29 2528.93 3504.29C2502.62 3504.29 2481.28 3524.81 2481.28 3550.13C2481.28 3575.45 2502.62 3595.98 2528.93 3595.98Z" fill="white"/>
<path d="M2522.91 3566.86L2515.19 3557.15L3006.42 3195.61L3008.22 3195.43L3722.39 3125.74L3723.67 3137.91L3011.29 3207.43L2522.91 3566.86Z" fill="white"/>
<path d="M3741.43 3183.71C3765.74 3174.02 3777.29 3147.2 3767.22 3123.81C3757.14 3100.42 3729.27 3089.31 3704.96 3099C3680.64 3108.69 3669.1 3135.51 3679.17 3158.9C3689.24 3182.3 3717.11 3193.4 3741.43 3183.71Z" fill="white"/>
<path d="M3640.24 2971.59C3640.24 2971.59 3523.71 3028.56 3521.81 3037.66C3519.9 3046.75 3596.75 3034.61 3628.11 3035.92C3659.49 3037.23 3685.29 3027.26 3682.45 3012.96C3679.61 2998.67 3668.63 2962.72 3668.63 2962.72L3640.24 2971.59Z" fill="url(#paint34_linear_5_686)"/>
<path d="M3635.97 2925.35L3643.06 2981.79C3643.06 2981.79 3661.51 2988.86 3673.9 2980.51L3679.19 2918.61L3635.97 2925.35Z" fill="url(#paint35_linear_5_686)"/>
<path d="M4184.74 2926.71L4198.3 2950.12C4202.09 2956.66 4203.22 2964.54 4201.4 2972C4196.66 2991.47 4187.2 3029.4 4183.07 3039.29C4177.45 3052.76 4102.04 3060.77 4102.04 3060.77C4102.04 3060.77 4095.31 3050.59 4110.97 3038.3C4126.63 3026 4136.69 3024.07 4142.22 3005.92C4147.74 2987.78 4151.43 2936.46 4151.43 2936.46L4184.74 2926.71Z" fill="url(#paint36_linear_5_686)"/>
<path d="M4128.33 2867.23C4133.28 2871.47 4157.5 2950.55 4157.5 2950.55C4157.5 2950.55 4165.34 2961.33 4180.23 2945.42C4195.12 2929.51 4186.97 2938.28 4186.97 2938.28L4184.18 2860.5L4128.33 2867.23Z" fill="url(#paint37_linear_5_686)"/>
<path d="M3571.86 1791.46C3565.71 1959.81 3565.46 2142.73 3574.47 2338.13C3584.61 2558.17 3604.98 2761.55 3630.66 2945.9C3640.2 2946.23 3650.23 2946.28 3660.71 2945.97C3667.79 2945.76 3674.64 2945.38 3681.27 2944.89C3694.59 2906.67 3710.35 2856.4 3724.45 2796.35C3739.28 2733.21 3748.22 2676.57 3754.59 2622.42C3777.03 2431.73 3750.74 2415.09 3768.95 2273.78C3785.07 2148.62 3808.01 2143.73 3834.94 1966.03C3864.15 1773.23 3842.4 1744.3 3831.83 1733.85C3786.8 1689.37 3681.05 1719.66 3571.86 1791.46Z" fill="url(#paint38_linear_5_686)"/>
<path opacity="0.3" d="M3831.82 1733.86C3788.88 1691.43 3690.68 1717.11 3586.96 1781.87C3706.28 1920.56 3719.29 2010.52 3704.98 2068.9C3688.82 2134.87 3639.66 2153.87 3639.85 2226.02C3640.08 2314.67 3714.46 2338.15 3712.88 2431.97C3711.83 2494 3679.15 2493.36 3671.43 2569.98C3662.3 2660.63 3705 2691.87 3691.17 2758.94C3685.22 2787.8 3668.24 2825.5 3619.87 2864.35C3623.36 2891.89 3626.93 2919.16 3630.66 2945.91C3640.2 2946.23 3650.23 2946.29 3660.71 2945.97C3667.79 2945.76 3674.64 2945.39 3681.27 2944.9C3694.59 2906.67 3710.34 2856.4 3724.45 2796.35C3739.27 2733.21 3748.22 2676.58 3754.59 2622.42C3777.03 2431.73 3750.74 2415.1 3768.95 2273.78C3785.07 2148.62 3808.01 2143.73 3834.94 1966.04C3864.15 1773.23 3842.4 1744.3 3831.82 1733.86Z" fill="url(#paint39_linear_5_686)"/>
<path d="M3645.77 1788.63C3748.52 1950.35 3859.33 2151.62 3958.44 2392.53C4033.33 2574.59 4087.65 2745.52 4127.53 2897.87C4132.93 2900.55 4145.66 2905.92 4161.93 2903.6C4184.11 2900.45 4197.41 2885.21 4200.89 2880.96C4217.12 2771.75 4215.33 2679.26 4209.82 2612.51C4206.29 2569.77 4200.05 2498.6 4174.73 2410.73C4146.36 2312.31 4126.86 2306.78 4089.86 2202.66C4051.45 2094.58 4060.75 2067.61 4023.97 1932.36C4008.86 1876.8 3983.57 1794.11 3941.83 1695.21C3843.14 1726.35 3744.46 1757.49 3645.77 1788.63Z" fill="url(#paint40_linear_5_686)"/>
<path d="M3522.26 1073.72C3440.37 987.88 3396.39 984.67 3382.6 922.233C3368.96 860.474 3392.08 773.469 3450.92 738.806C3455.24 736.26 3499.76 710.951 3546.28 728.566C3616.62 755.217 3598.56 844.872 3669.36 905.342C3729.35 956.584 3811.08 950.943 3866.39 947.122C3999.57 937.926 4037.5 868.042 4098.01 895.507C4173.84 929.923 4148.19 1055.04 4225.64 1082.14C4277.4 1100.24 4304.26 1049.74 4377.99 1052.11C4464.63 1054.88 4541.06 1128.26 4575.02 1203.01C4637.09 1339.65 4567.7 1503.83 4482.43 1593.53C4412.39 1667.22 4284.39 1740.35 4204.07 1698.16C4140.61 1664.83 4140.33 1577.09 4079.76 1570.96C4036.7 1566.6 4023.7 1609.62 3968.71 1619.92C3878.41 1636.82 3797.45 1542.52 3775.36 1516.8C3712.42 1443.48 3733.95 1411.74 3663.08 1278.33C3635.09 1225.63 3594.78 1149.73 3522.26 1073.72Z" fill="url(#paint41_linear_5_686)"/>
<path d="M2805.89 808.678C2805.89 808.678 2786.72 782.868 2774.56 763.69C2762.39 744.51 2705.6 690.623 2705.6 690.623C2705.6 690.623 2701.28 699.175 2713.5 712.857C2725.73 726.539 2751.45 749.988 2745.54 759.908C2739.62 769.83 2722.97 778.573 2734.99 797.306C2747 816.038 2767.9 803.245 2778.58 818.271C2789.27 833.295 2800.21 849.686 2800.21 849.686L2805.89 808.678Z" fill="url(#paint42_linear_5_686)"/>
<path d="M2813.38 791.837C2800.45 812.886 2787.51 833.923 2774.58 854.97C2788.05 897.275 2811.25 956.017 2851.9 1018C2869.84 1045.34 2925.44 1125.54 3019.57 1190.04C3147.71 1277.83 3381.16 1359.75 3449.5 1266.32C3510.48 1182.95 3412.05 998.161 3393.93 964.985C3357.24 983.488 3296.96 1008.03 3219.47 1013.83C3194.08 1015.74 3127.98 1020.07 3053.52 995.462C2915.7 949.921 2839.19 834.98 2813.38 791.837Z" fill="url(#paint43_linear_5_686)"/>
<path d="M3244.42 1073.91C3250.87 1105.08 3351.65 1088.36 3372.45 1144.95C3383.61 1175.32 3359.92 1194.61 3358.92 1246.18C3357.81 1303.92 3386.41 1336.71 3408.35 1382.12C3440.49 1448.65 3440.61 1513.86 3440.85 1644.27C3441.18 1829.91 3398.52 1867.24 3434.94 1927.07C3482.34 2004.95 3596.17 2009.92 3626.93 2011.27C3732.15 2015.87 3744.63 1962.09 3858.8 1955.67C3989.19 1948.33 4007.76 2016.52 4101.01 1987.44C4186.2 1960.87 4214.86 1890.2 4281.19 1904.83C4322.65 1913.97 4333.64 1946.48 4372.76 1942.96C4412.07 1939.42 4452.7 1901.95 4455.47 1863.52C4458.91 1815.75 4404.64 1755.58 4319.59 1755.49C4285.8 1768.25 4229.78 1783.04 4167.47 1766.61C4065.39 1739.69 4012.29 1646.31 3953.32 1542.6C3912.53 1470.85 3837.54 1338.98 3836.65 1166.06C3836.28 1094.75 3848.81 1073.89 3830.74 1035.78C3772.08 912.016 3544.48 930.484 3525.21 932.272C3370.13 946.654 3236.63 1036.26 3244.42 1073.91Z" fill="url(#paint44_linear_5_686)"/>
<path d="M3193.58 1229.67L3479.45 1241.67C3482.59 1241.8 3485.34 1243.97 3486.4 1247.15L3621.07 1649.03C3623 1654.8 3616.94 1669.22 3611.28 1668.56L3328.65 1627.2C3325.77 1626.87 3323.31 1624.83 3322.27 1621.93L3182.16 1246.82C3180.18 1241.25 3188.04 1229.44 3193.58 1229.67Z" fill="url(#paint45_linear_5_686)"/>
<path d="M3189.14 1239.51L3475.01 1251.51C3478.15 1251.64 3480.9 1253.81 3481.97 1256.98L3616.63 1658.87C3618.56 1664.64 3614.22 1670.59 3608.56 1669.93L3324.21 1637.04C3321.34 1636.71 3318.88 1634.67 3317.84 1631.77L3181.64 1250.77C3179.65 1245.21 3183.6 1239.27 3189.14 1239.51Z" fill="url(#paint46_linear_5_686)"/>
<path d="M3267.31 1254.47L3256.29 1222.44C3255.3 1219.54 3257.29 1216.47 3260.16 1216.47H3364.21C3366.01 1216.47 3367.59 1217.72 3368.14 1219.56L3378.6 1255C3379.46 1257.91 3377.39 1260.86 3374.55 1260.77L3271.05 1257.37C3269.37 1257.31 3267.89 1256.17 3267.31 1254.47Z" fill="url(#paint47_linear_5_686)"/>
<path opacity="0.3" d="M3443.28 1572.64C3424.72 1507.87 3455.28 1465.69 3424.08 1415.36C3379.97 1344.16 3285.19 1374.29 3255.72 1316.85C3247.77 1301.36 3243.97 1278.27 3254.69 1242.25L3189.14 1239.51C3183.6 1239.28 3179.65 1245.2 3181.64 1250.77L3317.84 1631.77C3318.87 1634.67 3321.33 1636.7 3324.21 1637.04L3497.02 1657.03C3466.24 1628.16 3450.83 1598.97 3443.28 1572.64Z" fill="url(#paint48_linear_5_686)"/>
<path d="M3652.04 1524.52C3652.04 1524.52 3608.84 1515.27 3592.18 1503.99C3575.52 1492.71 3557.86 1474.58 3533.29 1475.57C3508.73 1476.56 3484.01 1489.99 3495.36 1493.08C3506.71 1496.16 3527.9 1520.37 3544.1 1529.91C3560.29 1539.44 3597.29 1540.3 3604.18 1539.78C3611.07 1539.26 3638.27 1556.86 3638.27 1556.86L3652.04 1524.52Z" fill="url(#paint49_linear_5_686)"/>
<path opacity="0.3" d="M4319.59 1755.49C4285.8 1768.25 4229.78 1783.04 4167.47 1766.61C4065.39 1739.69 4012.3 1646.31 3953.33 1542.6C3912.53 1470.85 3837.55 1338.98 3836.65 1166.06C3836.28 1094.75 3848.81 1073.89 3830.75 1035.78C3827.87 1029.72 3824.48 1024.09 3820.84 1018.69C3776.28 1051.09 3759 1083.54 3753.95 1112.04C3741.65 1181.39 3799.61 1238.1 3769.45 1297.92C3740.57 1355.22 3669.15 1339.37 3654.26 1388.48C3638.19 1441.47 3717.23 1473.43 3720.72 1555.3C3724.9 1653.56 3615.07 1701.68 3634.32 1767.4C3651 1824.36 3742.92 1820.26 3742.87 1850.81C3742.81 1887.13 3745.71 1812.13 3634.32 1767.4C3600.56 1753.85 3441.68 1866.67 3422.37 1846.87C3418.21 1878.89 3418.96 1900.82 3434.94 1927.07C3482.34 2004.95 3596.17 2009.92 3626.94 2011.27C3732.15 2015.87 3744.64 1962.09 3858.81 1955.67C3989.2 1948.33 4007.76 2016.52 4101.02 1987.44C4186.2 1960.87 4214.87 1890.2 4281.2 1904.83C4322.65 1913.97 4333.65 1946.48 4372.76 1942.96C4412.07 1939.42 4452.7 1901.95 4455.47 1863.52C4458.91 1815.75 4404.64 1755.58 4319.59 1755.49Z" fill="url(#paint50_linear_5_686)"/>
<path d="M3650.93 1505.26C3637.64 1530.68 3624.35 1556.1 3611.06 1581.52C3631.55 1592.32 3850.64 1703.83 4009.45 1593.43C4029.08 1579.79 4081.27 1543.51 4109.39 1472.47C4140.39 1394.17 4123.01 1321.38 4111.72 1274.09C4083.8 1157.05 4004.83 1034.27 3892.77 984.944C3849.97 966.1 3799.16 956.568 3751.36 947.604C3710.83 940 3647.12 930.681 3645.77 937.28C3645.1 940.501 3659.91 944.614 3670.19 950.872C3733.32 989.29 3653.16 1147.96 3727.36 1224.05C3798.45 1296.94 3890.7 1284.9 3905.57 1350.96C3912.48 1381.67 3898.17 1409.3 3891.8 1421.61C3856.23 1490.28 3760.5 1521.02 3650.93 1505.26Z" fill="url(#paint51_linear_5_686)"/>
<path d="M3502.23 818.155C3502.23 818.155 3527.96 898.62 3560 911.154C3592.05 923.676 3642.71 938.058 3649.07 943.635C3655.42 949.199 3478.82 1010.89 3379.79 982.498C3408.01 969.217 3415.56 964.972 3415.56 964.972C3423.09 960.728 3437.15 952.826 3450.33 940.265C3459.31 931.719 3473.36 915.808 3483.93 889.371L3474.68 843.688L3502.23 818.155Z" fill="url(#paint52_linear_5_686)"/>
<path d="M3513.78 853.283C3513.78 853.283 3498.87 888.944 3463.5 883.47C3431.83 878.57 3433.44 792.877 3454.96 778.287C3462.13 773.423 3476.69 771.57 3487.5 775.826C3495.09 778.816 3517.71 798.743 3512.67 827.935C3519.65 823.941 3526.6 824.566 3529.01 828.157C3532.07 832.708 3527.11 840.967 3525.99 842.838C3522.1 849.325 3516.43 852.172 3513.78 853.283Z" fill="url(#paint53_linear_5_686)"/>
<path d="M3671.14 4417.44L4089.7 4108.16L4019.08 4024.07L3601.26 4334.24L3671.14 4417.44Z" fill="url(#paint54_linear_5_686)"/>
<path d="M3796.78 4606.79L4258.75 4268.75L4130.77 4116.38L3670.29 4456.19L3796.78 4606.79Z" fill="url(#paint55_linear_5_686)"/>
<path d="M3964.52 4996.33H4779.93L4602.87 4570.96L4275.28 4294.67L3814.8 4634.48L3964.52 4996.33Z" fill="url(#paint56_linear_5_686)"/>
<path d="M3001.17 3311.64L2979.52 3285.87L3000.84 3269.21L3596.96 3978.93L3635.54 3973.39L3650.01 3939.07L3053.08 3228.39L3074.47 3211.67L3096.17 3237.5L4029.48 3691.79L4036.01 3974.63L3816.76 4137.6L3763.49 4177.19L3547.23 4337.93L3263.56 4266.63L3001.17 3311.64Z" fill="url(#paint57_linear_5_686)"/>
<defs>
<linearGradient id="paint0_linear_5_686" x1="4500.03" y1="1401.98" x2="1975.63" y2="4695.69" gradientUnits="userSpaceOnUse">
<stop stop-color="#FF9085"/>
<stop offset="1" stop-color="#FB6FBB"/>
</linearGradient>
<linearGradient id="paint1_linear_5_686" x1="4536.25" y1="2626.24" x2="2457.81" y2="4391.27" gradientUnits="userSpaceOnUse">
<stop offset="0.0036" stop-color="#E38DDD"/>
<stop offset="1" stop-color="#9571F6"/>
</linearGradient>
<linearGradient id="paint2_linear_5_686" x1="4285.38" y1="3053.92" x2="2053.51" y2="6388.47" gradientUnits="userSpaceOnUse">
<stop stop-color="#FF9085"/>
<stop offset="1" stop-color="#FB6FBB"/>
</linearGradient>
<linearGradient id="paint3_linear_5_686" x1="2227.69" y1="5003.95" x2="2254.64" y2="4779.84" gradientUnits="userSpaceOnUse">
<stop offset="0.0036" stop-color="#26264F"/>
<stop offset="1" stop-color="#444B8C"/>
</linearGradient>
<linearGradient id="paint4_linear_5_686" x1="2108.07" y1="4799.93" x2="2382.1" y2="4287.26" gradientUnits="userSpaceOnUse">
<stop offset="0.0036" stop-color="#26264F"/>
<stop offset="1" stop-color="#444B8C"/>
</linearGradient>
<linearGradient id="paint5_linear_5_686" x1="1779.16" y1="4561.23" x2="2744.43" y2="4561.23" gradientUnits="userSpaceOnUse">
<stop offset="0.0036" stop-color="#26264F"/>
<stop offset="1" stop-color="#444B8C"/>
</linearGradient>
<linearGradient id="paint6_linear_5_686" x1="2135.76" y1="4662.29" x2="2405.89" y2="4122.09" gradientUnits="userSpaceOnUse">
<stop offset="0.0036" stop-color="#26264F"/>
<stop offset="1" stop-color="#444B8C"/>
</linearGradient>
<linearGradient id="paint7_linear_5_686" x1="1735.91" y1="4404.7" x2="2787.2" y2="4404.7" gradientUnits="userSpaceOnUse">
<stop offset="0.0036" stop-color="#26264F"/>
<stop offset="1" stop-color="#444B8C"/>
</linearGradient>
<linearGradient id="paint8_linear_5_686" x1="1720.34" y1="4221.95" x2="2803.25" y2="4221.95" gradientUnits="userSpaceOnUse">
<stop offset="0.0036" stop-color="#26264F"/>
<stop offset="1" stop-color="#444B8C"/>
</linearGradient>
<linearGradient id="paint9_linear_5_686" x1="2234.9" y1="4143.36" x2="2333.94" y2="3661.43" gradientUnits="userSpaceOnUse">
<stop offset="0.0036" stop-color="#26264F"/>
<stop offset="1" stop-color="#444B8C"/>
</linearGradient>
<linearGradient id="paint10_linear_5_686" x1="2030.11" y1="1462.99" x2="4030.87" y2="4764.44" gradientUnits="userSpaceOnUse">
<stop stop-color="#FCB148"/>
<stop offset="0.0521" stop-color="#FDBA46"/>
<stop offset="0.1424" stop-color="#FFC244"/>
<stop offset="0.3183" stop-color="#FFC444"/>
<stop offset="0.4849" stop-color="#FDB946"/>
<stop offset="0.7754" stop-color="#F99C4D"/>
<stop offset="0.8658" stop-color="#F8924F"/>
<stop offset="1" stop-color="#F8924F"/>
</linearGradient>
<linearGradient id="paint11_linear_5_686" x1="1643.6" y1="3951.43" x2="2046.09" y2="2729.34" gradientUnits="userSpaceOnUse">
<stop offset="0.494" stop-color="#EBEFF2"/>
<stop offset="1" stop-color="white"/>
</linearGradient>
<linearGradient id="paint12_linear_5_686" x1="2056.03" y1="4087.26" x2="2458.53" y2="2865.17" gradientUnits="userSpaceOnUse">
<stop offset="0.494" stop-color="#EBEFF2"/>
<stop offset="1" stop-color="white"/>
</linearGradient>
<linearGradient id="paint13_linear_5_686" x1="1493.37" y1="3901.95" x2="1895.86" y2="2679.86" gradientUnits="userSpaceOnUse">
<stop offset="0.494" stop-color="#EBEFF2"/>
<stop offset="1" stop-color="white"/>
</linearGradient>
<linearGradient id="paint14_linear_5_686" x1="2104.35" y1="734.512" x2="1713.55" y2="4082.01" gradientUnits="userSpaceOnUse">
<stop stop-color="#FCB148"/>
<stop offset="0.0521" stop-color="#FDBA46"/>
<stop offset="0.1424" stop-color="#FFC244"/>
<stop offset="0.3183" stop-color="#FFC444"/>
<stop offset="0.4849" stop-color="#FDB946"/>
<stop offset="0.7754" stop-color="#F99C4D"/>
<stop offset="0.8658" stop-color="#F8924F"/>
<stop offset="1" stop-color="#F8924F"/>
</linearGradient>
<linearGradient id="paint15_linear_5_686" x1="1869.96" y1="2827.59" x2="2811.7" y2="724.633" gradientUnits="userSpaceOnUse">
<stop offset="0.0054" stop-color="#D8DEE8"/>
<stop offset="1" stop-color="#F4F7FA"/>
</linearGradient>
<linearGradient id="paint16_linear_5_686" x1="4151.97" y1="1637.61" x2="2058.54" y2="4369.03" gradientUnits="userSpaceOnUse">
<stop stop-color="#FF9085"/>
<stop offset="1" stop-color="#FB6FBB"/>
</linearGradient>
<linearGradient id="paint17_linear_5_686" x1="1576.41" y1="1897.11" x2="3282.84" y2="1897.11" gradientUnits="userSpaceOnUse">
<stop stop-color="#FCB148"/>
<stop offset="0.0521" stop-color="#FDBA46"/>
<stop offset="0.1424" stop-color="#FFC244"/>
<stop offset="0.3183" stop-color="#FFC444"/>
<stop offset="0.4849" stop-color="#FDB946"/>
<stop offset="0.7754" stop-color="#F99C4D"/>
<stop offset="0.8658" stop-color="#F8924F"/>
<stop offset="1" stop-color="#F8924F"/>
</linearGradient>
<linearGradient id="paint18_linear_5_686" x1="860.68" y1="4583.37" x2="930.561" y2="4571" gradientUnits="userSpaceOnUse">
<stop offset="0.0036" stop-color="#F36F56"/>
<stop offset="1" stop-color="#FFC444"/>
</linearGradient>
<linearGradient id="paint19_linear_5_686" x1="946.856" y1="4283.52" x2="878.436" y2="4934.17" gradientUnits="userSpaceOnUse">
<stop stop-color="#444B8C"/>
<stop offset="0.9964" stop-color="#26264F"/>
</linearGradient>
<linearGradient id="paint20_linear_5_686" x1="1084.37" y1="3993.33" x2="500.885" y2="4491.69" gradientUnits="userSpaceOnUse">
<stop stop-color="#AB316D"/>
<stop offset="1" stop-color="#792D3D"/>
</linearGradient>
<linearGradient id="paint21_linear_5_686" x1="369.62" y1="4209.45" x2="165.61" y2="4754.04" gradientUnits="userSpaceOnUse">
<stop stop-color="#444B8C"/>
<stop offset="0.9964" stop-color="#26264F"/>
</linearGradient>
<linearGradient id="paint22_linear_5_686" x1="54.3453" y1="4823.52" x2="137.747" y2="4831.66" gradientUnits="userSpaceOnUse">
<stop offset="0.0036" stop-color="#F36F56"/>
<stop offset="1" stop-color="#FFC444"/>
</linearGradient>
<linearGradient id="paint23_linear_5_686" x1="1361.03" y1="4400.23" x2="622.765" y2="4141.33" gradientUnits="userSpaceOnUse">
<stop stop-color="#AB316D"/>
<stop offset="1" stop-color="#792D3D"/>
</linearGradient>
<linearGradient id="paint24_linear_5_686" x1="589.04" y1="3991.85" x2="185.495" y2="4833.19" gradientUnits="userSpaceOnUse">
<stop stop-color="#AB316D"/>
<stop offset="1" stop-color="#792D3D"/>
</linearGradient>
<linearGradient id="paint25_linear_5_686" x1="535.273" y1="3988.39" x2="140.108" y2="4812.26" gradientUnits="userSpaceOnUse">
<stop stop-color="#AB316D"/>
<stop offset="1" stop-color="#792D3D"/>
</linearGradient>
<linearGradient id="paint26_linear_5_686" x1="855.368" y1="3130.1" x2="870.178" y2="2462.44" gradientUnits="userSpaceOnUse">
<stop stop-color="#FF9085"/>
<stop offset="1" stop-color="#FB6FBB"/>
</linearGradient>
<linearGradient id="paint27_linear_5_686" x1="935.035" y1="2686.6" x2="925.525" y2="2830.79" gradientUnits="userSpaceOnUse">
<stop offset="0.0036" stop-color="#F36F56"/>
<stop offset="1" stop-color="#FFC444"/>
</linearGradient>
<linearGradient id="paint28_linear_5_686" x1="639.921" y1="2939.64" x2="644.706" y2="2769.46" gradientUnits="userSpaceOnUse">
<stop stop-color="#444B8C"/>
<stop offset="0.9964" stop-color="#26264F"/>
</linearGradient>
<linearGradient id="paint29_linear_5_686" x1="668.799" y1="2781.87" x2="713.763" y2="3480.77" gradientUnits="userSpaceOnUse">
<stop offset="0.0036" stop-color="#F36F56"/>
<stop offset="1" stop-color="#FFC444"/>
</linearGradient>
<linearGradient id="paint30_linear_5_686" x1="542.738" y1="2859.84" x2="710.687" y2="2966.89" gradientUnits="userSpaceOnUse">
<stop offset="0.0036" stop-color="#F36F56"/>
<stop offset="1" stop-color="#FFC444"/>
</linearGradient>
<linearGradient id="paint31_linear_5_686" x1="1352.72" y1="2820.96" x2="1325.69" y2="2910.75" gradientUnits="userSpaceOnUse">
<stop offset="0.0036" stop-color="#F36F56"/>
<stop offset="1" stop-color="#FFC444"/>
</linearGradient>
<linearGradient id="paint32_linear_5_686" x1="306.37" y1="4061.85" x2="1147.67" y2="2784.14" gradientUnits="userSpaceOnUse">
<stop stop-color="#FF9085"/>
<stop offset="1" stop-color="#FB6FBB"/>
</linearGradient>
<linearGradient id="paint33_linear_5_686" x1="1067.23" y1="3106.71" x2="900.549" y2="4009.97" gradientUnits="userSpaceOnUse">
<stop stop-color="#FF9085"/>
<stop offset="1" stop-color="#FB6FBB"/>
</linearGradient>
<linearGradient id="paint34_linear_5_686" x1="3581.51" y1="2772.72" x2="3611.58" y2="3170.5" gradientUnits="userSpaceOnUse">
<stop offset="0.0036" stop-color="#26264F"/>
<stop offset="1" stop-color="#444B8C"/>
</linearGradient>
<linearGradient id="paint35_linear_5_686" x1="3658.62" y1="2994.58" x2="3653.17" y2="2583.9" gradientUnits="userSpaceOnUse">
<stop stop-color="#893976"/>
<stop offset="1" stop-color="#311944"/>
</linearGradient>
<linearGradient id="paint36_linear_5_686" x1="4128.28" y1="2726.22" x2="4158.43" y2="3125.04" gradientUnits="userSpaceOnUse">
<stop offset="0.0036" stop-color="#26264F"/>
<stop offset="1" stop-color="#444B8C"/>
</linearGradient>
<linearGradient id="paint37_linear_5_686" x1="4159.99" y1="2987.15" x2="4154.54" y2="2576.52" gradientUnits="userSpaceOnUse">
<stop stop-color="#893976"/>
<stop offset="1" stop-color="#311944"/>
</linearGradient>
<linearGradient id="paint38_linear_5_686" x1="3567.45" y1="2329.61" x2="3849.58" y2="2329.61" gradientUnits="userSpaceOnUse">
<stop stop-color="#AB316D"/>
<stop offset="1" stop-color="#792D3D"/>
</linearGradient>
<linearGradient id="paint39_linear_5_686" x1="3586.96" y1="2329.62" x2="3849.58" y2="2329.62" gradientUnits="userSpaceOnUse">
<stop stop-color="#AB316D"/>
<stop offset="1" stop-color="#792D3D"/>
</linearGradient>
<linearGradient id="paint40_linear_5_686" x1="3645.77" y1="2299.69" x2="4213.73" y2="2299.69" gradientUnits="userSpaceOnUse">
<stop stop-color="#AB316D"/>
<stop offset="1" stop-color="#792D3D"/>
</linearGradient>
<linearGradient id="paint41_linear_5_686" x1="3938.27" y1="1010.14" x2="4279.46" y2="1551.48" gradientUnits="userSpaceOnUse">
<stop offset="0.0036" stop-color="#26264F"/>
<stop offset="1" stop-color="#444B8C"/>
</linearGradient>
<linearGradient id="paint42_linear_5_686" x1="2704.86" y1="770.156" x2="2805.89" y2="770.156" gradientUnits="userSpaceOnUse">
<stop stop-color="#893976"/>
<stop offset="1" stop-color="#311944"/>
</linearGradient>
<linearGradient id="paint43_linear_5_686" x1="3182.52" y1="1215.39" x2="3601.43" y2="2775.54" gradientUnits="userSpaceOnUse">
<stop stop-color="#AA80F9"/>
<stop offset="0.9964" stop-color="#6165D7"/>
</linearGradient>
<linearGradient id="paint44_linear_5_686" x1="3707.25" y1="1074.49" x2="4126.15" y2="2634.65" gradientUnits="userSpaceOnUse">
<stop stop-color="#AA80F9"/>
<stop offset="0.9964" stop-color="#6165D7"/>
</linearGradient>
<linearGradient id="paint45_linear_5_686" x1="3445.44" y1="1379.6" x2="3278.46" y2="1667.26" gradientUnits="userSpaceOnUse">
<stop offset="0.0036" stop-color="#6165D7"/>
<stop offset="1" stop-color="#AA80F9"/>
</linearGradient>
<linearGradient id="paint46_linear_5_686" x1="3565.64" y1="1369.46" x2="3135.25" y2="1607.55" gradientUnits="userSpaceOnUse">
<stop stop-color="#FF9085"/>
<stop offset="1" stop-color="#FB6FBB"/>
</linearGradient>
<linearGradient id="paint47_linear_5_686" x1="3366.52" y1="1084" x2="3318.09" y2="1248.73" gradientUnits="userSpaceOnUse">
<stop offset="0.0036" stop-color="#26264F"/>
<stop offset="1" stop-color="#444B8C"/>
</linearGradient>
<linearGradient id="paint48_linear_5_686" x1="3548.71" y1="1342.44" x2="3120.5" y2="1579.32" gradientUnits="userSpaceOnUse">
<stop stop-color="#FF9085"/>
<stop offset="1" stop-color="#FB6FBB"/>
</linearGradient>
<linearGradient id="paint49_linear_5_686" x1="3492.52" y1="1516.19" x2="3652.04" y2="1516.19" gradientUnits="userSpaceOnUse">
<stop stop-color="#893976"/>
<stop offset="1" stop-color="#311944"/>
</linearGradient>
<linearGradient id="paint50_linear_5_686" x1="3420.22" y1="1515.12" x2="4455.62" y2="1515.12" gradientUnits="userSpaceOnUse">
<stop stop-color="#AA80F9"/>
<stop offset="0.9964" stop-color="#6165D7"/>
</linearGradient>
<linearGradient id="paint51_linear_5_686" x1="3755.44" y1="1061.56" x2="4174.35" y2="2621.72" gradientUnits="userSpaceOnUse">
<stop stop-color="#AA80F9"/>
<stop offset="0.9964" stop-color="#6165D7"/>
</linearGradient>
<linearGradient id="paint52_linear_5_686" x1="3508.73" y1="976.593" x2="3638.77" y2="653.631" gradientUnits="userSpaceOnUse">
<stop stop-color="#893976"/>
<stop offset="1" stop-color="#311944"/>
</linearGradient>
<linearGradient id="paint53_linear_5_686" x1="3456.19" y1="844.221" x2="3753.62" y2="556.93" gradientUnits="userSpaceOnUse">
<stop stop-color="#893976"/>
<stop offset="1" stop-color="#311944"/>
</linearGradient>
<linearGradient id="paint54_linear_5_686" x1="3622.11" y1="3432.27" x2="4898.93" y2="8303.77" gradientUnits="userSpaceOnUse">
<stop stop-color="#444B8C"/>
<stop offset="0.9964" stop-color="#26264F"/>
</linearGradient>
<linearGradient id="paint55_linear_5_686" x1="3695.69" y1="3412.99" x2="4972.51" y2="8284.46" gradientUnits="userSpaceOnUse">
<stop stop-color="#444B8C"/>
<stop offset="0.9964" stop-color="#26264F"/>
</linearGradient>
<linearGradient id="paint56_linear_5_686" x1="3841.66" y1="3205.9" x2="5327.04" y2="8873.11" gradientUnits="userSpaceOnUse">
<stop stop-color="#444B8C"/>
<stop offset="0.9964" stop-color="#26264F"/>
</linearGradient>
<linearGradient id="paint57_linear_5_686" x1="3497.72" y1="3464.88" x2="4774.54" y2="8336.36" gradientUnits="userSpaceOnUse">
<stop stop-color="#444B8C"/>
<stop offset="0.9964" stop-color="#26264F"/>
</linearGradient>
</defs>
</svg>
