<svg width="4829" height="4811" viewBox="0 0 4829 4811" fill="none" xmlns="http://www.w3.org/2000/svg">
<path d="M2125.52 480.594C1903.57 892.196 625.426 314.338 277.206 807.938C-64.2076 1291.88 493.036 1700.88 259.259 2805.58C133.531 3399.7 -96.4426 3606.49 43.9206 3972.27C188.722 4349.6 618.229 4611.01 1003.97 4702.5C1799.7 4891.21 2146.36 4294.49 3040.71 4501.05C3348.46 4572.13 3453.25 4676.47 3776.45 4677.31C3857.45 4677.53 4551.73 4691.65 4772.39 4349.97C4961 4057.91 4625.14 3783.63 4468.65 3156.64C4178.96 1996.06 4956.61 1441.01 4512.19 730.263C4249.02 309.389 3760.96 159.56 3572.96 101.848C3099.67 -43.4454 2378.82 -64.2539 2185.89 247.314C2123.53 348.032 2175.46 387.994 2125.52 480.594Z" fill="#F4F7FA"/>
<path d="M893.939 2610.66C858.562 2666.68 823.183 2708.76 786.076 2761.89C1060.91 2810.79 1316.89 2908.31 1595.43 2958.4C1493.73 2608 1359.66 2432.68 1562.03 2061.17C1656.99 1886.82 1895.25 1571.03 1863.89 1371.35C1828.18 1143.87 1667.43 1160.93 1751.4 984.959C1882.64 709.918 1816.43 369.95 1393.18 395.926C975.452 421.562 736.017 1481.22 888.358 1822.61C959.774 2139.09 1078.67 2318.1 893.939 2610.66Z" fill="url(#paint0_linear_17_115)"/>
<mask id="mask0_17_115" style="mask-type:luminance" maskUnits="userSpaceOnUse" x="842" y="393" width="1031" height="2296">
<path d="M1577.11 2031.55C1613.01 1966.2 1915.2 1536.21 1867.73 1364.43C1813.64 1168.73 1672.62 1152.57 1753.18 982.068C1879.09 715.58 1817.85 368.095 1393.51 395.287C974.717 422.123 736.112 1482.82 888.779 1820.43C953.635 2164.81 1089.11 2277.53 887.815 2630.2C746.817 2877.23 1442.12 2277.26 1577.11 2031.55Z" fill="white"/>
</mask>
<g mask="url(#mask0_17_115)">
<path d="M1217.87 2831.72L1212.57 2831.55C1215.89 2728.63 1211.16 2624.2 1206.59 2523.21L1204.87 2484.91C1201.29 2403.74 1199.54 2331.07 1198 2266.95C1197.12 2230.86 1196.3 2196.77 1195.24 2163.73C1191.97 2062.61 1189.49 1991.89 1188.27 1956.81C1187.86 1945.06 1187.59 1937.3 1187.47 1933.74C1178.62 1656.89 1268.45 1277.4 1316.71 1073.52C1321.94 1051.43 1326.62 1031.68 1330.53 1014.7C1397.8 723.006 1432.86 411.428 1434.73 88.6232L1440.04 88.6591C1438.16 411.845 1403.05 723.813 1335.7 1015.89C1331.78 1032.88 1327.1 1052.64 1321.87 1074.74C1273.67 1278.37 1183.94 1657.42 1192.77 1933.57C1192.89 1937.13 1193.16 1944.88 1193.56 1956.62C1194.79 1991.7 1197.27 2062.43 1200.53 2163.56C1201.6 2196.62 1202.42 2230.72 1203.29 2266.83C1204.84 2330.91 1206.59 2403.56 1210.17 2484.68L1211.89 2522.98C1216.47 2624.06 1221.2 2728.6 1217.87 2831.72Z" fill="#FCFDFE"/>
<path d="M1197.42 2319.91L1192.12 2319.82C1194.98 2136.61 1272.14 1922.54 1415.29 1700.76C1534.53 1516.02 1696.45 1332.44 1859.54 1197.08L1862.92 1201.16C1700.23 1336.19 1538.7 1519.33 1419.74 1703.63C1277.13 1924.58 1200.26 2137.69 1197.42 2319.91Z" fill="#FCFDFE"/>
<path d="M1313.4 1108.61L1308.71 1106.14C1382.5 965.92 1474.45 834.195 1563.38 706.81C1624.24 619.621 1687.18 529.466 1743.78 437.321L1748.3 440.09C1691.61 532.371 1628.63 622.592 1567.72 709.841C1478.89 837.097 1387.04 968.684 1313.4 1108.61Z" fill="#FCFDFE"/>
<path d="M1209.45 1610.39C1174.31 1392.81 1028.59 1117.41 897.61 1021.03L900.751 1016.77C1032.67 1113.82 1179.36 1390.82 1214.68 1609.54L1209.45 1610.39Z" fill="#FCFDFE"/>
</g>
<path d="M938.018 1815.85C894.675 2153.03 1099.83 2147.07 1362.08 2150.91C1220.47 2434.1 1093.01 2715.05 964.653 3000.61C789.176 2995.44 663.583 2988.46 635.943 2777.13C604.684 2538.12 594.569 2399.15 365.476 2265.04C136.383 2130.93 11.289 1886.51 174.315 1677.09C345.876 1456.7 240.458 1058.1 511.607 947.306C984.072 754.252 983.152 1464.75 938.018 1815.85Z" fill="url(#paint1_linear_17_115)"/>
<mask id="mask1_17_115" style="mask-type:luminance" maskUnits="userSpaceOnUse" x="100" y="915" width="1387" height="2088">
<path d="M1100.89 2984.02C900.139 3012.67 673.465 3046.19 635.9 2774.02C604.627 2547.43 594.774 2394.81 365.422 2264.3C136.071 2133.79 11.9482 1884.55 174.156 1677.1C344.855 1458.8 242.325 1055.14 511.57 947.489C980.713 759.91 989.018 1454.39 935.713 1820.43C882.408 2186.47 1152.29 2107.71 1377.03 2170.47C1683.84 2256.15 1263.08 2960.87 1100.89 2984.02Z" fill="white"/>
</mask>
<g mask="url(#mask1_17_115)">
<path d="M1072.03 2614.92C868.31 2413.34 704.158 2239.71 599.548 1995.15C499.433 1761.12 486.387 1541.27 555.926 1260.03C591.97 1114.25 601.316 1005.72 611.461 856.79L616.752 857.154C606.587 1006.36 597.22 1115.11 561.072 1261.3C491.832 1541.33 504.797 1760.18 604.421 1993.06C708.655 2236.74 872.455 2409.99 1075.76 2611.15L1072.03 2614.92Z" fill="#FCFDFE"/>
<path d="M629.653 2901.22L626.848 2896.72C706.873 2846.81 786.859 2811.31 871.373 2788.21C914.609 2776.39 956.096 2772.54 1005.09 2770.38L1005.32 2775.68C956.686 2777.81 915.534 2781.64 872.771 2793.33C788.76 2816.29 709.235 2851.58 629.653 2901.22Z" fill="#FCFDFE"/>
<path d="M671.909 2140.27C518.292 1987.69 296.827 1888 48.3115 1859.56L48.9133 1854.3C298.608 1882.87 521.186 1983.1 675.645 2136.5L671.909 2140.27Z" fill="#FCFDFE"/>
<path d="M517.128 1571.33L511.946 1570.22C517.285 1545.22 617.384 1355.53 709.28 1186.34C801.547 1016.47 903.112 834.807 913.359 824.845L917.052 828.647C908.343 837.109 817.227 998.708 713.935 1188.87C622.218 1357.73 522.352 1546.89 517.128 1571.33Z" fill="#FCFDFE"/>
</g>
<path d="M3812.49 2736.78C3812.49 3615.37 3100.52 4360.15 2192.17 4401.68C1248.77 4444.8 456.862 3718.22 456.862 2777.28C456.862 1836.33 1248.77 1090.64 2192.17 1110.99C3100.52 1130.59 3812.49 1858.18 3812.49 2736.78Z" fill="url(#paint2_linear_17_115)"/>
<path d="M3887.18 2736.78C3887.18 3615.37 3175.21 4360.15 2266.86 4401.68C1323.46 4444.8 531.554 3718.22 531.554 2777.28C531.554 1836.33 1323.46 1090.64 2266.86 1110.99C3175.21 1130.59 3887.18 1858.18 3887.18 2736.78Z" fill="url(#paint3_linear_17_115)"/>
<path d="M3793.57 2737.91C3793.57 3565.74 3121.99 4266.19 2266.86 4303.56C1380.74 4342.29 638.481 3658.95 638.481 2775.99C638.481 1893.02 1380.74 1191.76 2266.86 1209.1C3121.99 1225.84 3793.57 1910.07 3793.57 2737.91Z" fill="url(#paint4_linear_17_115)"/>
<path d="M2697.95 3078.69C2612.06 3078.69 2535.07 3116.55 2482.57 3176.42L1644.68 2790.13C1647.76 2773.29 1649.46 2755.97 1649.46 2738.24C1649.46 2719.38 1647.58 2700.96 1644.11 2683.12L2474.03 2289.84C2526.51 2355.6 2607.28 2397.78 2697.95 2397.78C2856.12 2397.78 2984.35 2269.55 2984.35 2111.38C2984.35 1953.2 2856.12 1824.98 2697.95 1824.98C2539.77 1824.98 2411.55 1953.2 2411.55 2111.38C2411.55 2120.75 2412.03 2130.01 2412.91 2139.15L1568.83 2539.13C1516.76 2485.33 1443.84 2451.83 1363.06 2451.83C1204.88 2451.83 1076.66 2580.06 1076.66 2738.24C1076.66 2896.41 1204.88 3024.64 1363.06 3024.64C1445.02 3024.64 1518.88 2990.15 1571.08 2934.98L2414.55 3323.82C2412.6 3337.3 2411.55 3351.07 2411.55 3365.09C2411.55 3523.27 2539.77 3651.49 2697.95 3651.49C2856.12 3651.49 2984.35 3523.27 2984.35 3365.09C2984.35 3206.92 2856.12 3078.69 2697.95 3078.69Z" fill="white"/>
<path opacity="0.3" d="M1535.7 2043.49C1479.92 1861.66 1482.48 1585.5 1754.51 1177.48C1052.74 1379.64 531.554 2016.02 531.554 2777.28C531.554 3718.22 1323.46 4444.8 2266.86 4401.68C2614.72 4385.78 2933.19 4267.04 3193.44 4078.64C3185.38 3827.7 3130.78 3553.02 2977.25 3299.65C2555.11 2603 1710.74 2613.96 1535.7 2043.49Z" fill="url(#paint5_linear_17_115)"/>
<path d="M3679.5 4346.55C3331.9 4371.47 3043.54 4105.5 3043.54 3753.17C3043.54 3400.84 3331.9 3104.72 3679.5 3093.29C4019.77 3082.1 4291.36 3348.95 4291.36 3687.93C4291.36 4026.91 4019.77 4322.16 3679.5 4346.55Z" fill="url(#paint6_linear_17_115)"/>
<path d="M3721.87 4360.67C3374.27 4385.59 3085.91 4119.62 3085.91 3767.3C3085.91 3414.97 3374.27 3118.85 3721.87 3107.42C4062.15 3096.23 4333.73 3363.08 4333.73 3702.06C4333.73 4041.03 4062.15 4336.28 3721.87 4360.67Z" fill="#D8DEE8"/>
<path d="M4292.28 3704.22C4292.28 4020.74 4039.41 4295.12 3721.87 4317.46C3397.96 4340.24 3130.57 4093.07 3130.57 3764.96C3130.57 3436.85 3397.96 3161.72 3721.87 3150.63C4039.41 3139.77 4292.28 3387.7 4292.28 3704.22Z" fill="white"/>
<mask id="mask2_17_115" style="mask-type:luminance" maskUnits="userSpaceOnUse" x="3175" y="3193" width="1076" height="1083">
<path d="M4250.72 3706.4C4250.72 3999.85 4016.11 4253.94 3721.87 4274.24C3422.18 4294.92 3175.11 4066.02 3175.11 3762.63C3175.11 3459.24 3422.18 3204.5 3721.87 3193.85C4016.11 3183.39 4250.72 3412.94 4250.72 3706.4Z" fill="white"/>
</mask>
<g mask="url(#mask2_17_115)">
<path d="M3652.06 3333.22C3549.21 3336.8 3451.64 3400.31 3408.32 3482.55C3356.13 3581.63 3425.82 3624.88 3391.79 3782.56C3360.44 3927.77 3287.25 3956.94 3299.35 4050.15C3312.6 4152.25 3412.6 4211.2 3452.12 4234.49C3629.9 4339.29 3907.75 4316.91 4048.88 4158.02C4060.67 4144.75 4158.09 4035.07 4131.78 3941.55C4108.25 3857.88 4007.37 3863.76 3986.48 3776.61C3968.49 3701.53 4037.4 3672.45 4030.84 3562.35C4029.56 3540.82 4023.49 3438.86 3946.79 3396.58C3895.71 3368.43 3839.6 3381.13 3819.04 3386.88C3794.35 3368.77 3734.23 3330.36 3652.06 3333.22Z" fill="url(#paint7_linear_17_115)"/>
<path d="M3130.57 4165.88C3130.57 4165.88 3650.06 3829.21 4292.29 4090.98C4292.29 4090.98 4210.48 4355.89 3721.87 4404.34C3218.02 4454.31 3130.57 4165.88 3130.57 4165.88Z" fill="url(#paint8_linear_17_115)"/>
<path d="M3629.81 3738.86L3610.34 3885.06C3603.7 3934.94 3569.64 3978.47 3522.26 3997.52L3363.92 4061.16C3363.92 4061.16 3666.98 4187.9 4049.75 4017.43L3875.25 3967.68C3825.72 3952.18 3791.96 3907.39 3789.8 3854.2L3784.79 3730.76L3629.81 3738.86Z" fill="url(#paint9_linear_17_115)"/>
<path d="M3866 3598.56C3866 3720.93 3792.35 3856.54 3701.03 3861.67C3609.19 3866.83 3534.37 3738.21 3534.37 3614.58C3534.37 3490.95 3609.19 3420.16 3701.03 3416.26C3792.35 3412.39 3866 3476.19 3866 3598.56Z" fill="url(#paint10_linear_17_115)"/>
<path d="M3774.08 3492.31C3724.49 3497.11 3649.38 3512.48 3597.34 3569.65C3509.97 3665.62 3551.46 3808.67 3512.6 3819.38C3477.97 3828.93 3424.35 3728.38 3425.22 3614.81C3425.94 3519.7 3458.45 3406.2 3543.07 3374.48C3592.76 3355.85 3607.4 3382.14 3767.65 3391.18C3861.03 3396.45 3824.4 3439.97 3845.4 3454.66C3938.64 3519.91 3926.84 3748.78 3876.65 3754.36C3852.85 3757 3819.97 3699.08 3774.08 3492.31Z" fill="url(#paint11_linear_17_115)"/>
</g>
<path d="M4025.63 2786.14C3689.41 2796.85 3410.57 2523.88 3410.57 2177.45C3410.57 1831.01 3689.41 1551.11 4025.63 1553.45C4354.89 1555.74 4617.77 1828.9 4617.77 2162.42C4617.77 2495.94 4354.89 2775.65 4025.63 2786.14Z" fill="url(#paint12_linear_17_115)"/>
<path d="M4068.01 2786.14C3731.78 2796.85 3452.94 2523.88 3452.94 2177.45C3452.94 1831.01 3731.78 1551.11 4068.01 1553.45C4397.27 1555.74 4660.14 1828.9 4660.14 2162.42C4660.14 2495.94 4397.27 2775.65 4068.01 2786.14Z" fill="#D8DEE8"/>
<path d="M4620.01 2162.92C4620.01 2474.34 4375.26 2734.26 4068.01 2743.63C3754.69 2753.19 3496.12 2499.54 3496.12 2176.91C3496.12 1854.28 3754.69 1594.19 4068.01 1595.95C4375.26 1597.68 4620.01 1851.51 4620.01 2162.92Z" fill="white"/>
<mask id="mask3_17_115" style="mask-type:luminance" maskUnits="userSpaceOnUse" x="3539" y="1638" width="1041" height="1064">
<path d="M4579.78 2163.42C4579.78 2452.14 4352.7 2692.82 4068.01 2701.13C3778.11 2709.59 3539.19 2474.71 3539.19 2176.38C3539.19 1878.05 3778.11 1637.22 4068.01 1638.46C4352.7 1639.68 4579.78 1874.7 4579.78 2163.42Z" fill="white"/>
</mask>
<g mask="url(#mask3_17_115)">
<path d="M3496.12 2572.58C3496.12 2572.58 3998.54 2261.98 4620.01 2544.84C4620.01 2544.84 4540.83 2802.22 4068.01 2830.51C3580.67 2859.66 3496.12 2572.58 3496.12 2572.58Z" fill="url(#paint13_linear_17_115)"/>
<path d="M3978.95 2170.9L3960.11 2313.93C3954.65 2404.85 3866.39 2440.82 3866.39 2440.82C3970.01 2563.73 4168.08 2554.38 4237.34 2434.19C4189.48 2417.04 4135.82 2343.06 4133.73 2290.65L4128.88 2169.03L3978.95 2170.9Z" fill="url(#paint14_linear_17_115)"/>
<path d="M4207.45 2042.2C4207.45 2162.57 4136.19 2293.05 4047.84 2294.5C3959 2295.95 3886.62 2166.51 3886.62 2044.92C3886.62 1923.32 3959 1856.63 4047.84 1856.4C4136.19 1856.18 4207.45 1921.83 4207.45 2042.2Z" fill="url(#paint15_linear_17_115)"/>
<path d="M3881.83 2075.64C3890.72 2074.14 3899.6 2072.63 3908.48 2071.12C3904.4 2061.2 3887.57 2017.28 3908.48 1978.56C3928.53 1941.41 3975.76 1923.12 4011.82 1925.38C4052.77 1927.95 4077.34 1947.03 4097.89 1932.05C4109.43 1923.63 4113.17 1908.43 4114.49 1896.6C4115.4 1904.16 4117.47 1915.34 4122.79 1927.68C4138.07 1963.13 4163.91 1970.38 4177.98 1993.78C4187.46 2009.53 4193.62 2035.97 4177.98 2082.73C4185.79 2082.19 4193.59 2081.64 4201.38 2081.09C4209.62 2054.84 4219.48 2017.63 4225.62 1972.14C4234.74 1904.61 4241.01 1858.12 4215.13 1835.56C4209.98 1831.07 4187.17 1813.24 4132.57 1830.16C4119.78 1816.63 4092.82 1791.87 4051.34 1779.4C4036.98 1775.09 3965.79 1753.7 3902.65 1800.09C3859.7 1831.65 3826.04 1890.49 3836.86 1939.06C3842.58 1964.74 3858.23 1976.21 3872 2025.84C3877.82 2046.79 3880.5 2064.44 3881.83 2075.64Z" fill="url(#paint16_linear_17_115)"/>
<path d="M4185.27 2086.83C4185.27 2086.83 4195.52 2034.01 4226.63 2038.97C4257.68 2043.93 4213.18 2130.73 4185.27 2141.44V2086.83Z" fill="url(#paint17_linear_17_115)"/>
<path d="M3906.61 2089.58C3906.61 2089.58 3896.17 2036.46 3864.4 2042.01C3832.57 2047.56 3878.15 2134.51 3906.61 2144.68V2089.58Z" fill="url(#paint18_linear_17_115)"/>
</g>
<path d="M2995.06 1606.39C2645.63 1603.6 2355.73 1313.88 2355.73 960.613C2355.73 607.346 2645.63 333.506 2995.06 349.852C3337.1 365.855 3610.09 655.112 3610.09 994.959C3610.09 1334.81 3337.1 1609.11 2995.06 1606.39Z" fill="url(#paint19_linear_17_115)"/>
<path d="M3037.43 1606.39C2688 1603.6 2398.11 1313.88 2398.11 960.613C2398.11 607.346 2688 333.506 3037.43 349.852C3379.48 365.855 3652.47 655.112 3652.47 994.959C3652.47 1334.81 3379.48 1609.11 3037.43 1606.39Z" fill="#D8DEE8"/>
<path d="M3610.8 993.819C3610.8 1311.15 3356.62 1566.03 3037.43 1563.06C2711.82 1560.02 2443.01 1290.83 2443.01 961.844C2443.01 632.861 2711.82 378.384 3037.43 393.184C3356.62 407.687 3610.8 676.488 3610.8 993.819Z" fill="white"/>
<mask id="mask4_17_115" style="mask-type:luminance" maskUnits="userSpaceOnUse" x="2487" y="435" width="1083" height="1085">
<path d="M3569.03 992.676C3569.03 1286.89 3333.2 1522.88 3037.43 1519.73C2736.16 1516.52 2487.79 1267.27 2487.79 963.068C2487.79 658.868 2736.16 423.222 3037.43 436.51C3333.2 449.556 3569.03 698.464 3569.03 992.676Z" fill="white"/>
</mask>
<g mask="url(#mask4_17_115)">
<path d="M2603.76 1364.53C2572.31 1273.32 2690.37 1242.21 2705.41 1029.93C2706.43 1015.52 2726.43 725.567 2771.01 669.855C2776.94 662.451 2783.55 656.587 2783.55 656.587C2805.84 639.312 2840.3 641.335 2963.26 590.035C3068.64 546.071 3062.56 547.34 3076.17 544.837C3155.4 530.277 3272.54 602.797 3311.08 699.563C3345.65 786.353 3304.17 860.443 3366.14 1012.98L3366.14 1012.99C3442.97 1232.47 3481.38 1342.21 3446.61 1411.13C3340.95 1620.55 2674.34 1569.27 2603.76 1364.53Z" fill="url(#paint20_linear_17_115)"/>
<path d="M2443.01 1363.83C2443.01 1363.83 2965.24 1067.79 3610.8 1381.57C3610.8 1381.57 3528.58 1640.62 3037.43 1650.17C2530.92 1660.01 2443.01 1363.83 2443.01 1363.83Z" fill="url(#paint21_linear_17_115)"/>
<path d="M2944.89 975.585L2925.32 1120.61C2918.64 1170.1 2884.4 1211.02 2836.77 1226.33L2677.59 1277.48C2677.59 1277.48 2982.25 1428.77 3367.02 1288.45L3191.61 1224.62C3141.81 1205.12 3107.88 1157.52 3105.71 1104.01L3100.68 979.851L2944.89 975.585Z" fill="url(#paint22_linear_17_115)"/>
<path d="M3182.31 853.806C3182.31 976.493 3108.28 1106.56 3016.48 1104.41C2924.16 1102.24 2848.94 967.308 2848.94 843.351C2848.94 719.394 2924.16 654.397 3016.48 657.835C3108.28 661.256 3182.31 731.118 3182.31 853.806Z" fill="url(#paint23_linear_17_115)"/>
<path d="M2843.38 923.135C2859.3 922.73 2836.31 793.345 2897.98 759.354C2938.92 736.79 3009.96 760.343 3049.9 803.5C3112.87 871.521 3077.64 965.872 3125.34 987.46C3155.61 1001.16 3196.03 974.913 3215.39 955.433C3275.86 894.603 3267.62 762.136 3196.14 685.412C3139.15 624.251 3061.82 619.692 3043.42 619.174C2938.14 616.201 2841.46 691.394 2819.29 782.852C2802.26 853.14 2831.6 923.434 2843.38 923.135Z" fill="url(#paint24_linear_17_115)"/>
</g>
<path d="M1526.83 3091.81C1526.83 3091.81 1642.08 3130.5 1654.29 3321.4C1635.5 3319.7 1591.61 3320.72 1591.61 3320.72C1591.61 3320.72 1599.74 3181.96 1517.68 3153.81C1524.29 3137.7 1526.83 3091.81 1526.83 3091.81Z" fill="white"/>
<path d="M1099.3 3073.61C1102.23 3108.77 1105.16 3143.92 1108.09 3179.07C1166.08 3164.11 1229.35 3146.74 1297.19 3144.36C1385.11 3141.28 1465.42 3152.1 1536.73 3169.89C1539.89 3165.54 1546.6 3155.07 1549.69 3137.91C1554.67 3110.26 1546.33 3087.12 1544.78 3083C1508.5 3069.64 1469.09 3058.29 1426.79 3050.29C1305.1 3027.29 1194.62 3046.34 1099.3 3073.61Z" fill="url(#paint25_linear_17_115)"/>
<path d="M1093.83 3103.95C1094 3091.25 1094.97 3075.4 1099.3 3073.6C1103.38 3071.91 1108.86 3083.48 1111.21 3089.9C1112.2 3092.57 1114.36 3099.04 1115.71 3119.54C1117.45 3145.98 1115.42 3158.9 1113.56 3166.87C1112.44 3171.66 1110.69 3178.92 1108.09 3179.07C1106 3179.19 1104.18 3174.57 1101.47 3165.62C1097.83 3153.57 1093.42 3133.5 1093.83 3103.95Z" fill="url(#paint26_linear_17_115)"/>
<path d="M986.52 3324.73C1010.97 3329.54 1070.32 3343.76 1070.32 3343.76C1070.32 3343.76 1031.64 3219.83 1104.52 3163.83C1106.41 3154.54 1108.32 3139.77 1106.02 3121.96C1104.24 3108.18 1100.53 3097.13 1097.32 3089.47C1066.4 3106.39 998.95 3163.98 986.52 3324.73Z" fill="white"/>
<path d="M475.38 3352.2C475.38 3352.2 478.435 3286.64 582.328 3287.81C598.651 3299.93 599.467 3353.44 599.467 3353.44L475.38 3352.2Z" fill="url(#paint27_linear_17_115)"/>
<path d="M382.755 4643.22L667.141 4811L837.893 4177.38L555.917 3329.34L475.379 3352.2L352.684 4576.47C349.899 4604.26 361.921 4630.93 382.755 4643.22Z" fill="url(#paint28_linear_17_115)"/>
<path opacity="0.3" d="M837.894 4177.38L555.916 3329.34L475.38 3352.2C495.234 3427.5 504.75 3549.85 509.225 3617.93C528.264 3907.53 591.387 3987.93 560.828 4189.85C535.39 4357.93 479.748 4381.3 484.617 4494.33C489.92 4617.42 561.467 4719.3 646.267 4798.69L667.14 4811L837.894 4177.38Z" fill="url(#paint29_linear_17_115)"/>
<path d="M555.918 3329.34L2068.52 3345.16L2298.39 4647.92L667.142 4811L555.918 3329.34Z" fill="url(#paint30_linear_17_115)"/>
<g opacity="0.2">
<path d="M2068.52 3345.16L1569.24 3339.94C1559.95 3366.89 1545.74 3404.19 1524.99 3446.37C1297.96 3907.77 770.294 3967.34 779.926 4044.25C794.318 4159.15 1953.23 3992.69 1982.12 4146.82C1996.05 4221.15 1756.25 4392.96 1503.13 4460.44C1196.6 4542.16 968.901 4446.63 816.3 4624.93C764.417 4685.55 741.48 4756.05 730.298 4803.67L2298.39 4647.92L2068.52 3345.16Z" fill="url(#paint31_linear_17_115)"/>
</g>
<path d="M582.328 3287.81C564.769 3287.62 540.203 3285.14 513.456 3300.59C507.741 3303.89 502.694 3307.54 498.267 3311.25L510.591 3306.99C530.404 3301.38 557.7 3309.43 567.886 3329.47C580.398 3354.08 584.901 3410.76 587.634 3438.84C595.411 3518.69 643.155 4014.98 643.155 4014.98C646.728 4056.78 678.279 4088.3 715.515 4087.32L2116.68 4007.4C2127.02 4007.14 2137.24 4003.77 2145.76 3996.97C2163.54 3982.79 2171.57 3958.26 2167.45 3934.98L2098.5 3361.56C2092.66 3328.53 2067.61 3304.58 2038.52 3304.26L582.328 3287.81Z" fill="url(#paint32_linear_17_115)"/>
<path d="M597.835 3287.99C580.287 3287.79 559.46 3285.14 536.225 3291.14C529.956 3292.76 519.923 3295.74 515.497 3299.46C515.497 3299.46 564.771 3288.19 583.4 3329.63C594.765 3354.91 600.405 3410.89 603.136 3438.96C610.908 3518.79 658.623 4014.92 658.623 4014.92C662.194 4056.71 693.725 4088.22 730.938 4087.25L2146.58 4049.99C2156.91 4049.71 2167.11 4046.33 2175.63 4039.53C2193.38 4025.34 2201.4 4000.82 2197.29 3977.57L2113.08 3361.7C2107.24 3328.68 2082.21 3304.74 2053.14 3304.42L597.835 3287.99Z" fill="url(#paint33_linear_17_115)"/>
<path opacity="0.1" d="M2197.29 3977.57L2113.08 3361.7C2107.24 3328.69 2082.21 3304.75 2053.14 3304.42L597.835 3287.99C580.288 3287.79 559.461 3285.14 536.225 3291.14C529.958 3292.76 519.923 3295.74 515.497 3299.46C515.497 3299.46 564.771 3288.19 583.401 3329.63C585.193 3333.61 586.827 3338.42 588.344 3343.71C730.333 3350.79 871.518 3348.16 1011.91 3358.75C1287.13 3379.02 1562.35 3381.67 1816.48 3495.12C1897.22 3531.16 1952.42 3658.74 1930.59 3717.45C1914.84 3759.81 1861.01 3756.35 1842.2 3812.05C1822.4 3870.67 1869.85 3910.46 1849.96 3951.61C1829.09 3994.78 1765.62 3974.39 1662.51 4005.53C1605.51 4022.75 1561.7 4048.05 1534.3 4066.1L2146.59 4049.99C2156.91 4049.71 2167.12 4046.33 2175.63 4039.53C2193.38 4025.34 2201.4 4000.83 2197.29 3977.57Z" fill="url(#paint34_linear_17_115)"/>
<path d="M1531.34 4168.53L1354.07 4213.17L1335.27 4214.87C1316.32 4216.58 1299.99 4200.06 1299.16 4178.14L1291.34 3970.86C1290.51 3948.93 1305.52 3930.72 1324.53 3930.4L1343.44 3930.09L1521.71 3952.85C1538.68 3952.55 1552.96 3943.32 1553.73 3963.78L1560.99 4157.15C1561.76 4177.6 1548.25 4167.01 1531.34 4168.53Z" fill="url(#paint35_linear_17_115)"/>
<path d="M1544.77 4197.01L1348.39 4214.77C1329.45 4216.49 1313.13 4199.97 1312.31 4178.05L1304.49 3970.83C1303.66 3948.9 1318.67 3930.7 1337.67 3930.38L1534.63 3927.08C1551.58 3926.8 1565.97 3943.3 1566.74 3963.75L1573.99 4157.07C1574.76 4177.51 1561.67 4195.48 1544.77 4197.01Z" fill="url(#paint36_linear_17_115)"/>
<defs>
<linearGradient id="paint0_linear_17_115" x1="1449.53" y1="3574.4" x2="1075.42" y2="-987.235" gradientUnits="userSpaceOnUse">
<stop stop-color="#AA80F9"/>
<stop offset="0.9964" stop-color="#6165D7"/>
</linearGradient>
<linearGradient id="paint1_linear_17_115" x1="357.227" y1="1378.96" x2="1752.6" y2="3382.3" gradientUnits="userSpaceOnUse">
<stop offset="0.0036" stop-color="#E38DDD"/>
<stop offset="1" stop-color="#9571F6"/>
</linearGradient>
<linearGradient id="paint2_linear_17_115" x1="953.14" y1="5013.31" x2="3483.8" y2="175.577" gradientUnits="userSpaceOnUse">
<stop stop-color="#444B8C"/>
<stop offset="0.9964" stop-color="#26264F"/>
</linearGradient>
<linearGradient id="paint3_linear_17_115" x1="1027.83" y1="5013.31" x2="3558.49" y2="175.577" gradientUnits="userSpaceOnUse">
<stop stop-color="#FFC444"/>
<stop offset="0.9964" stop-color="#F36F56"/>
</linearGradient>
<linearGradient id="paint4_linear_17_115" x1="3105.54" y1="1771.35" x2="-1299.24" y2="6644.05" gradientUnits="userSpaceOnUse">
<stop stop-color="#FFC444"/>
<stop offset="0.9964" stop-color="#F36F56"/>
</linearGradient>
<linearGradient id="paint5_linear_17_115" x1="531.555" y1="2790.49" x2="3193.44" y2="2790.49" gradientUnits="userSpaceOnUse">
<stop stop-color="#FFC444"/>
<stop offset="0.9964" stop-color="#F36F56"/>
</linearGradient>
<linearGradient id="paint6_linear_17_115" x1="3043.53" y1="3720.56" x2="4291.36" y2="3720.56" gradientUnits="userSpaceOnUse">
<stop stop-color="#444B8C"/>
<stop offset="0.9964" stop-color="#26264F"/>
</linearGradient>
<linearGradient id="paint7_linear_17_115" x1="3910.84" y1="3307.18" x2="3738.37" y2="3841.85" gradientUnits="userSpaceOnUse">
<stop stop-color="#AB316D"/>
<stop offset="1" stop-color="#792D3D"/>
</linearGradient>
<linearGradient id="paint8_linear_17_115" x1="3130.57" y1="4200.74" x2="4292.29" y2="4200.74" gradientUnits="userSpaceOnUse">
<stop stop-color="#FF9085"/>
<stop offset="1" stop-color="#FB6FBB"/>
</linearGradient>
<linearGradient id="paint9_linear_17_115" x1="3705.51" y1="3781.49" x2="3707.75" y2="4215.35" gradientUnits="userSpaceOnUse">
<stop offset="0.0036" stop-color="#F36F56"/>
<stop offset="1" stop-color="#FFC444"/>
</linearGradient>
<linearGradient id="paint10_linear_17_115" x1="3767" y1="3157.59" x2="3667.06" y2="3831.11" gradientUnits="userSpaceOnUse">
<stop offset="0.0036" stop-color="#F36F56"/>
<stop offset="1" stop-color="#FFC444"/>
</linearGradient>
<linearGradient id="paint11_linear_17_115" x1="3784.95" y1="3263.56" x2="3606.8" y2="3815.82" gradientUnits="userSpaceOnUse">
<stop stop-color="#AB316D"/>
<stop offset="1" stop-color="#792D3D"/>
</linearGradient>
<linearGradient id="paint12_linear_17_115" x1="3410.57" y1="2169.94" x2="4617.77" y2="2169.94" gradientUnits="userSpaceOnUse">
<stop stop-color="#444B8C"/>
<stop offset="0.9964" stop-color="#26264F"/>
</linearGradient>
<linearGradient id="paint13_linear_17_115" x1="3496.12" y1="2629.26" x2="4620.01" y2="2629.26" gradientUnits="userSpaceOnUse">
<stop stop-color="#AB316D"/>
<stop offset="1" stop-color="#792D3D"/>
</linearGradient>
<linearGradient id="paint14_linear_17_115" x1="4050.73" y1="2217.67" x2="4052.88" y2="2633.46" gradientUnits="userSpaceOnUse">
<stop offset="0.0036" stop-color="#F36F56"/>
<stop offset="1" stop-color="#FFC444"/>
</linearGradient>
<linearGradient id="paint15_linear_17_115" x1="4111.98" y1="1644.05" x2="4007.02" y2="2292.24" gradientUnits="userSpaceOnUse">
<stop offset="0.0036" stop-color="#F36F56"/>
<stop offset="1" stop-color="#FFC444"/>
</linearGradient>
<linearGradient id="paint16_linear_17_115" x1="4056.83" y1="1778.39" x2="4005.45" y2="2095.66" gradientUnits="userSpaceOnUse">
<stop stop-color="#444B8C"/>
<stop offset="0.9964" stop-color="#26264F"/>
</linearGradient>
<linearGradient id="paint17_linear_17_115" x1="4276.23" y1="1671.04" x2="4171.6" y2="2317.16" gradientUnits="userSpaceOnUse">
<stop offset="0.0036" stop-color="#F36F56"/>
<stop offset="1" stop-color="#FFC444"/>
</linearGradient>
<linearGradient id="paint18_linear_17_115" x1="3957.96" y1="1619.18" x2="3852.79" y2="2268.64" gradientUnits="userSpaceOnUse">
<stop offset="0.0036" stop-color="#F36F56"/>
<stop offset="1" stop-color="#FFC444"/>
</linearGradient>
<linearGradient id="paint19_linear_17_115" x1="2355.73" y1="977.782" x2="3610.09" y2="977.782" gradientUnits="userSpaceOnUse">
<stop stop-color="#444B8C"/>
<stop offset="0.9964" stop-color="#26264F"/>
</linearGradient>
<linearGradient id="paint20_linear_17_115" x1="3807.49" y1="-283.785" x2="2321.4" y2="2530.58" gradientUnits="userSpaceOnUse">
<stop stop-color="#AB316D"/>
<stop offset="1" stop-color="#792D3D"/>
</linearGradient>
<linearGradient id="paint21_linear_17_115" x1="3027.48" y1="1362.45" x2="2970.98" y2="2372.26" gradientUnits="userSpaceOnUse">
<stop stop-color="#444B8C"/>
<stop offset="0.9964" stop-color="#26264F"/>
</linearGradient>
<linearGradient id="paint22_linear_17_115" x1="3020.98" y1="1025.25" x2="3023.2" y2="1456.78" gradientUnits="userSpaceOnUse">
<stop offset="0.0036" stop-color="#F36F56"/>
<stop offset="1" stop-color="#FFC444"/>
</linearGradient>
<linearGradient id="paint23_linear_17_115" x1="3082.01" y1="402.495" x2="2982.55" y2="1072.76" gradientUnits="userSpaceOnUse">
<stop offset="0.0036" stop-color="#F36F56"/>
<stop offset="1" stop-color="#FFC444"/>
</linearGradient>
<linearGradient id="paint24_linear_17_115" x1="3321.55" y1="292.595" x2="2758.56" y2="1358.8" gradientUnits="userSpaceOnUse">
<stop stop-color="#AB316D"/>
<stop offset="1" stop-color="#792D3D"/>
</linearGradient>
<linearGradient id="paint25_linear_17_115" x1="1299.39" y1="3484.07" x2="1332.18" y2="2995.8" gradientUnits="userSpaceOnUse">
<stop offset="0.1" stop-color="#311944"/>
<stop offset="0.267" stop-color="#371B47"/>
<stop offset="0.4803" stop-color="#462150"/>
<stop offset="0.7186" stop-color="#612A5F"/>
<stop offset="0.9736" stop-color="#853774"/>
<stop offset="1" stop-color="#893976"/>
</linearGradient>
<linearGradient id="paint26_linear_17_115" x1="1115.54" y1="3132.32" x2="1490.64" y2="3333.42" gradientUnits="userSpaceOnUse">
<stop offset="0.1" stop-color="#311944"/>
<stop offset="0.267" stop-color="#371B47"/>
<stop offset="0.4803" stop-color="#462150"/>
<stop offset="0.7186" stop-color="#612A5F"/>
<stop offset="0.9736" stop-color="#853774"/>
<stop offset="1" stop-color="#893976"/>
</linearGradient>
<linearGradient id="paint27_linear_17_115" x1="582.39" y1="3760.14" x2="367.99" y2="1800.31" gradientUnits="userSpaceOnUse">
<stop offset="0.1" stop-color="#311944"/>
<stop offset="0.6853" stop-color="#6D2F66"/>
<stop offset="1" stop-color="#893976"/>
</linearGradient>
<linearGradient id="paint28_linear_17_115" x1="1515.22" y1="4573.36" x2="95.4164" y2="3782.79" gradientUnits="userSpaceOnUse">
<stop stop-color="#311944"/>
<stop offset="1" stop-color="#893976"/>
</linearGradient>
<linearGradient id="paint29_linear_17_115" x1="234.013" y1="3473.38" x2="662.164" y2="4191.36" gradientUnits="userSpaceOnUse">
<stop stop-color="#311944"/>
<stop offset="1" stop-color="#893976"/>
</linearGradient>
<linearGradient id="paint30_linear_17_115" x1="1324.95" y1="2616.91" x2="1481.1" y2="4712.69" gradientUnits="userSpaceOnUse">
<stop offset="0.1" stop-color="#311944"/>
<stop offset="0.6853" stop-color="#6D2F66"/>
<stop offset="1" stop-color="#893976"/>
</linearGradient>
<linearGradient id="paint31_linear_17_115" x1="1047.56" y1="3803.31" x2="2197.39" y2="4689.25" gradientUnits="userSpaceOnUse">
<stop stop-color="#311944"/>
<stop offset="1" stop-color="#893976"/>
</linearGradient>
<linearGradient id="paint32_linear_17_115" x1="751.366" y1="3683.09" x2="1235.56" y2="3664.29" gradientUnits="userSpaceOnUse">
<stop offset="0.1" stop-color="#311944"/>
<stop offset="0.6853" stop-color="#6D2F66"/>
<stop offset="1" stop-color="#893976"/>
</linearGradient>
<linearGradient id="paint33_linear_17_115" x1="1505.01" y1="5307.24" x2="1336.88" y2="3417.81" gradientUnits="userSpaceOnUse">
<stop offset="0.1" stop-color="#311944"/>
<stop offset="0.267" stop-color="#371B47"/>
<stop offset="0.4803" stop-color="#462150"/>
<stop offset="0.7186" stop-color="#612A5F"/>
<stop offset="0.9736" stop-color="#853774"/>
<stop offset="1" stop-color="#893976"/>
</linearGradient>
<linearGradient id="paint34_linear_17_115" x1="1586.97" y1="5745.52" x2="1301.81" y2="3138.91" gradientUnits="userSpaceOnUse">
<stop stop-color="#311944"/>
<stop offset="1" stop-color="#893976"/>
</linearGradient>
<linearGradient id="paint35_linear_17_115" x1="1989.04" y1="4371.92" x2="1129.21" y2="3922.45" gradientUnits="userSpaceOnUse">
<stop stop-color="#FFC444"/>
<stop offset="0.9964" stop-color="#F36F56"/>
</linearGradient>
<linearGradient id="paint36_linear_17_115" x1="1218.2" y1="3991.6" x2="2095.74" y2="4305.61" gradientUnits="userSpaceOnUse">
<stop stop-color="#FFC444"/>
<stop offset="0.9964" stop-color="#F36F56"/>
</linearGradient>
</defs>
</svg>
