<svg width="153" height="35" viewBox="0 0 153 35" fill="none" xmlns="http://www.w3.org/2000/svg">
<g clip-path="url(#clip0_79_2)">
<mask id="mask0_79_2" style="mask-type:luminance" maskUnits="userSpaceOnUse" x="0" y="0" width="153" height="35">
<path d="M152.784 0.169922H0.333984V34.8482H152.784V0.169922Z" fill="#C7A349"/>
</mask>
<g mask="url(#mask0_79_2)">
<path d="M26.7145 5.68555V7.40096H17.1372V11.5751H26.1984V13.3476H17.1372V18.0935H26.7145V19.8089H15.3594V5.68555H26.7145Z" fill="#C7A349"/>
<path d="M55.3317 5.68555V7.40096H45.7544V11.5751H54.8156V13.3476H45.7544V18.0935H55.3317V19.8089H43.9766V5.77131C43.9766 5.76502 44.0563 5.68555 44.0626 5.68555H55.3317Z" fill="#C7A349"/>
<path d="M126.156 5.45703L136.709 15.6922V5.68575H138.372V20.095L127.876 9.74551V19.8091H126.156V5.45703Z" fill="#C7A349"/>
<path d="M11.4391 18.5301C9.71288 20.2347 5.91981 20.4045 3.7044 19.7921C2.4324 19.4405 1.26362 18.6972 0.333984 17.7782L1.85259 16.6084C2.84875 17.7142 4.08922 18.3746 5.58087 18.5496C7.22852 18.7423 10.9155 18.2277 10.5932 15.8965C10.4911 15.1566 9.44622 14.5568 8.81826 14.2926C6.27767 13.2222 0.655714 13.101 0.9654 9.20192C1.25215 5.59214 6.45373 5.26451 9.12049 6.04387C10.3592 6.40581 11.3663 7.09881 12.3188 7.94278L11.0572 8.97144C10.9964 9.00691 10.9293 9.01265 10.8604 9.00288C10.7916 8.99317 10.0065 8.27957 9.81382 8.15436C8.2562 7.14114 5.39736 6.91074 3.75659 7.81129C2.54136 8.47801 2.34236 9.64562 3.4601 10.5439C5.67608 12.325 11.4282 12.1872 12.277 15.2475C12.601 16.4162 12.3022 17.6776 11.4391 18.5301Z" fill="#C7A349"/>
<path d="M143.497 8.27959C142.642 9.21045 143.232 10.1608 144.113 10.7417C146.475 12.2988 152.49 12.3462 152.77 15.8342C153.108 20.0586 147.102 20.5978 144.141 19.8059C143.257 19.5691 142.481 19.1849 141.738 18.6566C141.609 18.5651 140.739 17.9006 140.724 17.8372C140.705 17.7623 140.772 17.7377 140.811 17.6959C141.147 17.3357 141.87 16.9863 142.244 16.6187C143.217 17.7011 144.454 18.3746 145.915 18.5519C147.339 18.7252 150.11 18.3832 150.828 16.9332C151.596 15.3819 149.814 14.483 148.624 14.0776C146.462 13.3406 141.684 12.8957 141.361 9.99842C140.821 5.16331 148.05 4.97748 151.064 6.72777C151.351 6.89471 152.5 7.67977 152.626 7.91592C152.676 8.01141 152.649 7.99655 152.592 8.05777C152.477 8.18185 151.656 8.82512 151.503 8.91487C151.391 8.98064 151.294 9.04807 151.163 8.97602C150.464 8.26301 149.623 7.73471 148.651 7.47624C147.267 7.10801 144.542 7.14341 143.497 8.28077V8.27959Z" fill="#C7A349"/>
<path d="M101.553 5.68555V7.40096H96.3918V19.8089H94.671V7.40096H89.3379V5.68555H101.553Z" fill="#C7A349"/>
<path d="M31.4138 5.68555V18.0077C31.4138 18.014 31.4935 18.0935 31.4998 18.0935H41.0485V19.8089H29.6934V5.68555H31.4138Z" fill="#C7A349"/>
<path d="M106.315 19.8089H104.537V5.68555H106.229C106.235 5.68555 106.315 5.76502 106.315 5.77131V19.8089Z" fill="#C7A349"/>
<path d="M102.303 29.1301C101.384 30.8832 99.6449 32.1973 97.7275 32.7164C95.2709 33.3814 92.9043 32.8388 90.5894 31.9748C86.0306 30.2737 81.9976 27.4719 77.499 25.6422L78.4667 25.2333C87.3745 21.3269 89.1151 9.33856 81.5121 3.11455C74.0025 -3.0334 62.4728 0.952595 60.4088 10.3741C58.9647 16.9652 62.6666 23.5094 69.0403 25.6422C68.6323 25.94 68.1733 26.1574 67.7607 26.4524C67.1341 26.9012 66.4837 27.5257 66.0038 28.1312C65.8885 28.2764 65.2898 29.0632 65.3747 29.1822L66.9486 29.9816C67.6977 28.7876 68.7913 27.8019 70.0921 27.2323C73.066 25.9303 75.8915 26.8767 78.6574 28.1472C85.1271 31.1183 94.1674 38.1228 101.233 33.0641C102.614 32.0749 103.694 30.6522 104.426 29.1295H102.304L102.303 29.1301ZM65.2795 21.328C59.3272 15.5654 61.5082 5.51724 69.2403 2.65483C78.1647 -0.648434 86.9936 7.86163 83.9522 16.8657C81.2975 24.7267 71.275 27.1317 65.2795 21.328Z" fill="#C7A349"/>
<path d="M115.879 5.70289C110.652 6.02138 107.565 11.7554 110.203 16.3029C113.177 21.4278 121.201 20.943 122.871 15.0186C124.24 10.1629 121.154 5.38097 115.879 5.70289ZM120.927 15.4811C118.545 19.5604 112.271 18.7141 111.057 14.1363C110.26 11.1281 112.369 7.75222 115.534 7.41714C120.008 6.94372 123.231 11.5341 120.927 15.4811Z" fill="#C7A349"/>
</g>
</g>
<defs>
<clipPath id="clip0_79_2">
<rect width="153" height="35" fill="#C7A349"/>
</clipPath>
</defs>
</svg>
