<svg height="65" width="65" xmlns="http://www.w3.org/2000/svg" xmlns:xlink="http://www.w3.org/1999/xlink" version="1.1" id="Layer_1" x="0px" y="0px" viewBox="0 0 75 75" xml:space="preserve"><title>bathroom designs</title><g><g><g><g><path fill="#636462" d="M50.95889,72.6542c-0.83076,0-1.50692-0.67616-1.50692-1.50692v-2.24316      c0-0.40659-0.32966-0.73621-0.73621-0.73621H33.0137c-0.40659,0-0.73621,0.32962-0.73621,0.73621v2.24316      c0,0.83076-0.6762,1.50692-1.50695,1.50692H3.85276c-0.8308,0-1.50696-0.67616-1.50696-1.50692V3.85276      c0-0.83076,0.67616-1.50696,1.50696-1.50696h26.91777c0.83076,0,1.50695,0.6762,1.50695,1.50696v40.37671      c0,0.40655,0.32962,0.73621,0.73621,0.73621h29.16094c0.40659,0,0.73621-0.32966,0.73621-0.73621V13.94694      c0-3.49809-2.846-6.34409-6.34409-6.34409s-6.34409,2.846-6.34409,6.34409v1.12154c0,0.40659,0.32967,0.73621,0.73621,0.73621      h2.24317c0.83076,0,1.50692,0.6762,1.50692,1.50696s-0.67616,1.50692-1.50692,1.50692h-8.97259      c-0.83076,0-1.50696-0.67616-1.50696-1.50692s0.6762-1.50696,1.50696-1.50696h2.24313      c0.40659,0,0.73621-0.32962,0.73621-0.73621v-1.12154c0-5.15997,4.19803-9.35796,9.35796-9.35796      c5.15997,0,9.35796,4.19799,9.35796,9.35796v30.28253c0,0.40655,0.32967,0.73621,0.73621,0.73621h4.48629      c0.8308,0,1.50697,0.67616,1.50697,1.50692s-0.67616,1.50696-1.50697,1.50696h-4.48629      c-0.40655,0-0.73621,0.32962-0.73621,0.73621v6.91566c0,6.9128-5.62368,12.53648-12.53648,12.53648h-0.18619      c-0.40659,0-0.73621,0.32962-0.73621,0.73621v2.24316C52.46584,71.97803,51.78964,72.6542,50.95889,72.6542z M19.55477,5.35968      c-0.40655,0-0.73621,0.32966-0.73621,0.73621v62.80822c0,0.40659,0.32966,0.73621,0.73621,0.73621h8.97264      c0.40655,0,0.73621-0.32962,0.73621-0.73621V6.09589c0-0.40655-0.32966-0.73621-0.73621-0.73621H19.55477z M6.09589,5.35968      c-0.40655,0-0.73621,0.32966-0.73621,0.73621v62.80822c0,0.40659,0.32966,0.73621,0.73621,0.73621h8.97259      c0.40659,0,0.73621-0.32962,0.73621-0.73621V6.09589c0-0.40655-0.32962-0.73621-0.73621-0.73621H6.09589z M33.0137,47.97955      c-0.40659,0-0.73621,0.32962-0.73621,0.73621v15.70206c0,0.40655,0.32962,0.73621,0.73621,0.73621h20.37454      c5.25092,0,9.52261-4.27169,9.52261-9.52261v-6.91566c0-0.40659-0.32962-0.73621-0.73621-0.73621H33.0137z"></path></g></g><g><g><rect x="42.7225" y="24.77732" fill="#c7a349" width="3.01387" height="3.01387"></rect></g></g><g><g><rect x="42.7225" y="33.74992" fill="#c7a349" width="3.01387" height="3.01387"></rect></g></g><g><g><rect x="51.6951" y="24.77732" fill="#c7a349" width="3.01387" height="3.01387"></rect></g></g><g><g><rect x="51.6951" y="33.74992" fill="#c7a349" width="3.01387" height="3.01387"></rect></g></g></g></g></svg>