<svg height="65" width="65" xmlns="http://www.w3.org/2000/svg" xmlns:xlink="http://www.w3.org/1999/xlink" version="1.1" id="Layer_1" x="0px" y="0px" viewBox="0 0 75 75" xml:space="preserve"><title>crockery units interior designs</title><g><g><g><g><path fill="#636462" d="M70.33478,72.25639H4.66522c-1.26089,0-2.28663-1.02574-2.28663-2.28663V5.6756      c0-1.61668,1.31531-2.93199,2.93199-2.93199h65.0242c1.26089,0,2.28663,1.02585,2.28663,2.28674v64.93941      C72.62141,71.23064,71.59567,72.25639,70.33478,72.25639z M5.06406,69.57092h64.87187V5.42909H5.31058      c-0.13364,0-0.24652,0.11288-0.24652,0.24652V69.57092z"></path></g><g><path fill="#636462" d="M39.40095,50.89009H2.37859V5.6756c0-1.61668,1.31531-2.93199,2.93199-2.93199h32.48221v2.68547H5.31058      c-0.13364,0-0.24652,0.11288-0.24652,0.24652v42.52901h34.33689V50.89009z"></path></g><g><rect x="36.15513" y="3.63812" fill="#636462" width="2.68547" height="22.47388"></rect></g><g><rect x="53.0451" y="3.98254" fill="#636462" width="2.68547" height="46.5687"></rect></g><g><rect x="4.44886" y="25.23585" fill="#636462" width="66.13156" height="2.68547"></rect></g><g><rect x="39.39898" y="48.21751" fill="#636462" width="31.85652" height="2.68547"></rect></g><g><path fill="#c7a349" d="M40.88235,60.01944h-6.7646c-0.74152,0-1.34274-0.60122-1.34274-1.34274s0.60122-1.34274,1.34274-1.34274      h6.7646c0.74152,0,1.34273,0.60122,1.34273,1.34274S41.62387,60.01944,40.88235,60.01944z"></path></g></g><g><path fill="#636462" d="M13.05906,50.15239l-2.48397-4.85955c-0.4431-0.86674-0.40431-1.87981,0.10381-2.71017     c0.50801-0.83025,1.39234-1.3259,2.36574-1.3259h9.38101c0.90783,0,1.75917,0.44495,2.27734,1.1903     c0.51828,0.74534,0.63891,1.69831,0.32279,2.54921l-1.63558,4.40268l-2.51741-0.93515l1.63558-4.40268     c0.00557-0.01508,0.01606-0.04316-0.01027-0.08097c-0.02633-0.03791-0.05627-0.03791-0.07245-0.03791h-9.38101     c-0.01847,0-0.04939,0-0.07518,0.04207c-0.02579,0.04218-0.01169,0.06971-0.00328,0.08622l2.48397,4.85955L13.05906,50.15239z"></path></g><g><g><path fill="#636462" d="M44.2452,50.0122h-8.42553c-0.74152,0-1.34274-0.60122-1.34274-1.34274V35.35499      c0-0.74152,0.60122-1.34274,1.34274-1.34274h8.42553c0.74152,0,1.34274,0.60122,1.34274,1.34274v13.31448      C45.58794,49.41098,44.98672,50.0122,44.2452,50.0122z M37.1624,47.32673h5.74006V36.69772H37.1624V47.32673z"></path></g><g><path fill="#636462" d="M35.50759,46.4755h-5.02542l-0.67366-6.51917l4.41328-3.75196      c0.56483-0.48036,1.41234-0.41163,1.8927,0.15331c0.48036,0.56494,0.41174,1.41234-0.15331,1.8927l-3.33608,2.83627      l0.27941,2.70339h2.60308c0.74152,0,1.34274,0.60122,1.34274,1.34274S36.24911,46.4755,35.50759,46.4755z"></path></g></g></g></g></svg>