<svg height="65" width="65" xmlns="http://www.w3.org/2000/svg" xmlns:xlink="http://www.w3.org/1999/xlink" version="1.1" id="Layer_1" x="0px" y="0px" viewBox="0 0 75 75" xml:space="preserve"><title>false ceiling designs for home interiors</title><g><g><g><g><path fill="#636462" d="M3.9608,26.57798c-0.74152,0-1.34274-0.60122-1.34274-1.34274V10.93951      c0-1.26089,1.02585-2.28663,2.28663-2.28663h65.19827c1.261,0,2.28684,1.02574,2.28684,2.28663v13.94016      c0,0.74163-0.60121,1.34274-1.34274,1.34274c-0.74152,0-1.34274-0.6011-1.34274-1.34274V11.33836H5.30353v13.89689      C5.30353,25.97677,4.70232,26.57798,3.9608,26.57798z"></path></g><g><path fill="#636462" d="M60.15876,45.723H15.16992c-0.60996,0-1.18364-0.23723-1.61504-0.66798      c-0.08917-0.08895-0.16544-0.19003-0.22641-0.30028L2.81344,25.74948c-0.28848-0.52134-0.27843-1.16331,0.02623-1.67514      c0.30203-0.50713,0.85451-0.82052,1.44414-0.82052c0.00503,0,0.00983,0,0.01464,0.00011      c6.17475,0.05475,60.49695,0.52341,66.36136,0.08458c0.59073-0.04284,1.15282,0.23548,1.47452,0.72939      c0.32191,0.49456,0.3488,1.12528,0.07015,1.64596c0,0.00011-0.00021,0.00022-0.00021,0.00044L62.01573,44.73212      c-0.06032,0.11255-0.13637,0.21581-0.22576,0.30695C61.36294,45.47375,60.76828,45.723,60.15876,45.723z M15.44747,43.03753      h44.42958l9.0757-16.94089c-10.60507,0.28356-52.64487-0.05398-62.95688-0.14238L15.44747,43.03753z M71.02062,25.08019h0.00219      H71.02062z M69.83677,24.44652c-0.00043,0.00098-0.00109,0.00197-0.00153,0.00284l0.00175-0.00328L69.83677,24.44652z"></path></g></g><g><g><g><g><path fill="#636462" d="M31.89358,66.34711h-3.78868c-3.40382,0-6.17322-2.76917-6.17322-6.173v-3.80398        c0-0.74152,0.60122-1.34274,1.34274-1.34274s1.34274,0.60121,1.34274,1.34274v3.80398        c0,1.92308,1.56456,3.48753,3.48775,3.48753h3.78868c1.92319,0,3.48775-1.56445,3.48775-3.48753V34.07405        c0-0.74152,0.60122-1.34274,1.34274-1.34274s1.34274,0.60122,1.34274,1.34274v26.10007        C38.06679,63.57794,35.2974,66.34711,31.89358,66.34711z"></path></g></g><g><g><path fill="#636462" d="M45.26454,66.34711h-3.7889c-3.40382,0-6.173-2.76917-6.173-6.173V34.07405        c0-0.74152,0.60122-1.34274,1.34274-1.34274s1.34274,0.60122,1.34274,1.34274v26.10007        c0,1.92308,1.56456,3.48753,3.48753,3.48753h3.7889c1.92297,0,3.48753-1.56445,3.48753-3.48753v-3.80398        c0-0.74152,0.60122-1.34274,1.34274-1.34274s1.34274,0.60121,1.34274,1.34274v3.80398        C51.43754,63.57794,48.66837,66.34711,45.26454,66.34711z"></path></g></g></g><g><path fill="#636462" d="M55.02101,57.35392h-9.74269c-0.74152,0-1.34274-0.60122-1.34274-1.34274s0.60122-1.34274,1.34274-1.34274      h9.74269c0.74152,0,1.34274,0.60122,1.34274,1.34274S55.76253,57.35392,55.02101,57.35392z"></path></g><g><path fill="#636462" d="M23.29496,55.23852c-1.18604,0-2.69071-1.11108-2.69071-2.35984c0-0.865,0.70677-1.78933,2.69071-1.78933      s2.69072,0.92433,2.69072,1.78933C25.98567,54.12744,24.481,55.23852,23.29496,55.23852z M23.83498,53.84071h0.00219H23.83498z"></path></g><g><path fill="#636462" d="M50.14966,55.23852c-1.18604,0-2.69071-1.11108-2.69071-2.35984c0-0.865,0.70677-1.78933,2.69071-1.78933      c1.98394,0,2.69072,0.92433,2.69072,1.78933C52.84037,54.12744,51.3357,55.23852,50.14966,55.23852z M50.68968,53.84071h0.00219      H50.68968z"></path></g><g><path fill="#636462" d="M28.16631,57.35392h-9.7427c-0.74152,0-1.34274-0.60122-1.34274-1.34274s0.60122-1.34274,1.34274-1.34274      h9.7427c0.74152,0,1.34274,0.60122,1.34274,1.34274S28.90783,57.35392,28.16631,57.35392z"></path></g></g><g><path fill="#c7a349" d="M43.65453,35.37056H29.9151c-0.74152,0-1.34274-0.60122-1.34274-1.34274s0.60122-1.34274,1.34274-1.34274     h13.73943c0.74152,0,1.34274,0.60122,1.34274,1.34274S44.39605,35.37056,43.65453,35.37056z"></path></g></g></g></svg>