<svg height="65" width="65" version="1.1" id="Layer_1" xmlns="http://www.w3.org/2000/svg" xlink="http://www.w3.org/1999/xlink" x="0px" y="0px" viewBox="0 0 75 75" space="preserve"><title>foyer interior designs for entrance</title><g><g><g><path fill="#636462" d="M7.97057,40.44736c-0.73176,0-1.32506-0.5933-1.32506-1.32506v-5.71173 c0-0.73176,0.5933-1.32506,1.32506-1.32506s1.32506,0.5933,1.32506,1.32506v5.71173 C9.29563,39.85406,8.70233,40.44736,7.97057,40.44736z"></path></g><g><path fill="#636462" d="M10.00507,34.73563h-4.0691c-0.73176,0-1.32506-0.5933-1.32506-1.32506V18.97424 c0-0.73176,0.5933-1.32506,1.32506-1.32506h4.0691c0.73176,0,1.32506,0.5933,1.32506,1.32506v14.43633 C11.33013,34.14233,10.73683,34.73563,10.00507,34.73563z M7.26103,32.08551h1.41898V20.2993H7.26103V32.08551z"></path></g><g><path fill="#636462" d="M9.22521,40.44736h-2.5094c-0.73176,0-1.32506-0.5933-1.32506-1.32506s0.5933-1.32506,1.32506-1.32506 h2.5094c0.73176,0,1.32506,0.5933,1.32506,1.32506S9.95697,40.44736,9.22521,40.44736z"></path></g></g><g><path fill="#636462" d="M73.26016,74.05274H33.0173c-0.73187,0-1.32506-0.5933-1.32506-1.32506 c0-0.73187,0.59319-1.32507,1.32506-1.32507h38.9178V52.35823H33.43235c-0.73176,0-1.32506-0.5933-1.32506-1.32506 c0-0.73176,0.5933-1.32506,1.32506-1.32506h39.82781c0.73186,0,1.32506,0.5933,1.32506,1.32506v21.69451 C74.58522,73.45944,73.99203,74.05274,73.26016,74.05274z"></path></g><g><g><path fill="#636462" d="M32.86731,58.05508H2.90757c-0.73176,0-1.32506-0.5933-1.32506-1.32506 c0-0.73176,0.5933-1.32506,1.32506-1.32506h29.95974c0.73176,0,1.32506,0.5933,1.32506,1.32506 C34.19236,57.46178,33.59906,58.05508,32.86731,58.05508z"></path></g><g><path fill="#c7a349" d="M27.54981,52.41484h-3.08081c-0.73176,0-1.32506-0.5933-1.32506-1.32506s0.5933-1.32506,1.32506-1.32506 h3.08081c0.73176,0,1.32506,0.5933,1.32506,1.32506S28.28157,52.41484,27.54981,52.41484z"></path></g><g><path fill="#c7a349" d="M27.54981,62.99861h-3.08081c-0.73176,0-1.32506-0.5933-1.32506-1.32506s0.5933-1.32506,1.32506-1.32506 h3.08081c0.73176,0,1.32506,0.5933,1.32506,1.32506S28.28157,62.99861,27.54981,62.99861z"></path></g><g><path fill="#636462" d="M32.86731,74.05274H3.01281c-0.73176,0-1.32506-0.5933-1.32506-1.32506V40.03555 c0-0.73176,0.5933-1.32506,1.32506-1.32506s1.32506,0.5933,1.32506,1.32506v31.36707h27.20437V40.03555 c0-0.73176,0.5933-1.32506,1.32506-1.32506s1.32506,0.5933,1.32506,1.32506v32.69214 C34.19236,73.45944,33.59906,74.05274,32.86731,74.05274z"></path></g><g><path fill="#636462" d="M34.14028,41.36061H1.73984c-0.73176,0-1.32506-0.5933-1.32506-1.32506s0.5933-1.32506,1.32506-1.32506 h32.40044c0.73186,0,1.32506,0.5933,1.32506,1.32506S34.87215,41.36061,34.14028,41.36061z"></path></g></g><g><path fill="#c7a349" d="M68.60747,67.14761c-0.73176,0-1.32506-0.5933-1.32506-1.32506v-5.52022 c0-0.73176,0.5933-1.32506,1.32506-1.32506s1.32506,0.5933,1.32506,1.32506v5.52022 C69.93253,66.55431,69.33923,67.14761,68.60747,67.14761z"></path></g><g><path fill="#636462" d="M71.44543,52.35823c-0.73187,0-1.32507-0.5933-1.32507-1.32506V3.59738H40.59455v47.43579 c0,0.73176-0.5933,1.32506-1.32506,1.32506c-0.73176,0-1.32506-0.5933-1.32506-1.32506V2.27232 c0-0.73176,0.5933-1.32506,1.32506-1.32506h32.17594c0.73176,0,1.32506,0.5933,1.32506,1.32506v48.76085 C72.77049,51.76493,72.17719,52.35823,71.44543,52.35823z"></path></g></g></svg>