<svg height="65" width="65" version="1.1" id="Layer_1" xmlns="http://www.w3.org/2000/svg" xlink="http://www.w3.org/1999/xlink" x="0px" y="0px" viewBox="0 0 75 75" space="preserve"><title>Kids Bedroom Designs</title><g><g><g><g><g><path fill="#636462" d="M45.17967,56.15422c-2.50134,0-4.53633-1.97264-4.53633-4.39733 c0-2.42468,2.03499-4.39732,4.53633-4.39732S49.716,49.3322,49.716,51.75689 C49.716,54.18158,47.68101,56.15422,45.17967,56.15422z M45.17967,48.16229c-2.0447,0-3.70823,1.61256-3.70823,3.5946 c0,1.98204,1.66353,3.59461,3.70823,3.59461s3.70823-1.61256,3.70823-3.59461 C48.88791,49.77485,47.22438,48.16229,45.17967,48.16229z"></path></g></g></g><g><g><g><path fill="#636462" d="M41.21785,53.26349c-0.19408,0-0.36735-0.13294-0.4059-0.3246 c-0.0438-0.21754,0.10264-0.42834,0.32712-0.47074c1.88902-0.35727,3.30045-1.22355,4.19493-2.57474 c0.67289-1.0164,0.78962-1.94553,0.7907-1.9548c0.02608-0.21976,0.23006-0.37857,0.45758-0.35355 c0.22677,0.02469,0.39026,0.22198,0.36553,0.44187c-0.00499,0.04422-0.13073,1.09518-0.89367,2.26484 c-0.70093,1.07447-2.09512,2.46094-4.75657,2.96421C41.27082,53.26107,41.24413,53.26349,41.21785,53.26349z"></path></g></g></g><g><g><g><path fill="#636462" d="M44.4162,56.08503c-0.05499,0-0.11085-0.01072-0.1645-0.03325 c-0.20979-0.0882-0.30616-0.32454-0.21518-0.5279c1.23035-2.75053,4.93084-4.35571,5.08779-4.42266 c0.20898-0.0895,0.45361,0.00267,0.5458,0.20557c0.09212,0.20284-0.00276,0.43971-0.21208,0.52908 c-0.0469,0.02018-3.56335,1.55174-4.66175,4.00732C44.72856,55.99455,44.57619,56.08503,44.4162,56.08503z"></path></g></g></g><g><g><g><path fill="#636462" d="M47.02247,55.7324c-0.19543,0-0.36937-0.13476-0.40657-0.32773 c-0.3449-1.79038-1.33372-3.12257-2.93891-3.95964c-1.22105-0.63666-2.36163-0.7368-2.37302-0.73772 c-0.22757-0.01875-0.39685-0.21257-0.37792-0.43324c0.01886-0.22067,0.22063-0.38555,0.44578-0.36681 c0.05243,0.00418,1.29848,0.10936,2.66759,0.8154c1.2749,0.65743,2.89793,1.9778,3.39056,4.53464 c0.04198,0.21793-0.10627,0.42756-0.33103,0.46826C47.07328,55.73018,47.04768,55.7324,47.02247,55.7324z"></path></g></g></g></g><g><path fill="#636462" d="M2.15011,73.77145c-0.75489,0-1.36695-0.5933-1.36695-1.32506V2.5536 c0-0.73176,0.61206-1.32506,1.36695-1.32506s1.36695,0.5933,1.36695,1.32506V72.4464 C3.51706,73.17815,2.905,73.77145,2.15011,73.77145z"></path></g><g><path fill="#636462" d="M72.84989,73.77145c-0.75489,0-1.36695-0.5933-1.36695-1.32506V2.5536 c0-0.73176,0.61206-1.32506,1.36695-1.32506s1.36695,0.5933,1.36695,1.32506V72.4464 C74.21684,73.17815,73.60478,73.77145,72.84989,73.77145z"></path></g><g><path fill="#636462" d="M72.28267,26.53871H2.69152c-0.75489,0-1.36695-0.5933-1.36695-1.32506 c0-0.73176,0.61206-1.32506,1.36695-1.32506h69.59115c0.75489,0,1.36695,0.5933,1.36695,1.32506 C73.64962,25.94541,73.03756,26.53871,72.28267,26.53871z"></path></g><g><path fill="#636462" d="M5.73512,61.03986c-1.61513,0-2.92913-1.27373-2.92913-2.83937c0-1.56574,1.314-2.83947,2.92913-2.83947 h63.50394c1.61514,0,2.92913,1.27373,2.92913,2.83937v1.67239h-1.59477v-1.67239c0-0.71321-0.59859-1.29346-1.33436-1.29346 H5.73512c-0.73576,0-1.33435,0.58025-1.33435,1.29346c0,0.71332,0.5986,1.29357,1.33435,1.29357V61.03986z"></path></g><g><path fill="#636462" d="M5.73512,25.47774c-1.61513,0-2.92913-1.27373-2.92913-2.83937c0-1.56564,1.314-2.83937,2.92913-2.83937 h63.50394c1.61514,0,2.92913,1.27373,2.92913,2.83937v1.67239h-1.59477v-1.67239c0-0.71321-0.59859-1.29346-1.33436-1.29346 H5.73512c-0.73576,0-1.33435,0.58025-1.33435,1.29346c0,0.71321,0.5986,1.29346,1.33435,1.29346V25.47774z"></path></g><g><path fill="#636462" d="M72.28267,61.96012H2.69152c-0.75489,0-1.36695-0.5933-1.36695-1.32506 c0-0.73176,0.61206-1.32506,1.36695-1.32506h69.59115c0.75489,0,1.36695,0.5933,1.36695,1.32506 C73.64962,61.36682,73.03756,61.96012,72.28267,61.96012z"></path></g><g><g><path fill="#636462" d="M63.54528,20.45627c-0.4945,0-0.93702-0.16866-1.24398-0.50869v-0.00005l-0.91874-1.01792 c-0.28493-0.31567-0.41419-0.74398-0.36403-1.20606c0.07727-0.7121,0.55746-1.45204,1.2845-1.97933l2.10973-1.53014 c0.07829-0.0567,0.15323-0.1193,0.22309-0.18619l2.77767-2.66277c0.63503-0.60884,1.44686-0.95812,2.16984-0.93179 c0.47257,0.01653,0.88789,0.1975,1.16946,0.50947l0.91976,1.01905c0.66013,0.73133,0.43379,1.9369-0.53827,2.86658 l-3.11256,2.97706c-0.12165,0.11629-0.25203,0.22482-0.38779,0.32285l-2.3838,1.72233 C64.69302,20.25316,64.08783,20.45627,63.54528,20.45627z M63.46222,18.93769c0.08845,0.0284,0.42973,0.00866,0.8559-0.29923 l2.38389-1.72247c0.0787-0.0568,0.15414-0.11965,0.22462-0.18692l3.11225-2.97682c0.37479-0.35849,0.4679-0.70732,0.44708-0.809 l-0.89468-0.99134c-0.1256-0.04218-0.6127,0.03927-1.08112,0.48821l-2.77787,2.66293 c-0.12063,0.1156-0.2502,0.22373-0.38525,0.32171l-2.10963,1.53c-0.54254,0.39348-0.69648,0.86259-0.66885,0.99281 L63.46222,18.93769z"></path></g></g><g><g><path fill="#636462" d="M63.09333,56.28613c-0.4945,0-0.93702-0.16866-1.24398-0.50869v-0.00005l-0.91875-1.01791 c-0.28493-0.31567-0.41419-0.74398-0.36403-1.20606c0.07727-0.7121,0.55747-1.45204,1.2845-1.97933l2.10973-1.53014 c0.07829-0.0567,0.15322-0.1193,0.22309-0.18619l2.77767-2.66277c0.63503-0.60884,1.44687-0.95812,2.16984-0.93179 c0.47258,0.01653,0.88789,0.1975,1.16946,0.50947l0.91977,1.01905c0.66013,0.73133,0.43378,1.9369-0.53827,2.86657 l-3.11256,2.97706c-0.12164,0.11629-0.25203,0.22482-0.38779,0.32285l-2.38379,1.72233 C64.24107,56.08301,63.63588,56.28613,63.09333,56.28613z M63.01028,54.76754c0.08844,0.0284,0.42973,0.00866,0.8559-0.29923 l2.38389-1.72247c0.0787-0.05679,0.15414-0.11965,0.22462-0.18692l3.11225-2.97681c0.37479-0.35849,0.4679-0.70732,0.44708-0.809 l-0.89468-0.99134c-0.1256-0.04218-0.61269,0.03927-1.08112,0.48821l-2.77787,2.66293 c-0.12063,0.1156-0.2502,0.22373-0.38525,0.32172l-2.10963,1.52999c-0.54253,0.39348-0.69648,0.86259-0.66885,0.99281 L63.01028,54.76754z"></path></g></g><g><path fill="#c7a349" d="M13.41809,73.66103c-0.69204,0-1.25304-0.5438-1.25304-1.21464V17.24313 c0-0.67083,0.561-1.21464,1.25304-1.21464s1.25304,0.54381,1.25304,1.21464V72.4464 C14.67113,73.11723,14.11013,73.66103,13.41809,73.66103z"></path></g><g><path fill="#c7a349" d="M28.03581,73.66103c-0.69204,0-1.25304-0.5438-1.25304-1.21464V17.24313 c0-0.67083,0.561-1.21464,1.25304-1.21464c0.69204,0,1.25304,0.54381,1.25304,1.21464V72.4464 C29.28885,73.11723,28.72785,73.66103,28.03581,73.66103z"></path></g><g><path fill="#c7a349" d="M27.73134,26.72343H13.41809c-0.69204,0-1.25304-0.5438-1.25304-1.21464s0.561-1.21464,1.25304-1.21464 h14.31325c0.69204,0,1.25304,0.5438,1.25304,1.21464S28.42338,26.72343,27.73134,26.72343z"></path></g><g><path fill="#c7a349" d="M27.73134,37.05562H13.41809c-0.69204,0-1.25304-0.5438-1.25304-1.21464s0.561-1.21464,1.25304-1.21464 h14.31325c0.69204,0,1.25304,0.5438,1.25304,1.21464S28.42338,37.05562,27.73134,37.05562z"></path></g><g><path fill="#c7a349" d="M27.73134,47.38781H13.41809c-0.69204,0-1.25304-0.54381-1.25304-1.21464 c0-0.67083,0.561-1.21464,1.25304-1.21464h14.31325c0.69204,0,1.25304,0.54381,1.25304,1.21464 C28.98438,46.844,28.42338,47.38781,27.73134,47.38781z"></path></g><g><path fill="#c7a349" d="M27.73134,57.71999H13.41809c-0.69204,0-1.25304-0.5438-1.25304-1.21464s0.561-1.21464,1.25304-1.21464 h14.31325c0.69204,0,1.25304,0.5438,1.25304,1.21464S28.42338,57.71999,27.73134,57.71999z"></path></g><g><path fill="#c7a349" d="M27.73134,68.05218H13.41809c-0.69204,0-1.25304-0.54381-1.25304-1.21464s0.561-1.21464,1.25304-1.21464 h14.31325c0.69204,0,1.25304,0.54381,1.25304,1.21464S28.42338,68.05218,27.73134,68.05218z"></path></g></g></svg>