<svg height="65" width="65" xmlns="http://www.w3.org/2000/svg" xmlns:xlink="http://www.w3.org/1999/xlink" version="1.1" id="Layer_1" x="0px" y="0px" viewBox="0 0 75 75" xml:space="preserve"><title>lights interior designs</title><g><g><g><g><g><path fill="#c7a349" d="M37.49987,73.05232c-3.12267,0-5.45573-0.95679-6.93419-2.84413       c-1.32088-1.68563-1.55483-3.67067-1.51855-5.03897l0.0318-1.19828h16.84254l0.03169,1.19828       c0.03617,1.36852-0.1979,3.35334-1.51867,5.03897C42.95626,72.09531,40.62309,73.05232,37.49987,73.05232z M31.57842,66.43262       c0.11255,0.74502,0.37535,1.55582,0.92499,2.25735c0.98804,1.26122,2.66908,1.90067,4.99646,1.90067       c2.32771,0,4.00897-0.63946,4.9969-1.90067c0.54964-0.70153,0.81244-1.51211,0.92499-2.25735H31.57842z"></path></g></g><g><g><path fill="#636462" d="M37.49987,22.3208c-5.61691,0-10.18656-4.56976-10.18656-10.18656S31.88296,1.94768,37.49987,1.94768       c5.6168,0,10.18645,4.56976,10.18645,10.18656S43.11668,22.3208,37.49987,22.3208z M37.49987,4.63315       c-4.13617,0-7.50109,3.36492-7.50109,7.50109s3.36492,7.50109,7.50109,7.50109c4.13606,0,7.50098-3.36492,7.50098-7.50109       S41.63593,4.63315,37.49987,4.63315z"></path></g></g><g><g><rect x="36.15714" y="8.98698" fill="#636462" width="2.68547" height="22.59877"></rect></g></g><g><g><path fill="#636462" d="M49.78468,38.17399H25.21562v-9.12465h24.56906V38.17399z M27.90109,35.48852h19.19812v-3.75372H27.90109       V35.48852z"></path></g></g><g><g><path fill="#636462" d="M59.08679,66.49993H15.91285c-1.34394,0-2.55795-0.68885-3.24735-1.84277       c-0.68973-1.15479-0.72076-2.55062-0.08294-3.73404l12.58312-23.36871c0.66044-1.22712,1.93674-1.98962,3.33061-1.98962       h18.00716c1.39388,0,2.67017,0.7625,3.33072,1.99028L62.4174,60.92334c0.63771,1.18342,0.6069,2.57904-0.08261,3.73317       C61.64539,65.81086,60.43116,66.49993,59.08679,66.49993z M28.49629,38.25026c-0.40431,0-0.77441,0.22116-0.96607,0.57718       L14.94678,62.1968c-0.18784,0.34858-0.17888,0.74327,0.02415,1.08311c0.20292,0.33962,0.54625,0.53456,0.94193,0.53456       h43.17394c0.39589,0,0.73944-0.19494,0.94258-0.53521c0.20281-0.33962,0.21155-0.73387,0.02382-1.08223L47.46953,38.82787       c-0.19177-0.35645-0.56187-0.57761-0.96607-0.57761H28.49629z"></path></g></g></g><g><rect x="15.86739" y="56.79395" fill="#636462" width="44.43986" height="2.68547"></rect></g></g></g></svg>