<svg width="65" height="65" viewBox="0 0 65 65" fill="none" xmlns="http://www.w3.org/2000/svg">
<path d="M60.7182 62.8758H4.28165C3.18887 62.8758 2.2998 61.9869 2.2998 60.8941V40.0931C2.2998 39.0003 3.18887 38.1113 4.28165 38.1113H60.7182C61.8109 38.1113 62.6999 39.0003 62.6999 40.0931V60.8941C62.6999 61.9869 61.8109 62.8758 60.7182 62.8758ZM4.62721 60.5484H60.3725V40.4387H4.62721V60.5484Z" fill="#636462"/>
<path d="M44.2219 39.2754H41.8945V61.7125H44.2219V39.2754Z" fill="#636462"/>
<path d="M23.1048 39.2754H20.7773V61.7125H23.1048V39.2754Z" fill="#636462"/>
<path d="M36.8972 57.5965H28.1022C26.9743 57.5965 26.0566 56.6788 26.0566 55.5509V50.7154C26.0566 49.5875 26.9743 48.6699 28.1022 48.6699H36.8972C38.0251 48.6699 38.9428 49.5875 38.9428 50.7154V55.5509C38.9428 56.6788 38.0251 57.5965 36.8972 57.5965ZM28.384 55.2691H36.6154V50.9973H28.384V55.2691Z" fill="#636462"/>
<path d="M28.8822 45.718H28.1832C27.5406 45.718 27.0195 45.197 27.0195 44.5543C27.0195 43.9117 27.5406 43.3906 28.1832 43.3906H28.8822C29.5249 43.3906 30.0459 43.9117 30.0459 44.5543C30.0459 45.197 29.5249 45.718 28.8822 45.718Z" fill="#C7A349"/>
<path d="M32.8489 45.718H32.15C31.5074 45.718 30.9863 45.197 30.9863 44.5543C30.9863 43.9117 31.5074 43.3906 32.15 43.3906H32.8489C33.4916 43.3906 34.0126 43.9117 34.0126 44.5543C34.0126 45.197 33.4916 45.718 32.8489 45.718Z" fill="#C7A349"/>
<path d="M36.8158 45.718H36.1168C35.4742 45.718 34.9531 45.197 34.9531 44.5543C34.9531 43.9117 35.4742 43.3906 36.1168 43.3906H36.8158C37.4585 43.3906 37.9795 43.9117 37.9795 44.5543C37.9795 45.197 37.4585 45.718 36.8158 45.718Z" fill="#C7A349"/>
<path d="M40.9209 20.4455H24.0794C22.9866 20.4455 22.0977 19.5566 22.0977 18.4638V18.2242C22.0977 17.8085 22.2254 17.4101 22.467 17.072L28.6968 8.35023V2.12402H31.0242V9.09611L24.5799 18.1181H40.4204L33.9761 9.09611V2.12402H36.3035V8.35023L42.5335 17.0723C42.7749 17.4101 42.9027 17.8085 42.9027 18.2242V18.4638C42.9026 19.5566 42.0137 20.4455 40.9209 20.4455Z" fill="#C7A349"/>
<path d="M60.7183 16.5638H47.8362C46.7435 16.5638 45.8545 15.6748 45.8545 14.5821V8.29922C45.8545 7.20645 46.7435 6.31738 47.8362 6.31738H60.7183C61.8111 6.31738 62.7001 7.20645 62.7001 8.29922V14.5821C62.7001 15.6748 61.8111 16.5638 60.7183 16.5638ZM48.1819 14.2364H60.3727V8.6448H48.1819V14.2364Z" fill="#636462"/>
<path d="M17.1636 16.5638H4.28165C3.18887 16.5638 2.2998 15.6748 2.2998 14.5821V8.29922C2.2998 7.20645 3.18887 6.31738 4.28165 6.31738H17.1636C18.2564 6.31738 19.1454 7.20645 19.1454 8.29922V14.5821C19.1454 15.6748 18.2564 16.5638 17.1636 16.5638ZM4.62721 14.2364H16.818V8.6448H4.62721V14.2364Z" fill="#636462"/>
<path d="M61.5363 46.0303H43.0586V48.3577H61.5363V46.0303Z" fill="#636462"/>
<path d="M21.9415 46.0303H3.46387V48.3577H21.9415V46.0303Z" fill="#636462"/>
</svg>
