<svg height="65" width="65" xmlns="http://www.w3.org/2000/svg" xmlns:xlink="http://www.w3.org/1999/xlink" version="1.1" id="Layer_1" x="0px" y="0px" viewBox="0 0 75 75" xml:space="preserve"><title>movable furniture desigs for home</title><g><g><g><g><g><path fill="#636462" d="M24.47379,56.6602H7.73112c-2.76393,0-5.01275-2.24871-5.01275-5.01275V25.78287       c0-2.0895,1.69984-3.78934,3.78934-3.78934h2.4466c2.0895,0,3.78934,1.69984,3.78934,3.78934v20.7358       c0,0.06403,0.05223,0.11615,0.11627,0.11615h11.61387c2.34935,0,4.26052,1.91117,4.26052,4.26041v1.50446       C28.7343,54.74892,26.82314,56.6602,24.47379,56.6602z M6.50771,24.679c-0.60865,0-1.10387,0.49522-1.10387,1.10387v25.86459       c0,1.28329,1.04399,2.32728,2.32728,2.32728h16.74267c0.86849,0,1.57505-0.70655,1.57505-1.57505v-1.50446       c0-0.86839-0.70655-1.57494-1.57505-1.57494H12.85991c-1.54489,0-2.80173-1.25685-2.80173-2.80162v-20.7358       c0-0.60864-0.49522-1.10387-1.10387-1.10387H6.50771z"></path></g><g><path fill="#636462" d="M5.64621,72.21071c-0.08305,0-0.16719-0.00765-0.25176-0.02371       c-0.72863-0.13823-1.20724-0.84085-1.0689-1.56947L7.2606,55.14165c0.13812-0.72874,0.84139-1.20713,1.56937-1.06901       c0.72863,0.13823,1.20724,0.84085,1.0689,1.56947L6.96381,71.11799C6.84165,71.76204,6.27846,72.21071,5.64621,72.21071z"></path></g><g><path fill="#636462" d="M24.47051,72.15848c-0.63793,0-1.20374-0.45632-1.32022-1.10627l-2.7624-15.42365       c-0.13069-0.72994,0.35513-1.42764,1.08507-1.55844c0.72972-0.13113,1.42775,0.35513,1.55844,1.08507l2.7624,15.42365       c0.13069,0.72993-0.35513,1.42764-1.08507,1.55843C24.62873,72.1516,24.54897,72.15848,24.47051,72.15848z"></path></g><g><rect x="36.27233" y="40.89967" fill="#636462" width="2.68547" height="30.23678"></rect></g><g><path fill="#636462" d="M43.64426,72.3614H31.58587c-0.74152,0-1.34274-0.60122-1.34274-1.34274       c0-0.74152,0.60121-1.34274,1.34274-1.34274h12.05839c0.74152,0,1.34274,0.60121,1.34274,1.34274       C44.987,71.76018,44.38578,72.3614,43.64426,72.3614z"></path></g><g><path fill="#636462" d="M49.18544,23.14974H26.0449c-1.58772,0-2.87954-1.2917-2.87954-2.87954V5.51814       c0-1.58783,1.29181-2.87954,2.87954-2.87954h23.14054c1.58772,0,2.87932,1.29171,2.87932,2.87954V20.2702       C52.06477,21.85803,50.77317,23.14974,49.18544,23.14974z M26.0449,5.32408c-0.10709,0-0.19407,0.08709-0.19407,0.19407       V20.2702c0,0.10698,0.08698,0.19407,0.19407,0.19407h23.14054c0.10687,0,0.19385-0.08709,0.19385-0.19407V5.51814       c0-0.10698-0.08698-0.19407-0.19385-0.19407H26.0449z"></path></g><g><path fill="#c7a349" d="M53.56813,42.24241H21.662c-1.26078,0-2.28663-1.02574-2.28663-2.28663v-3.87927       c0-1.26089,1.02585-2.28662,2.28663-2.28662h31.90613c1.26078,0,2.28662,1.02574,2.28662,2.28662v3.87927       C55.85476,41.21667,54.82891,42.24241,53.56813,42.24241z M22.06084,39.55694h31.10844v-3.08158H22.06084V39.55694z"></path></g><g><path fill="#636462" d="M44.17641,17.27461c-2.15266,0-3.27467-0.99689-4.17638-1.79785       c-0.759-0.67432-1.26056-1.11982-2.39218-1.11982c-1.13075,0-1.63165,0.44539-2.39022,1.11971       c-0.90106,0.80107-2.02263,1.79796-4.17398,1.79796c-2.16861,0-3.28603-1.04224-4.18381-1.87981       c-0.74742-0.69727-1.24111-1.15796-2.35175-1.15796v-2.68547c2.16861,0,3.28603,1.04224,4.18381,1.87981       c0.74742,0.69726,1.24111,1.15796,2.35175,1.15796c1.13031,0,1.63143-0.44539,2.38978-1.1196       c0.90106-0.80107,2.02262-1.79807,4.17441-1.79807c2.15222,0,3.27423,0.99678,4.17572,1.79763       c0.75922,0.67443,1.26078,1.12004,2.39284,1.12004c1.11348,0,1.60848-0.46091,2.35743-1.15861       c0.89887-0.83724,2.0176-1.87915,4.18818-1.87915v2.68547c-1.1137,0-1.6087,0.46102-2.35788,1.15872       C47.4655,16.23271,46.34678,17.27461,44.17641,17.27461z"></path></g><g><g><path fill="#636462" d="M67.26888,56.6602H50.52621c-2.34935,0-4.26052-1.91128-4.26052-4.26052v-1.50446        c0-2.34924,1.91117-4.26041,4.26052-4.26041h11.61387c0.06403,0,0.11626-0.05212,0.11626-0.11615v-20.7358        c0-2.0895,1.69984-3.78934,3.78933-3.78934h2.4466c2.0895,0,3.78934,1.69984,3.78934,3.78934v25.86459        C72.28162,54.41149,70.03281,56.6602,67.26888,56.6602z M50.52621,49.32029c-0.8685,0-1.57505,0.70655-1.57505,1.57494        v1.50446c0,0.86849,0.70655,1.57505,1.57505,1.57505h16.74267c1.28329,0,2.32727-1.04399,2.32727-2.32728V25.78287        c0-0.60864-0.49522-1.10387-1.10387-1.10387h-2.4466c-0.60864,0-1.10387,0.49522-1.10387,1.10387v20.7358        c0,1.54478-1.25684,2.80162-2.80173,2.80162H50.52621z"></path></g><g><path fill="#636462" d="M69.35379,72.21071c-0.63225,0-1.19543-0.44867-1.3176-1.09272l-2.93504-15.47588        c-0.13834-0.72863,0.34027-1.43124,1.06889-1.56947c0.7295-0.13703,1.43125,0.34038,1.56937,1.06901l2.93505,15.47588        c0.13834,0.72862-0.34027,1.43124-1.0689,1.56947C69.52097,72.20295,69.43684,72.21071,69.35379,72.21071z"></path></g><g><path fill="#636462" d="M50.52949,72.15848c-0.07846,0-0.15823-0.00688-0.23821-0.0212        c-0.72994-0.1308-1.21576-0.8285-1.08507-1.55843l2.7624-15.42365c0.13091-0.72994,0.82719-1.2162,1.55844-1.08507        c0.72994,0.1308,1.21576,0.8285,1.08507,1.55844l-2.7624,15.42365C51.73323,71.70216,51.16742,72.15848,50.52949,72.15848z"></path></g></g></g></g><g><g><path fill="#636462" d="M24.47379,56.6602H7.73112c-2.76393,0-5.01275-2.24871-5.01275-5.01275V25.78287      c0-2.0895,1.69984-3.78934,3.78934-3.78934h2.4466c2.0895,0,3.78934,1.69984,3.78934,3.78934v20.7358      c0,0.06403,0.05223,0.11615,0.11627,0.11615h11.61387c2.34935,0,4.26052,1.91117,4.26052,4.26041v1.50446      C28.7343,54.74892,26.82314,56.6602,24.47379,56.6602z M6.50771,24.679c-0.60865,0-1.10387,0.49522-1.10387,1.10387v25.86459      c0,1.28329,1.04399,2.32728,2.32728,2.32728h16.74267c0.86849,0,1.57505-0.70655,1.57505-1.57505v-1.50446      c0-0.86839-0.70655-1.57494-1.57505-1.57494H12.85991c-1.54489,0-2.80173-1.25685-2.80173-2.80162v-20.7358      c0-0.60864-0.49522-1.10387-1.10387-1.10387H6.50771z"></path></g><g><path fill="#636462" d="M5.64621,72.21071c-0.08305,0-0.16719-0.00765-0.25176-0.02371      c-0.72863-0.13823-1.20724-0.84085-1.0689-1.56947L7.2606,55.14165c0.13812-0.72874,0.84139-1.20713,1.56937-1.06901      c0.72863,0.13823,1.20724,0.84085,1.0689,1.56947L6.96381,71.11799C6.84165,71.76204,6.27846,72.21071,5.64621,72.21071z"></path></g><g><path fill="#636462" d="M24.47051,72.15848c-0.63793,0-1.20374-0.45632-1.32022-1.10627l-2.7624-15.42365      c-0.13069-0.72994,0.35513-1.42764,1.08507-1.55844c0.72972-0.13113,1.42775,0.35513,1.55844,1.08507l2.7624,15.42365      c0.13069,0.72993-0.35513,1.42764-1.08507,1.55843C24.62873,72.1516,24.54897,72.15848,24.47051,72.15848z"></path></g></g></g></g></svg>