<svg height="65" width="65" version="1.1" id="Layer_1" xmlns="http://www.w3.org/2000/svg" xlink="http://www.w3.org/1999/xlink" x="0px" y="0px" viewBox="0 0 75 75" space="preserve"><title>pooja mandir units interior designs</title><g><g><path fill="#c7a349" d="M52.48423,67.70006c-0.86616,0-1.56843-0.5933-1.56843-1.32506v-8.05769H25.40143V66.375 c0,0.73176-0.70227,1.32506-1.56843,1.32506s-1.56843-0.5933-1.56843-1.32506v-9.20892c0-0.15345,0.06522-1.49889,2.32328-1.49889 h27.14152c2.25819,0,2.32328,1.34544,2.32328,1.49889V66.375C54.05266,67.10676,53.35039,67.70006,52.48423,67.70006z"></path></g><g><g><path fill="#636462" d="M69.34661,69.02845H5.65339c-2.44403,0-4.43239-1.67951-4.43239-3.74399V18.53719 c0-0.73176,0.70214-1.32506,1.56843-1.32506h69.42114c0.86616,0,1.56843,0.5933,1.56843,1.32506v46.7476 C73.779,67.34904,71.79063,69.02845,69.34661,69.02845z M4.35786,19.86225v45.42221c0,0.60312,0.58114,1.09386,1.29553,1.09386 h63.69322c0.71426,0,1.29553-0.49053,1.29553-1.09354V19.86225H4.35786z"></path></g><g><path fill="#636462" d="M64.04346,74.3205h-53.0868c-1.86978,0-3.33444-1.46762-3.33444-3.34112v-3.09116 c0-0.73176,0.70227-1.32506,1.56843-1.32506s1.56843,0.5933,1.56843,1.32506v3.09116c0,0.38367,0.17563,0.62166,0.26396,0.69099 H63.9771c0.08833-0.06934,0.26395-0.30733,0.26395-0.69099v-3.09116c0-0.73176,0.70227-1.32506,1.56843-1.32506 s1.56843,0.5933,1.56843,1.32506v3.09116C67.37791,72.85287,65.91312,74.3205,64.04346,74.3205z"></path></g><g><path fill="#636462" d="M65.02884,19.86225H9.97129c-0.86616,0-1.56843-0.5933-1.56843-1.32506v-5.63312 c0-0.73176,0.70227-1.32506,1.56843-1.32506h55.05755c0.86616,0,1.56843,0.5933,1.56843,1.32506v5.63312 C66.59727,19.26895,65.895,19.86225,65.02884,19.86225z M11.53971,17.21213h51.9207v-2.983h-51.9207V17.21213z"></path></g><g><path fill="#636462" d="M56.66236,14.22913h-38.3246c-0.86629,0-1.56843-0.5933-1.56843-1.32506V8.2311 c0-0.73187,0.70214-1.32506,1.56843-1.32506h38.3246c0.86616,0,1.56843,0.59319,1.56843,1.32506v4.67297 C58.23079,13.63583,57.52852,14.22913,56.66236,14.22913z M19.90619,11.57901h35.18775V9.55616H19.90619V11.57901z"></path></g><g><g><path fill="#636462" d="M71.36687,50.66438H57.92139c-0.56212,0-1.08136-0.25417-1.36089-0.66631s-0.27647-0.91906,0.00792-1.32883 c1.1684-1.68415,1.17453-3.8075,0.01633-5.68014c-1.15947-1.87458-3.22109-3.08372-5.51502-3.23436 c-0.75843-0.04982-1.36497-0.552-1.43951-1.19156c-0.25196-2.16843-2.19437-3.98661-4.72328-4.4215 c-0.67891-0.11678-1.18666-0.59599-1.2492-1.17884c-0.29115-2.71611-3.0507-4.84367-6.28226-4.84367 c-3.23131,0-5.99073,2.12756-6.28188,4.84367c-0.06254,0.58295-0.57042,1.06227-1.24946,1.17895 c-2.52917,0.43446-4.47157,2.25275-4.72366,4.42183c-0.07429,0.63945-0.68095,1.14174-1.43926,1.19156 c-2.29405,0.15075-4.3558,1.36-5.51515,3.23479c-1.15781,1.87231-1.15143,3.99534,0.01711,5.67916 c0.28425,0.40977,0.28731,0.9168,0.00779,1.32894c-0.27953,0.41203-0.79864,0.66631-1.36089,0.66631H3.96128 c-0.86616,0-1.56843-0.5933-1.56843-1.32506c0-0.73176,0.70227-1.32506,1.56843-1.32506h10.53008 c-0.64024-2.02727-0.3436-4.24929,0.89449-6.25144c1.4584-2.35843,3.95234-3.98521,6.82255-4.49979 c0.73214-2.53959,2.99364-4.63059,5.92857-5.47137c0.91555-3.61243,4.7765-6.32261,9.2385-6.32261 c4.46213,0,8.32333,2.7104,9.23889,6.32282c2.93467,0.841,5.19592,2.93167,5.92806,5.47062 c2.86983,0.51447,5.36415,2.14125,6.82256,4.49925c1.23861,2.00258,1.5355,4.22492,0.895,6.25252h11.10688 c0.86616,0,1.56843,0.5933,1.56843,1.32506C72.9353,50.07108,72.23303,50.66438,71.36687,50.66438z"></path></g></g><g><path fill="#636462" d="M33.13111,9.08136c-0.27366,0-0.55089-0.0606-0.80297-0.18785 c-0.74363-0.37537-0.98614-1.18887-0.54183-1.8171c0.90126-1.27427,1.59179-2.33568,2.14663-3.18853 c1.38961-2.13586,2.08715-3.20805,3.56432-3.20837c0.00038,0,0.00076,0,0.00102,0c1.4801,0,2.14344,1.01795,3.59674,3.24816 c0.54987,0.8438,1.23414,1.89388,2.11996,3.15036c0.44329,0.62867,0.19937,1.44195-0.54489,1.81646 C41.92594,9.2691,40.96316,9.06293,40.52,8.43415c-0.91313-1.29508-1.6117-2.36706-2.17292-3.22832 c-0.29306-0.44967-0.59097-0.90699-0.84714-1.27729c-0.24838,0.36016-0.53557,0.80164-0.81804,1.23588 c-0.56697,0.87151-1.27256,1.95599-2.20292,3.27135C34.18528,8.85103,33.6649,9.08136,33.13111,9.08136z"></path></g></g></g></svg>