<svg width="65" height="65" viewBox="0 0 65 65" fill="none" xmlns="http://www.w3.org/2000/svg">
<path d="M61.353 31.9961H43.9014V34.3235H61.353V31.9961Z" fill="#636462"/>
<path d="M61.353 44.9863H43.9014V47.3137H61.353V44.9863Z" fill="#636462"/>
<path d="M60.5357 62.6725H41.8206V4.65553H22.8213V2.32812H42.1663C43.259 2.32812 44.148 3.2172 44.148 4.30997V14.4114H60.5357C61.6285 14.4114 62.5174 15.3004 62.5174 16.3932V60.6908C62.5174 61.7836 61.6285 62.6725 60.5357 62.6725ZM44.148 60.3451H60.19V16.7388H44.148V60.3451Z" fill="#636462"/>
<path d="M23.1637 62.6725H4.07647C2.9837 62.6725 2.09473 61.7836 2.09473 60.6908V4.30997C2.09473 3.2172 2.9837 2.32812 4.07647 2.32812H22.8208V4.65553H4.42213V60.3451H23.1637V62.6725Z" fill="#636462"/>
<path d="M43.6236 60.3447H23.1641V62.6721H43.6236V60.3447Z" fill="#636462"/>
<path d="M24.3919 3.38477H22.0645V61.2765H24.3919V3.38477Z" fill="#636462"/>
<path d="M17.3161 31.8031C16.6734 31.8031 16.1523 31.282 16.1523 30.6393V24.0377C16.1523 23.3951 16.6734 22.874 17.3161 22.874C17.9587 22.874 18.4798 23.3951 18.4798 24.0377V30.6393C18.4798 31.282 17.9587 31.8031 17.3161 31.8031Z" fill="#C7A349"/>
<path d="M29.1149 31.8031C28.4722 31.8031 27.9512 31.282 27.9512 30.6393V24.0377C27.9512 23.3951 28.4722 22.874 29.1149 22.874C29.7575 22.874 30.2786 23.3951 30.2786 24.0377V30.6393C30.2786 31.282 29.7575 31.8031 29.1149 31.8031Z" fill="#C7A349"/>
</svg>
