<svg height="65" width="65" xmlns="http://www.w3.org/2000/svg" xmlns:xlink="http://www.w3.org/1999/xlink" version="1.1" id="Layer_1" x="0px" y="0px" viewBox="0 0 75 75" xml:space="preserve"><title>study table designs for home interiors</title><g><g><g><g><path fill="#636462" d="M45.48134,32.11283H3.7711c-0.74152,0-1.34274-0.60121-1.34274-1.34273s0.60121-1.34274,1.34274-1.34274      h41.71024c0.74152,0,1.34274,0.60122,1.34274,1.34274S46.22286,32.11283,45.48134,32.11283z"></path></g><g><path fill="#636462" d="M71.2289,32.11283h-8.82547c-0.74152,0-1.34274-0.60121-1.34274-1.34273s0.60122-1.34274,1.34274-1.34274      h8.82547c0.74152,0,1.34274,0.60122,1.34274,1.34274S71.97042,32.11283,71.2289,32.11283z"></path></g><g><path fill="#636462" d="M6.50837,72.33293c-0.74152,0-1.34273-0.60122-1.34273-1.34274V30.7701      c0-0.74163,0.60121-1.34274,1.34273-1.34274s1.34274,0.6011,1.34274,1.34274v40.2201      C7.8511,71.73171,7.24989,72.33293,6.50837,72.33293z"></path></g><g><path fill="#636462" d="M68.58627,72.33293c-0.74152,0-1.34274-0.60122-1.34274-1.34274V30.7701      c0-0.74163,0.60121-1.34274,1.34274-1.34274c0.74152,0,1.34274,0.6011,1.34274,1.34274v40.2201      C69.929,71.73171,69.32778,72.33293,68.58627,72.33293z"></path></g><g><path fill="#636462" d="M27.6029,49.06617H5.16563V29.42736H27.6029V49.06617z M7.8511,46.3807h17.06633V32.11283H7.8511V46.3807z"></path></g><g><path fill="#636462" d="M25.31627,63.55412H5.16563V46.45315H27.6029v14.81434      C27.6029,62.52839,26.57705,63.55412,25.31627,63.55412z M7.8511,60.86865h17.06633V49.13862H7.8511V60.86865z"></path></g><g><path fill="#c7a349" d="M17.86239,40.5895h-2.95625c-0.74152,0-1.34274-0.60122-1.34274-1.34274s0.60121-1.34274,1.34274-1.34274      h2.95625c0.74152,0,1.34274,0.60122,1.34274,1.34274S18.60391,40.5895,17.86239,40.5895z"></path></g><g><path fill="#c7a349" d="M17.86239,56.34643h-2.95625c-0.74152,0-1.34274-0.60122-1.34274-1.34274s0.60121-1.34274,1.34274-1.34274      h2.95625c0.74152,0,1.34274,0.60122,1.34274,1.34274S18.60391,56.34643,17.86239,56.34643z"></path></g><g><path fill="#636462" d="M61.06201,50.83463H44.13205V14.95919c0-0.98716,0.80315-1.79031,1.79031-1.79031H61.2858      c0.98716,0,1.79031,0.80315,1.79031,1.79031v33.86134C63.07611,49.93106,62.17265,50.83463,61.06201,50.83463z       M46.81752,48.14916h13.57312V15.85435H46.81752V48.14916z"></path></g><g><path fill="#636462" d="M45.26651,50.83463H34.19157c-0.74152,0-1.34274-0.60122-1.34274-1.34274s0.60122-1.34274,1.34274-1.34274      h11.07494c0.74152,0,1.34273,0.60122,1.34273,1.34274S46.00803,50.83463,45.26651,50.83463z"></path></g><g><path fill="#636462" d="M49.90905,68.25719c-0.74152,0-1.34274-0.60121-1.34274-1.34274V49.4919      c0-0.74152,0.60122-1.34274,1.34274-1.34274s1.34274,0.60122,1.34274,1.34274v17.42255      C51.25178,67.65598,50.65057,68.25719,49.90905,68.25719z"></path></g><g><path fill="#636462" d="M58.77713,72.33293c-0.74152,0-1.34274-0.60122-1.34274-1.34274v-4.07574      c0-0.07463-0.06076-0.13528-0.13528-0.13528H42.51876c-0.07452,0-0.13528,0.06065-0.13528,0.13528v4.07574      c0,0.74152-0.60121,1.34274-1.34274,1.34274c-0.74152,0-1.34273-0.60122-1.34273-1.34274v-4.07574      c0-1.55537,1.26537-2.82075,2.82075-2.82075h14.78036c1.55538,0,2.82075,1.26537,2.82075,2.82075v4.07574      C60.11987,71.73171,59.51865,72.33293,58.77713,72.33293z"></path></g><g><path fill="#636462" d="M49.90905,72.33293c-0.74152,0-1.34274-0.60122-1.34274-1.34274v-5.55376      c0-0.74152,0.60122-1.34274,1.34274-1.34274s1.34274,0.60122,1.34274,1.34274v5.55376      C51.25178,71.73171,50.65057,72.33293,49.90905,72.33293z"></path></g><g><path fill="#636462" d="M37.94922,49.4919h-2.68547v-8.37548c0-2.37033,1.92843-4.29876,4.29898-4.29876h5.91206v2.68547h-5.91206      c-0.88969,0-1.61351,0.72371-1.61351,1.61329V49.4919z"></path></g><g><path fill="#636462" d="M35.12519,24.92404H6.76625c-1.26078,0-2.28663-1.02574-2.28663-2.28663V4.9537      c0-1.26089,1.02585-2.28663,2.28663-2.28663h28.35894c1.261,0,2.28685,1.02574,2.28685,2.28663v17.68372      C37.41204,23.89831,36.38619,24.92404,35.12519,24.92404z M7.16509,22.23857h27.56147V5.35254H7.16509V22.23857z"></path></g><g><path fill="#636462" d="M16.4978,31.19211c-0.74152,0-1.34273-0.60122-1.34273-1.34274v-6.26806      c0-0.74152,0.60122-1.34274,1.34273-1.34274c0.74152,0,1.34274,0.60122,1.34274,1.34274v6.26806      C17.84053,30.59089,17.23932,31.19211,16.4978,31.19211z"></path></g><g><path fill="#636462" d="M25.39386,31.35689c-0.74152,0-1.34274-0.60121-1.34274-1.34274v-6.43285      c0-0.74152,0.60121-1.34274,1.34274-1.34274c0.74152,0,1.34274,0.60122,1.34274,1.34274v6.43285      C26.73659,30.75567,26.13538,31.35689,25.39386,31.35689z"></path></g></g></g></g></svg>