                <svg height="65" width="65" xmlns="http://www.w3.org/2000/svg" xmlns:xlink="http://www.w3.org/1999/xlink" version="1.1" id="Layer_1" x="0px" y="0px" viewBox="0 0 75 75" xml:space="preserve"><title>wall paint designs</title><g><g id="paint_works_1_"><g><path fill="#636462" d="M40.69146,72.39953h-6.4948c-1.93423,0-3.50774-1.57352-3.50774-3.50763V46.4201h-0.82216v-2.68547h3.50763     V68.8919c0,0.45326,0.3689,0.82216,0.82227,0.82216h6.4948c0.45337,0,0.82227-0.3689,0.82227-0.82216V43.73463h3.50763v2.68547     H44.1992v22.4718C44.1992,70.82601,42.62568,72.39953,40.69146,72.39953z"></path></g><g><rect x="32.03164" y="43.73463" fill="#636462" width="10.82482" height="2.68547"></rect></g><g><path fill="#636462" d="M58.01108,24.77068H16.87703c-3.12791,0-5.67264-2.54473-5.67264-5.67275V8.27322     c0-3.12802,2.54473-5.67275,5.67264-5.67275h41.13405c3.12791,0,5.67264,2.54473,5.67264,5.67275v10.82471     C63.68372,22.22595,61.13899,24.77068,58.01108,24.77068z M16.87703,5.28594c-1.64717,0-2.98717,1.34011-2.98717,2.98728     v10.82471c0,1.64717,1.34,2.98728,2.98717,2.98728h41.13405c1.64717,0,2.98717-1.34011,2.98717-2.98728V8.27322     c0-1.64717-1.34-2.98728-2.98717-2.98728H16.87703z"></path></g><g><path fill="#c7a349" d="M8.21722,18.01548L8.21722,18.01548c-0.67978,0-1.23084-0.55107-1.23084-1.23084v-6.19813     c0-0.67977,0.55107-1.23084,1.23084-1.23084h0c0.67977,0,1.23084,0.55107,1.23084,1.23084v6.19813     C9.44806,17.46441,8.89699,18.01548,8.21722,18.01548z"></path></g><g><rect x="65.32816" y="9.35567" fill="#636462" width="2.68547" height="8.65981"></rect></g><g><path fill="#c7a349" d="M7.66168,52.77596c-2.88884-0.28181-5.00521-2.87881-5.00521-5.78136l0-30.99563     c0-0.67977,0.55107-1.23084,1.23084-1.23084h0c0.67977,0,1.23084,0.55107,1.23084,1.23084l-0.00001,31.1206     c0,1.49882,1.00995,2.87577,2.48124,3.16174c1.97836,0.38452,3.7169-1.12817,3.7169-3.03905l0-10.6252     c0-2.33751,1.70441-4.42888,4.03087-4.65582c2.6694-0.2604,4.92573,1.83938,4.92573,4.45631v4.3298     c0,0.51511,0.41906,0.93427,0.93406,0.93427c0.51511,0,0.93417-0.41917,0.93417-0.93427V37.5     c0-3.84572,2.7165-5.56064,8.80809-5.56064c0.01005,0,1.228-0.00852,2.39262-0.36628     c1.78889-0.54942,1.78889-1.37814,1.78889-1.65045v-0.93406c0-0.67977,0.55107-1.23084,1.23084-1.23084l0,0     c0.67978,0,1.23084,0.55107,1.23084,1.23084v0.93406c0,3.53517-4.17583,4.4784-6.64319,4.4784     c-6.34641,0-6.34641,1.86484-6.34641,3.09896l0,3.1501c0,1.62051-1.09527,3.09513-2.68285,3.42015     c-2.18262,0.44683-4.10874-1.21739-4.10874-3.3229l0-4.21629c0-1.00487-0.68417-1.93848-1.67566-2.10186     c-1.26186-0.20794-2.35757,0.76461-2.35757,1.98836v10.82471C13.77796,50.49171,10.97626,53.0993,7.66168,52.77596z"></path></g><g><rect x="32.03164" y="48.06442" fill="#636462" width="6.49491" height="2.68547"></rect></g><g><path fill="#636462" d="M38.78684,45.07736h-2.68547v-2.48222c0-2.33187,1.39923-4.39886,3.56467-5.2656l28.61169-11.87634     c0.17221-0.08611,0.33055-0.16434,0.47621-0.23647c0.34409-0.17046,0.69682-0.34508,0.90313-0.46244     c0.00098-0.07758,0.00098-0.16522,0.00098-0.24389v-8.65981c0-0.45348-0.36879-0.82238-0.82217-0.82238h-2.165v-2.68547h2.165     c1.93412,0,3.50764,1.57352,3.50764,3.50785v8.65981c0,1.84364-0.53664,2.19134-2.39809,3.11294     c-0.15462,0.07649-0.32388,0.16041-0.50909,0.25286l-0.08567,0.03934L40.67987,39.81635     c-1.15621,0.46288-1.89303,1.55101-1.89303,2.77879V45.07736z"></path></g></g></g></svg>
