<svg height="65" width="65" xmlns="http://www.w3.org/2000/svg" xmlns:xlink="http://www.w3.org/1999/xlink" version="1.1" id="Layer_1" x="0px" y="0px" viewBox="0 0 75 75" xml:space="preserve"><title>wallpaper designs</title><g><g id="wallpaper_2_"><g><path fill="#636462" d="M72.22666,72.49645H42.20053c-0.93932,0-1.7008-0.76147-1.7008-1.7008V44.2706     c0-0.74157,0.60116-1.34273,1.34274-1.34273l0,0c0.74157,0,1.34274,0.60116,1.34274,1.34273v25.54038h29.04145V72.49645z"></path></g><g><path fill="#636462" d="M70.79565,72.49602h-0.98467v-67.307H5.18902l0,25.56361c0,3.31096,2.47357,6.22387,5.77521,6.47213     c3.65749,0.27501,6.72314-2.61548,6.7377-6.21262c0.00957-2.36424-1.99257-4.17402-4.35589-4.10743     c-3.311,0.09329-3.81454,1.90479-3.81454,2.99597c0,2.46605,1.53429,2.99973,1.91401,2.99973v2.68547     c-1.90986,0-4.59948-1.76387-4.59948-5.68521c0-2.61144,1.7583-5.65932,6.70751-5.68504     c3.6194-0.01881,6.66105,2.74217,6.82457,6.35793c0.24087,5.32625-4.20649,9.69898-9.55731,9.3334     c-4.74198-0.32399-8.31725-4.48193-8.31725-9.23497L2.50354,4.20434c0-0.93933,0.76147-1.7008,1.7008-1.7008h66.59131     c0.93932,0,1.7008,0.76147,1.7008,1.7008v66.59087C72.49645,71.73454,71.73498,72.49602,70.79565,72.49602z"></path></g><g><path fill="#636462" d="M41.84247,39.92835H11.4455v-2.68547h30.39698c2.85123,0,5.17086-2.31963,5.17086-5.17097     s-2.31963-5.17097-5.17086-5.17097H13.61673v-2.68547h28.22574c4.33198,0,7.85633,3.52446,7.85633,7.85644     S46.17445,39.92835,41.84247,39.92835z"></path></g><g><path fill="#c7a349" d="M11.4455,12.56444c-1.50566,0-2.8178-1.26887-2.96247-1.41354l1.58248-1.58226l-0.79124,0.79113     l0.78807-0.79441c0.31208,0.30705,0.96749,0.76119,1.38317,0.76119c0.41567,0,1.07108-0.45413,1.38317-0.76119l1.57931,1.58554     C14.2633,11.29558,12.95116,12.56444,11.4455,12.56444z"></path></g><g><path fill="#636462" d="M24.4728,12.34065c-1.41551,0-2.66624-1.21008-2.80425-1.34798L22.9325,9.7249     c0.32344,0.31907,1.02748,0.82544,1.5403,0.82544s1.21685-0.50637,1.54008-0.82544l1.26406,1.26777     C27.13904,11.13057,25.88842,12.34065,24.4728,12.34065z"></path></g><g><path fill="#636462" d="M37.5,12.34065c-1.41562,0-2.66624-1.21008-2.80414-1.34798l1.26406-1.26777     c0.32323,0.31907,1.02727,0.82544,1.54008,0.82544s1.21685-0.50637,1.5403-0.82544l1.26395,1.26777     C40.16624,11.13057,38.91551,12.34065,37.5,12.34065z"></path></g><g><path fill="#c7a349" d="M50.52731,12.56444c-1.50566,0-2.8178-1.26887-2.96247-1.41354l1.58248-1.58226l-0.79124,0.79113     l0.78807-0.79441c0.31208,0.30705,0.96749,0.76119,1.38316,0.76119c0.41567,0,1.07109-0.45413,1.38317-0.76119l1.57931,1.58554     C53.3451,11.29558,52.03297,12.56444,50.52731,12.56444z"></path></g><g><path fill="#636462" d="M63.5545,12.34065c-1.41562,0-2.66624-1.21008-2.80414-1.34798l1.26406-1.26777     c0.32323,0.31907,1.02727,0.82544,1.54008,0.82544c0.51281,0,1.21685-0.50637,1.5403-0.82544l1.26395,1.26777     C66.22074,11.13057,64.97002,12.34065,63.5545,12.34065z"></path></g><g><path fill="#636462" d="M17.9591,19.93987c-1.4154,0-2.66613-1.21008-2.80414-1.34798l1.26395-1.26777     c0.32345,0.31907,1.02748,0.82544,1.54019,0.82544c0.51281,0,1.21685-0.50637,1.5403-0.82544l1.26395,1.26777     C20.62533,18.72979,19.37461,19.93987,17.9591,19.93987z"></path></g><g><path fill="#c7a349" d="M30.9864,20.16366c-1.50566,0-2.8178-1.26887-2.96247-1.41354l1.58248-1.58226l-0.79124,0.79113     l0.78807-0.79441c0.31208,0.30705,0.96749,0.76119,1.38317,0.76119c0.41567,0,1.07109-0.45414,1.38317-0.76119l1.57931,1.58554     C33.8042,18.89479,32.49206,20.16366,30.9864,20.16366z"></path></g><g><path fill="#636462" d="M44.01371,19.93987c-1.41551,0-2.66624-1.21008-2.80425-1.34798l1.26395-1.26777     c0.32345,0.31907,1.02748,0.82544,1.5403,0.82544c0.51271,0,1.21675-0.50637,1.54019-0.82544l1.26395,1.26777     C46.67984,18.72979,45.42911,19.93987,44.01371,19.93987z"></path></g><g><path fill="#636462" d="M57.0409,19.93987c-1.41551,0-2.66624-1.21008-2.80425-1.34798l1.26395-1.26777     c0.32344,0.31907,1.02748,0.82544,1.5403,0.82544s1.21685-0.50637,1.5403-0.82544l1.26395,1.26777     C59.70714,18.72979,58.45641,19.93987,57.0409,19.93987z"></path></g><g><path fill="#c7a349" d="M50.52731,27.76288v-2.23789c0.41567,0,1.07109-0.45414,1.38317-0.76119l1.57931,1.58554     C53.3451,26.49401,52.03297,27.76288,50.52731,27.76288z"></path></g><g><path fill="#c7a349" d="M63.5545,27.76288c-1.50566,0-2.8178-1.26887-2.96237-1.41354l1.58248-1.58226l-0.79124,0.79113     l0.78807-0.79441c0.31208,0.30705,0.96749,0.76119,1.38306,0.76119c0.41567,0,1.07108-0.45414,1.38316-0.76119l1.57931,1.58554     C66.3723,26.49401,65.06017,27.76288,63.5545,27.76288z"></path></g><g><path fill="#636462" d="M57.0409,35.1383c-1.41551,0-2.66624-1.21008-2.80425-1.34798l1.26395-1.26777     c0.32344,0.31907,1.02748,0.82544,1.5403,0.82544s1.21685-0.50637,1.5403-0.82544l1.26395,1.26777     C59.70714,33.92822,58.45641,35.1383,57.0409,35.1383z"></path></g><g><path fill="#c7a349" d="M50.52731,42.96131c-1.50566,0-2.8178-1.26887-2.96247-1.41354l1.58248-1.58226l-0.79124,0.79113     l0.78807-0.79441c0.31208,0.30706,0.96749,0.76119,1.38316,0.76119c0.41567,0,1.07109-0.45413,1.38317-0.76119l1.57931,1.58554     C53.3451,41.69244,52.03297,42.96131,50.52731,42.96131z"></path></g><g><path fill="#636462" d="M63.5545,42.73752c-1.41562,0-2.66624-1.21008-2.80414-1.34798l1.26406-1.26777     c0.32323,0.31907,1.02727,0.82544,1.54008,0.82544c0.51281,0,1.21685-0.50637,1.5403-0.82544l1.26395,1.26777     C66.22074,41.52744,64.97002,42.73752,63.5545,42.73752z"></path></g><g><path fill="#636462" d="M44.01371,50.33673c-1.41551,0-2.66624-1.20964-2.80414-1.34776l1.26384-1.26799     c0.32334,0.31907,1.02748,0.82544,1.5403,0.82544s1.21685-0.50637,1.54019-0.82544l1.26384,1.26799     C46.67984,49.12709,45.42911,50.33673,44.01371,50.33673z"></path></g><g><path fill="#636462" d="M57.0409,50.33673c-1.41551,0-2.66624-1.20964-2.80414-1.34776l1.26384-1.26799     c0.32333,0.31907,1.02748,0.82544,1.5403,0.82544s1.21696-0.50637,1.5403-0.82544l1.26384,1.26799     C59.70714,49.12709,58.45641,50.33673,57.0409,50.33673z"></path></g><g><path fill="#636462" d="M70.06821,19.93987c-1.41551,0-2.66624-1.21008-2.80425-1.34798l1.26395-1.26777     c0.32345,0.31907,1.02749,0.82544,1.54031,0.82544c0.18533,0,0.41905-0.06993,0.67606-0.20193l0.81889,1.59188     C71.04675,19.80525,70.54376,19.93987,70.06821,19.93987z"></path></g><g><path fill="#636462" d="M70.06821,35.1383c-1.41551,0-2.66624-1.21008-2.80425-1.34798l1.26395-1.26777     c0.32345,0.31907,1.02749,0.82544,1.54031,0.82544c0.18533,0,0.41905-0.06993,0.67606-0.20193l0.81889,1.59188     C71.04675,35.00368,70.54376,35.1383,70.06821,35.1383z"></path></g><g><path fill="#636462" d="M70.06821,50.33673c-1.41551,0-2.66624-1.20964-2.80415-1.34776l1.26384-1.26799     c0.32334,0.31907,1.02749,0.82544,1.54031,0.82544c0.18521,0,0.41917-0.06993,0.6765-0.20193l0.81802,1.59232     C71.0462,50.20211,70.54343,50.33673,70.06821,50.33673z"></path></g><g><path fill="#636462" d="M50.52731,58.15974c-1.50555,0-2.8178-1.26865-2.96236-1.41311l1.57909-1.58576     c0.31208,0.30684,0.96761,0.76097,1.38327,0.76097c0.41567,0,1.07119-0.45413,1.38327-0.76097l1.57909,1.58576     C53.3451,56.89109,52.03286,58.15974,50.52731,58.15974z"></path></g><g><path fill="#c7a349" d="M63.5545,58.15974c-1.50566,0-2.81769-1.26865-2.96237-1.41332l1.5792-1.58554     c0.31208,0.30684,0.96749,0.76097,1.38317,0.76097c0.41567,0,1.07119-0.45413,1.38327-0.76097l1.57909,1.58576     C66.3723,56.89109,65.06005,58.15974,63.5545,58.15974z"></path></g><g><path fill="#636462" d="M44.01371,65.53517c-1.41551,0-2.66624-1.20965-2.80414-1.34776l1.26384-1.26799     c0.32334,0.31907,1.02748,0.82544,1.5403,0.82544s1.21685-0.50637,1.54019-0.82544l1.26384,1.26799     C46.67984,64.32552,45.42911,65.53517,44.01371,65.53517z"></path></g><g><path fill="#c7a349" d="M57.0409,65.75896c-1.50555,0-2.8178-1.26865-2.96236-1.41311l1.57909-1.58575     c0.31208,0.30684,0.9676,0.76097,1.38327,0.76097s1.07119-0.45413,1.38327-0.76097l1.57909,1.58575     C59.8587,64.49031,58.54646,65.75896,57.0409,65.75896z"></path></g><g><path fill="#636462" d="M70.06821,65.53517c-1.41551,0-2.66624-1.20965-2.80415-1.34776l1.26384-1.26799     c0.32334,0.31907,1.02749,0.82544,1.54031,0.82544c0.18554,0,0.41938-0.06971,0.67606-0.20171l0.81889,1.59188     C71.04707,65.40054,70.54409,65.53517,70.06821,65.53517z"></path></g><g><path fill="#636462" d="M4.9319,19.93987c-0.47566,0-0.97864-0.13462-1.49506-0.40037l0.81888-1.59188     c0.25701,0.132,0.49074,0.20193,0.67618,0.20193c0.53478,0,1.28023-0.56559,1.53822-0.82347l1.26603,1.26581     C7.59814,18.72979,6.34741,19.93987,4.9319,19.93987z"></path></g></g></g></svg>